%TF.GenerationSoftware,KiCad,Pcbnew,9.0.2+dfsg-1*%
%TF.CreationDate,2025-12-26T17:01:31-05:00*%
%TF.ProjectId,polyphloisboisterous030,706f6c79-7068-46c6-9f69-73626f697374,rev?*%
%TF.SameCoordinates,Original*%
%TF.FileFunction,Copper,L1,Top*%
%TF.FilePolarity,Positive*%
%FSLAX46Y46*%
G04 Gerber Fmt 4.6, Leading zero omitted, Abs format (unit mm)*
G04 Created by KiCad (PCBNEW 9.0.2+dfsg-1) date 2025-12-26 17:01:31*
%MOMM*%
%LPD*%
G01*
G04 APERTURE LIST*
%TA.AperFunction,SMDPad,CuDef*%
%ADD10R,1.800000X1.325000*%
%TD*%
%TA.AperFunction,ComponentPad*%
%ADD11C,1.300000*%
%TD*%
%TA.AperFunction,ComponentPad*%
%ADD12R,1.300000X1.300000*%
%TD*%
%TA.AperFunction,SMDPad,CuDef*%
%ADD13R,1.325000X1.800000*%
%TD*%
%TA.AperFunction,ComponentPad*%
%ADD14R,1.500000X2.400000*%
%TD*%
%TA.AperFunction,ComponentPad*%
%ADD15O,1.500000X2.400000*%
%TD*%
%TA.AperFunction,ViaPad*%
%ADD16C,0.600000*%
%TD*%
%TA.AperFunction,Conductor*%
%ADD17C,0.500000*%
%TD*%
%TA.AperFunction,Conductor*%
%ADD18C,1.300000*%
%TD*%
%TA.AperFunction,Conductor*%
%ADD19C,0.200000*%
%TD*%
%TA.AperFunction,Conductor*%
%ADD20C,1.000000*%
%TD*%
G04 APERTURE END LIST*
D10*
%TO.P,C9,1,1*%
%TO.N,VCC*%
X186000000Y-70525000D03*
%TO.P,C9,2,2*%
%TO.N,GND*%
X186000000Y-67400000D03*
%TD*%
D11*
%TO.P,U1,A1,BR*%
%TO.N,/{slash}BR_30*%
X160760000Y-63980000D03*
%TO.P,U1,A2,A0*%
%TO.N,/A0*%
X160760000Y-61440000D03*
%TO.P,U1,A3,A30*%
%TO.N,unconnected-(U1A-A30-PadA3)*%
X160760000Y-58900000D03*
%TO.P,U1,A4,A28*%
%TO.N,unconnected-(U1A-A28-PadA4)*%
X160760000Y-56360000D03*
%TO.P,U1,A5,A26*%
%TO.N,unconnected-(U1A-A26-PadA5)*%
X160760000Y-53820000D03*
%TO.P,U1,A6,A24*%
%TO.N,unconnected-(U1A-A24-PadA6)*%
X160760000Y-51280000D03*
%TO.P,U1,A7,A23*%
%TO.N,/A23*%
X160760000Y-48740000D03*
%TO.P,U1,A8,A21*%
%TO.N,/A21*%
X160760000Y-46200000D03*
%TO.P,U1,A9,A19*%
%TO.N,/A19*%
X160760000Y-43660000D03*
%TO.P,U1,A10,A17*%
%TO.N,/A17*%
X160760000Y-41120000D03*
%TO.P,U1,A11,A15*%
%TO.N,/A15*%
X160760000Y-38580000D03*
%TO.P,U1,A12,A13*%
%TO.N,/A13*%
X160760000Y-36040000D03*
%TO.P,U1,A13,A10*%
%TO.N,/A10*%
X160760000Y-33500000D03*
%TO.P,U1,B1,RMC*%
%TO.N,unconnected-(U1A-RMC-PadB1)*%
X163300000Y-63980000D03*
%TO.P,U1,B2,BG*%
%TO.N,unconnected-(U1A-BG-PadB2)*%
X163300000Y-61440000D03*
%TO.P,U1,B3,A31*%
%TO.N,unconnected-(U1A-A31-PadB3)*%
X163300000Y-58900000D03*
%TO.P,U1,B4,A29*%
%TO.N,unconnected-(U1A-A29-PadB4)*%
X163300000Y-56360000D03*
%TO.P,U1,B5,A27*%
%TO.N,unconnected-(U1A-A27-PadB5)*%
X163300000Y-53820000D03*
%TO.P,U1,B6,A25*%
%TO.N,unconnected-(U1A-A25-PadB6)*%
X163300000Y-51280000D03*
%TO.P,U1,B7,A22*%
%TO.N,/A22*%
X163300000Y-48740000D03*
%TO.P,U1,B8,A20*%
%TO.N,/A20*%
X163300000Y-46200000D03*
%TO.P,U1,B9,A16*%
%TO.N,/A16*%
X163300000Y-43660000D03*
%TO.P,U1,B10,A14*%
%TO.N,/A14*%
X163300000Y-41120000D03*
%TO.P,U1,B11,A12*%
%TO.N,/A12*%
X163300000Y-38580000D03*
%TO.P,U1,B12,A8*%
%TO.N,/A8*%
X163300000Y-36040000D03*
%TO.P,U1,B13,A7*%
%TO.N,/A7*%
X163300000Y-33500000D03*
%TO.P,U1,C1,FC1*%
%TO.N,/FC1*%
X165840000Y-63980000D03*
%TO.P,U1,C2,CIOUT*%
%TO.N,unconnected-(U1A-CIOUT-PadC2)*%
X165840000Y-61440000D03*
%TO.P,U1,C3,BGACK*%
%TO.N,/{slash}BGACK_30*%
X165840000Y-58900000D03*
%TO.P,U1,C4,A1*%
%TO.N,/A1*%
X165840000Y-56360000D03*
%TO.P,U1,C5,GND@1*%
%TO.N,GND*%
X165840000Y-53820000D03*
%TO.P,U1,C6,VCC@1*%
%TO.N,VCC*%
X165840000Y-51280000D03*
%TO.P,U1,C7,GND@2*%
%TO.N,GND*%
X165840000Y-48740000D03*
%TO.P,U1,C8,A18*%
%TO.N,/A18*%
X165840000Y-46200000D03*
%TO.P,U1,C9,GND@3*%
%TO.N,GND*%
X165840000Y-43660000D03*
%TO.P,U1,C10,A11*%
%TO.N,/A11*%
X165840000Y-41120000D03*
%TO.P,U1,C11,A9*%
%TO.N,/A9*%
X165840000Y-38580000D03*
%TO.P,U1,C12,A5*%
%TO.N,/A5*%
X165840000Y-36040000D03*
%TO.P,U1,C13,A4*%
%TO.N,/A4*%
X165840000Y-33500000D03*
%TO.P,U1,D1,FC2*%
%TO.N,/FC2*%
X168380000Y-63980000D03*
%TO.P,U1,D2,FC0*%
%TO.N,/FC0*%
X168380000Y-61440000D03*
%TO.P,U1,D3,OCS*%
%TO.N,unconnected-(U1A-OCS-PadD3)*%
X168380000Y-58900000D03*
%TO.P,U1,D4,VCC@2*%
%TO.N,VCC*%
X168380000Y-56360000D03*
%TO.P,U1,D5,NC*%
%TO.N,unconnected-(U1A-NC-PadD5)*%
X168380000Y-53820000D03*
%TO.P,U1,D10,VCC@3*%
%TO.N,VCC*%
X168380000Y-41120000D03*
%TO.P,U1,D11,A6*%
%TO.N,/A6*%
X168380000Y-38580000D03*
%TO.P,U1,D12,A3*%
%TO.N,/A3*%
X168380000Y-36040000D03*
%TO.P,U1,D13,A2*%
%TO.N,/A2*%
X168380000Y-33500000D03*
%TO.P,U1,E1,CLK*%
%TO.N,/CLK_30*%
X170920000Y-63980000D03*
%TO.P,U1,E2,AVEC*%
%TO.N,/AVEC*%
X170920000Y-61440000D03*
%TO.P,U1,E3,GND@4*%
%TO.N,GND*%
X170920000Y-58900000D03*
%TO.P,U1,E11,GND@5*%
X170920000Y-38580000D03*
%TO.P,U1,E12,NC*%
%TO.N,unconnected-(U1A-NC-PadE12)*%
X170920000Y-36040000D03*
%TO.P,U1,E13,IPEND*%
%TO.N,unconnected-(U1A-IPEND-PadE13)*%
X170920000Y-33500000D03*
%TO.P,U1,F1,DSACK0*%
%TO.N,/{slash}DSACK0*%
X173460000Y-63980000D03*
%TO.P,U1,F2,VCC@4*%
%TO.N,VCC*%
X173460000Y-61440000D03*
%TO.P,U1,F3,GND@6*%
%TO.N,GND*%
X173460000Y-58900000D03*
%TO.P,U1,F4,NC*%
%TO.N,unconnected-(U1A-NC-PadF4)*%
X173460000Y-56360000D03*
%TO.P,U1,F10,NC*%
%TO.N,unconnected-(U1A-NC-PadF10)*%
X173460000Y-41120000D03*
%TO.P,U1,F11,VCC@5*%
%TO.N,VCC*%
X173460000Y-38580000D03*
%TO.P,U1,F12,RESET*%
%TO.N,/{slash}RESET_30*%
X173460000Y-36040000D03*
%TO.P,U1,F13,MMUDIS*%
%TO.N,/{slash}MMUDIS*%
X173460000Y-33500000D03*
%TO.P,U1,G1,STERM*%
%TO.N,/{slash}STERM*%
X176000000Y-63980000D03*
%TO.P,U1,G2,DSACK1*%
%TO.N,/{slash}DSACK1*%
X176000000Y-61440000D03*
%TO.P,U1,G3,GND@7*%
%TO.N,GND*%
X176000000Y-58900000D03*
%TO.P,U1,G11,GND@8*%
X176000000Y-38580000D03*
%TO.P,U1,G12,IPL2*%
%TO.N,/{slash}IPL2*%
X176000000Y-36040000D03*
%TO.P,U1,G13,IPL1*%
%TO.N,/{slash}IPL1*%
X176000000Y-33500000D03*
%TO.P,U1,H1,BERR*%
%TO.N,/{slash}BERR_30*%
X178540000Y-63980000D03*
%TO.P,U1,H2,HALT*%
%TO.N,/{slash}HALT_30*%
X178540000Y-61440000D03*
%TO.P,U1,H3,VCC@6*%
%TO.N,VCC*%
X178540000Y-58900000D03*
%TO.P,U1,H11,VCC@7*%
X178540000Y-38580000D03*
%TO.P,U1,H12,CDIS*%
%TO.N,/CDIS*%
X178540000Y-36040000D03*
%TO.P,U1,H13,IPL0*%
%TO.N,/{slash}IPL0*%
X178540000Y-33500000D03*
%TO.P,U1,J1,CBACK*%
%TO.N,/{slash}CBACK*%
X181080000Y-63980000D03*
%TO.P,U1,J2,AS*%
%TO.N,/{slash}AS_30*%
X181080000Y-61440000D03*
%TO.P,U1,J3,GND@9*%
%TO.N,GND*%
X181080000Y-58900000D03*
%TO.P,U1,J11,GND@10*%
X181080000Y-38580000D03*
%TO.P,U1,J12,STATUS*%
%TO.N,unconnected-(U1A-STATUS-PadJ12)*%
X181080000Y-36040000D03*
%TO.P,U1,J13,REFILL*%
%TO.N,unconnected-(U1A-REFILL-PadJ13)*%
X181080000Y-33500000D03*
%TO.P,U1,K1,CBREQ*%
%TO.N,unconnected-(U1A-CBREQ-PadK1)*%
X183620000Y-63980000D03*
%TO.P,U1,K2,DS*%
%TO.N,/{slash}DS_30*%
X183620000Y-61440000D03*
%TO.P,U1,K3,SIZ1*%
%TO.N,/SIZ1*%
X183620000Y-58900000D03*
%TO.P,U1,K4,VCC@8*%
%TO.N,VCC*%
X183620000Y-56360000D03*
%TO.P,U1,K5,NC*%
%TO.N,unconnected-(U1A-NC-PadK5)*%
X183620000Y-53820000D03*
%TO.P,U1,K10,VCC@9*%
%TO.N,VCC*%
X183620000Y-41120000D03*
%TO.P,U1,K11,D5*%
%TO.N,/D5*%
X183620000Y-38580000D03*
%TO.P,U1,K12,D1*%
%TO.N,/D1*%
X183620000Y-36040000D03*
%TO.P,U1,K13,D0*%
%TO.N,/D0*%
X183620000Y-33500000D03*
%TO.P,U1,L1,CIIN*%
%TO.N,/{slash}CIIN*%
X186160000Y-63980000D03*
%TO.P,U1,L2,SIZ0*%
%TO.N,/SIZ0*%
X186160000Y-61440000D03*
%TO.P,U1,L3,R/~{W}*%
%TO.N,/{slash}R{slash}W*%
X186160000Y-58900000D03*
%TO.P,U1,L4,D30*%
%TO.N,/D30*%
X186160000Y-56360000D03*
%TO.P,U1,L5,GND@11*%
%TO.N,GND*%
X186160000Y-53820000D03*
%TO.P,U1,L6,VCC@10*%
%TO.N,VCC*%
X186160000Y-51280000D03*
%TO.P,U1,L7,GND@12*%
%TO.N,GND*%
X186160000Y-48740000D03*
%TO.P,U1,L8,GND@13*%
X186160000Y-46200000D03*
%TO.P,U1,L9,GND@14*%
X186160000Y-43660000D03*
%TO.P,U1,L10,D10*%
%TO.N,/D10*%
X186160000Y-41120000D03*
%TO.P,U1,L11,D7*%
%TO.N,/D7*%
X186160000Y-38580000D03*
%TO.P,U1,L12,D4*%
%TO.N,/D4*%
X186160000Y-36040000D03*
%TO.P,U1,L13,D2*%
%TO.N,/D2*%
X186160000Y-33500000D03*
%TO.P,U1,M1,DBEN*%
%TO.N,unconnected-(U1A-DBEN-PadM1)*%
X188700000Y-63980000D03*
%TO.P,U1,M2,ECS*%
%TO.N,/ECS*%
X188700000Y-61440000D03*
%TO.P,U1,M3,D29*%
%TO.N,/D29*%
X188700000Y-58900000D03*
%TO.P,U1,M4,D27*%
%TO.N,/D27*%
X188700000Y-56360000D03*
%TO.P,U1,M5,D24*%
%TO.N,/D24*%
X188700000Y-53820000D03*
%TO.P,U1,M6,D22*%
%TO.N,/D22*%
X188700000Y-51280000D03*
%TO.P,U1,M7,D20*%
%TO.N,/D20*%
X188700000Y-48740000D03*
%TO.P,U1,M8,D17*%
%TO.N,/D17*%
X188700000Y-46200000D03*
%TO.P,U1,M9,D14*%
%TO.N,/D14*%
X188700000Y-43660000D03*
%TO.P,U1,M10,D12*%
%TO.N,/D12*%
X188700000Y-41120000D03*
%TO.P,U1,M11,D9*%
%TO.N,/D9*%
X188700000Y-38580000D03*
%TO.P,U1,M12,D6*%
%TO.N,/D6*%
X188700000Y-36040000D03*
%TO.P,U1,M13,D3*%
%TO.N,/D3*%
X188700000Y-33500000D03*
%TO.P,U1,N1,D31*%
%TO.N,/D31*%
X191240000Y-63980000D03*
%TO.P,U1,N2,D28*%
%TO.N,/D28*%
X191240000Y-61440000D03*
%TO.P,U1,N3,D26*%
%TO.N,/D26*%
X191240000Y-58900000D03*
%TO.P,U1,N4,D25*%
%TO.N,/D25*%
X191240000Y-56360000D03*
%TO.P,U1,N5,D23*%
%TO.N,/D23*%
X191240000Y-53820000D03*
%TO.P,U1,N6,D21*%
%TO.N,/D21*%
X191240000Y-51280000D03*
%TO.P,U1,N7,D19*%
%TO.N,/D19*%
X191240000Y-48740000D03*
%TO.P,U1,N8,D18*%
%TO.N,/D18*%
X191240000Y-46200000D03*
%TO.P,U1,N9,D16*%
%TO.N,/D16*%
X191240000Y-43660000D03*
%TO.P,U1,N10,D15*%
%TO.N,/D15*%
X191240000Y-41120000D03*
%TO.P,U1,N11,D13*%
%TO.N,/D13*%
X191240000Y-38580000D03*
%TO.P,U1,N12,D11*%
%TO.N,/D11*%
X191240000Y-36040000D03*
%TO.P,U1,N13,D8*%
%TO.N,/D8*%
X191240000Y-33500000D03*
%TD*%
D12*
%TO.P,U7,1,CLK*%
%TO.N,unconnected-(U7-CLK-Pad1)*%
X119960000Y-46500000D03*
D11*
%TO.P,U7,2,I1*%
%TO.N,unconnected-(U7-I1-Pad2)*%
X119960000Y-43960000D03*
%TO.P,U7,3,I2*%
%TO.N,/C8M.PDS*%
X122500000Y-46500000D03*
%TO.P,U7,4,I3*%
%TO.N,Net-(U7-I3)*%
X125040000Y-43960000D03*
%TO.P,U7,5,I4*%
%TO.N,Net-(U7-I4)*%
X122500000Y-43960000D03*
%TO.P,U7,6,I5*%
%TO.N,Net-(U7-I5)*%
X125040000Y-41420000D03*
%TO.P,U7,7,I6*%
%TO.N,unconnected-(U7-I6-Pad7)*%
X122500000Y-41420000D03*
%TO.P,U7,8,I7*%
%TO.N,unconnected-(U7-I7-Pad8)*%
X125040000Y-38880000D03*
%TO.P,U7,9,I8*%
%TO.N,unconnected-(U7-I8-Pad9)*%
X122500000Y-36340000D03*
%TO.P,U7,10,GND*%
%TO.N,GND*%
X122500000Y-38880000D03*
%TO.P,U7,11,OE*%
%TO.N,unconnected-(U7-OE-Pad11)*%
X119960000Y-36340000D03*
%TO.P,U7,12,O8*%
%TO.N,unconnected-(U7-O8-Pad12)*%
X119960000Y-38880000D03*
%TO.P,U7,13,O7*%
%TO.N,/C16M*%
X117420000Y-36340000D03*
%TO.P,U7,14,O6*%
%TO.N,Net-(U7-I5)*%
X114880000Y-38880000D03*
%TO.P,U7,15,O5*%
%TO.N,Net-(U7-I4)*%
X117420000Y-38880000D03*
%TO.P,U7,16,O4*%
%TO.N,Net-(U7-I3)*%
X114880000Y-41420000D03*
%TO.P,U7,17,O3*%
%TO.N,unconnected-(U7-O3-Pad17)*%
X117420000Y-41420000D03*
%TO.P,U7,18,O2*%
%TO.N,unconnected-(U7-O2-Pad18)*%
X114880000Y-43960000D03*
%TO.P,U7,19,O1*%
%TO.N,unconnected-(U7-O1-Pad19)*%
X117420000Y-46500000D03*
%TO.P,U7,20,VCC*%
%TO.N,VCC*%
X117420000Y-43960000D03*
%TD*%
D12*
%TO.P,U5,1,CLK*%
%TO.N,/C8M.PDS*%
X166960000Y-81500000D03*
D11*
%TO.P,U5,2,I1*%
%TO.N,/{slash}AS_00*%
X166960000Y-84040000D03*
%TO.P,U5,3,I2*%
%TO.N,/SIZ1*%
X164420000Y-81500000D03*
%TO.P,U5,4,I3*%
%TO.N,/SIZ0*%
X161880000Y-84040000D03*
%TO.P,U5,5,I4*%
%TO.N,/{slash}R{slash}W*%
X164420000Y-84040000D03*
%TO.P,U5,6,I5*%
%TO.N,/{slash}IPL2*%
X161880000Y-86580000D03*
%TO.P,U5,7,I6*%
%TO.N,/{slash}CIIN*%
X164420000Y-86580000D03*
%TO.P,U5,8,I7*%
%TO.N,/A22*%
X161880000Y-89120000D03*
%TO.P,U5,9,I8*%
%TO.N,/A0*%
X164420000Y-91660000D03*
%TO.P,U5,10,GND*%
%TO.N,GND*%
X164420000Y-89120000D03*
%TO.P,U5,11,OE*%
X166960000Y-91660000D03*
%TO.P,U5,12,O8*%
%TO.N,/{slash}RESET_00*%
X166960000Y-89120000D03*
%TO.P,U5,13,O7*%
%TO.N,/{slash}RESET_30*%
X169500000Y-91660000D03*
%TO.P,U5,14,O6*%
%TO.N,unconnected-(U5-O6-Pad14)*%
X172040000Y-89120000D03*
%TO.P,U5,15,O5*%
%TO.N,unconnected-(U5-O5-Pad15)*%
X169500000Y-89120000D03*
%TO.P,U5,16,O4*%
%TO.N,/{slash}BR_00*%
X172040000Y-86580000D03*
%TO.P,U5,17,O3*%
%TO.N,/N$7*%
X169500000Y-86580000D03*
%TO.P,U5,18,O2*%
%TO.N,/{slash}UDS*%
X172040000Y-84040000D03*
%TO.P,U5,19,O1*%
%TO.N,/{slash}LDS*%
X169500000Y-81500000D03*
%TO.P,U5,20,VCC*%
%TO.N,VCC*%
X169500000Y-84040000D03*
%TD*%
D12*
%TO.P,U4,1,CLK*%
%TO.N,/SM_CLK16*%
X139540000Y-56000000D03*
D11*
%TO.P,U4,2,I1*%
%TO.N,/NOFC*%
X139540000Y-58540000D03*
%TO.P,U4,3,I2*%
%TO.N,/C8M.PDS*%
X137000000Y-56000000D03*
%TO.P,U4,4,I3*%
%TO.N,/{slash}AS_30*%
X134460000Y-58540000D03*
%TO.P,U4,5,I4*%
%TO.N,/{slash}DTACK_SYS+EX*%
X137000000Y-58540000D03*
%TO.P,U4,6,I5*%
%TO.N,/{slash}VPA*%
X134460000Y-61080000D03*
%TO.P,U4,7,I6*%
%TO.N,/E*%
X137000000Y-61080000D03*
%TO.P,U4,8,I7*%
%TO.N,/{slash}R{slash}W*%
X134460000Y-63620000D03*
%TO.P,U4,9,I8*%
%TO.N,/{slash}RESET_30*%
X137000000Y-66160000D03*
%TO.P,U4,10,GND*%
%TO.N,GND*%
X137000000Y-63620000D03*
%TO.P,U4,11,OE*%
%TO.N,/N$7*%
X139540000Y-66160000D03*
%TO.P,U4,12,O8*%
%TO.N,/{slash}DSACK1*%
X139540000Y-63620000D03*
%TO.P,U4,13,O7*%
%TO.N,/P2.A17*%
X142080000Y-66160000D03*
%TO.P,U4,14,O6*%
%TO.N,unconnected-(U4-O6-Pad14)*%
X144620000Y-63620000D03*
%TO.P,U4,15,O5*%
%TO.N,unconnected-(U4-O5-Pad15)*%
X142080000Y-63620000D03*
%TO.P,U4,16,O4*%
%TO.N,/{slash}VMA*%
X144620000Y-61080000D03*
%TO.P,U4,17,O3*%
%TO.N,unconnected-(U4-O3-Pad17)*%
X142080000Y-61080000D03*
%TO.P,U4,18,O2*%
%TO.N,/{slash}AS_00*%
X144620000Y-58540000D03*
%TO.P,U4,19,O1*%
%TO.N,/N$1*%
X142080000Y-56000000D03*
%TO.P,U4,20,VCC*%
%TO.N,VCC*%
X142080000Y-58540000D03*
%TD*%
D13*
%TO.P,R14,1,1*%
%TO.N,/{slash}BGACK_30*%
X167625000Y-67400000D03*
%TO.P,R14,2,2*%
%TO.N,VCC*%
X164500000Y-67400000D03*
%TD*%
D10*
%TO.P,R1,1,1*%
%TO.N,/{slash}DSACK0*%
X173500000Y-67400000D03*
%TO.P,R1,2,2*%
%TO.N,VCC*%
X173500000Y-70525000D03*
%TD*%
D12*
%TO.P,U3,1,CLK*%
%TO.N,/A23*%
X144620000Y-41080000D03*
D11*
%TO.P,U3,2,I1*%
%TO.N,/A22*%
X142080000Y-41080000D03*
%TO.P,U3,3,I2*%
%TO.N,/A21*%
X144620000Y-38540000D03*
%TO.P,U3,4,I3*%
%TO.N,/A20*%
X142080000Y-36000000D03*
%TO.P,U3,5,I4*%
%TO.N,/A19*%
X142080000Y-38540000D03*
%TO.P,U3,6,I5*%
%TO.N,/FC0*%
X139540000Y-36000000D03*
%TO.P,U3,7,I6*%
%TO.N,/FC1*%
X139540000Y-38540000D03*
%TO.P,U3,8,I7*%
%TO.N,/FC2*%
X137000000Y-36000000D03*
%TO.P,U3,9,I8*%
%TO.N,/{slash}DTACK*%
X134460000Y-38540000D03*
%TO.P,U3,10,GND*%
%TO.N,GND*%
X137000000Y-38540000D03*
%TO.P,U3,11,OE*%
%TO.N,/P3.B10*%
X134460000Y-41080000D03*
%TO.P,U3,12,O8*%
%TO.N,/{slash}SCC.RW.DEC*%
X137000000Y-41080000D03*
%TO.P,U3,13,O7*%
%TO.N,/{slash}EXT.DTK*%
X134460000Y-43620000D03*
%TO.P,U3,14,O6*%
%TO.N,unconnected-(U3-O6-Pad14)*%
X137000000Y-46160000D03*
%TO.P,U3,15,O5*%
%TO.N,/{slash}DTACK_SYS+EX*%
X137000000Y-43620000D03*
%TO.P,U3,16,O4*%
%TO.N,/{slash}CIIN*%
X139540000Y-46160000D03*
%TO.P,U3,17,O3*%
%TO.N,/AVEC*%
X139540000Y-43620000D03*
%TO.P,U3,18,O2*%
%TO.N,/{slash}FPUCS*%
X142080000Y-46160000D03*
%TO.P,U3,19,O1*%
%TO.N,/NOFC*%
X144620000Y-43620000D03*
%TO.P,U3,20,VCC*%
%TO.N,VCC*%
X142080000Y-43620000D03*
%TD*%
D10*
%TO.P,R6,1,1*%
%TO.N,/{slash}STERM*%
X176000000Y-67400000D03*
%TO.P,R6,2,2*%
%TO.N,VCC*%
X176000000Y-70525000D03*
%TD*%
%TO.P,R8,1,1*%
%TO.N,/{slash}HALT_30*%
X183500000Y-67400000D03*
%TO.P,R8,2,2*%
%TO.N,VCC*%
X183500000Y-70525000D03*
%TD*%
D12*
%TO.P,U6,1,CLK*%
%TO.N,/C8M.PDS*%
X119920000Y-66080000D03*
D11*
%TO.P,U6,2,I1*%
%TO.N,/C16M*%
X119920000Y-63540000D03*
%TO.P,U6,3,I2*%
%TO.N,/E*%
X122460000Y-66080000D03*
%TO.P,U6,4,I3*%
%TO.N,/{slash}AS_00*%
X125000000Y-63540000D03*
%TO.P,U6,5,I4*%
%TO.N,/{slash}AS_30*%
X122460000Y-63540000D03*
%TO.P,U6,6,I5*%
%TO.N,/{slash}FPUCS*%
X125000000Y-61000000D03*
%TO.P,U6,7,I6*%
%TO.N,/FPUSENSE*%
X122460000Y-61000000D03*
%TO.P,U6,8,I7*%
%TO.N,/{slash}RESET_30*%
X125000000Y-58460000D03*
%TO.P,U6,9,I8*%
%TO.N,/{slash}SCC.RW.DEC*%
X122460000Y-55920000D03*
%TO.P,U6,10,GND*%
%TO.N,GND*%
X122460000Y-58460000D03*
%TO.P,U6,11,OE*%
X119920000Y-55920000D03*
%TO.P,U6,12,O8*%
%TO.N,/N$1*%
X119920000Y-58460000D03*
%TO.P,U6,13,O7*%
%TO.N,/{slash}BERR_30*%
X117380000Y-55920000D03*
%TO.P,U6,14,O6*%
%TO.N,/CDIS*%
X114840000Y-58460000D03*
%TO.P,U6,15,O5*%
%TO.N,unconnected-(U6-O5-Pad15)*%
X117380000Y-58460000D03*
%TO.P,U6,16,O4*%
%TO.N,unconnected-(U6-O4-Pad16)*%
X114840000Y-61000000D03*
%TO.P,U6,17,O3*%
%TO.N,unconnected-(U6-O3-Pad17)*%
X117380000Y-61000000D03*
%TO.P,U6,18,O2*%
%TO.N,/SM_CLK16*%
X114840000Y-63540000D03*
%TO.P,U6,19,O1*%
%TO.N,/CLK_30*%
X117380000Y-66080000D03*
%TO.P,U6,20,VCC*%
%TO.N,VCC*%
X117380000Y-63540000D03*
%TD*%
D14*
%TO.P,IC1,1,D4*%
%TO.N,/D20*%
X191740000Y-75000000D03*
D15*
%TO.P,IC1,2,D3*%
%TO.N,/D19*%
X189200000Y-75000000D03*
%TO.P,IC1,3,D2*%
%TO.N,/D18*%
X186660000Y-75000000D03*
%TO.P,IC1,4,D1*%
%TO.N,/D17*%
X184120000Y-75000000D03*
%TO.P,IC1,5,D0*%
%TO.N,/D16*%
X181580000Y-75000000D03*
%TO.P,IC1,6,AS*%
%TO.N,/{slash}AS_00*%
X179040000Y-75000000D03*
%TO.P,IC1,7,UDS*%
%TO.N,/{slash}UDS*%
X176500000Y-75000000D03*
%TO.P,IC1,8,LDS*%
%TO.N,/{slash}LDS*%
X173960000Y-75000000D03*
%TO.P,IC1,9,R/W*%
%TO.N,/{slash}R{slash}W*%
X171420000Y-75000000D03*
%TO.P,IC1,10,DTACK*%
%TO.N,/{slash}DTACK*%
X168880000Y-75000000D03*
%TO.P,IC1,11,BG*%
%TO.N,unconnected-(IC1A-BG-Pad11)*%
X166340000Y-75000000D03*
%TO.P,IC1,12,BGACK*%
%TO.N,unconnected-(IC1A-BGACK-Pad12)*%
X163800000Y-75000000D03*
%TO.P,IC1,13,BR*%
%TO.N,/{slash}BR_00*%
X161260000Y-75000000D03*
%TO.P,IC1,14,VCC@1*%
%TO.N,VCC*%
X158720000Y-75000000D03*
%TO.P,IC1,15,CLK*%
%TO.N,/C8M.PDS*%
X156180000Y-75000000D03*
%TO.P,IC1,16,GND@1*%
%TO.N,GND*%
X153640000Y-75000000D03*
%TO.P,IC1,17,HALT*%
%TO.N,unconnected-(IC1A-HALT-Pad17)*%
X151100000Y-75000000D03*
%TO.P,IC1,18,RESET*%
%TO.N,/{slash}RESET_00*%
X148560000Y-75000000D03*
%TO.P,IC1,19,VMA*%
%TO.N,/{slash}VMA*%
X146020000Y-75000000D03*
%TO.P,IC1,20,E*%
%TO.N,/E*%
X143480000Y-75000000D03*
%TO.P,IC1,21,VPA*%
%TO.N,/{slash}VPA*%
X140940000Y-75000000D03*
%TO.P,IC1,22,BERR*%
%TO.N,unconnected-(IC1A-BERR-Pad22)*%
X138400000Y-75000000D03*
%TO.P,IC1,23,IPL2*%
%TO.N,/{slash}IPL2*%
X135860000Y-75000000D03*
%TO.P,IC1,24,IPL1*%
%TO.N,/{slash}IPL1*%
X133320000Y-75000000D03*
%TO.P,IC1,25,IPL0*%
%TO.N,/{slash}IPL0*%
X130780000Y-75000000D03*
%TO.P,IC1,26,FC2*%
%TO.N,/FC2*%
X128240000Y-75000000D03*
%TO.P,IC1,27,FC1*%
%TO.N,/FC1*%
X125700000Y-75000000D03*
%TO.P,IC1,28,FC0*%
%TO.N,/FC0*%
X123160000Y-75000000D03*
%TO.P,IC1,29,A1*%
%TO.N,/A1*%
X120620000Y-75000000D03*
%TO.P,IC1,30,A2*%
%TO.N,/A2*%
X118080000Y-75000000D03*
%TO.P,IC1,31,A3*%
%TO.N,/A3*%
X115540000Y-75000000D03*
%TO.P,IC1,32,A4*%
%TO.N,/A4*%
X113000000Y-75000000D03*
%TO.P,IC1,33,A5*%
%TO.N,/A5*%
X113000000Y-97860000D03*
%TO.P,IC1,34,A6*%
%TO.N,/A6*%
X115540000Y-97860000D03*
%TO.P,IC1,35,A7*%
%TO.N,/A7*%
X118080000Y-97860000D03*
%TO.P,IC1,36,A8*%
%TO.N,/A8*%
X120620000Y-97860000D03*
%TO.P,IC1,37,A9*%
%TO.N,/A9*%
X123160000Y-97860000D03*
%TO.P,IC1,38,A10*%
%TO.N,/A10*%
X125700000Y-97860000D03*
%TO.P,IC1,39,A11*%
%TO.N,/A11*%
X128240000Y-97860000D03*
%TO.P,IC1,40,A12*%
%TO.N,/A12*%
X130780000Y-97860000D03*
%TO.P,IC1,41,A13*%
%TO.N,/A13*%
X133320000Y-97860000D03*
%TO.P,IC1,42,A14*%
%TO.N,/A14*%
X135860000Y-97860000D03*
%TO.P,IC1,43,A15*%
%TO.N,/A15*%
X138400000Y-97860000D03*
%TO.P,IC1,44,A16*%
%TO.N,/A16*%
X140940000Y-97860000D03*
%TO.P,IC1,45,A17*%
%TO.N,/A17*%
X143480000Y-97860000D03*
%TO.P,IC1,46,A18*%
%TO.N,/A18*%
X146020000Y-97860000D03*
%TO.P,IC1,47,A19*%
%TO.N,/A19*%
X148560000Y-97860000D03*
%TO.P,IC1,48,A20*%
%TO.N,/A20*%
X151100000Y-97860000D03*
%TO.P,IC1,49,VCC@2*%
%TO.N,VCC*%
X153640000Y-97860000D03*
%TO.P,IC1,50,A21*%
%TO.N,/A21*%
X156180000Y-97860000D03*
%TO.P,IC1,51,A22*%
%TO.N,/A22*%
X158720000Y-97860000D03*
%TO.P,IC1,52,A23*%
%TO.N,/A23*%
X161260000Y-97860000D03*
%TO.P,IC1,53,GND@2*%
%TO.N,GND*%
X163800000Y-97860000D03*
%TO.P,IC1,54,D15*%
%TO.N,/D31*%
X166340000Y-97860000D03*
%TO.P,IC1,55,D14*%
%TO.N,/D30*%
X168880000Y-97860000D03*
%TO.P,IC1,56,D13*%
%TO.N,/D29*%
X171420000Y-97860000D03*
%TO.P,IC1,57,D12*%
%TO.N,/D28*%
X173960000Y-97860000D03*
%TO.P,IC1,58,D11*%
%TO.N,/D27*%
X176500000Y-97860000D03*
%TO.P,IC1,59,D10*%
%TO.N,/D26*%
X179040000Y-97860000D03*
%TO.P,IC1,60,D9*%
%TO.N,/D25*%
X181580000Y-97860000D03*
%TO.P,IC1,61,D8*%
%TO.N,/D24*%
X184120000Y-97860000D03*
%TO.P,IC1,62,D7*%
%TO.N,/D23*%
X186660000Y-97860000D03*
%TO.P,IC1,63,D6*%
%TO.N,/D22*%
X189200000Y-97860000D03*
%TO.P,IC1,64,D5*%
%TO.N,/D21*%
X191740000Y-97860000D03*
%TD*%
D10*
%TO.P,R7,1,1*%
%TO.N,/{slash}CBACK*%
X181000000Y-67400000D03*
%TO.P,R7,2,2*%
%TO.N,VCC*%
X181000000Y-70525000D03*
%TD*%
%TO.P,R15,1,1*%
%TO.N,/{slash}BERR_30*%
X178500000Y-67400000D03*
%TO.P,R15,2,2*%
%TO.N,VCC*%
X178500000Y-70525000D03*
%TD*%
D13*
%TO.P,R13,1,1*%
%TO.N,/{slash}BR_30*%
X159375000Y-67400000D03*
%TO.P,R13,2,2*%
%TO.N,VCC*%
X162500000Y-67400000D03*
%TD*%
D16*
%TO.N,GND*%
X170418702Y-51394200D03*
X114000000Y-52250000D03*
X144000000Y-51500000D03*
X137000000Y-51000000D03*
X176500000Y-85000000D03*
X187900000Y-67400000D03*
X114000000Y-71500000D03*
%TO.N,VCC*%
X164500000Y-69000000D03*
X114000000Y-65500000D03*
X131000000Y-68500000D03*
X114500000Y-46000000D03*
X176500000Y-79000000D03*
X144000000Y-46000000D03*
X172000000Y-70400000D03*
X127500000Y-51000000D03*
X172250000Y-30500000D03*
X187900000Y-70525000D03*
X144000000Y-57000000D03*
X179250000Y-44500000D03*
X133250000Y-41750000D03*
X175700000Y-45300000D03*
%TO.N,/{slash}AS_00*%
X142969300Y-64613700D03*
X145181500Y-78818500D03*
%TO.N,/A9*%
X147602900Y-66673900D03*
X149294200Y-35709200D03*
X128575400Y-66784300D03*
%TO.N,/A12*%
X141175600Y-67419400D03*
X154084200Y-66275200D03*
%TO.N,/A6*%
X115793700Y-37929900D03*
%TO.N,/A5*%
X163147465Y-31852535D03*
X113658400Y-32029500D03*
%TO.N,/D24*%
X196380500Y-56512200D03*
%TO.N,/A21*%
X150891400Y-95546500D03*
%TO.N,/{slash}R{slash}W*%
X136350000Y-72775000D03*
%TO.N,/A8*%
X137744900Y-34999900D03*
%TO.N,/A18*%
X159696400Y-81196400D03*
X158500000Y-92500000D03*
X162496000Y-80000000D03*
%TO.N,/{slash}DTACK*%
X175473500Y-50794200D03*
%TO.N,/D23*%
X192791000Y-54171700D03*
%TO.N,/A16*%
X155496100Y-45545500D03*
%TO.N,/C8M.PDS*%
X136250000Y-52675002D03*
%TO.N,/D22*%
X191344700Y-50010000D03*
%TO.N,/D16*%
X195304900Y-70500000D03*
%TO.N,/{slash}BR_00*%
X172557300Y-81212000D03*
%TO.N,/{slash}RESET_00*%
X149000000Y-87500000D03*
%TO.N,/D31*%
X169437200Y-78231000D03*
%TO.N,/FC0*%
X127114100Y-54000000D03*
X139500000Y-53532900D03*
%TO.N,/A7*%
X116300300Y-35139700D03*
%TO.N,/A11*%
X130071700Y-72780500D03*
X163598600Y-72697200D03*
%TO.N,/{slash}IPL1*%
X134146500Y-35083500D03*
%TO.N,/A19*%
X153691400Y-70736300D03*
X155480300Y-70736300D03*
%TO.N,/D29*%
X187102500Y-60352000D03*
%TO.N,/A3*%
X112645500Y-37291700D03*
X113864800Y-73000000D03*
%TO.N,/A13*%
X136025600Y-36778000D03*
%TO.N,/A10*%
X148218300Y-90683200D03*
%TO.N,/A14*%
X145382300Y-71894200D03*
X165979000Y-72193200D03*
%TO.N,/FC2*%
X129901000Y-71349200D03*
X167933400Y-70945000D03*
%TO.N,/FC1*%
X147036300Y-69832400D03*
X127972200Y-70816000D03*
X147676400Y-67961100D03*
%TO.N,/D28*%
X185066600Y-64743800D03*
%TO.N,/{slash}IPL0*%
X177882500Y-50931800D03*
X149986600Y-71598500D03*
X151798800Y-50837800D03*
X131443900Y-71879000D03*
%TO.N,/D18*%
X195352450Y-72147550D03*
%TO.N,/A1*%
X157978600Y-63500500D03*
X124876400Y-66706600D03*
X158419900Y-54543600D03*
%TO.N,/A4*%
X111456600Y-35123100D03*
%TO.N,/{slash}RESET_30*%
X138500000Y-83500000D03*
X169550100Y-69799900D03*
X134260600Y-56069100D03*
X137000000Y-69500000D03*
%TO.N,/P2.A17*%
X135754400Y-67634300D03*
%TO.N,/CDIS*%
X119500000Y-29792900D03*
%TO.N,/{slash}BGACK_30*%
X169650000Y-61922800D03*
X168851000Y-67809500D03*
%TO.N,/{slash}BERR_30*%
X162559600Y-70008200D03*
X162135300Y-61839900D03*
%TO.N,/{slash}CIIN*%
X180943300Y-86661000D03*
X181477200Y-69169300D03*
X148476400Y-68926700D03*
X148014200Y-49018400D03*
%TO.N,/SIZ0*%
X188892000Y-66800000D03*
X184109000Y-83672100D03*
%TO.N,/{slash}FPUCS*%
X131449000Y-49904400D03*
%TO.N,/{slash}SCC.RW.DEC*%
X124661900Y-45460400D03*
%TO.N,/N$7*%
X140358800Y-80641200D03*
%TD*%
D17*
%TO.N,GND*%
X186000000Y-67400000D02*
X187900000Y-67400000D01*
%TO.N,VCC*%
X172000000Y-70400000D02*
X173250000Y-70400000D01*
X164500000Y-67400000D02*
X164500000Y-69000000D01*
D18*
X162500000Y-67400000D02*
X164500000Y-67400000D01*
D17*
X187900000Y-70525000D02*
X186000000Y-70525000D01*
D18*
X173500000Y-70525000D02*
X186000000Y-70525000D01*
D19*
%TO.N,/{slash}AS_00*%
X138535300Y-60101400D02*
X143058600Y-60101400D01*
X143058600Y-60101400D02*
X144620000Y-58540000D01*
X149133000Y-82770000D02*
X165752500Y-82770000D01*
X142969300Y-64615300D02*
X142969300Y-64613700D01*
X174000000Y-82500000D02*
X179065000Y-77435000D01*
X142969100Y-64615500D02*
X139160100Y-64615500D01*
X168562500Y-82500000D02*
X174000000Y-82500000D01*
X167022500Y-84040000D02*
X168562500Y-82500000D01*
X126846100Y-63540000D02*
X130284700Y-60101400D01*
X138535300Y-63990700D02*
X138535300Y-60101400D01*
X179065000Y-77435000D02*
X179065000Y-75033000D01*
X130284700Y-60101400D02*
X138535300Y-60101400D01*
X165752500Y-82770000D02*
X167022500Y-84040000D01*
X142969100Y-64615500D02*
X142969300Y-64615300D01*
X145181500Y-78818500D02*
X149133000Y-82770000D01*
X125000000Y-63540000D02*
X126846100Y-63540000D01*
X139160100Y-64615500D02*
X138535300Y-63990700D01*
%TO.N,/A9*%
X146040700Y-68236100D02*
X147602900Y-66673900D01*
X160166500Y-39590400D02*
X156836400Y-36260300D01*
X165840000Y-38580000D02*
X164829600Y-39590400D01*
X134749500Y-68236100D02*
X146040700Y-68236100D01*
X149845300Y-36260300D02*
X149294200Y-35709200D01*
X133297700Y-66784300D02*
X134749500Y-68236100D01*
X128575400Y-66784300D02*
X133297700Y-66784300D01*
X164829600Y-39590400D02*
X160166500Y-39590400D01*
X156836400Y-36260300D02*
X149845300Y-36260300D01*
%TO.N,/A12*%
X141175600Y-67419400D02*
X145796500Y-67419400D01*
X153864400Y-66055400D02*
X154084200Y-66275200D01*
X145796500Y-67419400D02*
X147160500Y-66055400D01*
X147160500Y-66055400D02*
X153864400Y-66055400D01*
%TO.N,/A6*%
X141617700Y-35016700D02*
X141000000Y-35634400D01*
X158657100Y-37513000D02*
X156160800Y-35016700D01*
X168380000Y-38580000D02*
X167313000Y-37513000D01*
X140121000Y-37379000D02*
X118294100Y-37379000D01*
X141000000Y-36500000D02*
X140121000Y-37379000D01*
X118294100Y-37379000D02*
X117743200Y-37929900D01*
X156160800Y-35016700D02*
X141617700Y-35016700D01*
X141000000Y-35634400D02*
X141000000Y-36500000D01*
X167313000Y-37513000D02*
X158657100Y-37513000D01*
X117743200Y-37929900D02*
X115793700Y-37929900D01*
%TO.N,/A5*%
X163147465Y-31852535D02*
X162990130Y-31695200D01*
X113992700Y-31695200D02*
X113658400Y-32029500D01*
X162990130Y-31695200D02*
X113992700Y-31695200D01*
%TO.N,/D24*%
X196380500Y-56512200D02*
X194640000Y-54771700D01*
X194640000Y-54771700D02*
X189651700Y-54771700D01*
X189651700Y-54771700D02*
X188700000Y-53820000D01*
%TO.N,/A21*%
X153858500Y-95546500D02*
X156205000Y-97893000D01*
X153100000Y-38540000D02*
X144540000Y-38540000D01*
X150891400Y-95546500D02*
X153858500Y-95546500D01*
X160760000Y-46200000D02*
X153100000Y-38540000D01*
%TO.N,/{slash}R{slash}W*%
X169844900Y-73432900D02*
X171445000Y-75033000D01*
X157786900Y-73432900D02*
X169844900Y-73432900D01*
X136578600Y-73003600D02*
X157357600Y-73003600D01*
X157357600Y-73003600D02*
X157786900Y-73432900D01*
X136350000Y-72775000D02*
X136578600Y-73003600D01*
%TO.N,/A22*%
X144328800Y-44808100D02*
X143270100Y-43749400D01*
X143270100Y-42350100D02*
X142000000Y-41080000D01*
X153130900Y-49738900D02*
X148200100Y-44808100D01*
X148200100Y-44808100D02*
X144328800Y-44808100D01*
X162301100Y-49738900D02*
X153130900Y-49738900D01*
X163300000Y-48740000D02*
X162301100Y-49738900D01*
X143270100Y-43749400D02*
X143270100Y-42350100D01*
%TO.N,/A8*%
X140943900Y-35016900D02*
X137761900Y-35016900D01*
X156320000Y-34609900D02*
X141350900Y-34609900D01*
X163300000Y-36040000D02*
X162289300Y-37050700D01*
X141350900Y-34609900D02*
X140943900Y-35016900D01*
X137761900Y-35016900D02*
X137744900Y-34999900D01*
X158760800Y-37050700D02*
X156320000Y-34609900D01*
X162289300Y-37050700D02*
X158760800Y-37050700D01*
%TO.N,/A18*%
X157360700Y-93639300D02*
X150298700Y-93639300D01*
X160892800Y-80000000D02*
X162496000Y-80000000D01*
X159696400Y-81196400D02*
X160892800Y-80000000D01*
X158500000Y-92500000D02*
X157360700Y-93639300D01*
X150298700Y-93639300D02*
X146045000Y-97893000D01*
%TO.N,/{slash}DTACK*%
X148899800Y-39800000D02*
X156873500Y-47773700D01*
X156873500Y-47773700D02*
X166340000Y-47773700D01*
X169360500Y-50794200D02*
X175473500Y-50794200D01*
X166340000Y-47773700D02*
X169360500Y-50794200D01*
X135640000Y-39800000D02*
X148899800Y-39800000D01*
X134380000Y-38540000D02*
X135640000Y-39800000D01*
%TO.N,/D23*%
X192791000Y-54171700D02*
X192212100Y-53592800D01*
X192212100Y-53592800D02*
X191467200Y-53592800D01*
%TO.N,/A16*%
X155496100Y-45545500D02*
X157156200Y-47205600D01*
X157156200Y-47205600D02*
X163722200Y-47205600D01*
X163722200Y-47205600D02*
X164252100Y-46675700D01*
X164252100Y-46675700D02*
X164252100Y-44612100D01*
X164252100Y-44612100D02*
X163300000Y-43660000D01*
%TO.N,/C8M.PDS*%
X127300000Y-73460000D02*
X154632000Y-73460000D01*
X160423300Y-79251300D02*
X164773800Y-79251300D01*
X131360800Y-52860800D02*
X125000000Y-46500000D01*
X119920000Y-66080000D02*
X127300000Y-73460000D01*
X125000000Y-46500000D02*
X122500000Y-46500000D01*
X136064202Y-52860800D02*
X131360800Y-52860800D01*
X154632000Y-73460000D02*
X160423300Y-79251300D01*
X164773800Y-79251300D02*
X167022500Y-81500000D01*
X136250000Y-52675002D02*
X136064202Y-52860800D01*
%TO.N,/D22*%
X188700000Y-51280000D02*
X189970000Y-50010000D01*
X189970000Y-50010000D02*
X191344700Y-50010000D01*
%TO.N,/A23*%
X144540000Y-41080000D02*
X145491700Y-41080000D01*
X153151700Y-48740000D02*
X160760000Y-48740000D01*
X145491700Y-41080000D02*
X153151700Y-48740000D01*
%TO.N,/D16*%
X195304900Y-70500000D02*
X193860600Y-71944300D01*
X193860600Y-71944300D02*
X184693700Y-71944300D01*
X184693700Y-71944300D02*
X181605000Y-75033000D01*
%TO.N,/{slash}BR_00*%
X172557300Y-81212000D02*
X170195600Y-78850300D01*
X165102300Y-78850300D02*
X161285000Y-75033000D01*
X170195600Y-78850300D02*
X165102300Y-78850300D01*
%TO.N,/{slash}RESET_00*%
X165835200Y-87932700D02*
X167022500Y-89120000D01*
X149000000Y-87500000D02*
X149432700Y-87932700D01*
X149432700Y-87932700D02*
X165835200Y-87932700D01*
%TO.N,/D31*%
X177936600Y-75576500D02*
X175282100Y-78231000D01*
X180104688Y-71543300D02*
X177936600Y-73711388D01*
X175282100Y-78231000D02*
X169437200Y-78231000D01*
X188456700Y-71543300D02*
X180104688Y-71543300D01*
X177936600Y-73711388D02*
X177936600Y-75576500D01*
X191240000Y-63980000D02*
X191240000Y-68760000D01*
X191240000Y-68760000D02*
X188456700Y-71543300D01*
%TO.N,/E*%
X124876400Y-66080000D02*
X122460000Y-66080000D01*
X135728500Y-62351500D02*
X128604900Y-62351500D01*
X137000000Y-61080000D02*
X135728500Y-62351500D01*
X128604900Y-62351500D02*
X124876400Y-66080000D01*
%TO.N,/FC0*%
X162500000Y-60000000D02*
X166940000Y-60000000D01*
X127581200Y-53532900D02*
X127114100Y-54000000D01*
X139500000Y-53532900D02*
X127581200Y-53532900D01*
X161213400Y-57713400D02*
X162000000Y-58500000D01*
X148824000Y-57713400D02*
X161213400Y-57713400D01*
X162000000Y-59500000D02*
X162500000Y-60000000D01*
X144643500Y-53532900D02*
X148824000Y-57713400D01*
X144643500Y-53532900D02*
X139500000Y-53532900D01*
X166940000Y-60000000D02*
X168380000Y-61440000D01*
X162000000Y-58500000D02*
X162000000Y-59500000D01*
%TO.N,/A7*%
X118914200Y-32525800D02*
X162325800Y-32525800D01*
X162325800Y-32525800D02*
X163300000Y-33500000D01*
X116300300Y-35139700D02*
X118914200Y-32525800D01*
%TO.N,/A11*%
X144763157Y-72125000D02*
X145240757Y-72602600D01*
X163504000Y-72602600D02*
X163598600Y-72697200D01*
X130071700Y-72780500D02*
X134719500Y-72780500D01*
X134719500Y-72780500D02*
X135375000Y-72125000D01*
X145240757Y-72602600D02*
X163504000Y-72602600D01*
X135375000Y-72125000D02*
X144763157Y-72125000D01*
%TO.N,/{slash}IPL1*%
X136991600Y-33383200D02*
X135061600Y-35313200D01*
X176000000Y-33500000D02*
X175035300Y-34464700D01*
X157880900Y-34464700D02*
X156799400Y-33383200D01*
X175035300Y-34464700D02*
X157880900Y-34464700D01*
X134376200Y-35313200D02*
X134146500Y-35083500D01*
X135061600Y-35313200D02*
X134376200Y-35313200D01*
X156799400Y-33383200D02*
X136991600Y-33383200D01*
%TO.N,/A19*%
X142966500Y-37573500D02*
X154673500Y-37573500D01*
X154673500Y-37573500D02*
X160760000Y-43660000D01*
X142000000Y-38540000D02*
X142966500Y-37573500D01*
X155480300Y-70736300D02*
X153691400Y-70736300D01*
%TO.N,/D29*%
X188554500Y-58900000D02*
X187102500Y-60352000D01*
%TO.N,/{slash}IPL2*%
X145080000Y-86580000D02*
X135885000Y-77385000D01*
X135885000Y-77385000D02*
X135885000Y-75033000D01*
X161942500Y-86580000D02*
X145080000Y-86580000D01*
%TO.N,/A3*%
X156648100Y-33799900D02*
X137142900Y-33799900D01*
X117026082Y-35389000D02*
X115123382Y-37291700D01*
X132889000Y-35389000D02*
X117026082Y-35389000D01*
X137142900Y-33799900D02*
X134942800Y-36000000D01*
X157894400Y-35046200D02*
X156648100Y-33799900D01*
X133500000Y-36000000D02*
X132889000Y-35389000D01*
X168380000Y-36040000D02*
X167386200Y-35046200D01*
X134942800Y-36000000D02*
X133500000Y-36000000D01*
X167386200Y-35046200D02*
X157894400Y-35046200D01*
X113864800Y-73000000D02*
X115565000Y-74700200D01*
X115123382Y-37291700D02*
X112645500Y-37291700D01*
%TO.N,/A13*%
X135969000Y-35540900D02*
X137301700Y-34208200D01*
X136025600Y-36778000D02*
X135969000Y-36721400D01*
X146266800Y-34201600D02*
X146260200Y-34208200D01*
X160760000Y-36040000D02*
X160356800Y-35636800D01*
X157917000Y-35636800D02*
X156481800Y-34201600D01*
X160356800Y-35636800D02*
X157917000Y-35636800D01*
X137301700Y-34208200D02*
X146260200Y-34208200D01*
X156481800Y-34201600D02*
X146266800Y-34201600D01*
X135969000Y-36721400D02*
X135969000Y-35540900D01*
%TO.N,/A10*%
X132934800Y-90683200D02*
X125725000Y-97893000D01*
X148218300Y-90683200D02*
X132934800Y-90683200D01*
%TO.N,/A14*%
X163246357Y-72199500D02*
X163445857Y-72000000D01*
X145687600Y-72199500D02*
X163246357Y-72199500D01*
X165785800Y-72000000D02*
X165979000Y-72193200D01*
X163445857Y-72000000D02*
X165785800Y-72000000D01*
X145382300Y-71894200D02*
X145687600Y-72199500D01*
%TO.N,/FC2*%
X130473400Y-70776800D02*
X151383600Y-70776800D01*
X129901000Y-71349200D02*
X130473400Y-70776800D01*
X151383600Y-70776800D02*
X152117600Y-71510800D01*
X167367600Y-71510800D02*
X167933400Y-70945000D01*
X152117600Y-71510800D02*
X167367600Y-71510800D01*
%TO.N,/FC1*%
X160625800Y-68150500D02*
X160162500Y-68613800D01*
X162879100Y-64981600D02*
X160625800Y-67234900D01*
X146542300Y-70326400D02*
X147036300Y-69832400D01*
X147714200Y-67923300D02*
X147676400Y-67961100D01*
X160625800Y-67234900D02*
X160625800Y-68150500D01*
X160162500Y-68613800D02*
X154798100Y-68613800D01*
X128461800Y-70326400D02*
X146542300Y-70326400D01*
X154798100Y-68613800D02*
X154107600Y-67923300D01*
X154107600Y-67923300D02*
X147714200Y-67923300D01*
X165840000Y-63980000D02*
X164838400Y-64981600D01*
X127972200Y-70816000D02*
X128461800Y-70326400D01*
X164838400Y-64981600D02*
X162879100Y-64981600D01*
%TO.N,/D28*%
X185066600Y-64743800D02*
X185066600Y-63629000D01*
X185985600Y-62710000D02*
X189970000Y-62710000D01*
X185066600Y-63629000D02*
X185985600Y-62710000D01*
X189970000Y-62710000D02*
X191240000Y-61440000D01*
%TO.N,/A2*%
X109850800Y-34987157D02*
X109850800Y-69500000D01*
X113868557Y-30969400D02*
X109850800Y-34987157D01*
X112551800Y-72201000D02*
X115273000Y-72201000D01*
X168380000Y-33500000D02*
X165849400Y-30969400D01*
X165849400Y-30969400D02*
X113868557Y-30969400D01*
X115273000Y-72201000D02*
X118105000Y-75033000D01*
X109850800Y-69500000D02*
X112551800Y-72201000D01*
%TO.N,/{slash}IPL0*%
X131443900Y-71879000D02*
X132076000Y-71246900D01*
X176314300Y-52500000D02*
X153461000Y-52500000D01*
X177882500Y-50931800D02*
X176314300Y-52500000D01*
X153461000Y-52500000D02*
X151798800Y-50837800D01*
X132076000Y-71246900D02*
X149635000Y-71246900D01*
X149635000Y-71246900D02*
X149986600Y-71598500D01*
%TO.N,/D18*%
X195352450Y-72147550D02*
X194520200Y-72979800D01*
X194520200Y-72979800D02*
X188738200Y-72979800D01*
X188738200Y-72979800D02*
X186685000Y-75033000D01*
%TO.N,/A1*%
X136683300Y-65016500D02*
X135519900Y-66179900D01*
X164570000Y-55090000D02*
X165840000Y-56360000D01*
X125403100Y-66179900D02*
X124876400Y-66706600D01*
X158966300Y-55090000D02*
X164570000Y-55090000D01*
X158419900Y-54543600D02*
X158966300Y-55090000D01*
X157978600Y-63500500D02*
X156264400Y-65214700D01*
X142281418Y-65016500D02*
X136683300Y-65016500D01*
X142479618Y-65214700D02*
X142281418Y-65016500D01*
X156264400Y-65214700D02*
X142479618Y-65214700D01*
X135519900Y-66179900D02*
X125403100Y-66179900D01*
%TO.N,/A20*%
X142000000Y-36000000D02*
X142803300Y-36803300D01*
X161050900Y-40052300D02*
X162171300Y-41172700D01*
X162171300Y-45071300D02*
X163300000Y-46200000D01*
X142803300Y-36803300D02*
X156248300Y-36803300D01*
X162171300Y-41172700D02*
X162171300Y-45071300D01*
X159497300Y-40052300D02*
X161050900Y-40052300D01*
X156248300Y-36803300D02*
X159497300Y-40052300D01*
%TO.N,/A4*%
X111456600Y-35123100D02*
X114455600Y-32124100D01*
X162570500Y-32124100D02*
X162946400Y-32500000D01*
X162946400Y-32500000D02*
X164840000Y-32500000D01*
X114455600Y-32124100D02*
X162570500Y-32124100D01*
X164840000Y-32500000D02*
X165840000Y-33500000D01*
D18*
%TO.N,/{slash}DSACK0*%
X173500000Y-67400000D02*
X173500000Y-64020000D01*
D19*
%TO.N,/{slash}DSACK1*%
X159962300Y-62926200D02*
X174513800Y-62926200D01*
X139540000Y-63620000D02*
X140503200Y-62656800D01*
X159692900Y-62656800D02*
X159962300Y-62926200D01*
X140503200Y-62656800D02*
X159692900Y-62656800D01*
X174513800Y-62926200D02*
X176000000Y-61440000D01*
%TO.N,/{slash}RESET_30*%
X148684100Y-69985200D02*
X160047500Y-69985200D01*
X131129700Y-56069100D02*
X128738800Y-58460000D01*
X161171400Y-71109100D02*
X166493300Y-71109100D01*
X145071000Y-90071000D02*
X167973500Y-90071000D01*
X137000000Y-69500000D02*
X137324200Y-69175800D01*
X137324200Y-69175800D02*
X147874700Y-69175800D01*
X128738800Y-58460000D02*
X125000000Y-58460000D01*
X166493300Y-71109100D02*
X167802500Y-69799900D01*
X138500000Y-83500000D02*
X145071000Y-90071000D01*
X147874700Y-69175800D02*
X148684100Y-69985200D01*
X160047500Y-69985200D02*
X161171400Y-71109100D01*
X134260600Y-56069100D02*
X131129700Y-56069100D01*
X167973500Y-90071000D02*
X169562500Y-91660000D01*
X167802500Y-69799900D02*
X169550100Y-69799900D01*
%TO.N,/P2.A17*%
X135754400Y-67634300D02*
X140109500Y-67634300D01*
X140109500Y-67634300D02*
X141583800Y-66160000D01*
%TO.N,/{slash}AS_30*%
X174500000Y-61000000D02*
X175300000Y-60200000D01*
X158056200Y-60251900D02*
X160328800Y-62524500D01*
X175300000Y-60200000D02*
X179840000Y-60200000D01*
X144323000Y-56264000D02*
X148310900Y-60251900D01*
X173721500Y-62524500D02*
X174500000Y-61746000D01*
X174500000Y-61746000D02*
X174500000Y-61000000D01*
X142489700Y-57411300D02*
X143637000Y-56264000D01*
X131020100Y-58540000D02*
X134460000Y-58540000D01*
X135588700Y-57411300D02*
X142489700Y-57411300D01*
X143637000Y-56264000D02*
X144323000Y-56264000D01*
X124048300Y-61951700D02*
X127608400Y-61951700D01*
X122460000Y-63540000D02*
X124048300Y-61951700D01*
X134460000Y-58540000D02*
X135588700Y-57411300D01*
X127608400Y-61951700D02*
X131020100Y-58540000D01*
X148310900Y-60251900D02*
X158056200Y-60251900D01*
X179840000Y-60200000D02*
X181080000Y-61440000D01*
X160328800Y-62524500D02*
X173721500Y-62524500D01*
D18*
%TO.N,/{slash}STERM*%
X176000000Y-67400000D02*
X176000000Y-63980000D01*
D19*
%TO.N,/{slash}CBACK*%
X181000000Y-66900000D02*
X181080000Y-66820000D01*
D18*
X181080000Y-66820000D02*
X181080000Y-63980000D01*
D19*
%TO.N,/{slash}HALT_30*%
X182535800Y-64054300D02*
X182535800Y-65471600D01*
X183500000Y-67400000D02*
X183500000Y-66435800D01*
X181191500Y-62710000D02*
X182535800Y-64054300D01*
X179810000Y-62710000D02*
X181191500Y-62710000D01*
X182535800Y-65471600D02*
X183500000Y-66435800D01*
X178540000Y-61440000D02*
X179810000Y-62710000D01*
%TO.N,/CDIS*%
X176953000Y-34453000D02*
X178540000Y-36040000D01*
X173658700Y-29792900D02*
X176953000Y-33087200D01*
X119500000Y-29792900D02*
X173658700Y-29792900D01*
X176953000Y-33087200D02*
X176953000Y-34453000D01*
D20*
%TO.N,/{slash}BR_30*%
X159375000Y-65365000D02*
X160760000Y-63980000D01*
X159375000Y-67400000D02*
X159375000Y-65365000D01*
D19*
%TO.N,/{slash}BGACK_30*%
X169650000Y-61355700D02*
X169650000Y-61922800D01*
X165840000Y-58900000D02*
X166419300Y-58900000D01*
X168294300Y-60000000D02*
X169650000Y-61355700D01*
X167519300Y-60000000D02*
X168294300Y-60000000D01*
D17*
X168851000Y-67809500D02*
X168034500Y-67809500D01*
D19*
X166419300Y-58900000D02*
X167519300Y-60000000D01*
%TO.N,/{slash}BERR_30*%
X162135300Y-61470382D02*
X162135300Y-61839900D01*
X177535800Y-68364200D02*
X178500000Y-67400000D01*
X160515118Y-59850200D02*
X162135300Y-61470382D01*
D18*
X178500000Y-67400000D02*
X178500000Y-64020000D01*
D19*
X117380000Y-55920000D02*
X118676300Y-54623700D01*
X118676300Y-54623700D02*
X145024900Y-54623700D01*
X167670000Y-68796400D02*
X169226800Y-68796400D01*
X162857100Y-70305700D02*
X166160700Y-70305700D01*
X150251400Y-59850200D02*
X160515118Y-59850200D01*
X169659000Y-68364200D02*
X177535800Y-68364200D01*
X145024900Y-54623700D02*
X150251400Y-59850200D01*
X169226800Y-68796400D02*
X169659000Y-68364200D01*
X166160700Y-70305700D02*
X167670000Y-68796400D01*
X162559600Y-70008200D02*
X162857100Y-70305700D01*
%TO.N,/CLK_30*%
X170920000Y-63980000D02*
X168701700Y-66198300D01*
X165595300Y-69904700D02*
X163306043Y-69904700D01*
X162584643Y-69183300D02*
X160729000Y-69183300D01*
X148227300Y-68325000D02*
X147914500Y-68637800D01*
X133354900Y-67445000D02*
X122458500Y-67445000D01*
X134547700Y-68637800D02*
X133354900Y-67445000D01*
X163306043Y-69904700D02*
X162584643Y-69183300D01*
X153138500Y-68325000D02*
X148227300Y-68325000D01*
X147914500Y-68637800D02*
X134547700Y-68637800D01*
X166837500Y-66198300D02*
X166017900Y-67017900D01*
X166017900Y-69482100D02*
X165595300Y-69904700D01*
X121508300Y-65905800D02*
X120723500Y-65121000D01*
X153993800Y-69180300D02*
X153138500Y-68325000D01*
X118339000Y-65121000D02*
X117380000Y-66080000D01*
X160726000Y-69180300D02*
X153993800Y-69180300D01*
X121508300Y-66494800D02*
X121508300Y-65905800D01*
X122458500Y-67445000D02*
X121508300Y-66494800D01*
X166017900Y-67017900D02*
X166017900Y-69482100D01*
X120723500Y-65121000D02*
X118339000Y-65121000D01*
X160729000Y-69183300D02*
X160726000Y-69180300D01*
X168701700Y-66198300D02*
X166837500Y-66198300D01*
%TO.N,/{slash}CIIN*%
X142318400Y-49018400D02*
X139460000Y-46160000D01*
X149133200Y-69583500D02*
X160213800Y-69583500D01*
X161338400Y-70708100D02*
X162407300Y-70708100D01*
X148476400Y-68926700D02*
X149133200Y-69583500D01*
X181105800Y-68797900D02*
X181477200Y-69169300D01*
X169593300Y-69198100D02*
X169993500Y-68797900D01*
X180943300Y-86661000D02*
X180072600Y-87531700D01*
X160213800Y-69583500D02*
X161338400Y-70708100D01*
X148014200Y-49018400D02*
X142318400Y-49018400D01*
X180072600Y-87531700D02*
X165434200Y-87531700D01*
X162408000Y-70707400D02*
X166327000Y-70707400D01*
X169993500Y-68797900D02*
X181105800Y-68797900D01*
X162407300Y-70708100D02*
X162408000Y-70707400D01*
X167836300Y-69198100D02*
X169593300Y-69198100D01*
X166327000Y-70707400D02*
X167836300Y-69198100D01*
X165434200Y-87531700D02*
X164482500Y-86580000D01*
%TO.N,/AVEC*%
X169547200Y-60067200D02*
X170920000Y-61440000D01*
X157158400Y-57311700D02*
X168561700Y-57311700D01*
X168561700Y-57311700D02*
X169547200Y-58297200D01*
X139460000Y-43620000D02*
X141049800Y-45209800D01*
X169547200Y-58297200D02*
X169547200Y-60067200D01*
X141049800Y-45209800D02*
X145056500Y-45209800D01*
X145056500Y-45209800D02*
X157158400Y-57311700D01*
%TO.N,/SIZ0*%
X187959100Y-60455100D02*
X186974200Y-61440000D01*
X174977500Y-85026100D02*
X162928600Y-85026100D01*
X182055200Y-85725900D02*
X175677300Y-85725900D01*
X175677300Y-85725900D02*
X174977500Y-85026100D01*
X188892000Y-66800000D02*
X188892000Y-65931600D01*
X188892000Y-65931600D02*
X190000000Y-64823600D01*
X190500000Y-63000000D02*
X191500000Y-63000000D01*
X162928600Y-85026100D02*
X161942500Y-84040000D01*
X184109000Y-83672100D02*
X182055200Y-85725900D01*
X191955100Y-60455100D02*
X187959100Y-60455100D01*
X191500000Y-63000000D02*
X192500000Y-62000000D01*
X190000000Y-63500000D02*
X190500000Y-63000000D01*
X190000000Y-64823600D02*
X190000000Y-63500000D01*
X192500000Y-62000000D02*
X192500000Y-61000000D01*
X186974200Y-61440000D02*
X186160000Y-61440000D01*
X192500000Y-61000000D02*
X191955100Y-60455100D01*
%TO.N,/{slash}FPUCS*%
X131449000Y-49904400D02*
X136144400Y-45209000D01*
X140159000Y-45209000D02*
X141110000Y-46160000D01*
X136144400Y-45209000D02*
X140159000Y-45209000D01*
X141110000Y-46160000D02*
X142000000Y-46160000D01*
%TO.N,/{slash}SCC.RW.DEC*%
X129264400Y-42350000D02*
X126154000Y-45460400D01*
X136920000Y-41080000D02*
X135650000Y-42350000D01*
X135650000Y-42350000D02*
X129264400Y-42350000D01*
X126154000Y-45460400D02*
X124661900Y-45460400D01*
%TO.N,/N$1*%
X121429600Y-56950400D02*
X119920000Y-58460000D01*
X141125600Y-55045600D02*
X131385000Y-55045600D01*
X129480200Y-56950400D02*
X131385000Y-55045600D01*
X142080000Y-56000000D02*
X141125600Y-55045600D01*
X129480200Y-56950400D02*
X121429600Y-56950400D01*
%TO.N,/N$7*%
X140358800Y-80641200D02*
X145195800Y-85478200D01*
X145195800Y-85478200D02*
X168460700Y-85478200D01*
X168460700Y-85478200D02*
X169562500Y-86580000D01*
%TO.N,/SM_CLK16*%
X139540000Y-56000000D02*
X138588300Y-56000000D01*
X114840000Y-63540000D02*
X116110000Y-62270000D01*
X128156500Y-59730000D02*
X130934800Y-56951700D01*
X121463900Y-59730000D02*
X128156500Y-59730000D01*
X137636600Y-56951700D02*
X138588300Y-56000000D01*
X130934800Y-56951700D02*
X137636600Y-56951700D01*
X118923900Y-62270000D02*
X121463900Y-59730000D01*
X116110000Y-62270000D02*
X118923900Y-62270000D01*
%TO.N,Net-(U7-I5)*%
X125040000Y-41420000D02*
X123770000Y-40150000D01*
X123770000Y-40150000D02*
X116150000Y-40150000D01*
X116150000Y-40150000D02*
X114880000Y-38880000D01*
%TO.N,Net-(U7-I3)*%
X123770000Y-42690000D02*
X125040000Y-43960000D01*
X116150000Y-42690000D02*
X123770000Y-42690000D01*
X114880000Y-41420000D02*
X116150000Y-42690000D01*
%TD*%
%TA.AperFunction,Conductor*%
%TO.N,GND*%
G36*
X186906727Y-66741688D02*
G01*
X187556984Y-67146565D01*
X187562196Y-67153847D01*
X187562500Y-67156497D01*
X187562500Y-67643502D01*
X187559073Y-67651775D01*
X187556984Y-67653434D01*
X186906728Y-68058310D01*
X186897894Y-68059774D01*
X186893613Y-68057804D01*
X186330162Y-67643502D01*
X186011818Y-67409425D01*
X186007184Y-67401764D01*
X186009324Y-67393069D01*
X186011819Y-67390574D01*
X186893615Y-66742194D01*
X186902308Y-66740055D01*
X186906727Y-66741688D01*
G37*
%TD.AperFunction*%
%TD*%
%TA.AperFunction,Conductor*%
%TO.N,GND*%
G36*
X187839631Y-67109354D02*
G01*
X187843535Y-67115960D01*
X187900530Y-67397680D01*
X187900530Y-67402320D01*
X187843535Y-67684039D01*
X187838535Y-67691468D01*
X187831104Y-67693379D01*
X187316501Y-67650886D01*
X187308538Y-67646790D01*
X187305764Y-67639226D01*
X187305764Y-67160773D01*
X187309191Y-67152500D01*
X187316499Y-67149113D01*
X187831104Y-67106620D01*
X187839631Y-67109354D01*
G37*
%TD.AperFunction*%
%TD*%
%TA.AperFunction,Conductor*%
%TO.N,VCC*%
G36*
X172605654Y-69866657D02*
G01*
X173487421Y-70515015D01*
X173492056Y-70522677D01*
X173489916Y-70531372D01*
X173486898Y-70534230D01*
X172606979Y-71110191D01*
X172598180Y-71111855D01*
X172593406Y-71109652D01*
X172004535Y-70653512D01*
X172000093Y-70645736D01*
X172000000Y-70644262D01*
X172000000Y-70157367D01*
X172003427Y-70149094D01*
X172006642Y-70146817D01*
X172593670Y-69865532D01*
X172602610Y-69865048D01*
X172605654Y-69866657D01*
G37*
%TD.AperFunction*%
%TD*%
%TA.AperFunction,Conductor*%
%TO.N,VCC*%
G36*
X172583499Y-70149113D02*
G01*
X172591462Y-70153209D01*
X172594236Y-70160773D01*
X172594236Y-70639226D01*
X172590809Y-70647499D01*
X172583499Y-70650886D01*
X172068895Y-70693379D01*
X172060368Y-70690645D01*
X172056464Y-70684039D01*
X171999469Y-70402320D01*
X171999469Y-70397680D01*
X172049578Y-70150000D01*
X172056464Y-70115959D01*
X172061464Y-70108531D01*
X172068894Y-70106620D01*
X172583499Y-70149113D01*
G37*
%TD.AperFunction*%
%TD*%
%TA.AperFunction,Conductor*%
%TO.N,VCC*%
G36*
X164506931Y-67409324D02*
G01*
X164509426Y-67411819D01*
X165157804Y-68293613D01*
X165159944Y-68302308D01*
X165158310Y-68306728D01*
X164753434Y-68956984D01*
X164746152Y-68962196D01*
X164743502Y-68962500D01*
X164256498Y-68962500D01*
X164248225Y-68959073D01*
X164246566Y-68956984D01*
X163841689Y-68306728D01*
X163840225Y-68297894D01*
X163842192Y-68293617D01*
X164490574Y-67411818D01*
X164498236Y-67407184D01*
X164506931Y-67409324D01*
G37*
%TD.AperFunction*%
%TD*%
%TA.AperFunction,Conductor*%
%TO.N,VCC*%
G36*
X164747500Y-68409191D02*
G01*
X164750887Y-68416501D01*
X164793379Y-68931104D01*
X164790645Y-68939631D01*
X164784039Y-68943535D01*
X164502320Y-69000530D01*
X164497680Y-69000530D01*
X164215960Y-68943535D01*
X164208531Y-68938535D01*
X164206620Y-68931104D01*
X164249113Y-68416501D01*
X164253209Y-68408538D01*
X164260773Y-68405764D01*
X164739227Y-68405764D01*
X164747500Y-68409191D01*
G37*
%TD.AperFunction*%
%TD*%
%TA.AperFunction,Conductor*%
%TO.N,VCC*%
G36*
X186906727Y-69866688D02*
G01*
X187556984Y-70271565D01*
X187562196Y-70278847D01*
X187562500Y-70281497D01*
X187562500Y-70768502D01*
X187559073Y-70776775D01*
X187556984Y-70778434D01*
X186906728Y-71183310D01*
X186897894Y-71184774D01*
X186893613Y-71182804D01*
X186330162Y-70768502D01*
X186011818Y-70534425D01*
X186007184Y-70526764D01*
X186009324Y-70518069D01*
X186011819Y-70515574D01*
X186893615Y-69867194D01*
X186902308Y-69865055D01*
X186906727Y-69866688D01*
G37*
%TD.AperFunction*%
%TD*%
%TA.AperFunction,Conductor*%
%TO.N,VCC*%
G36*
X187839631Y-70234354D02*
G01*
X187843535Y-70240960D01*
X187900530Y-70522680D01*
X187900530Y-70527320D01*
X187843535Y-70809039D01*
X187838535Y-70816468D01*
X187831104Y-70818379D01*
X187316501Y-70775886D01*
X187308538Y-70771790D01*
X187305764Y-70764226D01*
X187305764Y-70285773D01*
X187309191Y-70277500D01*
X187316499Y-70274113D01*
X187831104Y-70231620D01*
X187839631Y-70234354D01*
G37*
%TD.AperFunction*%
%TD*%
%TA.AperFunction,Conductor*%
%TO.N,/{slash}AS_00*%
G36*
X144613016Y-58537773D02*
G01*
X144620468Y-58542738D01*
X144622226Y-58546983D01*
X144744851Y-59167601D01*
X144743093Y-59176382D01*
X144737292Y-59180893D01*
X143787268Y-59518641D01*
X143778325Y-59518183D01*
X143775076Y-59515890D01*
X143644109Y-59384923D01*
X143640682Y-59376650D01*
X143641358Y-59372731D01*
X143979107Y-58422705D01*
X143985106Y-58416060D01*
X143992395Y-58415148D01*
X144613016Y-58537773D01*
G37*
%TD.AperFunction*%
%TD*%
%TA.AperFunction,Conductor*%
%TO.N,/{slash}AS_00*%
G36*
X142906931Y-64324518D02*
G01*
X142912992Y-64331109D01*
X142913473Y-64332810D01*
X142969830Y-64611380D01*
X142969830Y-64616020D01*
X142913457Y-64894668D01*
X142908457Y-64902097D01*
X142899669Y-64903816D01*
X142898034Y-64903359D01*
X142382809Y-64718282D01*
X142376181Y-64712260D01*
X142375064Y-64707271D01*
X142375064Y-64523676D01*
X142378491Y-64515403D01*
X142382739Y-64512691D01*
X142897986Y-64324143D01*
X142906931Y-64324518D01*
G37*
%TD.AperFunction*%
%TD*%
%TA.AperFunction,Conductor*%
%TO.N,/{slash}AS_00*%
G36*
X167833106Y-83093047D02*
G01*
X167835955Y-83095141D01*
X167966908Y-83226094D01*
X167970335Y-83234367D01*
X167969495Y-83238720D01*
X167601119Y-84157803D01*
X167594860Y-84164207D01*
X167587991Y-84164928D01*
X166966983Y-84042226D01*
X166959531Y-84037261D01*
X166957773Y-84033016D01*
X166835225Y-83412786D01*
X166836983Y-83404007D01*
X166843206Y-83399354D01*
X167824186Y-83092248D01*
X167833106Y-83093047D01*
G37*
%TD.AperFunction*%
%TD*%
%TA.AperFunction,Conductor*%
%TO.N,/{slash}AS_00*%
G36*
X179046828Y-75009546D02*
G01*
X179049501Y-75012219D01*
X179659603Y-75861114D01*
X179661648Y-75869832D01*
X179660705Y-75872888D01*
X179168150Y-76928835D01*
X179161547Y-76934884D01*
X179157547Y-76935589D01*
X178972146Y-76935589D01*
X178963873Y-76932162D01*
X178961737Y-76929231D01*
X178419663Y-75873040D01*
X178418934Y-75864115D01*
X178420568Y-75860875D01*
X179030499Y-75012218D01*
X179038110Y-75007501D01*
X179046828Y-75009546D01*
G37*
%TD.AperFunction*%
%TD*%
%TA.AperFunction,Conductor*%
%TO.N,/{slash}AS_00*%
G36*
X166158719Y-83030503D02*
G01*
X167077803Y-83398880D01*
X167084207Y-83405139D01*
X167084928Y-83412008D01*
X166962226Y-84033016D01*
X166957261Y-84040468D01*
X166953016Y-84042226D01*
X166332788Y-84164774D01*
X166324007Y-84163016D01*
X166319354Y-84156792D01*
X166012248Y-83175813D01*
X166013047Y-83166893D01*
X166015138Y-83164047D01*
X166146095Y-83033090D01*
X166154367Y-83029664D01*
X166158719Y-83030503D01*
G37*
%TD.AperFunction*%
%TD*%
%TA.AperFunction,Conductor*%
%TO.N,/{slash}AS_00*%
G36*
X145435844Y-78662616D02*
G01*
X145436693Y-78664126D01*
X145508580Y-78817793D01*
X145628291Y-79073693D01*
X145668922Y-79160546D01*
X145669323Y-79169492D01*
X145666597Y-79173777D01*
X145536777Y-79303597D01*
X145528504Y-79307024D01*
X145523547Y-79305922D01*
X145372928Y-79235461D01*
X145027126Y-79073693D01*
X145021085Y-79067083D01*
X145021486Y-79058137D01*
X145022335Y-79056627D01*
X145179485Y-78819763D01*
X145182763Y-78816485D01*
X145419627Y-78659334D01*
X145428415Y-78657616D01*
X145435844Y-78662616D01*
G37*
%TD.AperFunction*%
%TD*%
%TA.AperFunction,Conductor*%
%TO.N,/{slash}AS_00*%
G36*
X125370242Y-63003881D02*
G01*
X126280835Y-63436826D01*
X126286834Y-63443472D01*
X126287510Y-63447391D01*
X126287510Y-63632608D01*
X126284083Y-63640881D01*
X126280834Y-63643174D01*
X125370243Y-64076117D01*
X125361300Y-64076575D01*
X125355499Y-64072064D01*
X125286427Y-63968976D01*
X125003362Y-63546511D01*
X125001605Y-63537732D01*
X125003361Y-63533490D01*
X125355499Y-63007934D01*
X125362951Y-63002970D01*
X125370242Y-63003881D01*
G37*
%TD.AperFunction*%
%TD*%
%TA.AperFunction,Conductor*%
%TO.N,/A9*%
G36*
X147363262Y-66513886D02*
G01*
X147364772Y-66514735D01*
X147601634Y-66671884D01*
X147604915Y-66675165D01*
X147762064Y-66912027D01*
X147763783Y-66920815D01*
X147758783Y-66928244D01*
X147757273Y-66929093D01*
X147260853Y-67161322D01*
X147251907Y-67161723D01*
X147247622Y-67158997D01*
X147117802Y-67029177D01*
X147114375Y-67020904D01*
X147115475Y-67015951D01*
X147347706Y-66519525D01*
X147354316Y-66513485D01*
X147363262Y-66513886D01*
G37*
%TD.AperFunction*%
%TD*%
%TA.AperFunction,Conductor*%
%TO.N,/A9*%
G36*
X165833016Y-38577773D02*
G01*
X165840468Y-38582738D01*
X165842226Y-38586983D01*
X165964851Y-39207601D01*
X165963093Y-39216382D01*
X165957292Y-39220893D01*
X165007268Y-39558641D01*
X164998325Y-39558183D01*
X164995076Y-39555890D01*
X164864109Y-39424923D01*
X164860682Y-39416650D01*
X164861358Y-39412731D01*
X165199107Y-38462705D01*
X165205106Y-38456060D01*
X165212395Y-38455148D01*
X165833016Y-38577773D01*
G37*
%TD.AperFunction*%
%TD*%
%TA.AperFunction,Conductor*%
%TO.N,/A9*%
G36*
X149548544Y-35553316D02*
G01*
X149549393Y-35554826D01*
X149621280Y-35708493D01*
X149740991Y-35964393D01*
X149781622Y-36051246D01*
X149782023Y-36060192D01*
X149779297Y-36064477D01*
X149649477Y-36194297D01*
X149641204Y-36197724D01*
X149636247Y-36196622D01*
X149485628Y-36126161D01*
X149139826Y-35964393D01*
X149133785Y-35957783D01*
X149134186Y-35948837D01*
X149135035Y-35947327D01*
X149292185Y-35710463D01*
X149295463Y-35707185D01*
X149532327Y-35550034D01*
X149541115Y-35548316D01*
X149548544Y-35553316D01*
G37*
%TD.AperFunction*%
%TD*%
%TA.AperFunction,Conductor*%
%TO.N,/A9*%
G36*
X128646682Y-66494689D02*
G01*
X129161925Y-66681504D01*
X129168534Y-66687544D01*
X129169636Y-66692502D01*
X129169636Y-66876097D01*
X129166209Y-66884370D01*
X129161924Y-66887096D01*
X128646690Y-67073908D01*
X128637744Y-67073507D01*
X128631703Y-67066897D01*
X128631237Y-67065239D01*
X128574869Y-66786618D01*
X128574869Y-66781980D01*
X128631235Y-66503367D01*
X128636234Y-66495941D01*
X128645022Y-66494222D01*
X128646682Y-66494689D01*
G37*
%TD.AperFunction*%
%TD*%
%TA.AperFunction,Conductor*%
%TO.N,/A12*%
G36*
X141246882Y-67129789D02*
G01*
X141762125Y-67316604D01*
X141768734Y-67322644D01*
X141769836Y-67327602D01*
X141769836Y-67511197D01*
X141766409Y-67519470D01*
X141762124Y-67522196D01*
X141246890Y-67709008D01*
X141237944Y-67708607D01*
X141231903Y-67701997D01*
X141231437Y-67700339D01*
X141175069Y-67421718D01*
X141175069Y-67417080D01*
X141231435Y-67138467D01*
X141236434Y-67131041D01*
X141245222Y-67129322D01*
X141246882Y-67129789D01*
G37*
%TD.AperFunction*%
%TD*%
%TA.AperFunction,Conductor*%
%TO.N,/A12*%
G36*
X153593211Y-65955955D02*
G01*
X154129172Y-65980347D01*
X154137281Y-65984147D01*
X154140328Y-65992567D01*
X154140123Y-65994280D01*
X154086136Y-66270409D01*
X154081185Y-66277871D01*
X154081135Y-66277904D01*
X153843242Y-66436225D01*
X153834456Y-66437956D01*
X153828002Y-66434243D01*
X153583951Y-66158721D01*
X153581009Y-66150963D01*
X153581009Y-65967644D01*
X153584436Y-65959371D01*
X153592709Y-65955944D01*
X153593211Y-65955955D01*
G37*
%TD.AperFunction*%
%TD*%
%TA.AperFunction,Conductor*%
%TO.N,/A6*%
G36*
X167547268Y-37601358D02*
G01*
X167786505Y-37686410D01*
X168497293Y-37939106D01*
X168503939Y-37945106D01*
X168504851Y-37952398D01*
X168382226Y-38573016D01*
X168377261Y-38580468D01*
X168373016Y-38582226D01*
X167752398Y-38704851D01*
X167743617Y-38703093D01*
X167739107Y-38697293D01*
X167401358Y-37747268D01*
X167401816Y-37738325D01*
X167404106Y-37735079D01*
X167535077Y-37604108D01*
X167543349Y-37600682D01*
X167547268Y-37601358D01*
G37*
%TD.AperFunction*%
%TD*%
%TA.AperFunction,Conductor*%
%TO.N,/A6*%
G36*
X115864982Y-37640289D02*
G01*
X116380225Y-37827104D01*
X116386834Y-37833144D01*
X116387936Y-37838102D01*
X116387936Y-38021697D01*
X116384509Y-38029970D01*
X116380224Y-38032696D01*
X115864990Y-38219508D01*
X115856044Y-38219107D01*
X115850003Y-38212497D01*
X115849537Y-38210839D01*
X115793169Y-37932218D01*
X115793169Y-37927580D01*
X115849535Y-37648967D01*
X115854534Y-37641541D01*
X115863322Y-37639822D01*
X115864982Y-37640289D01*
G37*
%TD.AperFunction*%
%TD*%
%TA.AperFunction,Conductor*%
%TO.N,/A5*%
G36*
X114108272Y-31600356D02*
G01*
X114113753Y-31607438D01*
X114114164Y-31610512D01*
X114114164Y-31792365D01*
X114112868Y-31797718D01*
X113913829Y-32184531D01*
X113906996Y-32190320D01*
X113898072Y-32189582D01*
X113896943Y-32188918D01*
X113661464Y-32032204D01*
X113656475Y-32024768D01*
X113656463Y-32024709D01*
X113612083Y-31797718D01*
X113601960Y-31745938D01*
X113603736Y-31737162D01*
X113610367Y-31732405D01*
X114099391Y-31599223D01*
X114108272Y-31600356D01*
G37*
%TD.AperFunction*%
%TD*%
%TA.AperFunction,Conductor*%
%TO.N,/A5*%
G36*
X163087151Y-31561868D02*
G01*
X163090984Y-31568414D01*
X163147495Y-31847745D01*
X163145776Y-31856533D01*
X163145737Y-31856592D01*
X162987857Y-32091468D01*
X162980398Y-32096422D01*
X162971620Y-32094651D01*
X162970875Y-32094106D01*
X162967550Y-32091468D01*
X162945267Y-32073787D01*
X162944266Y-32072895D01*
X162755012Y-31883641D01*
X162755007Y-31883637D01*
X162686491Y-31844079D01*
X162686487Y-31844077D01*
X162642434Y-31832273D01*
X162638190Y-31830137D01*
X162598585Y-31798713D01*
X162594234Y-31790887D01*
X162594157Y-31789548D01*
X162594157Y-31606060D01*
X162597584Y-31597787D01*
X162604986Y-31594392D01*
X163078647Y-31559066D01*
X163087151Y-31561868D01*
G37*
%TD.AperFunction*%
%TD*%
%TA.AperFunction,Conductor*%
%TO.N,/D24*%
G36*
X196038449Y-56024776D02*
G01*
X196349213Y-56170153D01*
X196534873Y-56257006D01*
X196540914Y-56263616D01*
X196540513Y-56272562D01*
X196539664Y-56274072D01*
X196382515Y-56510934D01*
X196379234Y-56514215D01*
X196142372Y-56671364D01*
X196133584Y-56673083D01*
X196126155Y-56668083D01*
X196125306Y-56666573D01*
X196052497Y-56510934D01*
X195893076Y-56170151D01*
X195892676Y-56161207D01*
X195895400Y-56156924D01*
X196025223Y-56027101D01*
X196033495Y-56023675D01*
X196038449Y-56024776D01*
G37*
%TD.AperFunction*%
%TD*%
%TA.AperFunction,Conductor*%
%TO.N,/D24*%
G36*
X189336382Y-53696906D02*
G01*
X189340893Y-53702707D01*
X189678641Y-54652731D01*
X189678183Y-54661674D01*
X189675890Y-54664923D01*
X189544923Y-54795890D01*
X189536650Y-54799317D01*
X189532731Y-54798641D01*
X188582707Y-54460893D01*
X188576060Y-54454893D01*
X188575148Y-54447603D01*
X188697773Y-53826981D01*
X188702738Y-53819531D01*
X188706980Y-53817774D01*
X189327603Y-53695148D01*
X189336382Y-53696906D01*
G37*
%TD.AperFunction*%
%TD*%
%TA.AperFunction,Conductor*%
%TO.N,/A21*%
G36*
X155028754Y-96570380D02*
G01*
X156041362Y-96673452D01*
X156049244Y-96677699D01*
X156051806Y-96683818D01*
X156179751Y-97851986D01*
X156177246Y-97860583D01*
X156172604Y-97864067D01*
X155441183Y-98167461D01*
X155432228Y-98167466D01*
X155425893Y-98161137D01*
X155425746Y-98160764D01*
X154884466Y-96718294D01*
X154884768Y-96709345D01*
X154887144Y-96705914D01*
X155019311Y-96573747D01*
X155027583Y-96570321D01*
X155028754Y-96570380D01*
G37*
%TD.AperFunction*%
%TD*%
%TA.AperFunction,Conductor*%
%TO.N,/A21*%
G36*
X144990242Y-38003881D02*
G01*
X145900835Y-38436826D01*
X145906834Y-38443472D01*
X145907510Y-38447391D01*
X145907510Y-38632608D01*
X145904083Y-38640881D01*
X145900834Y-38643174D01*
X144990243Y-39076117D01*
X144981300Y-39076575D01*
X144975499Y-39072064D01*
X144906427Y-38968976D01*
X144623362Y-38546511D01*
X144621605Y-38537732D01*
X144623361Y-38533490D01*
X144975499Y-38007934D01*
X144982951Y-38002970D01*
X144990242Y-38003881D01*
G37*
%TD.AperFunction*%
%TD*%
%TA.AperFunction,Conductor*%
%TO.N,/A21*%
G36*
X150962682Y-95256889D02*
G01*
X151477925Y-95443704D01*
X151484534Y-95449744D01*
X151485636Y-95454702D01*
X151485636Y-95638297D01*
X151482209Y-95646570D01*
X151477924Y-95649296D01*
X150962690Y-95836108D01*
X150953744Y-95835707D01*
X150947703Y-95829097D01*
X150947237Y-95827439D01*
X150890869Y-95548818D01*
X150890869Y-95544180D01*
X150947235Y-95265567D01*
X150952234Y-95258141D01*
X150961022Y-95256422D01*
X150962682Y-95256889D01*
G37*
%TD.AperFunction*%
%TD*%
%TA.AperFunction,Conductor*%
%TO.N,/A21*%
G36*
X159927268Y-45221358D02*
G01*
X160166505Y-45306410D01*
X160877293Y-45559106D01*
X160883939Y-45565106D01*
X160884851Y-45572398D01*
X160762226Y-46193016D01*
X160757261Y-46200468D01*
X160753016Y-46202226D01*
X160132398Y-46324851D01*
X160123617Y-46323093D01*
X160119107Y-46317293D01*
X159781358Y-45367268D01*
X159781816Y-45358325D01*
X159784106Y-45355079D01*
X159915077Y-45224108D01*
X159923349Y-45220682D01*
X159927268Y-45221358D01*
G37*
%TD.AperFunction*%
%TD*%
%TA.AperFunction,Conductor*%
%TO.N,/{slash}R{slash}W*%
G36*
X170268754Y-73710380D02*
G01*
X171281362Y-73813452D01*
X171289244Y-73817699D01*
X171291806Y-73823818D01*
X171419751Y-74991986D01*
X171417246Y-75000583D01*
X171412604Y-75004067D01*
X170681183Y-75307461D01*
X170672228Y-75307466D01*
X170665893Y-75301137D01*
X170665746Y-75300764D01*
X170124466Y-73858294D01*
X170124768Y-73849345D01*
X170127144Y-73845914D01*
X170259311Y-73713747D01*
X170267583Y-73710321D01*
X170268754Y-73710380D01*
G37*
%TD.AperFunction*%
%TD*%
%TA.AperFunction,Conductor*%
%TO.N,/{slash}R{slash}W*%
G36*
X136606175Y-72616279D02*
G01*
X136740617Y-72775000D01*
X136846774Y-72900327D01*
X136849546Y-72907889D01*
X136849546Y-73091157D01*
X136846119Y-73099430D01*
X136837846Y-73102857D01*
X136837127Y-73102835D01*
X136304798Y-73070056D01*
X136296751Y-73066127D01*
X136293839Y-73057659D01*
X136294032Y-73056144D01*
X136348063Y-72779788D01*
X136353013Y-72772329D01*
X136590766Y-72614101D01*
X136599552Y-72612371D01*
X136606175Y-72616279D01*
G37*
%TD.AperFunction*%
%TD*%
%TA.AperFunction,Conductor*%
%TO.N,/A22*%
G36*
X142715885Y-40957005D02*
G01*
X142720573Y-40963346D01*
X143019096Y-41952993D01*
X143018205Y-41961903D01*
X143016168Y-41964645D01*
X142885223Y-42095590D01*
X142876950Y-42099017D01*
X142872474Y-42098127D01*
X141962052Y-41721178D01*
X141955719Y-41714847D01*
X141955050Y-41708100D01*
X142077773Y-41086981D01*
X142082738Y-41079531D01*
X142086980Y-41077774D01*
X142707104Y-40955247D01*
X142715885Y-40957005D01*
G37*
%TD.AperFunction*%
%TD*%
%TA.AperFunction,Conductor*%
%TO.N,/A22*%
G36*
X163293016Y-48737773D02*
G01*
X163300468Y-48742738D01*
X163302226Y-48746983D01*
X163424851Y-49367601D01*
X163423093Y-49376382D01*
X163417292Y-49380893D01*
X162467268Y-49718641D01*
X162458325Y-49718183D01*
X162455076Y-49715890D01*
X162324109Y-49584923D01*
X162320682Y-49576650D01*
X162321358Y-49572731D01*
X162659107Y-48622705D01*
X162665106Y-48616060D01*
X162672395Y-48615148D01*
X163293016Y-48737773D01*
G37*
%TD.AperFunction*%
%TD*%
%TA.AperFunction,Conductor*%
%TO.N,/A8*%
G36*
X137816412Y-34710784D02*
G01*
X138331729Y-34913979D01*
X138338167Y-34920200D01*
X138339136Y-34924862D01*
X138339136Y-35108447D01*
X138335709Y-35116720D01*
X138331111Y-35119555D01*
X137815953Y-35289991D01*
X137807022Y-35289336D01*
X137801170Y-35282558D01*
X137800812Y-35281211D01*
X137744369Y-35002218D01*
X137744369Y-34997580D01*
X137760692Y-34916900D01*
X137800658Y-34719349D01*
X137805658Y-34711921D01*
X137814446Y-34710202D01*
X137816412Y-34710784D01*
G37*
%TD.AperFunction*%
%TD*%
%TA.AperFunction,Conductor*%
%TO.N,/A8*%
G36*
X163293016Y-36037773D02*
G01*
X163300468Y-36042738D01*
X163302226Y-36046983D01*
X163424851Y-36667601D01*
X163423093Y-36676382D01*
X163417292Y-36680893D01*
X162467268Y-37018641D01*
X162458325Y-37018183D01*
X162455076Y-37015890D01*
X162324109Y-36884923D01*
X162320682Y-36876650D01*
X162321358Y-36872731D01*
X162659107Y-35922705D01*
X162665106Y-35916060D01*
X162672395Y-35915148D01*
X163293016Y-36037773D01*
G37*
%TD.AperFunction*%
%TD*%
%TA.AperFunction,Conductor*%
%TO.N,/A18*%
G36*
X162433655Y-79710792D02*
G01*
X162439696Y-79717402D01*
X162440165Y-79719070D01*
X162496530Y-79997680D01*
X162496530Y-80002320D01*
X162440165Y-80280929D01*
X162435165Y-80288358D01*
X162426377Y-80290077D01*
X162424709Y-80289608D01*
X161909476Y-80102796D01*
X161902866Y-80096755D01*
X161901764Y-80091797D01*
X161901764Y-79908202D01*
X161905191Y-79899929D01*
X161909473Y-79897204D01*
X162424711Y-79710391D01*
X162433655Y-79710792D01*
G37*
%TD.AperFunction*%
%TD*%
%TA.AperFunction,Conductor*%
%TO.N,/A18*%
G36*
X160051677Y-80711302D02*
G01*
X160181497Y-80841122D01*
X160184924Y-80849395D01*
X160183822Y-80854353D01*
X159951593Y-81350773D01*
X159944983Y-81356814D01*
X159936037Y-81356413D01*
X159934527Y-81355564D01*
X159697665Y-81198415D01*
X159694384Y-81195134D01*
X159537235Y-80958272D01*
X159535516Y-80949484D01*
X159540516Y-80942055D01*
X159542021Y-80941208D01*
X160038448Y-80708976D01*
X160047392Y-80708576D01*
X160051677Y-80711302D01*
G37*
%TD.AperFunction*%
%TD*%
%TA.AperFunction,Conductor*%
%TO.N,/A18*%
G36*
X158260362Y-92339986D02*
G01*
X158261872Y-92340835D01*
X158498734Y-92497984D01*
X158502015Y-92501265D01*
X158659164Y-92738127D01*
X158660883Y-92746915D01*
X158655883Y-92754344D01*
X158654373Y-92755193D01*
X158157953Y-92987422D01*
X158149007Y-92987823D01*
X158144722Y-92985097D01*
X158014902Y-92855277D01*
X158011475Y-92847004D01*
X158012575Y-92842051D01*
X158244806Y-92345625D01*
X158251416Y-92339585D01*
X158260362Y-92339986D01*
G37*
%TD.AperFunction*%
%TD*%
%TA.AperFunction,Conductor*%
%TO.N,/A18*%
G36*
X147194573Y-96608385D02*
G01*
X147195179Y-96608950D01*
X147327408Y-96741179D01*
X147330835Y-96749452D01*
X147330027Y-96753725D01*
X146774401Y-98170020D01*
X146768189Y-98176470D01*
X146759236Y-98176639D01*
X146758915Y-98176507D01*
X146027447Y-97864188D01*
X146021184Y-97857788D01*
X146020439Y-97851915D01*
X146172340Y-96686896D01*
X146176807Y-96679138D01*
X146183112Y-96676740D01*
X147186080Y-96605552D01*
X147194573Y-96608385D01*
G37*
%TD.AperFunction*%
%TD*%
%TA.AperFunction,Conductor*%
%TO.N,/{slash}DTACK*%
G36*
X175411155Y-50504992D02*
G01*
X175417196Y-50511602D01*
X175417665Y-50513270D01*
X175474030Y-50791880D01*
X175474030Y-50796520D01*
X175417665Y-51075129D01*
X175412665Y-51082558D01*
X175403877Y-51084277D01*
X175402209Y-51083808D01*
X174886976Y-50896996D01*
X174880366Y-50890955D01*
X174879264Y-50885997D01*
X174879264Y-50702402D01*
X174882691Y-50694129D01*
X174886973Y-50691404D01*
X175402211Y-50504591D01*
X175411155Y-50504992D01*
G37*
%TD.AperFunction*%
%TD*%
%TA.AperFunction,Conductor*%
%TO.N,/{slash}DTACK*%
G36*
X135095885Y-38417005D02*
G01*
X135100573Y-38423346D01*
X135399096Y-39412993D01*
X135398205Y-39421903D01*
X135396168Y-39424645D01*
X135265223Y-39555590D01*
X135256950Y-39559017D01*
X135252474Y-39558127D01*
X134342052Y-39181178D01*
X134335719Y-39174847D01*
X134335050Y-39168100D01*
X134457773Y-38546981D01*
X134462738Y-38539531D01*
X134466980Y-38537774D01*
X135087104Y-38415247D01*
X135095885Y-38417005D01*
G37*
%TD.AperFunction*%
%TD*%
%TA.AperFunction,Conductor*%
%TO.N,/D23*%
G36*
X192448949Y-53684276D02*
G01*
X192759713Y-53829653D01*
X192945373Y-53916506D01*
X192951414Y-53923116D01*
X192951013Y-53932062D01*
X192950164Y-53933572D01*
X192793015Y-54170434D01*
X192789734Y-54173715D01*
X192552872Y-54330864D01*
X192544084Y-54332583D01*
X192536655Y-54327583D01*
X192535806Y-54326073D01*
X192462997Y-54170434D01*
X192303576Y-53829651D01*
X192303176Y-53820707D01*
X192305900Y-53816424D01*
X192435723Y-53686601D01*
X192443995Y-53683175D01*
X192448949Y-53684276D01*
G37*
%TD.AperFunction*%
%TD*%
%TA.AperFunction,Conductor*%
%TO.N,/D23*%
G36*
X191610328Y-53284133D02*
G01*
X192461886Y-53708464D01*
X192467762Y-53715220D01*
X192467139Y-53724153D01*
X192464940Y-53727208D01*
X192335778Y-53856370D01*
X192334122Y-53857746D01*
X191610883Y-54353759D01*
X191602122Y-54355612D01*
X191594617Y-54350727D01*
X191594590Y-54350687D01*
X191243645Y-53825803D01*
X191241896Y-53817022D01*
X191243652Y-53812790D01*
X191595393Y-53288089D01*
X191602845Y-53283126D01*
X191610328Y-53284133D01*
G37*
%TD.AperFunction*%
%TD*%
%TA.AperFunction,Conductor*%
%TO.N,/A16*%
G36*
X155750444Y-45389616D02*
G01*
X155751293Y-45391126D01*
X155823180Y-45544793D01*
X155942891Y-45800693D01*
X155983522Y-45887546D01*
X155983923Y-45896492D01*
X155981197Y-45900777D01*
X155851377Y-46030597D01*
X155843104Y-46034024D01*
X155838147Y-46032922D01*
X155687528Y-45962461D01*
X155341726Y-45800693D01*
X155335685Y-45794083D01*
X155336086Y-45785137D01*
X155336935Y-45783627D01*
X155494085Y-45546763D01*
X155497363Y-45543485D01*
X155734227Y-45386334D01*
X155743015Y-45384616D01*
X155750444Y-45389616D01*
G37*
%TD.AperFunction*%
%TD*%
%TA.AperFunction,Conductor*%
%TO.N,/A16*%
G36*
X163936382Y-43536906D02*
G01*
X163940893Y-43542707D01*
X164278641Y-44492731D01*
X164278183Y-44501674D01*
X164275890Y-44504923D01*
X164144923Y-44635890D01*
X164136650Y-44639317D01*
X164132731Y-44638641D01*
X163182707Y-44300893D01*
X163176060Y-44294893D01*
X163175148Y-44287603D01*
X163297773Y-43666981D01*
X163302738Y-43659531D01*
X163306980Y-43657774D01*
X163927603Y-43535148D01*
X163936382Y-43536906D01*
G37*
%TD.AperFunction*%
%TD*%
%TA.AperFunction,Conductor*%
%TO.N,/C8M.PDS*%
G36*
X120568072Y-65815265D02*
G01*
X120574395Y-65821605D01*
X120574423Y-65821672D01*
X121097416Y-67111722D01*
X121097348Y-67120677D01*
X121094846Y-67124391D01*
X120964391Y-67254846D01*
X120956118Y-67258273D01*
X120951722Y-67257416D01*
X119661672Y-66734423D01*
X119655293Y-66728139D01*
X119655225Y-66719185D01*
X119917438Y-66083787D01*
X119923759Y-66077449D01*
X120559117Y-65815253D01*
X120568072Y-65815265D01*
G37*
%TD.AperFunction*%
%TD*%
%TA.AperFunction,Conductor*%
%TO.N,/C8M.PDS*%
G36*
X122870242Y-45963881D02*
G01*
X123780835Y-46396826D01*
X123786834Y-46403472D01*
X123787510Y-46407391D01*
X123787510Y-46592608D01*
X123784083Y-46600881D01*
X123780834Y-46603174D01*
X122870243Y-47036117D01*
X122861300Y-47036575D01*
X122855499Y-47032064D01*
X122786427Y-46928976D01*
X122503362Y-46506511D01*
X122501605Y-46497732D01*
X122503361Y-46493490D01*
X122855499Y-45967934D01*
X122862951Y-45962970D01*
X122870242Y-45963881D01*
G37*
%TD.AperFunction*%
%TD*%
%TA.AperFunction,Conductor*%
%TO.N,/C8M.PDS*%
G36*
X136089831Y-52435479D02*
G01*
X136090939Y-52436882D01*
X136248272Y-52670944D01*
X136250043Y-52679722D01*
X136250030Y-52679791D01*
X136193405Y-52959685D01*
X136188405Y-52967114D01*
X136181728Y-52969063D01*
X135731177Y-52961005D01*
X135722966Y-52957431D01*
X135719686Y-52949307D01*
X135719686Y-52765926D01*
X135723113Y-52757653D01*
X135723443Y-52757336D01*
X136073300Y-52434806D01*
X136081704Y-52431719D01*
X136089831Y-52435479D01*
G37*
%TD.AperFunction*%
%TD*%
%TA.AperFunction,Conductor*%
%TO.N,/C8M.PDS*%
G36*
X165990845Y-80322731D02*
G01*
X167229519Y-80845421D01*
X167235809Y-80851795D01*
X167235750Y-80860750D01*
X167235719Y-80860821D01*
X166962627Y-81496237D01*
X166956212Y-81502485D01*
X166956184Y-81502496D01*
X166321218Y-81753798D01*
X166312264Y-81753656D01*
X166306033Y-81747225D01*
X166305906Y-81746888D01*
X166217763Y-81502496D01*
X165844690Y-80468079D01*
X165845107Y-80459135D01*
X165847420Y-80455841D01*
X165978024Y-80325237D01*
X165986296Y-80321811D01*
X165990845Y-80322731D01*
G37*
%TD.AperFunction*%
%TD*%
%TA.AperFunction,Conductor*%
%TO.N,/D22*%
G36*
X189541674Y-50301816D02*
G01*
X189544923Y-50304109D01*
X189675890Y-50435076D01*
X189679317Y-50443349D01*
X189678641Y-50447268D01*
X189340893Y-51397292D01*
X189334893Y-51403939D01*
X189327601Y-51404851D01*
X188706983Y-51282226D01*
X188699531Y-51277261D01*
X188697773Y-51273016D01*
X188575148Y-50652396D01*
X188576906Y-50643617D01*
X188582704Y-50639107D01*
X189532731Y-50301358D01*
X189541674Y-50301816D01*
G37*
%TD.AperFunction*%
%TD*%
%TA.AperFunction,Conductor*%
%TO.N,/D22*%
G36*
X191282355Y-49720792D02*
G01*
X191288396Y-49727402D01*
X191288865Y-49729070D01*
X191345230Y-50007680D01*
X191345230Y-50012320D01*
X191288865Y-50290929D01*
X191283865Y-50298358D01*
X191275077Y-50300077D01*
X191273409Y-50299608D01*
X190758176Y-50112796D01*
X190751566Y-50106755D01*
X190750464Y-50101797D01*
X190750464Y-49918202D01*
X190753891Y-49909929D01*
X190758173Y-49907204D01*
X191273411Y-49720391D01*
X191282355Y-49720792D01*
G37*
%TD.AperFunction*%
%TD*%
%TA.AperFunction,Conductor*%
%TO.N,/A23*%
G36*
X145277199Y-40584934D02*
G01*
X145858644Y-41303957D01*
X145861181Y-41312545D01*
X145857819Y-41319587D01*
X145724832Y-41452574D01*
X145722645Y-41454293D01*
X145277855Y-41725215D01*
X145269007Y-41726592D01*
X145263496Y-41723496D01*
X144628690Y-41088690D01*
X144625263Y-41080417D01*
X144628690Y-41072144D01*
X144629796Y-41071169D01*
X145260944Y-40583035D01*
X145269584Y-40580685D01*
X145277199Y-40584934D01*
G37*
%TD.AperFunction*%
%TD*%
%TA.AperFunction,Conductor*%
%TO.N,/A23*%
G36*
X160404500Y-48207935D02*
G01*
X160756636Y-48733487D01*
X160758394Y-48742268D01*
X160756636Y-48746513D01*
X160404500Y-49272064D01*
X160397048Y-49277029D01*
X160389756Y-49276117D01*
X159479166Y-48843174D01*
X159473166Y-48836527D01*
X159472490Y-48832608D01*
X159472490Y-48647391D01*
X159475917Y-48639118D01*
X159479162Y-48636827D01*
X160389757Y-48203881D01*
X160398699Y-48203424D01*
X160404500Y-48207935D01*
G37*
%TD.AperFunction*%
%TD*%
%TA.AperFunction,Conductor*%
%TO.N,/D16*%
G36*
X195065262Y-70339986D02*
G01*
X195066772Y-70340835D01*
X195303634Y-70497984D01*
X195306915Y-70501265D01*
X195464064Y-70738127D01*
X195465783Y-70746915D01*
X195460783Y-70754344D01*
X195459273Y-70755193D01*
X194962853Y-70987422D01*
X194953907Y-70987823D01*
X194949622Y-70985097D01*
X194819802Y-70855277D01*
X194816375Y-70847004D01*
X194817475Y-70842051D01*
X195049706Y-70345625D01*
X195056316Y-70339585D01*
X195065262Y-70339986D01*
G37*
%TD.AperFunction*%
%TD*%
%TA.AperFunction,Conductor*%
%TO.N,/D16*%
G36*
X182754573Y-73748385D02*
G01*
X182755179Y-73748950D01*
X182887408Y-73881179D01*
X182890835Y-73889452D01*
X182890027Y-73893725D01*
X182334401Y-75310020D01*
X182328189Y-75316470D01*
X182319236Y-75316639D01*
X182318915Y-75316507D01*
X181587447Y-75004188D01*
X181581184Y-74997788D01*
X181580439Y-74991915D01*
X181732340Y-73826896D01*
X181736807Y-73819138D01*
X181743112Y-73816740D01*
X182746080Y-73745552D01*
X182754573Y-73748385D01*
G37*
%TD.AperFunction*%
%TD*%
%TA.AperFunction,Conductor*%
%TO.N,/{slash}BR_00*%
G36*
X172215249Y-80724576D02*
G01*
X172526013Y-80869953D01*
X172711673Y-80956806D01*
X172717714Y-80963416D01*
X172717313Y-80972362D01*
X172716464Y-80973872D01*
X172559315Y-81210734D01*
X172556034Y-81214015D01*
X172319172Y-81371164D01*
X172310384Y-81372883D01*
X172302955Y-81367883D01*
X172302106Y-81366373D01*
X172229297Y-81210734D01*
X172069876Y-80869951D01*
X172069476Y-80861007D01*
X172072200Y-80856724D01*
X172202023Y-80726901D01*
X172210295Y-80723475D01*
X172215249Y-80724576D01*
G37*
%TD.AperFunction*%
%TD*%
%TA.AperFunction,Conductor*%
%TO.N,/{slash}BR_00*%
G36*
X162007740Y-74695408D02*
G01*
X162014055Y-74701758D01*
X162014206Y-74702146D01*
X162550893Y-76153041D01*
X162550550Y-76161989D01*
X162548193Y-76165373D01*
X162416055Y-76297511D01*
X162407782Y-76300938D01*
X162406476Y-76300865D01*
X162104206Y-76266897D01*
X161390034Y-76186642D01*
X161382196Y-76182313D01*
X161379702Y-76176206D01*
X161378594Y-76165373D01*
X161260182Y-75007983D01*
X161262749Y-74999405D01*
X161267371Y-74995973D01*
X161998787Y-74695383D01*
X162007740Y-74695408D01*
G37*
%TD.AperFunction*%
%TD*%
%TA.AperFunction,Conductor*%
%TO.N,/{slash}RESET_00*%
G36*
X166158719Y-88110503D02*
G01*
X167077803Y-88478880D01*
X167084207Y-88485139D01*
X167084928Y-88492008D01*
X166962226Y-89113016D01*
X166957261Y-89120468D01*
X166953016Y-89122226D01*
X166332788Y-89244774D01*
X166324007Y-89243016D01*
X166319354Y-89236792D01*
X166012248Y-88255813D01*
X166013047Y-88246893D01*
X166015138Y-88244047D01*
X166146095Y-88113090D01*
X166154367Y-88109664D01*
X166158719Y-88110503D01*
G37*
%TD.AperFunction*%
%TD*%
%TA.AperFunction,Conductor*%
%TO.N,/{slash}RESET_00*%
G36*
X149254344Y-87344116D02*
G01*
X149255193Y-87345626D01*
X149327080Y-87499293D01*
X149446791Y-87755193D01*
X149487422Y-87842046D01*
X149487823Y-87850992D01*
X149485097Y-87855277D01*
X149355277Y-87985097D01*
X149347004Y-87988524D01*
X149342047Y-87987422D01*
X149191428Y-87916961D01*
X148845626Y-87755193D01*
X148839585Y-87748583D01*
X148839986Y-87739637D01*
X148840835Y-87738127D01*
X148997985Y-87501263D01*
X149001263Y-87497985D01*
X149238127Y-87340834D01*
X149246915Y-87339116D01*
X149254344Y-87344116D01*
G37*
%TD.AperFunction*%
%TD*%
%TA.AperFunction,Conductor*%
%TO.N,/D31*%
G36*
X169508482Y-77941389D02*
G01*
X170023725Y-78128204D01*
X170030334Y-78134244D01*
X170031436Y-78139202D01*
X170031436Y-78322797D01*
X170028009Y-78331070D01*
X170023724Y-78333796D01*
X169508490Y-78520608D01*
X169499544Y-78520207D01*
X169493503Y-78513597D01*
X169493037Y-78511939D01*
X169436669Y-78233318D01*
X169436669Y-78228680D01*
X169493035Y-77950067D01*
X169498034Y-77942641D01*
X169506822Y-77940922D01*
X169508482Y-77941389D01*
G37*
%TD.AperFunction*%
%TD*%
%TA.AperFunction,Conductor*%
%TO.N,/D31*%
G36*
X191246509Y-63983361D02*
G01*
X191668976Y-64266427D01*
X191772064Y-64335499D01*
X191777029Y-64342951D01*
X191776117Y-64350243D01*
X191343174Y-65260834D01*
X191336527Y-65266834D01*
X191332608Y-65267510D01*
X191147392Y-65267510D01*
X191139119Y-65264083D01*
X191136826Y-65260834D01*
X190703882Y-64350243D01*
X190703424Y-64341300D01*
X190707934Y-64335499D01*
X191233488Y-63983362D01*
X191242268Y-63981605D01*
X191246509Y-63983361D01*
G37*
%TD.AperFunction*%
%TD*%
%TA.AperFunction,Conductor*%
%TO.N,/E*%
G36*
X122830242Y-65543881D02*
G01*
X123740835Y-65976826D01*
X123746834Y-65983472D01*
X123747510Y-65987391D01*
X123747510Y-66172608D01*
X123744083Y-66180881D01*
X123740834Y-66183174D01*
X122830243Y-66616117D01*
X122821300Y-66616575D01*
X122815499Y-66612064D01*
X122746427Y-66508976D01*
X122463362Y-66086511D01*
X122461605Y-66077732D01*
X122463361Y-66073490D01*
X122815499Y-65547934D01*
X122822951Y-65542970D01*
X122830242Y-65543881D01*
G37*
%TD.AperFunction*%
%TD*%
%TA.AperFunction,Conductor*%
%TO.N,/E*%
G36*
X136993016Y-61077773D02*
G01*
X137000468Y-61082738D01*
X137002226Y-61086983D01*
X137124851Y-61707601D01*
X137123093Y-61716382D01*
X137117292Y-61720893D01*
X136167268Y-62058641D01*
X136158325Y-62058183D01*
X136155076Y-62055890D01*
X136024109Y-61924923D01*
X136020682Y-61916650D01*
X136021358Y-61912731D01*
X136359107Y-60962705D01*
X136365106Y-60956060D01*
X136372395Y-60955148D01*
X136993016Y-61077773D01*
G37*
%TD.AperFunction*%
%TD*%
%TA.AperFunction,Conductor*%
%TO.N,/FC0*%
G36*
X127469377Y-53514902D02*
G01*
X127599197Y-53644722D01*
X127602624Y-53652995D01*
X127601522Y-53657953D01*
X127369293Y-54154373D01*
X127362683Y-54160414D01*
X127353737Y-54160013D01*
X127352227Y-54159164D01*
X127115365Y-54002015D01*
X127112084Y-53998734D01*
X126954935Y-53761872D01*
X126953216Y-53753084D01*
X126958216Y-53745655D01*
X126959721Y-53744808D01*
X127456148Y-53512576D01*
X127465092Y-53512176D01*
X127469377Y-53514902D01*
G37*
%TD.AperFunction*%
%TD*%
%TA.AperFunction,Conductor*%
%TO.N,/FC0*%
G36*
X139437655Y-53243692D02*
G01*
X139443696Y-53250302D01*
X139444165Y-53251970D01*
X139500530Y-53530580D01*
X139500530Y-53535220D01*
X139444165Y-53813829D01*
X139439165Y-53821258D01*
X139430377Y-53822977D01*
X139428709Y-53822508D01*
X138913476Y-53635696D01*
X138906866Y-53629655D01*
X138905764Y-53624697D01*
X138905764Y-53441102D01*
X138909191Y-53432829D01*
X138913473Y-53430104D01*
X139428711Y-53243291D01*
X139437655Y-53243692D01*
G37*
%TD.AperFunction*%
%TD*%
%TA.AperFunction,Conductor*%
%TO.N,/FC0*%
G36*
X139571282Y-53243289D02*
G01*
X140086525Y-53430104D01*
X140093134Y-53436144D01*
X140094236Y-53441102D01*
X140094236Y-53624697D01*
X140090809Y-53632970D01*
X140086524Y-53635696D01*
X139571290Y-53822508D01*
X139562344Y-53822107D01*
X139556303Y-53815497D01*
X139555837Y-53813839D01*
X139499469Y-53535218D01*
X139499469Y-53530580D01*
X139555835Y-53251967D01*
X139560834Y-53244541D01*
X139569622Y-53242822D01*
X139571282Y-53243289D01*
G37*
%TD.AperFunction*%
%TD*%
%TA.AperFunction,Conductor*%
%TO.N,/FC0*%
G36*
X167547268Y-60461358D02*
G01*
X167786505Y-60546410D01*
X168497293Y-60799106D01*
X168503939Y-60805106D01*
X168504851Y-60812398D01*
X168382226Y-61433016D01*
X168377261Y-61440468D01*
X168373016Y-61442226D01*
X167752398Y-61564851D01*
X167743617Y-61563093D01*
X167739107Y-61557293D01*
X167401358Y-60607268D01*
X167401816Y-60598325D01*
X167404106Y-60595079D01*
X167535077Y-60464108D01*
X167543349Y-60460682D01*
X167547268Y-60461358D01*
G37*
%TD.AperFunction*%
%TD*%
%TA.AperFunction,Conductor*%
%TO.N,/A7*%
G36*
X162467268Y-32521358D02*
G01*
X162494851Y-32531164D01*
X162581959Y-32562132D01*
X162586311Y-32564882D01*
X162705940Y-32684511D01*
X162761889Y-32740460D01*
X162761890Y-32740461D01*
X162761892Y-32740462D01*
X162830408Y-32780020D01*
X162830412Y-32780022D01*
X162890685Y-32796171D01*
X162906835Y-32800499D01*
X162906836Y-32800500D01*
X163250425Y-32800500D01*
X163254344Y-32801176D01*
X163417293Y-32859106D01*
X163423939Y-32865106D01*
X163424851Y-32872398D01*
X163302226Y-33493016D01*
X163297261Y-33500468D01*
X163293016Y-33502226D01*
X162672398Y-33624851D01*
X162663617Y-33623093D01*
X162659107Y-33617293D01*
X162361443Y-32780020D01*
X162321358Y-32667268D01*
X162321816Y-32658325D01*
X162324106Y-32655079D01*
X162455077Y-32524108D01*
X162463349Y-32520682D01*
X162467268Y-32521358D01*
G37*
%TD.AperFunction*%
%TD*%
%TA.AperFunction,Conductor*%
%TO.N,/A7*%
G36*
X116655577Y-34654602D02*
G01*
X116785397Y-34784422D01*
X116788824Y-34792695D01*
X116787722Y-34797653D01*
X116555493Y-35294073D01*
X116548883Y-35300114D01*
X116539937Y-35299713D01*
X116538427Y-35298864D01*
X116301565Y-35141715D01*
X116298284Y-35138434D01*
X116141135Y-34901572D01*
X116139416Y-34892784D01*
X116144416Y-34885355D01*
X116145921Y-34884508D01*
X116642348Y-34652276D01*
X116651292Y-34651876D01*
X116655577Y-34654602D01*
G37*
%TD.AperFunction*%
%TD*%
%TA.AperFunction,Conductor*%
%TO.N,/A11*%
G36*
X130142982Y-72490889D02*
G01*
X130658225Y-72677704D01*
X130664834Y-72683744D01*
X130665936Y-72688702D01*
X130665936Y-72872297D01*
X130662509Y-72880570D01*
X130658224Y-72883296D01*
X130142990Y-73070108D01*
X130134044Y-73069707D01*
X130128003Y-73063097D01*
X130127537Y-73061439D01*
X130071169Y-72782818D01*
X130071169Y-72778180D01*
X130127535Y-72499567D01*
X130132534Y-72492141D01*
X130141322Y-72490422D01*
X130142982Y-72490889D01*
G37*
%TD.AperFunction*%
%TD*%
%TA.AperFunction,Conductor*%
%TO.N,/A11*%
G36*
X163537471Y-72406951D02*
G01*
X163542368Y-72414311D01*
X163598630Y-72692410D01*
X163596911Y-72701198D01*
X163596872Y-72701257D01*
X163438090Y-72937475D01*
X163430631Y-72942429D01*
X163422424Y-72941019D01*
X163025050Y-72705997D01*
X163019673Y-72698835D01*
X163019306Y-72695926D01*
X163019306Y-72512274D01*
X163020627Y-72509084D01*
X163021326Y-72505702D01*
X163022291Y-72505067D01*
X163022733Y-72504001D01*
X163028808Y-72500782D01*
X163031809Y-72500208D01*
X163034007Y-72500000D01*
X163285921Y-72500000D01*
X163285921Y-72499999D01*
X163324132Y-72489760D01*
X163362344Y-72479522D01*
X163362348Y-72479520D01*
X163385186Y-72466334D01*
X163430868Y-72439960D01*
X163448240Y-72422587D01*
X163454306Y-72419373D01*
X163528702Y-72405139D01*
X163537471Y-72406951D01*
G37*
%TD.AperFunction*%
%TD*%
%TA.AperFunction,Conductor*%
%TO.N,/{slash}IPL1*%
G36*
X175993016Y-33497773D02*
G01*
X176000468Y-33502738D01*
X176002226Y-33506983D01*
X176124851Y-34127601D01*
X176123093Y-34136382D01*
X176117292Y-34140893D01*
X175167268Y-34478641D01*
X175158325Y-34478183D01*
X175155076Y-34475890D01*
X175024109Y-34344923D01*
X175020682Y-34336650D01*
X175021358Y-34332731D01*
X175359107Y-33382705D01*
X175365106Y-33376060D01*
X175372395Y-33375148D01*
X175993016Y-33497773D01*
G37*
%TD.AperFunction*%
%TD*%
%TA.AperFunction,Conductor*%
%TO.N,/{slash}IPL1*%
G36*
X134402672Y-34924820D02*
G01*
X134642839Y-35209933D01*
X134645591Y-35217470D01*
X134645591Y-35400732D01*
X134642164Y-35409005D01*
X134633891Y-35412432D01*
X134633148Y-35412408D01*
X134101269Y-35378581D01*
X134093230Y-35374636D01*
X134090336Y-35366162D01*
X134090527Y-35364667D01*
X134144563Y-35088288D01*
X134149513Y-35080829D01*
X134387242Y-34922617D01*
X134396028Y-34920887D01*
X134402672Y-34924820D01*
G37*
%TD.AperFunction*%
%TD*%
%TA.AperFunction,Conductor*%
%TO.N,/A19*%
G36*
X159927268Y-42681358D02*
G01*
X160166505Y-42766410D01*
X160877293Y-43019106D01*
X160883939Y-43025106D01*
X160884851Y-43032398D01*
X160762226Y-43653016D01*
X160757261Y-43660468D01*
X160753016Y-43662226D01*
X160132398Y-43784851D01*
X160123617Y-43783093D01*
X160119107Y-43777293D01*
X159781358Y-42827268D01*
X159781816Y-42818325D01*
X159784106Y-42815079D01*
X159915077Y-42684108D01*
X159923349Y-42680682D01*
X159927268Y-42681358D01*
G37*
%TD.AperFunction*%
%TD*%
%TA.AperFunction,Conductor*%
%TO.N,/A19*%
G36*
X142881429Y-37521873D02*
G01*
X142885223Y-37524409D01*
X143016168Y-37655354D01*
X143019595Y-37663627D01*
X143019096Y-37667006D01*
X142720573Y-38656653D01*
X142714903Y-38663584D01*
X142707104Y-38664752D01*
X142086983Y-38542226D01*
X142079531Y-38537261D01*
X142077773Y-38533016D01*
X141955050Y-37911899D01*
X141956808Y-37903118D01*
X141962051Y-37898821D01*
X142872474Y-37521872D01*
X142881429Y-37521873D01*
G37*
%TD.AperFunction*%
%TD*%
%TA.AperFunction,Conductor*%
%TO.N,/A19*%
G36*
X155417955Y-70447092D02*
G01*
X155423996Y-70453702D01*
X155424465Y-70455370D01*
X155480830Y-70733980D01*
X155480830Y-70738620D01*
X155424465Y-71017229D01*
X155419465Y-71024658D01*
X155410677Y-71026377D01*
X155409009Y-71025908D01*
X154893776Y-70839096D01*
X154887166Y-70833055D01*
X154886064Y-70828097D01*
X154886064Y-70644502D01*
X154889491Y-70636229D01*
X154893773Y-70633504D01*
X155409011Y-70446691D01*
X155417955Y-70447092D01*
G37*
%TD.AperFunction*%
%TD*%
%TA.AperFunction,Conductor*%
%TO.N,/A19*%
G36*
X153762682Y-70446689D02*
G01*
X154277925Y-70633504D01*
X154284534Y-70639544D01*
X154285636Y-70644502D01*
X154285636Y-70828097D01*
X154282209Y-70836370D01*
X154277924Y-70839096D01*
X153762690Y-71025908D01*
X153753744Y-71025507D01*
X153747703Y-71018897D01*
X153747237Y-71017239D01*
X153690869Y-70738618D01*
X153690869Y-70733980D01*
X153747235Y-70455367D01*
X153752234Y-70447941D01*
X153761022Y-70446222D01*
X153762682Y-70446689D01*
G37*
%TD.AperFunction*%
%TD*%
%TA.AperFunction,Conductor*%
%TO.N,/D29*%
G36*
X188169347Y-58545587D02*
G01*
X188170984Y-58546497D01*
X188696657Y-58896596D01*
X188701644Y-58904033D01*
X188701650Y-58904065D01*
X188824672Y-59526699D01*
X188822914Y-59535480D01*
X188816145Y-59540289D01*
X187794038Y-59806677D01*
X187785168Y-59805447D01*
X187782814Y-59803628D01*
X187651868Y-59672682D01*
X187648441Y-59664409D01*
X187649491Y-59659564D01*
X188153851Y-58551388D01*
X188160397Y-58545279D01*
X188169347Y-58545587D01*
G37*
%TD.AperFunction*%
%TD*%
%TA.AperFunction,Conductor*%
%TO.N,/D29*%
G36*
X187457777Y-59866902D02*
G01*
X187587597Y-59996722D01*
X187591024Y-60004995D01*
X187589922Y-60009953D01*
X187357693Y-60506373D01*
X187351083Y-60512414D01*
X187342137Y-60512013D01*
X187340627Y-60511164D01*
X187103765Y-60354015D01*
X187100484Y-60350734D01*
X186943335Y-60113872D01*
X186941616Y-60105084D01*
X186946616Y-60097655D01*
X186948121Y-60096808D01*
X187444548Y-59864576D01*
X187453492Y-59864176D01*
X187457777Y-59866902D01*
G37*
%TD.AperFunction*%
%TD*%
%TA.AperFunction,Conductor*%
%TO.N,/{slash}IPL2*%
G36*
X135866828Y-75009546D02*
G01*
X135869501Y-75012219D01*
X136479603Y-75861114D01*
X136481648Y-75869832D01*
X136480705Y-75872888D01*
X135988150Y-76928835D01*
X135981547Y-76934884D01*
X135977547Y-76935589D01*
X135792146Y-76935589D01*
X135783873Y-76932162D01*
X135781737Y-76929231D01*
X135239663Y-75873040D01*
X135238934Y-75864115D01*
X135240568Y-75860875D01*
X135850499Y-75012218D01*
X135858110Y-75007501D01*
X135866828Y-75009546D01*
G37*
%TD.AperFunction*%
%TD*%
%TA.AperFunction,Conductor*%
%TO.N,/{slash}IPL2*%
G36*
X161524500Y-86047935D02*
G01*
X161876636Y-86573487D01*
X161878394Y-86582268D01*
X161876636Y-86586513D01*
X161524500Y-87112064D01*
X161517048Y-87117029D01*
X161509756Y-87116117D01*
X160599166Y-86683174D01*
X160593166Y-86676527D01*
X160592490Y-86672608D01*
X160592490Y-86487391D01*
X160595917Y-86479118D01*
X160599162Y-86476827D01*
X161509757Y-86043881D01*
X161518699Y-86043424D01*
X161524500Y-86047935D01*
G37*
%TD.AperFunction*%
%TD*%
%TA.AperFunction,Conductor*%
%TO.N,/A3*%
G36*
X167547268Y-35061358D02*
G01*
X167786505Y-35146410D01*
X168497293Y-35399106D01*
X168503939Y-35405106D01*
X168504851Y-35412398D01*
X168382226Y-36033016D01*
X168377261Y-36040468D01*
X168373016Y-36042226D01*
X167752398Y-36164851D01*
X167743617Y-36163093D01*
X167739107Y-36157293D01*
X167401358Y-35207268D01*
X167401816Y-35198325D01*
X167404106Y-35195079D01*
X167535077Y-35064108D01*
X167543349Y-35060682D01*
X167547268Y-35061358D01*
G37*
%TD.AperFunction*%
%TD*%
%TA.AperFunction,Conductor*%
%TO.N,/A3*%
G36*
X114504332Y-73493434D02*
G01*
X115562211Y-73811837D01*
X115569146Y-73817503D01*
X115570535Y-73823337D01*
X115540913Y-74992554D01*
X115537278Y-75000738D01*
X115532987Y-75003334D01*
X114801843Y-75252163D01*
X114792906Y-75251584D01*
X114786997Y-75244857D01*
X114786770Y-75244107D01*
X114357962Y-73639360D01*
X114359137Y-73630484D01*
X114360988Y-73628072D01*
X114492695Y-73496365D01*
X114500967Y-73492939D01*
X114504332Y-73493434D01*
G37*
%TD.AperFunction*%
%TD*%
%TA.AperFunction,Conductor*%
%TO.N,/A3*%
G36*
X114119144Y-72844116D02*
G01*
X114119993Y-72845626D01*
X114191880Y-72999293D01*
X114311591Y-73255193D01*
X114352222Y-73342046D01*
X114352623Y-73350992D01*
X114349897Y-73355277D01*
X114220077Y-73485097D01*
X114211804Y-73488524D01*
X114206847Y-73487422D01*
X114056228Y-73416961D01*
X113710426Y-73255193D01*
X113704385Y-73248583D01*
X113704786Y-73239637D01*
X113705635Y-73238127D01*
X113862785Y-73001263D01*
X113866063Y-72997985D01*
X114102927Y-72840834D01*
X114111715Y-72839116D01*
X114119144Y-72844116D01*
G37*
%TD.AperFunction*%
%TD*%
%TA.AperFunction,Conductor*%
%TO.N,/A3*%
G36*
X112716782Y-37002089D02*
G01*
X113232025Y-37188904D01*
X113238634Y-37194944D01*
X113239736Y-37199902D01*
X113239736Y-37383497D01*
X113236309Y-37391770D01*
X113232024Y-37394496D01*
X112716790Y-37581308D01*
X112707844Y-37580907D01*
X112701803Y-37574297D01*
X112701337Y-37572639D01*
X112644969Y-37294018D01*
X112644969Y-37289380D01*
X112701335Y-37010767D01*
X112706334Y-37003341D01*
X112715122Y-37001622D01*
X112716782Y-37002089D01*
G37*
%TD.AperFunction*%
%TD*%
%TA.AperFunction,Conductor*%
%TO.N,/A13*%
G36*
X160630993Y-35406235D02*
G01*
X160635341Y-35413216D01*
X160759459Y-36032314D01*
X160757725Y-36041099D01*
X160754479Y-36044348D01*
X160227893Y-36395553D01*
X160219109Y-36397292D01*
X160212771Y-36393718D01*
X159893062Y-36044348D01*
X159614693Y-35740153D01*
X159611624Y-35732254D01*
X159611624Y-35547062D01*
X159615051Y-35538789D01*
X159621798Y-35535462D01*
X160622344Y-35403916D01*
X160630993Y-35406235D01*
G37*
%TD.AperFunction*%
%TD*%
%TA.AperFunction,Conductor*%
%TO.N,/A13*%
G36*
X136069924Y-36187191D02*
G01*
X136072189Y-36190383D01*
X136171359Y-36396174D01*
X136270639Y-36602195D01*
X136271143Y-36611135D01*
X136266626Y-36616984D01*
X136029657Y-36776272D01*
X136020879Y-36778043D01*
X136020810Y-36778030D01*
X135743442Y-36721916D01*
X135736013Y-36716916D01*
X135734294Y-36708128D01*
X135734424Y-36707560D01*
X135866742Y-36192553D01*
X135872120Y-36185392D01*
X135878074Y-36183764D01*
X136061651Y-36183764D01*
X136069924Y-36187191D01*
G37*
%TD.AperFunction*%
%TD*%
%TA.AperFunction,Conductor*%
%TO.N,/A10*%
G36*
X126874573Y-96608385D02*
G01*
X126875179Y-96608950D01*
X127007408Y-96741179D01*
X127010835Y-96749452D01*
X127010027Y-96753725D01*
X126454401Y-98170020D01*
X126448189Y-98176470D01*
X126439236Y-98176639D01*
X126438915Y-98176507D01*
X125707447Y-97864188D01*
X125701184Y-97857788D01*
X125700439Y-97851915D01*
X125852340Y-96686896D01*
X125856807Y-96679138D01*
X125863112Y-96676740D01*
X126866080Y-96605552D01*
X126874573Y-96608385D01*
G37*
%TD.AperFunction*%
%TD*%
%TA.AperFunction,Conductor*%
%TO.N,/A10*%
G36*
X148155955Y-90393992D02*
G01*
X148161996Y-90400602D01*
X148162465Y-90402270D01*
X148218830Y-90680880D01*
X148218830Y-90685520D01*
X148162465Y-90964129D01*
X148157465Y-90971558D01*
X148148677Y-90973277D01*
X148147009Y-90972808D01*
X147631776Y-90785996D01*
X147625166Y-90779955D01*
X147624064Y-90774997D01*
X147624064Y-90591402D01*
X147627491Y-90583129D01*
X147631773Y-90580404D01*
X148147011Y-90393591D01*
X148155955Y-90393992D01*
G37*
%TD.AperFunction*%
%TD*%
%TA.AperFunction,Conductor*%
%TO.N,/A14*%
G36*
X165919162Y-71902393D02*
G01*
X165922375Y-71908365D01*
X165979030Y-72188410D01*
X165977311Y-72197198D01*
X165977272Y-72197257D01*
X165820104Y-72431073D01*
X165812645Y-72436027D01*
X165803867Y-72434256D01*
X165802283Y-72432979D01*
X165800301Y-72431073D01*
X165690044Y-72325024D01*
X165459677Y-72103451D01*
X165456090Y-72095246D01*
X165456088Y-72095018D01*
X165456088Y-71911673D01*
X165459515Y-71903400D01*
X165467759Y-71899973D01*
X165910881Y-71898985D01*
X165919162Y-71902393D01*
G37*
%TD.AperFunction*%
%TD*%
%TA.AperFunction,Conductor*%
%TO.N,/A14*%
G36*
X145637657Y-71737645D02*
G01*
X145638007Y-71738204D01*
X145848466Y-72096757D01*
X145850076Y-72102680D01*
X145850076Y-72285073D01*
X145846649Y-72293346D01*
X145838376Y-72296773D01*
X145835960Y-72296521D01*
X145335051Y-72190816D01*
X145327664Y-72185755D01*
X145325984Y-72177125D01*
X145380363Y-71898988D01*
X145385313Y-71891529D01*
X145621436Y-71734386D01*
X145630221Y-71732656D01*
X145637657Y-71737645D01*
G37*
%TD.AperFunction*%
%TD*%
%TA.AperFunction,Conductor*%
%TO.N,/FC2*%
G36*
X130256277Y-70864102D02*
G01*
X130386097Y-70993922D01*
X130389524Y-71002195D01*
X130388422Y-71007153D01*
X130156193Y-71503573D01*
X130149583Y-71509614D01*
X130140637Y-71509213D01*
X130139127Y-71508364D01*
X129902265Y-71351215D01*
X129898984Y-71347934D01*
X129741835Y-71111072D01*
X129740116Y-71102284D01*
X129745116Y-71094855D01*
X129746621Y-71094008D01*
X130243048Y-70861776D01*
X130251992Y-70861376D01*
X130256277Y-70864102D01*
G37*
%TD.AperFunction*%
%TD*%
%TA.AperFunction,Conductor*%
%TO.N,/FC2*%
G36*
X167693762Y-70784986D02*
G01*
X167695272Y-70785835D01*
X167932134Y-70942984D01*
X167935415Y-70946265D01*
X168092564Y-71183127D01*
X168094283Y-71191915D01*
X168089283Y-71199344D01*
X168087773Y-71200193D01*
X167591353Y-71432422D01*
X167582407Y-71432823D01*
X167578122Y-71430097D01*
X167448302Y-71300277D01*
X167444875Y-71292004D01*
X167445975Y-71287051D01*
X167678206Y-70790625D01*
X167684816Y-70784585D01*
X167693762Y-70784986D01*
G37*
%TD.AperFunction*%
%TD*%
%TA.AperFunction,Conductor*%
%TO.N,/FC1*%
G36*
X146796662Y-69672386D02*
G01*
X146798172Y-69673235D01*
X147035034Y-69830384D01*
X147038315Y-69833665D01*
X147195464Y-70070527D01*
X147197183Y-70079315D01*
X147192183Y-70086744D01*
X147190673Y-70087593D01*
X146694253Y-70319822D01*
X146685307Y-70320223D01*
X146681022Y-70317497D01*
X146551202Y-70187677D01*
X146547775Y-70179404D01*
X146548875Y-70174451D01*
X146781106Y-69678025D01*
X146787716Y-69671985D01*
X146796662Y-69672386D01*
G37*
%TD.AperFunction*%
%TD*%
%TA.AperFunction,Conductor*%
%TO.N,/FC1*%
G36*
X147747142Y-67670431D02*
G01*
X148262216Y-67820841D01*
X148269197Y-67826450D01*
X148270636Y-67832072D01*
X148270636Y-68012800D01*
X148267209Y-68021073D01*
X148258936Y-68024500D01*
X148187735Y-68024500D01*
X148111312Y-68044977D01*
X148111308Y-68044979D01*
X148042792Y-68084537D01*
X148042787Y-68084541D01*
X147975780Y-68151547D01*
X147972200Y-68153991D01*
X147852022Y-68206620D01*
X147843069Y-68206800D01*
X147837619Y-68202430D01*
X147678127Y-67965157D01*
X147676356Y-67956379D01*
X147676369Y-67956310D01*
X147732402Y-67679344D01*
X147737402Y-67671915D01*
X147746190Y-67670196D01*
X147747142Y-67670431D01*
G37*
%TD.AperFunction*%
%TD*%
%TA.AperFunction,Conductor*%
%TO.N,/FC1*%
G36*
X165833016Y-63977773D02*
G01*
X165840468Y-63982738D01*
X165842226Y-63986983D01*
X165964851Y-64607601D01*
X165963093Y-64616382D01*
X165957292Y-64620893D01*
X165007268Y-64958641D01*
X164998325Y-64958183D01*
X164995076Y-64955890D01*
X164864109Y-64824923D01*
X164860682Y-64816650D01*
X164861358Y-64812731D01*
X165199107Y-63862705D01*
X165205106Y-63856060D01*
X165212395Y-63855148D01*
X165833016Y-63977773D01*
G37*
%TD.AperFunction*%
%TD*%
%TA.AperFunction,Conductor*%
%TO.N,/FC1*%
G36*
X128327477Y-70330902D02*
G01*
X128457297Y-70460722D01*
X128460724Y-70468995D01*
X128459622Y-70473953D01*
X128227393Y-70970373D01*
X128220783Y-70976414D01*
X128211837Y-70976013D01*
X128210327Y-70975164D01*
X127973465Y-70818015D01*
X127970184Y-70814734D01*
X127813035Y-70577872D01*
X127811316Y-70569084D01*
X127816316Y-70561655D01*
X127817821Y-70560808D01*
X128314248Y-70328576D01*
X128323192Y-70328176D01*
X128327477Y-70330902D01*
G37*
%TD.AperFunction*%
%TD*%
%TA.AperFunction,Conductor*%
%TO.N,/D28*%
G36*
X185166670Y-64152991D02*
G01*
X185169396Y-64157276D01*
X185356208Y-64672509D01*
X185355807Y-64681455D01*
X185349197Y-64687496D01*
X185347529Y-64687965D01*
X185068920Y-64744330D01*
X185064280Y-64744330D01*
X184785670Y-64687965D01*
X184778241Y-64682965D01*
X184776522Y-64674177D01*
X184776987Y-64672520D01*
X184963804Y-64157276D01*
X184969845Y-64150666D01*
X184974803Y-64149564D01*
X185158397Y-64149564D01*
X185166670Y-64152991D01*
G37*
%TD.AperFunction*%
%TD*%
%TA.AperFunction,Conductor*%
%TO.N,/D28*%
G36*
X191233016Y-61437773D02*
G01*
X191240468Y-61442738D01*
X191242226Y-61446983D01*
X191364851Y-62067601D01*
X191363093Y-62076382D01*
X191357292Y-62080893D01*
X190407268Y-62418641D01*
X190398325Y-62418183D01*
X190395076Y-62415890D01*
X190264109Y-62284923D01*
X190260682Y-62276650D01*
X190261358Y-62272731D01*
X190599107Y-61322705D01*
X190605106Y-61316060D01*
X190612395Y-61315148D01*
X191233016Y-61437773D01*
G37*
%TD.AperFunction*%
%TD*%
%TA.AperFunction,Conductor*%
%TO.N,/A2*%
G36*
X167547268Y-32521358D02*
G01*
X167786505Y-32606410D01*
X168497293Y-32859106D01*
X168503939Y-32865106D01*
X168504851Y-32872398D01*
X168382226Y-33493016D01*
X168377261Y-33500468D01*
X168373016Y-33502226D01*
X167752398Y-33624851D01*
X167743617Y-33623093D01*
X167739107Y-33617293D01*
X167401358Y-32667268D01*
X167401816Y-32658325D01*
X167404106Y-32655079D01*
X167535077Y-32524108D01*
X167543349Y-32520682D01*
X167547268Y-32521358D01*
G37*
%TD.AperFunction*%
%TD*%
%TA.AperFunction,Conductor*%
%TO.N,/A2*%
G36*
X116928754Y-73710380D02*
G01*
X117941362Y-73813452D01*
X117949244Y-73817699D01*
X117951806Y-73823818D01*
X118079751Y-74991986D01*
X118077246Y-75000583D01*
X118072604Y-75004067D01*
X117341183Y-75307461D01*
X117332228Y-75307466D01*
X117325893Y-75301137D01*
X117325746Y-75300764D01*
X116784466Y-73858294D01*
X116784768Y-73849345D01*
X116787144Y-73845914D01*
X116919311Y-73713747D01*
X116927583Y-73710321D01*
X116928754Y-73710380D01*
G37*
%TD.AperFunction*%
%TD*%
%TA.AperFunction,Conductor*%
%TO.N,/{slash}IPL0*%
G36*
X131799177Y-71393902D02*
G01*
X131928997Y-71523722D01*
X131932424Y-71531995D01*
X131931322Y-71536953D01*
X131699093Y-72033373D01*
X131692483Y-72039414D01*
X131683537Y-72039013D01*
X131682027Y-72038164D01*
X131445165Y-71881015D01*
X131441884Y-71877734D01*
X131284735Y-71640872D01*
X131283016Y-71632084D01*
X131288016Y-71624655D01*
X131289521Y-71623808D01*
X131785948Y-71391576D01*
X131794892Y-71391176D01*
X131799177Y-71393902D01*
G37*
%TD.AperFunction*%
%TD*%
%TA.AperFunction,Conductor*%
%TO.N,/{slash}IPL0*%
G36*
X177642862Y-50771786D02*
G01*
X177644372Y-50772635D01*
X177881234Y-50929784D01*
X177884515Y-50933065D01*
X178041664Y-51169927D01*
X178043383Y-51178715D01*
X178038383Y-51186144D01*
X178036873Y-51186993D01*
X177540453Y-51419222D01*
X177531507Y-51419623D01*
X177527222Y-51416897D01*
X177397402Y-51287077D01*
X177393975Y-51278804D01*
X177395075Y-51273851D01*
X177627306Y-50777425D01*
X177633916Y-50771385D01*
X177642862Y-50771786D01*
G37*
%TD.AperFunction*%
%TD*%
%TA.AperFunction,Conductor*%
%TO.N,/{slash}IPL0*%
G36*
X152053144Y-50681916D02*
G01*
X152053993Y-50683426D01*
X152125880Y-50837093D01*
X152245591Y-51092993D01*
X152286222Y-51179846D01*
X152286623Y-51188792D01*
X152283897Y-51193077D01*
X152154077Y-51322897D01*
X152145804Y-51326324D01*
X152140847Y-51325222D01*
X151990228Y-51254761D01*
X151644426Y-51092993D01*
X151638385Y-51086383D01*
X151638786Y-51077437D01*
X151639635Y-51075927D01*
X151796785Y-50839063D01*
X151800063Y-50835785D01*
X152036927Y-50678634D01*
X152045715Y-50676916D01*
X152053144Y-50681916D01*
G37*
%TD.AperFunction*%
%TD*%
%TA.AperFunction,Conductor*%
%TO.N,/{slash}IPL0*%
G36*
X149553166Y-71151605D02*
G01*
X150035095Y-71301151D01*
X150041981Y-71306875D01*
X150043111Y-71314570D01*
X149988536Y-71593709D01*
X149983585Y-71601171D01*
X149983535Y-71601204D01*
X149748400Y-71757689D01*
X149739614Y-71759420D01*
X149732178Y-71754431D01*
X149731354Y-71752979D01*
X149539138Y-71349285D01*
X149538002Y-71344255D01*
X149538002Y-71162780D01*
X149541429Y-71154507D01*
X149549702Y-71151080D01*
X149553166Y-71151605D01*
G37*
%TD.AperFunction*%
%TD*%
%TA.AperFunction,Conductor*%
%TO.N,/D18*%
G36*
X195112812Y-71987536D02*
G01*
X195114322Y-71988385D01*
X195351184Y-72145534D01*
X195354465Y-72148815D01*
X195511614Y-72385677D01*
X195513333Y-72394465D01*
X195508333Y-72401894D01*
X195506823Y-72402743D01*
X195010403Y-72634972D01*
X195001457Y-72635373D01*
X194997172Y-72632647D01*
X194867352Y-72502827D01*
X194863925Y-72494554D01*
X194865025Y-72489601D01*
X195097256Y-71993175D01*
X195103866Y-71987135D01*
X195112812Y-71987536D01*
G37*
%TD.AperFunction*%
%TD*%
%TA.AperFunction,Conductor*%
%TO.N,/D18*%
G36*
X187834573Y-73748385D02*
G01*
X187835179Y-73748950D01*
X187967408Y-73881179D01*
X187970835Y-73889452D01*
X187970027Y-73893725D01*
X187414401Y-75310020D01*
X187408189Y-75316470D01*
X187399236Y-75316639D01*
X187398915Y-75316507D01*
X186667447Y-75004188D01*
X186661184Y-74997788D01*
X186660439Y-74991915D01*
X186812340Y-73826896D01*
X186816807Y-73819138D01*
X186823112Y-73816740D01*
X187826080Y-73745552D01*
X187834573Y-73748385D01*
G37*
%TD.AperFunction*%
%TD*%
%TA.AperFunction,Conductor*%
%TO.N,/A1*%
G36*
X165007268Y-55381358D02*
G01*
X165246505Y-55466410D01*
X165957293Y-55719106D01*
X165963939Y-55725106D01*
X165964851Y-55732398D01*
X165842226Y-56353016D01*
X165837261Y-56360468D01*
X165833016Y-56362226D01*
X165212398Y-56484851D01*
X165203617Y-56483093D01*
X165199107Y-56477293D01*
X164861358Y-55527268D01*
X164861816Y-55518325D01*
X164864106Y-55515079D01*
X164995077Y-55384108D01*
X165003349Y-55380682D01*
X165007268Y-55381358D01*
G37*
%TD.AperFunction*%
%TD*%
%TA.AperFunction,Conductor*%
%TO.N,/A1*%
G36*
X125231677Y-66221502D02*
G01*
X125361497Y-66351322D01*
X125364924Y-66359595D01*
X125363822Y-66364553D01*
X125131593Y-66860973D01*
X125124983Y-66867014D01*
X125116037Y-66866613D01*
X125114527Y-66865764D01*
X124877665Y-66708615D01*
X124874384Y-66705334D01*
X124717235Y-66468472D01*
X124715516Y-66459684D01*
X124720516Y-66452255D01*
X124722021Y-66451408D01*
X124871243Y-66381601D01*
X124876200Y-66380500D01*
X124915964Y-66380500D01*
X124915964Y-66380499D01*
X124954175Y-66370260D01*
X124992387Y-66360022D01*
X124992391Y-66360020D01*
X125015229Y-66346834D01*
X125060911Y-66320460D01*
X125111296Y-66270074D01*
X125114597Y-66267759D01*
X125218448Y-66219176D01*
X125227392Y-66218776D01*
X125231677Y-66221502D01*
G37*
%TD.AperFunction*%
%TD*%
%TA.AperFunction,Conductor*%
%TO.N,/A1*%
G36*
X158674244Y-54387716D02*
G01*
X158675093Y-54389226D01*
X158746980Y-54542893D01*
X158866691Y-54798793D01*
X158907322Y-54885646D01*
X158907723Y-54894592D01*
X158904997Y-54898877D01*
X158775177Y-55028697D01*
X158766904Y-55032124D01*
X158761947Y-55031022D01*
X158611328Y-54960561D01*
X158265526Y-54798793D01*
X158259485Y-54792183D01*
X158259886Y-54783237D01*
X158260735Y-54781727D01*
X158417885Y-54544863D01*
X158421163Y-54541585D01*
X158658027Y-54384434D01*
X158666815Y-54382716D01*
X158674244Y-54387716D01*
G37*
%TD.AperFunction*%
%TD*%
%TA.AperFunction,Conductor*%
%TO.N,/A1*%
G36*
X157738962Y-63340486D02*
G01*
X157740472Y-63341335D01*
X157977334Y-63498484D01*
X157980615Y-63501765D01*
X158137764Y-63738627D01*
X158139483Y-63747415D01*
X158134483Y-63754844D01*
X158132973Y-63755693D01*
X157636553Y-63987922D01*
X157627607Y-63988323D01*
X157623322Y-63985597D01*
X157493502Y-63855777D01*
X157490075Y-63847504D01*
X157491175Y-63842551D01*
X157723406Y-63346125D01*
X157730016Y-63340085D01*
X157738962Y-63340486D01*
G37*
%TD.AperFunction*%
%TD*%
%TA.AperFunction,Conductor*%
%TO.N,/A20*%
G36*
X142716362Y-35876913D02*
G01*
X142720888Y-35882735D01*
X143010670Y-36701404D01*
X143011341Y-36705308D01*
X143011341Y-36888298D01*
X143007914Y-36896571D01*
X142999641Y-36899998D01*
X142996791Y-36899645D01*
X141963971Y-36640217D01*
X141956782Y-36634878D01*
X141955342Y-36626607D01*
X142077483Y-36007684D01*
X142082447Y-36000232D01*
X142086682Y-35998474D01*
X142707580Y-35875163D01*
X142716362Y-35876913D01*
G37*
%TD.AperFunction*%
%TD*%
%TA.AperFunction,Conductor*%
%TO.N,/A20*%
G36*
X162467268Y-45221358D02*
G01*
X162706505Y-45306410D01*
X163417293Y-45559106D01*
X163423939Y-45565106D01*
X163424851Y-45572398D01*
X163302226Y-46193016D01*
X163297261Y-46200468D01*
X163293016Y-46202226D01*
X162672398Y-46324851D01*
X162663617Y-46323093D01*
X162659107Y-46317293D01*
X162321358Y-45367268D01*
X162321816Y-45358325D01*
X162324106Y-45355079D01*
X162455077Y-45224108D01*
X162463349Y-45220682D01*
X162467268Y-45221358D01*
G37*
%TD.AperFunction*%
%TD*%
%TA.AperFunction,Conductor*%
%TO.N,/A4*%
G36*
X111811877Y-34638002D02*
G01*
X111941697Y-34767822D01*
X111945124Y-34776095D01*
X111944022Y-34781053D01*
X111711793Y-35277473D01*
X111705183Y-35283514D01*
X111696237Y-35283113D01*
X111694727Y-35282264D01*
X111457865Y-35125115D01*
X111454584Y-35121834D01*
X111297435Y-34884972D01*
X111295716Y-34876184D01*
X111300716Y-34868755D01*
X111302221Y-34867908D01*
X111798648Y-34635676D01*
X111807592Y-34635276D01*
X111811877Y-34638002D01*
G37*
%TD.AperFunction*%
%TD*%
%TA.AperFunction,Conductor*%
%TO.N,/A4*%
G36*
X165007268Y-32521358D02*
G01*
X165246505Y-32606410D01*
X165957293Y-32859106D01*
X165963939Y-32865106D01*
X165964851Y-32872398D01*
X165842226Y-33493016D01*
X165837261Y-33500468D01*
X165833016Y-33502226D01*
X165212398Y-33624851D01*
X165203617Y-33623093D01*
X165199107Y-33617293D01*
X164861358Y-32667268D01*
X164861816Y-32658325D01*
X164864106Y-32655079D01*
X164995077Y-32524108D01*
X165003349Y-32520682D01*
X165007268Y-32521358D01*
G37*
%TD.AperFunction*%
%TD*%
%TA.AperFunction,Conductor*%
%TO.N,/{slash}DSACK1*%
G36*
X140381674Y-62641816D02*
G01*
X140384923Y-62644109D01*
X140515890Y-62775076D01*
X140519317Y-62783349D01*
X140518641Y-62787268D01*
X140180893Y-63737292D01*
X140174893Y-63743939D01*
X140167601Y-63744851D01*
X139546983Y-63622226D01*
X139539531Y-63617261D01*
X139537773Y-63613016D01*
X139415148Y-62992396D01*
X139416906Y-62983617D01*
X139422704Y-62979107D01*
X140372731Y-62641358D01*
X140381674Y-62641816D01*
G37*
%TD.AperFunction*%
%TD*%
%TA.AperFunction,Conductor*%
%TO.N,/{slash}DSACK1*%
G36*
X175993016Y-61437773D02*
G01*
X176000468Y-61442738D01*
X176002226Y-61446983D01*
X176124851Y-62067601D01*
X176123093Y-62076382D01*
X176117292Y-62080893D01*
X175167268Y-62418641D01*
X175158325Y-62418183D01*
X175155076Y-62415890D01*
X175024109Y-62284923D01*
X175020682Y-62276650D01*
X175021358Y-62272731D01*
X175359107Y-61322705D01*
X175365106Y-61316060D01*
X175372395Y-61315148D01*
X175993016Y-61437773D01*
G37*
%TD.AperFunction*%
%TD*%
%TA.AperFunction,Conductor*%
%TO.N,/{slash}RESET_30*%
G36*
X137454261Y-69080758D02*
G01*
X137459597Y-69087949D01*
X137459948Y-69090794D01*
X137459948Y-69272849D01*
X137458549Y-69278397D01*
X137255531Y-69655362D01*
X137248591Y-69661021D01*
X137239682Y-69660115D01*
X137238748Y-69659554D01*
X137003064Y-69502704D01*
X136998075Y-69495268D01*
X136998063Y-69495209D01*
X136943603Y-69216658D01*
X136945379Y-69207881D01*
X136952239Y-69203065D01*
X137445405Y-69079445D01*
X137454261Y-69080758D01*
G37*
%TD.AperFunction*%
%TD*%
%TA.AperFunction,Conductor*%
%TO.N,/{slash}RESET_30*%
G36*
X125370242Y-57923881D02*
G01*
X126280835Y-58356826D01*
X126286834Y-58363472D01*
X126287510Y-58367391D01*
X126287510Y-58552608D01*
X126284083Y-58560881D01*
X126280834Y-58563174D01*
X125370243Y-58996117D01*
X125361300Y-58996575D01*
X125355499Y-58992064D01*
X125286427Y-58888976D01*
X125003362Y-58466511D01*
X125001605Y-58457732D01*
X125003361Y-58453490D01*
X125355499Y-57927934D01*
X125362951Y-57922970D01*
X125370242Y-57923881D01*
G37*
%TD.AperFunction*%
%TD*%
%TA.AperFunction,Conductor*%
%TO.N,/{slash}RESET_30*%
G36*
X138754344Y-83344116D02*
G01*
X138755193Y-83345626D01*
X138827080Y-83499293D01*
X138946791Y-83755193D01*
X138987422Y-83842046D01*
X138987823Y-83850992D01*
X138985097Y-83855277D01*
X138855277Y-83985097D01*
X138847004Y-83988524D01*
X138842047Y-83987422D01*
X138691428Y-83916961D01*
X138345626Y-83755193D01*
X138339585Y-83748583D01*
X138339986Y-83739637D01*
X138340835Y-83738127D01*
X138497985Y-83501263D01*
X138501263Y-83497985D01*
X138738127Y-83340834D01*
X138746915Y-83339116D01*
X138754344Y-83344116D01*
G37*
%TD.AperFunction*%
%TD*%
%TA.AperFunction,Conductor*%
%TO.N,/{slash}RESET_30*%
G36*
X134198255Y-55779892D02*
G01*
X134204296Y-55786502D01*
X134204765Y-55788170D01*
X134261130Y-56066780D01*
X134261130Y-56071420D01*
X134204765Y-56350029D01*
X134199765Y-56357458D01*
X134190977Y-56359177D01*
X134189309Y-56358708D01*
X133674076Y-56171896D01*
X133667466Y-56165855D01*
X133666364Y-56160897D01*
X133666364Y-55977302D01*
X133669791Y-55969029D01*
X133674073Y-55966304D01*
X134189311Y-55779491D01*
X134198255Y-55779892D01*
G37*
%TD.AperFunction*%
%TD*%
%TA.AperFunction,Conductor*%
%TO.N,/{slash}RESET_30*%
G36*
X168698719Y-90650503D02*
G01*
X169617803Y-91018880D01*
X169624207Y-91025139D01*
X169624928Y-91032008D01*
X169502226Y-91653016D01*
X169497261Y-91660468D01*
X169493016Y-91662226D01*
X168872788Y-91784774D01*
X168864007Y-91783016D01*
X168859354Y-91776792D01*
X168552248Y-90795813D01*
X168553047Y-90786893D01*
X168555138Y-90784047D01*
X168686095Y-90653090D01*
X168694367Y-90649664D01*
X168698719Y-90650503D01*
G37*
%TD.AperFunction*%
%TD*%
%TA.AperFunction,Conductor*%
%TO.N,/{slash}RESET_30*%
G36*
X169487755Y-69510692D02*
G01*
X169493796Y-69517302D01*
X169494265Y-69518970D01*
X169550630Y-69797580D01*
X169550630Y-69802220D01*
X169494265Y-70080829D01*
X169489265Y-70088258D01*
X169480477Y-70089977D01*
X169478809Y-70089508D01*
X168963576Y-69902696D01*
X168956966Y-69896655D01*
X168955864Y-69891697D01*
X168955864Y-69708102D01*
X168959291Y-69699829D01*
X168963573Y-69697104D01*
X169478811Y-69510291D01*
X169487755Y-69510692D01*
G37*
%TD.AperFunction*%
%TD*%
%TA.AperFunction,Conductor*%
%TO.N,/P2.A17*%
G36*
X135825682Y-67344689D02*
G01*
X136340925Y-67531504D01*
X136347534Y-67537544D01*
X136348636Y-67542502D01*
X136348636Y-67726097D01*
X136345209Y-67734370D01*
X136340924Y-67737096D01*
X135825690Y-67923908D01*
X135816744Y-67923507D01*
X135810703Y-67916897D01*
X135810237Y-67915239D01*
X135753869Y-67636618D01*
X135753869Y-67631980D01*
X135810235Y-67353367D01*
X135815234Y-67345941D01*
X135824022Y-67344222D01*
X135825682Y-67344689D01*
G37*
%TD.AperFunction*%
%TD*%
%TA.AperFunction,Conductor*%
%TO.N,/P2.A17*%
G36*
X141549043Y-65805205D02*
G01*
X141718253Y-65917898D01*
X142076657Y-66156596D01*
X142081644Y-66164033D01*
X142081650Y-66164065D01*
X142204121Y-66783906D01*
X142202363Y-66792687D01*
X142194911Y-66797652D01*
X142192947Y-66797870D01*
X141062852Y-66827262D01*
X141054493Y-66824051D01*
X141054275Y-66823839D01*
X140923359Y-66692923D01*
X140919932Y-66684650D01*
X140922057Y-66677927D01*
X141532985Y-65808217D01*
X141540544Y-65803418D01*
X141549043Y-65805205D01*
G37*
%TD.AperFunction*%
%TD*%
%TA.AperFunction,Conductor*%
%TO.N,/{slash}AS_30*%
G36*
X134104500Y-58007935D02*
G01*
X134456636Y-58533487D01*
X134458394Y-58542268D01*
X134456636Y-58546513D01*
X134104500Y-59072064D01*
X134097048Y-59077029D01*
X134089756Y-59076117D01*
X133179166Y-58643174D01*
X133173166Y-58636527D01*
X133172490Y-58632608D01*
X133172490Y-58447391D01*
X133175917Y-58439118D01*
X133179162Y-58436827D01*
X134089757Y-58003881D01*
X134098699Y-58003424D01*
X134104500Y-58007935D01*
G37*
%TD.AperFunction*%
%TD*%
%TA.AperFunction,Conductor*%
%TO.N,/{slash}AS_30*%
G36*
X123301674Y-62561816D02*
G01*
X123304923Y-62564109D01*
X123435890Y-62695076D01*
X123439317Y-62703349D01*
X123438641Y-62707268D01*
X123100893Y-63657292D01*
X123094893Y-63663939D01*
X123087601Y-63664851D01*
X122466983Y-63542226D01*
X122459531Y-63537261D01*
X122457773Y-63533016D01*
X122335148Y-62912396D01*
X122336906Y-62903617D01*
X122342704Y-62899107D01*
X123292731Y-62561358D01*
X123301674Y-62561816D01*
G37*
%TD.AperFunction*%
%TD*%
%TA.AperFunction,Conductor*%
%TO.N,/{slash}AS_30*%
G36*
X135301674Y-57561816D02*
G01*
X135304923Y-57564109D01*
X135435890Y-57695076D01*
X135439317Y-57703349D01*
X135438641Y-57707268D01*
X135100893Y-58657292D01*
X135094893Y-58663939D01*
X135087601Y-58664851D01*
X134466983Y-58542226D01*
X134459531Y-58537261D01*
X134457773Y-58533016D01*
X134335148Y-57912396D01*
X134336906Y-57903617D01*
X134342704Y-57899107D01*
X135292731Y-57561358D01*
X135301674Y-57561816D01*
G37*
%TD.AperFunction*%
%TD*%
%TA.AperFunction,Conductor*%
%TO.N,/{slash}AS_30*%
G36*
X180247268Y-60461358D02*
G01*
X180486505Y-60546410D01*
X181197293Y-60799106D01*
X181203939Y-60805106D01*
X181204851Y-60812398D01*
X181082226Y-61433016D01*
X181077261Y-61440468D01*
X181073016Y-61442226D01*
X180452398Y-61564851D01*
X180443617Y-61563093D01*
X180439107Y-61557293D01*
X180101358Y-60607268D01*
X180101816Y-60598325D01*
X180104106Y-60595079D01*
X180235077Y-60464108D01*
X180243349Y-60460682D01*
X180247268Y-60461358D01*
G37*
%TD.AperFunction*%
%TD*%
%TA.AperFunction,Conductor*%
%TO.N,/{slash}HALT_30*%
G36*
X183323819Y-66117112D02*
G01*
X184030001Y-66730082D01*
X184034003Y-66738093D01*
X184031419Y-66746288D01*
X183508083Y-67391610D01*
X183500211Y-67395877D01*
X183491627Y-67393327D01*
X183191851Y-67149676D01*
X182694829Y-66745708D01*
X182690570Y-66737831D01*
X182693129Y-66729250D01*
X182693947Y-66728344D01*
X183174166Y-66251387D01*
X183307878Y-66117674D01*
X183316150Y-66114248D01*
X183323819Y-66117112D01*
G37*
%TD.AperFunction*%
%TD*%
%TA.AperFunction,Conductor*%
%TO.N,/{slash}HALT_30*%
G36*
X179176382Y-61316906D02*
G01*
X179180893Y-61322707D01*
X179518641Y-62272731D01*
X179518183Y-62281674D01*
X179515890Y-62284923D01*
X179384923Y-62415890D01*
X179376650Y-62419317D01*
X179372731Y-62418641D01*
X178422707Y-62080893D01*
X178416060Y-62074893D01*
X178415148Y-62067603D01*
X178537773Y-61446981D01*
X178542738Y-61439531D01*
X178546980Y-61437774D01*
X179167603Y-61315148D01*
X179176382Y-61316906D01*
G37*
%TD.AperFunction*%
%TD*%
%TA.AperFunction,Conductor*%
%TO.N,/CDIS*%
G36*
X177707268Y-35061358D02*
G01*
X177946505Y-35146410D01*
X178657293Y-35399106D01*
X178663939Y-35405106D01*
X178664851Y-35412398D01*
X178542226Y-36033016D01*
X178537261Y-36040468D01*
X178533016Y-36042226D01*
X177912398Y-36164851D01*
X177903617Y-36163093D01*
X177899107Y-36157293D01*
X177561358Y-35207268D01*
X177561816Y-35198325D01*
X177564106Y-35195079D01*
X177695077Y-35064108D01*
X177703349Y-35060682D01*
X177707268Y-35061358D01*
G37*
%TD.AperFunction*%
%TD*%
%TA.AperFunction,Conductor*%
%TO.N,/CDIS*%
G36*
X119571282Y-29503289D02*
G01*
X120086525Y-29690104D01*
X120093134Y-29696144D01*
X120094236Y-29701102D01*
X120094236Y-29884697D01*
X120090809Y-29892970D01*
X120086524Y-29895696D01*
X119571290Y-30082508D01*
X119562344Y-30082107D01*
X119556303Y-30075497D01*
X119555837Y-30073839D01*
X119499469Y-29795218D01*
X119499469Y-29790580D01*
X119555835Y-29511967D01*
X119560834Y-29504541D01*
X119569622Y-29502822D01*
X119571282Y-29503289D01*
G37*
%TD.AperFunction*%
%TD*%
%TA.AperFunction,Conductor*%
%TO.N,/{slash}BR_30*%
G36*
X160228533Y-63624865D02*
G01*
X160758754Y-63977992D01*
X160762007Y-63981245D01*
X161115134Y-64511466D01*
X161116868Y-64520251D01*
X161112638Y-64527140D01*
X160211310Y-65237525D01*
X160202692Y-65239955D01*
X160195795Y-65236609D01*
X159503390Y-64544204D01*
X159499963Y-64535931D01*
X159502473Y-64528691D01*
X160212860Y-63627360D01*
X160220672Y-63622984D01*
X160228533Y-63624865D01*
G37*
%TD.AperFunction*%
%TD*%
%TA.AperFunction,Conductor*%
%TO.N,/{slash}BR_30*%
G36*
X159874096Y-65840927D02*
G01*
X159877186Y-65846413D01*
X160036197Y-66494688D01*
X160034840Y-66503539D01*
X160034260Y-66504406D01*
X159384426Y-67388180D01*
X159376764Y-67392815D01*
X159368069Y-67390675D01*
X159365574Y-67388180D01*
X159105640Y-67034670D01*
X158715738Y-66504404D01*
X158713599Y-66495711D01*
X158713798Y-66494708D01*
X158872814Y-65846413D01*
X158878113Y-65839194D01*
X158884177Y-65837500D01*
X159865823Y-65837500D01*
X159874096Y-65840927D01*
G37*
%TD.AperFunction*%
%TD*%
%TA.AperFunction,Conductor*%
%TO.N,/{slash}BGACK_30*%
G36*
X169705586Y-61278283D02*
G01*
X169708155Y-61282159D01*
X169938933Y-61851198D01*
X169938867Y-61860152D01*
X169932488Y-61866437D01*
X169930405Y-61867064D01*
X169655479Y-61922543D01*
X169646692Y-61920820D01*
X169646659Y-61920798D01*
X169525635Y-61839819D01*
X169408831Y-61761664D01*
X169403861Y-61754216D01*
X169404697Y-61747077D01*
X169559226Y-61409135D01*
X169561588Y-61405735D01*
X169689041Y-61278282D01*
X169697313Y-61274856D01*
X169705586Y-61278283D01*
G37*
%TD.AperFunction*%
%TD*%
%TA.AperFunction,Conductor*%
%TO.N,/{slash}BGACK_30*%
G36*
X168294505Y-66930927D02*
G01*
X168703744Y-67393171D01*
X168848060Y-67556179D01*
X168851000Y-67563935D01*
X168851000Y-68051772D01*
X168847573Y-68060045D01*
X168843893Y-68062533D01*
X168296015Y-68296365D01*
X168287060Y-68296461D01*
X168282005Y-68292547D01*
X168110599Y-68060045D01*
X167631025Y-67409530D01*
X167628875Y-67400838D01*
X167633500Y-67393171D01*
X167633551Y-67393133D01*
X168278919Y-66929183D01*
X168287634Y-66927137D01*
X168294505Y-66930927D01*
G37*
%TD.AperFunction*%
%TD*%
%TA.AperFunction,Conductor*%
%TO.N,/{slash}BGACK_30*%
G36*
X168790631Y-67518854D02*
G01*
X168794535Y-67525460D01*
X168851530Y-67807180D01*
X168851530Y-67811820D01*
X168794535Y-68093539D01*
X168789535Y-68100968D01*
X168782104Y-68102879D01*
X168267501Y-68060386D01*
X168259538Y-68056290D01*
X168256764Y-68048726D01*
X168256764Y-67570273D01*
X168260191Y-67562000D01*
X168267499Y-67558613D01*
X168782104Y-67516120D01*
X168790631Y-67518854D01*
G37*
%TD.AperFunction*%
%TD*%
%TA.AperFunction,Conductor*%
%TO.N,/{slash}BGACK_30*%
G36*
X166387126Y-58547473D02*
G01*
X167001512Y-59338967D01*
X167003878Y-59347603D01*
X167000543Y-59354414D01*
X166869584Y-59485373D01*
X166861947Y-59488783D01*
X165976931Y-59536958D01*
X165968484Y-59533986D01*
X165964822Y-59527567D01*
X165957073Y-59488783D01*
X165840828Y-58906976D01*
X165842567Y-58898194D01*
X165845810Y-58894952D01*
X166371402Y-58544908D01*
X166380184Y-58543175D01*
X166387126Y-58547473D01*
G37*
%TD.AperFunction*%
%TD*%
%TA.AperFunction,Conductor*%
%TO.N,/{slash}BERR_30*%
G36*
X162054303Y-61250126D02*
G01*
X162055252Y-61251199D01*
X162216445Y-61457665D01*
X162377014Y-61663332D01*
X162379404Y-61671961D01*
X162374992Y-61679753D01*
X162374324Y-61680238D01*
X162140056Y-61837881D01*
X162131279Y-61839657D01*
X162131220Y-61839645D01*
X161852110Y-61783591D01*
X161844674Y-61778602D01*
X161842864Y-61770252D01*
X161905086Y-61385922D01*
X161908361Y-61379522D01*
X162037758Y-61250125D01*
X162046030Y-61246699D01*
X162054303Y-61250126D01*
G37*
%TD.AperFunction*%
%TD*%
%TA.AperFunction,Conductor*%
%TO.N,/{slash}BERR_30*%
G36*
X178493949Y-67399012D02*
G01*
X178501666Y-67403554D01*
X178503362Y-67406717D01*
X178729885Y-68050720D01*
X178729398Y-68059661D01*
X178722730Y-68065639D01*
X178722004Y-68065868D01*
X177314824Y-68460038D01*
X177305933Y-68458970D01*
X177300402Y-68451928D01*
X177299968Y-68448772D01*
X177299968Y-68265934D01*
X177300470Y-68262542D01*
X177361928Y-68059661D01*
X177597097Y-67283335D01*
X177602775Y-67276413D01*
X177609915Y-67275142D01*
X178493949Y-67399012D01*
G37*
%TD.AperFunction*%
%TD*%
%TA.AperFunction,Conductor*%
%TO.N,/{slash}BERR_30*%
G36*
X118221674Y-54941816D02*
G01*
X118224923Y-54944109D01*
X118355890Y-55075076D01*
X118359317Y-55083349D01*
X118358641Y-55087268D01*
X118020893Y-56037292D01*
X118014893Y-56043939D01*
X118007601Y-56044851D01*
X117386983Y-55922226D01*
X117379531Y-55917261D01*
X117377773Y-55913016D01*
X117255148Y-55292396D01*
X117256906Y-55283617D01*
X117262704Y-55279107D01*
X118212731Y-54941358D01*
X118221674Y-54941816D01*
G37*
%TD.AperFunction*%
%TD*%
%TA.AperFunction,Conductor*%
%TO.N,/{slash}BERR_30*%
G36*
X162815119Y-69851537D02*
G01*
X162815374Y-69851938D01*
X163028902Y-70202897D01*
X163030607Y-70208978D01*
X163030607Y-70391497D01*
X163027180Y-70399770D01*
X163018907Y-70403197D01*
X163016668Y-70402981D01*
X162512563Y-70304676D01*
X162505098Y-70299729D01*
X162503318Y-70290953D01*
X162503319Y-70290947D01*
X162557663Y-70012990D01*
X162562613Y-70005529D01*
X162798898Y-69848278D01*
X162807683Y-69846548D01*
X162815119Y-69851537D01*
G37*
%TD.AperFunction*%
%TD*%
%TA.AperFunction,Conductor*%
%TO.N,/CLK_30*%
G36*
X170913016Y-63977773D02*
G01*
X170920468Y-63982738D01*
X170922226Y-63986983D01*
X171044851Y-64607601D01*
X171043093Y-64616382D01*
X171037292Y-64620893D01*
X170087268Y-64958641D01*
X170078325Y-64958183D01*
X170075076Y-64955890D01*
X169944109Y-64824923D01*
X169940682Y-64816650D01*
X169941358Y-64812731D01*
X170279107Y-63862705D01*
X170285106Y-63856060D01*
X170292395Y-63855148D01*
X170913016Y-63977773D01*
G37*
%TD.AperFunction*%
%TD*%
%TA.AperFunction,Conductor*%
%TO.N,/CLK_30*%
G36*
X118221674Y-65101816D02*
G01*
X118224923Y-65104109D01*
X118355890Y-65235076D01*
X118359317Y-65243349D01*
X118358641Y-65247268D01*
X118020893Y-66197292D01*
X118014893Y-66203939D01*
X118007601Y-66204851D01*
X117386983Y-66082226D01*
X117379531Y-66077261D01*
X117377773Y-66073016D01*
X117255148Y-65452396D01*
X117256906Y-65443617D01*
X117262704Y-65439107D01*
X118212731Y-65101358D01*
X118221674Y-65101816D01*
G37*
%TD.AperFunction*%
%TD*%
%TA.AperFunction,Conductor*%
%TO.N,/{slash}CIIN*%
G36*
X140175885Y-46037005D02*
G01*
X140180573Y-46043346D01*
X140479096Y-47032993D01*
X140478205Y-47041903D01*
X140476168Y-47044645D01*
X140345223Y-47175590D01*
X140336950Y-47179017D01*
X140332474Y-47178127D01*
X139422052Y-46801178D01*
X139415719Y-46794847D01*
X139415050Y-46788100D01*
X139537773Y-46166981D01*
X139542738Y-46159531D01*
X139546980Y-46157774D01*
X140167104Y-46035247D01*
X140175885Y-46037005D01*
G37*
%TD.AperFunction*%
%TD*%
%TA.AperFunction,Conductor*%
%TO.N,/{slash}CIIN*%
G36*
X148730744Y-68770816D02*
G01*
X148731593Y-68772326D01*
X148803480Y-68925993D01*
X148923191Y-69181893D01*
X148963822Y-69268746D01*
X148964223Y-69277692D01*
X148961497Y-69281977D01*
X148831677Y-69411797D01*
X148823404Y-69415224D01*
X148818447Y-69414122D01*
X148667828Y-69343661D01*
X148322026Y-69181893D01*
X148315985Y-69175283D01*
X148316386Y-69166337D01*
X148317235Y-69164827D01*
X148474385Y-68927963D01*
X148477663Y-68924685D01*
X148714527Y-68767534D01*
X148723315Y-68765816D01*
X148730744Y-68770816D01*
G37*
%TD.AperFunction*%
%TD*%
%TA.AperFunction,Conductor*%
%TO.N,/{slash}CIIN*%
G36*
X181052413Y-68703443D02*
G01*
X181526225Y-68871689D01*
X181532874Y-68877687D01*
X181533792Y-68884960D01*
X181479136Y-69164509D01*
X181474185Y-69171971D01*
X181474135Y-69172004D01*
X181239385Y-69328233D01*
X181230599Y-69329964D01*
X181223163Y-69324975D01*
X181222178Y-69323168D01*
X181037778Y-68900136D01*
X181036803Y-68895461D01*
X181036803Y-68714470D01*
X181040230Y-68706197D01*
X181048503Y-68702770D01*
X181052413Y-68703443D01*
G37*
%TD.AperFunction*%
%TD*%
%TA.AperFunction,Conductor*%
%TO.N,/{slash}CIIN*%
G36*
X180703662Y-86500986D02*
G01*
X180705172Y-86501835D01*
X180942034Y-86658984D01*
X180945315Y-86662265D01*
X181102464Y-86899127D01*
X181104183Y-86907915D01*
X181099183Y-86915344D01*
X181097673Y-86916193D01*
X180601253Y-87148422D01*
X180592307Y-87148823D01*
X180588022Y-87146097D01*
X180458202Y-87016277D01*
X180454775Y-87008004D01*
X180455875Y-87003051D01*
X180688106Y-86506625D01*
X180694716Y-86500585D01*
X180703662Y-86500986D01*
G37*
%TD.AperFunction*%
%TD*%
%TA.AperFunction,Conductor*%
%TO.N,/{slash}CIIN*%
G36*
X147951855Y-48729192D02*
G01*
X147957896Y-48735802D01*
X147958365Y-48737470D01*
X148014730Y-49016080D01*
X148014730Y-49020720D01*
X147958365Y-49299329D01*
X147953365Y-49306758D01*
X147944577Y-49308477D01*
X147942909Y-49308008D01*
X147427676Y-49121196D01*
X147421066Y-49115155D01*
X147419964Y-49110197D01*
X147419964Y-48926602D01*
X147423391Y-48918329D01*
X147427673Y-48915604D01*
X147942911Y-48728791D01*
X147951855Y-48729192D01*
G37*
%TD.AperFunction*%
%TD*%
%TA.AperFunction,Conductor*%
%TO.N,/{slash}CIIN*%
G36*
X165056772Y-86456829D02*
G01*
X165061119Y-86462196D01*
X165429495Y-87381279D01*
X165429392Y-87390233D01*
X165426908Y-87393905D01*
X165295955Y-87524858D01*
X165287682Y-87528285D01*
X165284186Y-87527751D01*
X164303207Y-87220645D01*
X164296336Y-87214903D01*
X164295225Y-87207213D01*
X164417773Y-86586981D01*
X164422738Y-86579531D01*
X164426980Y-86577774D01*
X165047993Y-86455071D01*
X165056772Y-86456829D01*
G37*
%TD.AperFunction*%
%TD*%
%TA.AperFunction,Conductor*%
%TO.N,/AVEC*%
G36*
X170087268Y-60461358D02*
G01*
X170326505Y-60546410D01*
X171037293Y-60799106D01*
X171043939Y-60805106D01*
X171044851Y-60812398D01*
X170922226Y-61433016D01*
X170917261Y-61440468D01*
X170913016Y-61442226D01*
X170292398Y-61564851D01*
X170283617Y-61563093D01*
X170279107Y-61557293D01*
X169941358Y-60607268D01*
X169941816Y-60598325D01*
X169944106Y-60595079D01*
X170075077Y-60464108D01*
X170083349Y-60460682D01*
X170087268Y-60461358D01*
G37*
%TD.AperFunction*%
%TD*%
%TA.AperFunction,Conductor*%
%TO.N,/AVEC*%
G36*
X140175885Y-43497005D02*
G01*
X140180573Y-43503346D01*
X140479096Y-44492993D01*
X140478205Y-44501903D01*
X140476168Y-44504645D01*
X140345223Y-44635590D01*
X140336950Y-44639017D01*
X140332474Y-44638127D01*
X139422052Y-44261178D01*
X139415719Y-44254847D01*
X139415050Y-44248100D01*
X139537773Y-43626981D01*
X139542738Y-43619531D01*
X139546980Y-43617774D01*
X140167104Y-43495247D01*
X140175885Y-43497005D01*
G37*
%TD.AperFunction*%
%TD*%
%TA.AperFunction,Conductor*%
%TO.N,/SIZ0*%
G36*
X188992070Y-66209191D02*
G01*
X188994796Y-66213476D01*
X189181608Y-66728709D01*
X189181207Y-66737655D01*
X189174597Y-66743696D01*
X189172929Y-66744165D01*
X188894320Y-66800530D01*
X188889680Y-66800530D01*
X188611070Y-66744165D01*
X188603641Y-66739165D01*
X188601922Y-66730377D01*
X188602387Y-66728720D01*
X188789204Y-66213476D01*
X188795245Y-66206866D01*
X188800203Y-66205764D01*
X188983797Y-66205764D01*
X188992070Y-66209191D01*
G37*
%TD.AperFunction*%
%TD*%
%TA.AperFunction,Conductor*%
%TO.N,/SIZ0*%
G36*
X162516772Y-83916829D02*
G01*
X162521119Y-83922196D01*
X162889495Y-84841279D01*
X162889392Y-84850233D01*
X162886908Y-84853905D01*
X162755955Y-84984858D01*
X162747682Y-84988285D01*
X162744186Y-84987751D01*
X161763207Y-84680645D01*
X161756336Y-84674903D01*
X161755225Y-84667213D01*
X161877773Y-84046981D01*
X161882738Y-84039531D01*
X161886980Y-84037774D01*
X162507993Y-83915071D01*
X162516772Y-83916829D01*
G37*
%TD.AperFunction*%
%TD*%
%TA.AperFunction,Conductor*%
%TO.N,/SIZ0*%
G36*
X183869362Y-83512086D02*
G01*
X183870872Y-83512935D01*
X184107734Y-83670084D01*
X184111015Y-83673365D01*
X184268164Y-83910227D01*
X184269883Y-83919015D01*
X184264883Y-83926444D01*
X184263373Y-83927293D01*
X183766953Y-84159522D01*
X183758007Y-84159923D01*
X183753722Y-84157197D01*
X183623902Y-84027377D01*
X183620475Y-84019104D01*
X183621575Y-84014151D01*
X183853806Y-83517725D01*
X183860416Y-83511685D01*
X183869362Y-83512086D01*
G37*
%TD.AperFunction*%
%TD*%
%TA.AperFunction,Conductor*%
%TO.N,/SIZ0*%
G36*
X186298653Y-60805380D02*
G01*
X187234988Y-61033832D01*
X187240487Y-61036926D01*
X187371044Y-61167483D01*
X187374471Y-61175756D01*
X187371044Y-61184029D01*
X187370771Y-61184294D01*
X186531170Y-61971038D01*
X186522790Y-61974194D01*
X186514632Y-61970500D01*
X186513452Y-61969015D01*
X186161999Y-61444744D01*
X186160239Y-61435969D01*
X186284418Y-60814454D01*
X186289398Y-60807015D01*
X186298182Y-60805276D01*
X186298653Y-60805380D01*
G37*
%TD.AperFunction*%
%TD*%
%TA.AperFunction,Conductor*%
%TO.N,/{slash}FPUCS*%
G36*
X131804277Y-49419302D02*
G01*
X131934097Y-49549122D01*
X131937524Y-49557395D01*
X131936422Y-49562353D01*
X131704193Y-50058773D01*
X131697583Y-50064814D01*
X131688637Y-50064413D01*
X131687127Y-50063564D01*
X131450265Y-49906415D01*
X131446984Y-49903134D01*
X131289835Y-49666272D01*
X131288116Y-49657484D01*
X131293116Y-49650055D01*
X131294621Y-49649208D01*
X131791048Y-49416976D01*
X131799992Y-49416576D01*
X131804277Y-49419302D01*
G37*
%TD.AperFunction*%
%TD*%
%TA.AperFunction,Conductor*%
%TO.N,/{slash}FPUCS*%
G36*
X141949476Y-45527388D02*
G01*
X141955404Y-45534100D01*
X141955811Y-45535607D01*
X142079754Y-46155939D01*
X142078015Y-46164723D01*
X142077999Y-46164746D01*
X141725826Y-46690090D01*
X141718373Y-46695054D01*
X141709593Y-46693293D01*
X141708982Y-46692855D01*
X140825353Y-46014320D01*
X140820879Y-46006563D01*
X140823199Y-45997914D01*
X140824198Y-45996775D01*
X140954285Y-45866688D01*
X140958755Y-45863897D01*
X141940540Y-45526833D01*
X141949476Y-45527388D01*
G37*
%TD.AperFunction*%
%TD*%
%TA.AperFunction,Conductor*%
%TO.N,/{slash}SCC.RW.DEC*%
G36*
X136993016Y-41077773D02*
G01*
X137000468Y-41082738D01*
X137002226Y-41086983D01*
X137124752Y-41707104D01*
X137122994Y-41715885D01*
X137116653Y-41720573D01*
X136127006Y-42019096D01*
X136118096Y-42018205D01*
X136115354Y-42016168D01*
X135984409Y-41885223D01*
X135980982Y-41876950D01*
X135981872Y-41872474D01*
X136046706Y-41715885D01*
X136358821Y-40962051D01*
X136365152Y-40955719D01*
X136371899Y-40955050D01*
X136993016Y-41077773D01*
G37*
%TD.AperFunction*%
%TD*%
%TA.AperFunction,Conductor*%
%TO.N,/{slash}SCC.RW.DEC*%
G36*
X124733182Y-45170789D02*
G01*
X125248425Y-45357604D01*
X125255034Y-45363644D01*
X125256136Y-45368602D01*
X125256136Y-45552197D01*
X125252709Y-45560470D01*
X125248424Y-45563196D01*
X124733190Y-45750008D01*
X124724244Y-45749607D01*
X124718203Y-45742997D01*
X124717737Y-45741339D01*
X124661369Y-45462718D01*
X124661369Y-45458080D01*
X124717735Y-45179467D01*
X124722734Y-45172041D01*
X124731522Y-45170322D01*
X124733182Y-45170789D01*
G37*
%TD.AperFunction*%
%TD*%
%TA.AperFunction,Conductor*%
%TO.N,/N$1*%
G36*
X120761674Y-57481816D02*
G01*
X120764923Y-57484109D01*
X120895890Y-57615076D01*
X120899317Y-57623349D01*
X120898641Y-57627268D01*
X120560893Y-58577292D01*
X120554893Y-58583939D01*
X120547601Y-58584851D01*
X119926983Y-58462226D01*
X119919531Y-58457261D01*
X119917773Y-58453016D01*
X119795148Y-57832396D01*
X119796906Y-57823617D01*
X119802704Y-57819107D01*
X120752731Y-57481358D01*
X120761674Y-57481816D01*
G37*
%TD.AperFunction*%
%TD*%
%TA.AperFunction,Conductor*%
%TO.N,/N$1*%
G36*
X141247268Y-55021358D02*
G01*
X141486505Y-55106410D01*
X142197293Y-55359106D01*
X142203939Y-55365106D01*
X142204851Y-55372398D01*
X142082226Y-55993016D01*
X142077261Y-56000468D01*
X142073016Y-56002226D01*
X141452398Y-56124851D01*
X141443617Y-56123093D01*
X141439107Y-56117293D01*
X141101358Y-55167268D01*
X141101816Y-55158325D01*
X141104106Y-55155079D01*
X141235077Y-55024108D01*
X141243349Y-55020682D01*
X141247268Y-55021358D01*
G37*
%TD.AperFunction*%
%TD*%
%TA.AperFunction,Conductor*%
%TO.N,/N$7*%
G36*
X140613144Y-80485316D02*
G01*
X140613993Y-80486826D01*
X140685880Y-80640493D01*
X140805591Y-80896393D01*
X140846222Y-80983246D01*
X140846623Y-80992192D01*
X140843897Y-80996477D01*
X140714077Y-81126297D01*
X140705804Y-81129724D01*
X140700847Y-81128622D01*
X140550228Y-81058161D01*
X140204426Y-80896393D01*
X140198385Y-80889783D01*
X140198786Y-80880837D01*
X140199635Y-80879327D01*
X140356785Y-80642463D01*
X140360063Y-80639185D01*
X140596927Y-80482034D01*
X140605715Y-80480316D01*
X140613144Y-80485316D01*
G37*
%TD.AperFunction*%
%TD*%
%TA.AperFunction,Conductor*%
%TO.N,/N$7*%
G36*
X168698719Y-85570503D02*
G01*
X169617803Y-85938880D01*
X169624207Y-85945139D01*
X169624928Y-85952008D01*
X169502226Y-86573016D01*
X169497261Y-86580468D01*
X169493016Y-86582226D01*
X168872788Y-86704774D01*
X168864007Y-86703016D01*
X168859354Y-86696792D01*
X168552248Y-85715813D01*
X168553047Y-85706893D01*
X168555138Y-85704047D01*
X168686095Y-85573090D01*
X168694367Y-85569664D01*
X168698719Y-85570503D01*
G37*
%TD.AperFunction*%
%TD*%
%TA.AperFunction,Conductor*%
%TO.N,/SM_CLK16*%
G36*
X138898746Y-55476834D02*
G01*
X139530653Y-55991111D01*
X139534907Y-55998991D01*
X139532343Y-56007570D01*
X139531541Y-56008458D01*
X138896930Y-56643069D01*
X138888657Y-56646496D01*
X138881962Y-56644391D01*
X138413572Y-56317585D01*
X138411994Y-56316263D01*
X138279051Y-56183320D01*
X138275624Y-56175047D01*
X138278523Y-56167338D01*
X138882566Y-55478196D01*
X138890595Y-55474235D01*
X138898746Y-55476834D01*
G37*
%TD.AperFunction*%
%TD*%
%TA.AperFunction,Conductor*%
%TO.N,/SM_CLK16*%
G36*
X115681674Y-62561816D02*
G01*
X115684923Y-62564109D01*
X115815890Y-62695076D01*
X115819317Y-62703349D01*
X115818641Y-62707268D01*
X115480893Y-63657292D01*
X115474893Y-63663939D01*
X115467601Y-63664851D01*
X114846983Y-63542226D01*
X114839531Y-63537261D01*
X114837773Y-63533016D01*
X114715148Y-62912396D01*
X114716906Y-62903617D01*
X114722704Y-62899107D01*
X115672731Y-62561358D01*
X115681674Y-62561816D01*
G37*
%TD.AperFunction*%
%TD*%
%TA.AperFunction,Conductor*%
%TO.N,Net-(U7-I5)*%
G36*
X124207268Y-40441358D02*
G01*
X124446505Y-40526410D01*
X125157293Y-40779106D01*
X125163939Y-40785106D01*
X125164851Y-40792398D01*
X125042226Y-41413016D01*
X125037261Y-41420468D01*
X125033016Y-41422226D01*
X124412398Y-41544851D01*
X124403617Y-41543093D01*
X124399107Y-41537293D01*
X124061358Y-40587268D01*
X124061816Y-40578325D01*
X124064106Y-40575079D01*
X124195077Y-40444108D01*
X124203349Y-40440682D01*
X124207268Y-40441358D01*
G37*
%TD.AperFunction*%
%TD*%
%TA.AperFunction,Conductor*%
%TO.N,Net-(U7-I5)*%
G36*
X115516382Y-38756906D02*
G01*
X115520893Y-38762707D01*
X115858641Y-39712731D01*
X115858183Y-39721674D01*
X115855890Y-39724923D01*
X115724923Y-39855890D01*
X115716650Y-39859317D01*
X115712731Y-39858641D01*
X114762707Y-39520893D01*
X114756060Y-39514893D01*
X114755148Y-39507603D01*
X114877773Y-38886981D01*
X114882738Y-38879531D01*
X114886980Y-38877774D01*
X115507603Y-38755148D01*
X115516382Y-38756906D01*
G37*
%TD.AperFunction*%
%TD*%
%TA.AperFunction,Conductor*%
%TO.N,Net-(U7-I3)*%
G36*
X124207268Y-42981358D02*
G01*
X124446505Y-43066410D01*
X125157293Y-43319106D01*
X125163939Y-43325106D01*
X125164851Y-43332398D01*
X125042226Y-43953016D01*
X125037261Y-43960468D01*
X125033016Y-43962226D01*
X124412398Y-44084851D01*
X124403617Y-44083093D01*
X124399107Y-44077293D01*
X124061358Y-43127268D01*
X124061816Y-43118325D01*
X124064106Y-43115079D01*
X124195077Y-42984108D01*
X124203349Y-42980682D01*
X124207268Y-42981358D01*
G37*
%TD.AperFunction*%
%TD*%
%TA.AperFunction,Conductor*%
%TO.N,Net-(U7-I3)*%
G36*
X115516382Y-41296906D02*
G01*
X115520893Y-41302707D01*
X115858641Y-42252731D01*
X115858183Y-42261674D01*
X115855890Y-42264923D01*
X115724923Y-42395890D01*
X115716650Y-42399317D01*
X115712731Y-42398641D01*
X114762707Y-42060893D01*
X114756060Y-42054893D01*
X114755148Y-42047603D01*
X114877773Y-41426981D01*
X114882738Y-41419531D01*
X114886980Y-41417774D01*
X115507603Y-41295148D01*
X115516382Y-41296906D01*
G37*
%TD.AperFunction*%
%TD*%
M02*
