%TF.GenerationSoftware,KiCad,Pcbnew,9.0.2+dfsg-1*%
%TF.CreationDate,2025-12-26T17:01:32-05:00*%
%TF.ProjectId,polyphloisboisterous030,706f6c79-7068-46c6-9f69-73626f697374,rev?*%
%TF.SameCoordinates,Original*%
%TF.FileFunction,Soldermask,Bot*%
%TF.FilePolarity,Negative*%
%FSLAX46Y46*%
G04 Gerber Fmt 4.6, Leading zero omitted, Abs format (unit mm)*
G04 Created by KiCad (PCBNEW 9.0.2+dfsg-1) date 2025-12-26 17:01:32*
%MOMM*%
%LPD*%
G01*
G04 APERTURE LIST*
%ADD10C,1.400000*%
%ADD11R,1.300000X1.300000*%
%ADD12C,1.300000*%
%ADD13R,1.500000X2.400000*%
%ADD14O,1.500000X2.400000*%
%ADD15R,1.325000X1.800000*%
%ADD16R,2.500000X2.350000*%
%ADD17R,1.800000X1.325000*%
G04 APERTURE END LIST*
D10*
%TO.C,U1*%
X160760000Y-63980000D03*
X160760000Y-61440000D03*
X160760000Y-58900000D03*
X160760000Y-56360000D03*
X160760000Y-53820000D03*
X160760000Y-51280000D03*
X160760000Y-48740000D03*
X160760000Y-46200000D03*
X160760000Y-43660000D03*
X160760000Y-41120000D03*
X160760000Y-38580000D03*
X160760000Y-36040000D03*
X160760000Y-33500000D03*
X163300000Y-63980000D03*
X163300000Y-61440000D03*
X163300000Y-58900000D03*
X163300000Y-56360000D03*
X163300000Y-53820000D03*
X163300000Y-51280000D03*
X163300000Y-48740000D03*
X163300000Y-46200000D03*
X163300000Y-43660000D03*
X163300000Y-41120000D03*
X163300000Y-38580000D03*
X163300000Y-36040000D03*
X163300000Y-33500000D03*
X165840000Y-63980000D03*
X165840000Y-61440000D03*
X165840000Y-58900000D03*
X165840000Y-56360000D03*
X165840000Y-53820000D03*
X165840000Y-51280000D03*
X165840000Y-48740000D03*
X165840000Y-46200000D03*
X165840000Y-43660000D03*
X165840000Y-41120000D03*
X165840000Y-38580000D03*
X165840000Y-36040000D03*
X165840000Y-33500000D03*
X168380000Y-63980000D03*
X168380000Y-61440000D03*
X168380000Y-58900000D03*
X168380000Y-56360000D03*
X168380000Y-53820000D03*
X168380000Y-41120000D03*
X168380000Y-38580000D03*
X168380000Y-36040000D03*
X168380000Y-33500000D03*
X170920000Y-63980000D03*
X170920000Y-61440000D03*
X170920000Y-58900000D03*
X170920000Y-38580000D03*
X170920000Y-36040000D03*
X170920000Y-33500000D03*
X173460000Y-63980000D03*
X173460000Y-61440000D03*
X173460000Y-58900000D03*
X173460000Y-56360000D03*
X173460000Y-41120000D03*
X173460000Y-38580000D03*
X173460000Y-36040000D03*
X173460000Y-33500000D03*
X176000000Y-63980000D03*
X176000000Y-61440000D03*
X176000000Y-58900000D03*
X176000000Y-38580000D03*
X176000000Y-36040000D03*
X176000000Y-33500000D03*
X178540000Y-63980000D03*
X178540000Y-61440000D03*
X178540000Y-58900000D03*
X178540000Y-38580000D03*
X178540000Y-36040000D03*
X178540000Y-33500000D03*
X181080000Y-63980000D03*
X181080000Y-61440000D03*
X181080000Y-58900000D03*
X181080000Y-38580000D03*
X181080000Y-36040000D03*
X181080000Y-33500000D03*
X183620000Y-63980000D03*
X183620000Y-61440000D03*
X183620000Y-58900000D03*
X183620000Y-56360000D03*
X183620000Y-53820000D03*
X183620000Y-41120000D03*
X183620000Y-38580000D03*
X183620000Y-36040000D03*
X183620000Y-33500000D03*
X186160000Y-63980000D03*
X186160000Y-61440000D03*
X186160000Y-58900000D03*
X186160000Y-56360000D03*
X186160000Y-53820000D03*
X186160000Y-51280000D03*
X186160000Y-48740000D03*
X186160000Y-46200000D03*
X186160000Y-43660000D03*
X186160000Y-41120000D03*
X186160000Y-38580000D03*
X186160000Y-36040000D03*
X186160000Y-33500000D03*
X188700000Y-63980000D03*
X188700000Y-61440000D03*
X188700000Y-58900000D03*
X188700000Y-56360000D03*
X188700000Y-53820000D03*
X188700000Y-51280000D03*
X188700000Y-48740000D03*
X188700000Y-46200000D03*
X188700000Y-43660000D03*
X188700000Y-41120000D03*
X188700000Y-38580000D03*
X188700000Y-36040000D03*
X188700000Y-33500000D03*
X191240000Y-63980000D03*
X191240000Y-61440000D03*
X191240000Y-58900000D03*
X191240000Y-56360000D03*
X191240000Y-53820000D03*
X191240000Y-51280000D03*
X191240000Y-48740000D03*
X191240000Y-46200000D03*
X191240000Y-43660000D03*
X191240000Y-41120000D03*
X191240000Y-38580000D03*
X191240000Y-36040000D03*
X191240000Y-33500000D03*
%TD*%
D11*
%TO.C,U7*%
X119960000Y-46500000D03*
D12*
X119960000Y-43960000D03*
X122500000Y-46500000D03*
X125040000Y-43960000D03*
X122500000Y-43960000D03*
X125040000Y-41420000D03*
X122500000Y-41420000D03*
X125040000Y-38880000D03*
X122500000Y-36340000D03*
X122500000Y-38880000D03*
X119960000Y-36340000D03*
X119960000Y-38880000D03*
X117420000Y-36340000D03*
X114880000Y-38880000D03*
X117420000Y-38880000D03*
X114880000Y-41420000D03*
X117420000Y-41420000D03*
X114880000Y-43960000D03*
X117420000Y-46500000D03*
X117420000Y-43960000D03*
%TD*%
D11*
%TO.C,U5*%
X166960000Y-81500000D03*
D12*
X166960000Y-84040000D03*
X164420000Y-81500000D03*
X161880000Y-84040000D03*
X164420000Y-84040000D03*
X161880000Y-86580000D03*
X164420000Y-86580000D03*
X161880000Y-89120000D03*
X164420000Y-91660000D03*
X164420000Y-89120000D03*
X166960000Y-91660000D03*
X166960000Y-89120000D03*
X169500000Y-91660000D03*
X172040000Y-89120000D03*
X169500000Y-89120000D03*
X172040000Y-86580000D03*
X169500000Y-86580000D03*
X172040000Y-84040000D03*
X169500000Y-81500000D03*
X169500000Y-84040000D03*
%TD*%
D11*
%TO.C,U4*%
X139540000Y-56000000D03*
D12*
X139540000Y-58540000D03*
X137000000Y-56000000D03*
X134460000Y-58540000D03*
X137000000Y-58540000D03*
X134460000Y-61080000D03*
X137000000Y-61080000D03*
X134460000Y-63620000D03*
X137000000Y-66160000D03*
X137000000Y-63620000D03*
X139540000Y-66160000D03*
X139540000Y-63620000D03*
X142080000Y-66160000D03*
X144620000Y-63620000D03*
X142080000Y-63620000D03*
X144620000Y-61080000D03*
X142080000Y-61080000D03*
X144620000Y-58540000D03*
X142080000Y-56000000D03*
X142080000Y-58540000D03*
%TD*%
D11*
%TO.C,U3*%
X144620000Y-41080000D03*
D12*
X142080000Y-41080000D03*
X144620000Y-38540000D03*
X142080000Y-36000000D03*
X142080000Y-38540000D03*
X139540000Y-36000000D03*
X139540000Y-38540000D03*
X137000000Y-36000000D03*
X134460000Y-38540000D03*
X137000000Y-38540000D03*
X134460000Y-41080000D03*
X137000000Y-41080000D03*
X134460000Y-43620000D03*
X137000000Y-46160000D03*
X137000000Y-43620000D03*
X139540000Y-46160000D03*
X139540000Y-43620000D03*
X142080000Y-46160000D03*
X144620000Y-43620000D03*
X142080000Y-43620000D03*
%TD*%
D11*
%TO.C,U6*%
X119920000Y-66080000D03*
D12*
X119920000Y-63540000D03*
X122460000Y-66080000D03*
X125000000Y-63540000D03*
X122460000Y-63540000D03*
X125000000Y-61000000D03*
X122460000Y-61000000D03*
X125000000Y-58460000D03*
X122460000Y-55920000D03*
X122460000Y-58460000D03*
X119920000Y-55920000D03*
X119920000Y-58460000D03*
X117380000Y-55920000D03*
X114840000Y-58460000D03*
X117380000Y-58460000D03*
X114840000Y-61000000D03*
X117380000Y-61000000D03*
X114840000Y-63540000D03*
X117380000Y-66080000D03*
X117380000Y-63540000D03*
%TD*%
D13*
%TO.C,IC1*%
X191740000Y-75000000D03*
D14*
X189200000Y-75000000D03*
X186660000Y-75000000D03*
X184120000Y-75000000D03*
X181580000Y-75000000D03*
X179040000Y-75000000D03*
X176500000Y-75000000D03*
X173960000Y-75000000D03*
X171420000Y-75000000D03*
X168880000Y-75000000D03*
X166340000Y-75000000D03*
X163800000Y-75000000D03*
X161260000Y-75000000D03*
X158720000Y-75000000D03*
X156180000Y-75000000D03*
X153640000Y-75000000D03*
X151100000Y-75000000D03*
X148560000Y-75000000D03*
X146020000Y-75000000D03*
X143480000Y-75000000D03*
X140940000Y-75000000D03*
X138400000Y-75000000D03*
X135860000Y-75000000D03*
X133320000Y-75000000D03*
X130780000Y-75000000D03*
X128240000Y-75000000D03*
X125700000Y-75000000D03*
X123160000Y-75000000D03*
X120620000Y-75000000D03*
X118080000Y-75000000D03*
X115540000Y-75000000D03*
X113000000Y-75000000D03*
X113000000Y-97860000D03*
X115540000Y-97860000D03*
X118080000Y-97860000D03*
X120620000Y-97860000D03*
X123160000Y-97860000D03*
X125700000Y-97860000D03*
X128240000Y-97860000D03*
X130780000Y-97860000D03*
X133320000Y-97860000D03*
X135860000Y-97860000D03*
X138400000Y-97860000D03*
X140940000Y-97860000D03*
X143480000Y-97860000D03*
X146020000Y-97860000D03*
X148560000Y-97860000D03*
X151100000Y-97860000D03*
X153640000Y-97860000D03*
X156180000Y-97860000D03*
X158720000Y-97860000D03*
X161260000Y-97860000D03*
X163800000Y-97860000D03*
X166340000Y-97860000D03*
X168880000Y-97860000D03*
X171420000Y-97860000D03*
X173960000Y-97860000D03*
X176500000Y-97860000D03*
X179040000Y-97860000D03*
X181580000Y-97860000D03*
X184120000Y-97860000D03*
X186660000Y-97860000D03*
X189200000Y-97860000D03*
X191740000Y-97860000D03*
%TD*%
D15*
%TO.C,R12*%
X167625000Y-30250000D03*
X170750000Y-30250000D03*
%TD*%
D16*
%TO.C,C1*%
X175612000Y-48250000D03*
X170250000Y-48250000D03*
%TD*%
D17*
%TO.C,C8*%
X176500000Y-80500000D03*
X176500000Y-83625000D03*
%TD*%
%TO.C,C4*%
X114000000Y-47500000D03*
X114000000Y-50625000D03*
%TD*%
%TO.C,R10*%
X125000000Y-56125000D03*
X125000000Y-53000000D03*
%TD*%
%TO.C,C7*%
X145500000Y-55625000D03*
X145500000Y-52500000D03*
%TD*%
%TO.C,R16*%
X131500000Y-43625000D03*
X131500000Y-40500000D03*
%TD*%
D15*
%TO.C,R3*%
X176875000Y-30250000D03*
X173750000Y-30250000D03*
%TD*%
D17*
%TO.C,C5*%
X114000000Y-67000000D03*
X114000000Y-70125000D03*
%TD*%
D16*
%TO.C,C3*%
X129638000Y-51000000D03*
X135000000Y-51000000D03*
%TD*%
D17*
%TO.C,R5*%
X181000000Y-55900000D03*
X181000000Y-52775000D03*
%TD*%
%TO.C,R11*%
X181000000Y-41337500D03*
X181000000Y-44462500D03*
%TD*%
%TO.C,R9*%
X131500000Y-35500000D03*
X131500000Y-38625000D03*
%TD*%
%TO.C,R2*%
X178300000Y-55900000D03*
X178300000Y-52775000D03*
%TD*%
D15*
%TO.C,R4*%
X134562500Y-67000000D03*
X131437500Y-67000000D03*
%TD*%
D17*
%TO.C,C6*%
X145500000Y-46375000D03*
X145500000Y-49500000D03*
%TD*%
M02*
