%TF.GenerationSoftware,KiCad,Pcbnew,9.0.2+dfsg-1*%
%TF.CreationDate,2025-12-26T17:01:31-05:00*%
%TF.ProjectId,polyphloisboisterous030,706f6c79-7068-46c6-9f69-73626f697374,rev?*%
%TF.SameCoordinates,Original*%
%TF.FileFunction,Legend,Bot*%
%TF.FilePolarity,Positive*%
%FSLAX46Y46*%
G04 Gerber Fmt 4.6, Leading zero omitted, Abs format (unit mm)*
G04 Created by KiCad (PCBNEW 9.0.2+dfsg-1) date 2025-12-26 17:01:31*
%MOMM*%
%LPD*%
G01*
G04 APERTURE LIST*
%ADD10C,0.150000*%
%ADD11C,0.120000*%
%ADD12C,0.100000*%
%ADD13C,1.400000*%
%ADD14R,1.300000X1.300000*%
%ADD15C,1.300000*%
%ADD16R,1.500000X2.400000*%
%ADD17O,1.500000X2.400000*%
%ADD18R,1.325000X1.800000*%
%ADD19R,2.500000X2.350000*%
%ADD20R,1.800000X1.325000*%
G04 APERTURE END LIST*
D10*
X169830357Y-32454819D02*
X170163690Y-31978628D01*
X170401785Y-32454819D02*
X170401785Y-31454819D01*
X170401785Y-31454819D02*
X170020833Y-31454819D01*
X170020833Y-31454819D02*
X169925595Y-31502438D01*
X169925595Y-31502438D02*
X169877976Y-31550057D01*
X169877976Y-31550057D02*
X169830357Y-31645295D01*
X169830357Y-31645295D02*
X169830357Y-31788152D01*
X169830357Y-31788152D02*
X169877976Y-31883390D01*
X169877976Y-31883390D02*
X169925595Y-31931009D01*
X169925595Y-31931009D02*
X170020833Y-31978628D01*
X170020833Y-31978628D02*
X170401785Y-31978628D01*
X168877976Y-32454819D02*
X169449404Y-32454819D01*
X169163690Y-32454819D02*
X169163690Y-31454819D01*
X169163690Y-31454819D02*
X169258928Y-31597676D01*
X169258928Y-31597676D02*
X169354166Y-31692914D01*
X169354166Y-31692914D02*
X169449404Y-31740533D01*
X168497023Y-31550057D02*
X168449404Y-31502438D01*
X168449404Y-31502438D02*
X168354166Y-31454819D01*
X168354166Y-31454819D02*
X168116071Y-31454819D01*
X168116071Y-31454819D02*
X168020833Y-31502438D01*
X168020833Y-31502438D02*
X167973214Y-31550057D01*
X167973214Y-31550057D02*
X167925595Y-31645295D01*
X167925595Y-31645295D02*
X167925595Y-31740533D01*
X167925595Y-31740533D02*
X167973214Y-31883390D01*
X167973214Y-31883390D02*
X168544642Y-32454819D01*
X168544642Y-32454819D02*
X167925595Y-32454819D01*
X173097666Y-46059580D02*
X173145285Y-46107200D01*
X173145285Y-46107200D02*
X173288142Y-46154819D01*
X173288142Y-46154819D02*
X173383380Y-46154819D01*
X173383380Y-46154819D02*
X173526237Y-46107200D01*
X173526237Y-46107200D02*
X173621475Y-46011961D01*
X173621475Y-46011961D02*
X173669094Y-45916723D01*
X173669094Y-45916723D02*
X173716713Y-45726247D01*
X173716713Y-45726247D02*
X173716713Y-45583390D01*
X173716713Y-45583390D02*
X173669094Y-45392914D01*
X173669094Y-45392914D02*
X173621475Y-45297676D01*
X173621475Y-45297676D02*
X173526237Y-45202438D01*
X173526237Y-45202438D02*
X173383380Y-45154819D01*
X173383380Y-45154819D02*
X173288142Y-45154819D01*
X173288142Y-45154819D02*
X173145285Y-45202438D01*
X173145285Y-45202438D02*
X173097666Y-45250057D01*
X172145285Y-46154819D02*
X172716713Y-46154819D01*
X172430999Y-46154819D02*
X172430999Y-45154819D01*
X172430999Y-45154819D02*
X172526237Y-45297676D01*
X172526237Y-45297676D02*
X172621475Y-45392914D01*
X172621475Y-45392914D02*
X172716713Y-45440533D01*
X174933580Y-81895833D02*
X174981200Y-81848214D01*
X174981200Y-81848214D02*
X175028819Y-81705357D01*
X175028819Y-81705357D02*
X175028819Y-81610119D01*
X175028819Y-81610119D02*
X174981200Y-81467262D01*
X174981200Y-81467262D02*
X174885961Y-81372024D01*
X174885961Y-81372024D02*
X174790723Y-81324405D01*
X174790723Y-81324405D02*
X174600247Y-81276786D01*
X174600247Y-81276786D02*
X174457390Y-81276786D01*
X174457390Y-81276786D02*
X174266914Y-81324405D01*
X174266914Y-81324405D02*
X174171676Y-81372024D01*
X174171676Y-81372024D02*
X174076438Y-81467262D01*
X174076438Y-81467262D02*
X174028819Y-81610119D01*
X174028819Y-81610119D02*
X174028819Y-81705357D01*
X174028819Y-81705357D02*
X174076438Y-81848214D01*
X174076438Y-81848214D02*
X174124057Y-81895833D01*
X174457390Y-82467262D02*
X174409771Y-82372024D01*
X174409771Y-82372024D02*
X174362152Y-82324405D01*
X174362152Y-82324405D02*
X174266914Y-82276786D01*
X174266914Y-82276786D02*
X174219295Y-82276786D01*
X174219295Y-82276786D02*
X174124057Y-82324405D01*
X174124057Y-82324405D02*
X174076438Y-82372024D01*
X174076438Y-82372024D02*
X174028819Y-82467262D01*
X174028819Y-82467262D02*
X174028819Y-82657738D01*
X174028819Y-82657738D02*
X174076438Y-82752976D01*
X174076438Y-82752976D02*
X174124057Y-82800595D01*
X174124057Y-82800595D02*
X174219295Y-82848214D01*
X174219295Y-82848214D02*
X174266914Y-82848214D01*
X174266914Y-82848214D02*
X174362152Y-82800595D01*
X174362152Y-82800595D02*
X174409771Y-82752976D01*
X174409771Y-82752976D02*
X174457390Y-82657738D01*
X174457390Y-82657738D02*
X174457390Y-82467262D01*
X174457390Y-82467262D02*
X174505009Y-82372024D01*
X174505009Y-82372024D02*
X174552628Y-82324405D01*
X174552628Y-82324405D02*
X174647866Y-82276786D01*
X174647866Y-82276786D02*
X174838342Y-82276786D01*
X174838342Y-82276786D02*
X174933580Y-82324405D01*
X174933580Y-82324405D02*
X174981200Y-82372024D01*
X174981200Y-82372024D02*
X175028819Y-82467262D01*
X175028819Y-82467262D02*
X175028819Y-82657738D01*
X175028819Y-82657738D02*
X174981200Y-82752976D01*
X174981200Y-82752976D02*
X174933580Y-82800595D01*
X174933580Y-82800595D02*
X174838342Y-82848214D01*
X174838342Y-82848214D02*
X174647866Y-82848214D01*
X174647866Y-82848214D02*
X174552628Y-82800595D01*
X174552628Y-82800595D02*
X174505009Y-82752976D01*
X174505009Y-82752976D02*
X174457390Y-82657738D01*
X112433580Y-48895833D02*
X112481200Y-48848214D01*
X112481200Y-48848214D02*
X112528819Y-48705357D01*
X112528819Y-48705357D02*
X112528819Y-48610119D01*
X112528819Y-48610119D02*
X112481200Y-48467262D01*
X112481200Y-48467262D02*
X112385961Y-48372024D01*
X112385961Y-48372024D02*
X112290723Y-48324405D01*
X112290723Y-48324405D02*
X112100247Y-48276786D01*
X112100247Y-48276786D02*
X111957390Y-48276786D01*
X111957390Y-48276786D02*
X111766914Y-48324405D01*
X111766914Y-48324405D02*
X111671676Y-48372024D01*
X111671676Y-48372024D02*
X111576438Y-48467262D01*
X111576438Y-48467262D02*
X111528819Y-48610119D01*
X111528819Y-48610119D02*
X111528819Y-48705357D01*
X111528819Y-48705357D02*
X111576438Y-48848214D01*
X111576438Y-48848214D02*
X111624057Y-48895833D01*
X111862152Y-49752976D02*
X112528819Y-49752976D01*
X111481200Y-49514881D02*
X112195485Y-49276786D01*
X112195485Y-49276786D02*
X112195485Y-49895833D01*
X127274819Y-55357142D02*
X126798628Y-55023809D01*
X127274819Y-54785714D02*
X126274819Y-54785714D01*
X126274819Y-54785714D02*
X126274819Y-55166666D01*
X126274819Y-55166666D02*
X126322438Y-55261904D01*
X126322438Y-55261904D02*
X126370057Y-55309523D01*
X126370057Y-55309523D02*
X126465295Y-55357142D01*
X126465295Y-55357142D02*
X126608152Y-55357142D01*
X126608152Y-55357142D02*
X126703390Y-55309523D01*
X126703390Y-55309523D02*
X126751009Y-55261904D01*
X126751009Y-55261904D02*
X126798628Y-55166666D01*
X126798628Y-55166666D02*
X126798628Y-54785714D01*
X127274819Y-56309523D02*
X127274819Y-55738095D01*
X127274819Y-56023809D02*
X126274819Y-56023809D01*
X126274819Y-56023809D02*
X126417676Y-55928571D01*
X126417676Y-55928571D02*
X126512914Y-55833333D01*
X126512914Y-55833333D02*
X126560533Y-55738095D01*
X126274819Y-56928571D02*
X126274819Y-57023809D01*
X126274819Y-57023809D02*
X126322438Y-57119047D01*
X126322438Y-57119047D02*
X126370057Y-57166666D01*
X126370057Y-57166666D02*
X126465295Y-57214285D01*
X126465295Y-57214285D02*
X126655771Y-57261904D01*
X126655771Y-57261904D02*
X126893866Y-57261904D01*
X126893866Y-57261904D02*
X127084342Y-57214285D01*
X127084342Y-57214285D02*
X127179580Y-57166666D01*
X127179580Y-57166666D02*
X127227200Y-57119047D01*
X127227200Y-57119047D02*
X127274819Y-57023809D01*
X127274819Y-57023809D02*
X127274819Y-56928571D01*
X127274819Y-56928571D02*
X127227200Y-56833333D01*
X127227200Y-56833333D02*
X127179580Y-56785714D01*
X127179580Y-56785714D02*
X127084342Y-56738095D01*
X127084342Y-56738095D02*
X126893866Y-56690476D01*
X126893866Y-56690476D02*
X126655771Y-56690476D01*
X126655771Y-56690476D02*
X126465295Y-56738095D01*
X126465295Y-56738095D02*
X126370057Y-56785714D01*
X126370057Y-56785714D02*
X126322438Y-56833333D01*
X126322438Y-56833333D02*
X126274819Y-56928571D01*
X144109580Y-53895833D02*
X144157200Y-53848214D01*
X144157200Y-53848214D02*
X144204819Y-53705357D01*
X144204819Y-53705357D02*
X144204819Y-53610119D01*
X144204819Y-53610119D02*
X144157200Y-53467262D01*
X144157200Y-53467262D02*
X144061961Y-53372024D01*
X144061961Y-53372024D02*
X143966723Y-53324405D01*
X143966723Y-53324405D02*
X143776247Y-53276786D01*
X143776247Y-53276786D02*
X143633390Y-53276786D01*
X143633390Y-53276786D02*
X143442914Y-53324405D01*
X143442914Y-53324405D02*
X143347676Y-53372024D01*
X143347676Y-53372024D02*
X143252438Y-53467262D01*
X143252438Y-53467262D02*
X143204819Y-53610119D01*
X143204819Y-53610119D02*
X143204819Y-53705357D01*
X143204819Y-53705357D02*
X143252438Y-53848214D01*
X143252438Y-53848214D02*
X143300057Y-53895833D01*
X143204819Y-54229167D02*
X143204819Y-54895833D01*
X143204819Y-54895833D02*
X144204819Y-54467262D01*
X130204819Y-41419642D02*
X129728628Y-41086309D01*
X130204819Y-40848214D02*
X129204819Y-40848214D01*
X129204819Y-40848214D02*
X129204819Y-41229166D01*
X129204819Y-41229166D02*
X129252438Y-41324404D01*
X129252438Y-41324404D02*
X129300057Y-41372023D01*
X129300057Y-41372023D02*
X129395295Y-41419642D01*
X129395295Y-41419642D02*
X129538152Y-41419642D01*
X129538152Y-41419642D02*
X129633390Y-41372023D01*
X129633390Y-41372023D02*
X129681009Y-41324404D01*
X129681009Y-41324404D02*
X129728628Y-41229166D01*
X129728628Y-41229166D02*
X129728628Y-40848214D01*
X130204819Y-42372023D02*
X130204819Y-41800595D01*
X130204819Y-42086309D02*
X129204819Y-42086309D01*
X129204819Y-42086309D02*
X129347676Y-41991071D01*
X129347676Y-41991071D02*
X129442914Y-41895833D01*
X129442914Y-41895833D02*
X129490533Y-41800595D01*
X129204819Y-43229166D02*
X129204819Y-43038690D01*
X129204819Y-43038690D02*
X129252438Y-42943452D01*
X129252438Y-42943452D02*
X129300057Y-42895833D01*
X129300057Y-42895833D02*
X129442914Y-42800595D01*
X129442914Y-42800595D02*
X129633390Y-42752976D01*
X129633390Y-42752976D02*
X130014342Y-42752976D01*
X130014342Y-42752976D02*
X130109580Y-42800595D01*
X130109580Y-42800595D02*
X130157200Y-42848214D01*
X130157200Y-42848214D02*
X130204819Y-42943452D01*
X130204819Y-42943452D02*
X130204819Y-43133928D01*
X130204819Y-43133928D02*
X130157200Y-43229166D01*
X130157200Y-43229166D02*
X130109580Y-43276785D01*
X130109580Y-43276785D02*
X130014342Y-43324404D01*
X130014342Y-43324404D02*
X129776247Y-43324404D01*
X129776247Y-43324404D02*
X129681009Y-43276785D01*
X129681009Y-43276785D02*
X129633390Y-43229166D01*
X129633390Y-43229166D02*
X129585771Y-43133928D01*
X129585771Y-43133928D02*
X129585771Y-42943452D01*
X129585771Y-42943452D02*
X129633390Y-42848214D01*
X129633390Y-42848214D02*
X129681009Y-42800595D01*
X129681009Y-42800595D02*
X129776247Y-42752976D01*
X175479166Y-32454819D02*
X175812499Y-31978628D01*
X176050594Y-32454819D02*
X176050594Y-31454819D01*
X176050594Y-31454819D02*
X175669642Y-31454819D01*
X175669642Y-31454819D02*
X175574404Y-31502438D01*
X175574404Y-31502438D02*
X175526785Y-31550057D01*
X175526785Y-31550057D02*
X175479166Y-31645295D01*
X175479166Y-31645295D02*
X175479166Y-31788152D01*
X175479166Y-31788152D02*
X175526785Y-31883390D01*
X175526785Y-31883390D02*
X175574404Y-31931009D01*
X175574404Y-31931009D02*
X175669642Y-31978628D01*
X175669642Y-31978628D02*
X176050594Y-31978628D01*
X175145832Y-31454819D02*
X174526785Y-31454819D01*
X174526785Y-31454819D02*
X174860118Y-31835771D01*
X174860118Y-31835771D02*
X174717261Y-31835771D01*
X174717261Y-31835771D02*
X174622023Y-31883390D01*
X174622023Y-31883390D02*
X174574404Y-31931009D01*
X174574404Y-31931009D02*
X174526785Y-32026247D01*
X174526785Y-32026247D02*
X174526785Y-32264342D01*
X174526785Y-32264342D02*
X174574404Y-32359580D01*
X174574404Y-32359580D02*
X174622023Y-32407200D01*
X174622023Y-32407200D02*
X174717261Y-32454819D01*
X174717261Y-32454819D02*
X175002975Y-32454819D01*
X175002975Y-32454819D02*
X175098213Y-32407200D01*
X175098213Y-32407200D02*
X175145832Y-32359580D01*
X112433580Y-68395833D02*
X112481200Y-68348214D01*
X112481200Y-68348214D02*
X112528819Y-68205357D01*
X112528819Y-68205357D02*
X112528819Y-68110119D01*
X112528819Y-68110119D02*
X112481200Y-67967262D01*
X112481200Y-67967262D02*
X112385961Y-67872024D01*
X112385961Y-67872024D02*
X112290723Y-67824405D01*
X112290723Y-67824405D02*
X112100247Y-67776786D01*
X112100247Y-67776786D02*
X111957390Y-67776786D01*
X111957390Y-67776786D02*
X111766914Y-67824405D01*
X111766914Y-67824405D02*
X111671676Y-67872024D01*
X111671676Y-67872024D02*
X111576438Y-67967262D01*
X111576438Y-67967262D02*
X111528819Y-68110119D01*
X111528819Y-68110119D02*
X111528819Y-68205357D01*
X111528819Y-68205357D02*
X111576438Y-68348214D01*
X111576438Y-68348214D02*
X111624057Y-68395833D01*
X111528819Y-69300595D02*
X111528819Y-68824405D01*
X111528819Y-68824405D02*
X112005009Y-68776786D01*
X112005009Y-68776786D02*
X111957390Y-68824405D01*
X111957390Y-68824405D02*
X111909771Y-68919643D01*
X111909771Y-68919643D02*
X111909771Y-69157738D01*
X111909771Y-69157738D02*
X111957390Y-69252976D01*
X111957390Y-69252976D02*
X112005009Y-69300595D01*
X112005009Y-69300595D02*
X112100247Y-69348214D01*
X112100247Y-69348214D02*
X112338342Y-69348214D01*
X112338342Y-69348214D02*
X112433580Y-69300595D01*
X112433580Y-69300595D02*
X112481200Y-69252976D01*
X112481200Y-69252976D02*
X112528819Y-69157738D01*
X112528819Y-69157738D02*
X112528819Y-68919643D01*
X112528819Y-68919643D02*
X112481200Y-68824405D01*
X112481200Y-68824405D02*
X112433580Y-68776786D01*
X132152333Y-53190419D02*
X132104714Y-53142800D01*
X132104714Y-53142800D02*
X131961857Y-53095180D01*
X131961857Y-53095180D02*
X131866619Y-53095180D01*
X131866619Y-53095180D02*
X131723762Y-53142800D01*
X131723762Y-53142800D02*
X131628524Y-53238038D01*
X131628524Y-53238038D02*
X131580905Y-53333276D01*
X131580905Y-53333276D02*
X131533286Y-53523752D01*
X131533286Y-53523752D02*
X131533286Y-53666609D01*
X131533286Y-53666609D02*
X131580905Y-53857085D01*
X131580905Y-53857085D02*
X131628524Y-53952323D01*
X131628524Y-53952323D02*
X131723762Y-54047561D01*
X131723762Y-54047561D02*
X131866619Y-54095180D01*
X131866619Y-54095180D02*
X131961857Y-54095180D01*
X131961857Y-54095180D02*
X132104714Y-54047561D01*
X132104714Y-54047561D02*
X132152333Y-53999942D01*
X132485667Y-54095180D02*
X133104714Y-54095180D01*
X133104714Y-54095180D02*
X132771381Y-53714228D01*
X132771381Y-53714228D02*
X132914238Y-53714228D01*
X132914238Y-53714228D02*
X133009476Y-53666609D01*
X133009476Y-53666609D02*
X133057095Y-53618990D01*
X133057095Y-53618990D02*
X133104714Y-53523752D01*
X133104714Y-53523752D02*
X133104714Y-53285657D01*
X133104714Y-53285657D02*
X133057095Y-53190419D01*
X133057095Y-53190419D02*
X133009476Y-53142800D01*
X133009476Y-53142800D02*
X132914238Y-53095180D01*
X132914238Y-53095180D02*
X132628524Y-53095180D01*
X132628524Y-53095180D02*
X132533286Y-53142800D01*
X132533286Y-53142800D02*
X132485667Y-53190419D01*
X181454819Y-50833333D02*
X180978628Y-50500000D01*
X181454819Y-50261905D02*
X180454819Y-50261905D01*
X180454819Y-50261905D02*
X180454819Y-50642857D01*
X180454819Y-50642857D02*
X180502438Y-50738095D01*
X180502438Y-50738095D02*
X180550057Y-50785714D01*
X180550057Y-50785714D02*
X180645295Y-50833333D01*
X180645295Y-50833333D02*
X180788152Y-50833333D01*
X180788152Y-50833333D02*
X180883390Y-50785714D01*
X180883390Y-50785714D02*
X180931009Y-50738095D01*
X180931009Y-50738095D02*
X180978628Y-50642857D01*
X180978628Y-50642857D02*
X180978628Y-50261905D01*
X180454819Y-51738095D02*
X180454819Y-51261905D01*
X180454819Y-51261905D02*
X180931009Y-51214286D01*
X180931009Y-51214286D02*
X180883390Y-51261905D01*
X180883390Y-51261905D02*
X180835771Y-51357143D01*
X180835771Y-51357143D02*
X180835771Y-51595238D01*
X180835771Y-51595238D02*
X180883390Y-51690476D01*
X180883390Y-51690476D02*
X180931009Y-51738095D01*
X180931009Y-51738095D02*
X181026247Y-51785714D01*
X181026247Y-51785714D02*
X181264342Y-51785714D01*
X181264342Y-51785714D02*
X181359580Y-51738095D01*
X181359580Y-51738095D02*
X181407200Y-51690476D01*
X181407200Y-51690476D02*
X181454819Y-51595238D01*
X181454819Y-51595238D02*
X181454819Y-51357143D01*
X181454819Y-51357143D02*
X181407200Y-51261905D01*
X181407200Y-51261905D02*
X181359580Y-51214286D01*
X183454819Y-42857142D02*
X182978628Y-42523809D01*
X183454819Y-42285714D02*
X182454819Y-42285714D01*
X182454819Y-42285714D02*
X182454819Y-42666666D01*
X182454819Y-42666666D02*
X182502438Y-42761904D01*
X182502438Y-42761904D02*
X182550057Y-42809523D01*
X182550057Y-42809523D02*
X182645295Y-42857142D01*
X182645295Y-42857142D02*
X182788152Y-42857142D01*
X182788152Y-42857142D02*
X182883390Y-42809523D01*
X182883390Y-42809523D02*
X182931009Y-42761904D01*
X182931009Y-42761904D02*
X182978628Y-42666666D01*
X182978628Y-42666666D02*
X182978628Y-42285714D01*
X183454819Y-43809523D02*
X183454819Y-43238095D01*
X183454819Y-43523809D02*
X182454819Y-43523809D01*
X182454819Y-43523809D02*
X182597676Y-43428571D01*
X182597676Y-43428571D02*
X182692914Y-43333333D01*
X182692914Y-43333333D02*
X182740533Y-43238095D01*
X183454819Y-44761904D02*
X183454819Y-44190476D01*
X183454819Y-44476190D02*
X182454819Y-44476190D01*
X182454819Y-44476190D02*
X182597676Y-44380952D01*
X182597676Y-44380952D02*
X182692914Y-44285714D01*
X182692914Y-44285714D02*
X182740533Y-44190476D01*
X130204819Y-36895833D02*
X129728628Y-36562500D01*
X130204819Y-36324405D02*
X129204819Y-36324405D01*
X129204819Y-36324405D02*
X129204819Y-36705357D01*
X129204819Y-36705357D02*
X129252438Y-36800595D01*
X129252438Y-36800595D02*
X129300057Y-36848214D01*
X129300057Y-36848214D02*
X129395295Y-36895833D01*
X129395295Y-36895833D02*
X129538152Y-36895833D01*
X129538152Y-36895833D02*
X129633390Y-36848214D01*
X129633390Y-36848214D02*
X129681009Y-36800595D01*
X129681009Y-36800595D02*
X129728628Y-36705357D01*
X129728628Y-36705357D02*
X129728628Y-36324405D01*
X130204819Y-37372024D02*
X130204819Y-37562500D01*
X130204819Y-37562500D02*
X130157200Y-37657738D01*
X130157200Y-37657738D02*
X130109580Y-37705357D01*
X130109580Y-37705357D02*
X129966723Y-37800595D01*
X129966723Y-37800595D02*
X129776247Y-37848214D01*
X129776247Y-37848214D02*
X129395295Y-37848214D01*
X129395295Y-37848214D02*
X129300057Y-37800595D01*
X129300057Y-37800595D02*
X129252438Y-37752976D01*
X129252438Y-37752976D02*
X129204819Y-37657738D01*
X129204819Y-37657738D02*
X129204819Y-37467262D01*
X129204819Y-37467262D02*
X129252438Y-37372024D01*
X129252438Y-37372024D02*
X129300057Y-37324405D01*
X129300057Y-37324405D02*
X129395295Y-37276786D01*
X129395295Y-37276786D02*
X129633390Y-37276786D01*
X129633390Y-37276786D02*
X129728628Y-37324405D01*
X129728628Y-37324405D02*
X129776247Y-37372024D01*
X129776247Y-37372024D02*
X129823866Y-37467262D01*
X129823866Y-37467262D02*
X129823866Y-37657738D01*
X129823866Y-37657738D02*
X129776247Y-37752976D01*
X129776247Y-37752976D02*
X129728628Y-37800595D01*
X129728628Y-37800595D02*
X129633390Y-37848214D01*
X175845180Y-54504166D02*
X176321371Y-54837499D01*
X175845180Y-55075594D02*
X176845180Y-55075594D01*
X176845180Y-55075594D02*
X176845180Y-54694642D01*
X176845180Y-54694642D02*
X176797561Y-54599404D01*
X176797561Y-54599404D02*
X176749942Y-54551785D01*
X176749942Y-54551785D02*
X176654704Y-54504166D01*
X176654704Y-54504166D02*
X176511847Y-54504166D01*
X176511847Y-54504166D02*
X176416609Y-54551785D01*
X176416609Y-54551785D02*
X176368990Y-54599404D01*
X176368990Y-54599404D02*
X176321371Y-54694642D01*
X176321371Y-54694642D02*
X176321371Y-55075594D01*
X176749942Y-54123213D02*
X176797561Y-54075594D01*
X176797561Y-54075594D02*
X176845180Y-53980356D01*
X176845180Y-53980356D02*
X176845180Y-53742261D01*
X176845180Y-53742261D02*
X176797561Y-53647023D01*
X176797561Y-53647023D02*
X176749942Y-53599404D01*
X176749942Y-53599404D02*
X176654704Y-53551785D01*
X176654704Y-53551785D02*
X176559466Y-53551785D01*
X176559466Y-53551785D02*
X176416609Y-53599404D01*
X176416609Y-53599404D02*
X175845180Y-54170832D01*
X175845180Y-54170832D02*
X175845180Y-53551785D01*
X133166666Y-65634819D02*
X133499999Y-65158628D01*
X133738094Y-65634819D02*
X133738094Y-64634819D01*
X133738094Y-64634819D02*
X133357142Y-64634819D01*
X133357142Y-64634819D02*
X133261904Y-64682438D01*
X133261904Y-64682438D02*
X133214285Y-64730057D01*
X133214285Y-64730057D02*
X133166666Y-64825295D01*
X133166666Y-64825295D02*
X133166666Y-64968152D01*
X133166666Y-64968152D02*
X133214285Y-65063390D01*
X133214285Y-65063390D02*
X133261904Y-65111009D01*
X133261904Y-65111009D02*
X133357142Y-65158628D01*
X133357142Y-65158628D02*
X133738094Y-65158628D01*
X132309523Y-64968152D02*
X132309523Y-65634819D01*
X132547618Y-64587200D02*
X132785713Y-65301485D01*
X132785713Y-65301485D02*
X132166666Y-65301485D01*
X144109580Y-47770833D02*
X144157200Y-47723214D01*
X144157200Y-47723214D02*
X144204819Y-47580357D01*
X144204819Y-47580357D02*
X144204819Y-47485119D01*
X144204819Y-47485119D02*
X144157200Y-47342262D01*
X144157200Y-47342262D02*
X144061961Y-47247024D01*
X144061961Y-47247024D02*
X143966723Y-47199405D01*
X143966723Y-47199405D02*
X143776247Y-47151786D01*
X143776247Y-47151786D02*
X143633390Y-47151786D01*
X143633390Y-47151786D02*
X143442914Y-47199405D01*
X143442914Y-47199405D02*
X143347676Y-47247024D01*
X143347676Y-47247024D02*
X143252438Y-47342262D01*
X143252438Y-47342262D02*
X143204819Y-47485119D01*
X143204819Y-47485119D02*
X143204819Y-47580357D01*
X143204819Y-47580357D02*
X143252438Y-47723214D01*
X143252438Y-47723214D02*
X143300057Y-47770833D01*
X143204819Y-48627976D02*
X143204819Y-48437500D01*
X143204819Y-48437500D02*
X143252438Y-48342262D01*
X143252438Y-48342262D02*
X143300057Y-48294643D01*
X143300057Y-48294643D02*
X143442914Y-48199405D01*
X143442914Y-48199405D02*
X143633390Y-48151786D01*
X143633390Y-48151786D02*
X144014342Y-48151786D01*
X144014342Y-48151786D02*
X144109580Y-48199405D01*
X144109580Y-48199405D02*
X144157200Y-48247024D01*
X144157200Y-48247024D02*
X144204819Y-48342262D01*
X144204819Y-48342262D02*
X144204819Y-48532738D01*
X144204819Y-48532738D02*
X144157200Y-48627976D01*
X144157200Y-48627976D02*
X144109580Y-48675595D01*
X144109580Y-48675595D02*
X144014342Y-48723214D01*
X144014342Y-48723214D02*
X143776247Y-48723214D01*
X143776247Y-48723214D02*
X143681009Y-48675595D01*
X143681009Y-48675595D02*
X143633390Y-48627976D01*
X143633390Y-48627976D02*
X143585771Y-48532738D01*
X143585771Y-48532738D02*
X143585771Y-48342262D01*
X143585771Y-48342262D02*
X143633390Y-48247024D01*
X143633390Y-48247024D02*
X143681009Y-48199405D01*
X143681009Y-48199405D02*
X143776247Y-48151786D01*
D11*
%TO.C,R12*%
X168687500Y-29361000D02*
X169687500Y-29361000D01*
X168687500Y-31139000D02*
X169687500Y-31139000D01*
%TO.C,C1*%
X169931000Y-46540000D02*
X177181000Y-46540000D01*
X177181000Y-46540000D02*
X177181000Y-49960000D01*
X177181000Y-49960000D02*
X169931000Y-49960000D01*
D12*
X177431000Y-45750000D02*
X177431000Y-46750000D01*
X177931000Y-46250000D02*
X176931000Y-46250000D01*
D11*
%TO.C,C8*%
X175611000Y-81562500D02*
X175611000Y-82562500D01*
X177389000Y-81562500D02*
X177389000Y-82562500D01*
%TO.C,C4*%
X113111000Y-48562500D02*
X113111000Y-49562500D01*
X114889000Y-48562500D02*
X114889000Y-49562500D01*
%TO.C,R10*%
X124111000Y-55062500D02*
X124111000Y-54062500D01*
X125889000Y-55062500D02*
X125889000Y-54062500D01*
%TO.C,C7*%
X144611000Y-54562500D02*
X144611000Y-53562500D01*
X146389000Y-54562500D02*
X146389000Y-53562500D01*
%TO.C,R16*%
X130611000Y-42562500D02*
X130611000Y-41562500D01*
X132389000Y-42562500D02*
X132389000Y-41562500D01*
%TO.C,R3*%
X175812500Y-29361000D02*
X174812500Y-29361000D01*
X175812500Y-31139000D02*
X174812500Y-31139000D01*
%TO.C,C5*%
X113111000Y-68062500D02*
X113111000Y-69062500D01*
X114889000Y-68062500D02*
X114889000Y-69062500D01*
D12*
%TO.C,C3*%
X127819000Y-53500000D02*
X127819000Y-52500000D01*
D11*
X128069000Y-49290000D02*
X135319000Y-49290000D01*
X128069000Y-52710000D02*
X128069000Y-49290000D01*
D12*
X128319000Y-53000000D02*
X127319000Y-53000000D01*
D11*
X135319000Y-52710000D02*
X128069000Y-52710000D01*
%TO.C,R5*%
X180111000Y-54837500D02*
X180111000Y-53837500D01*
X181889000Y-54837500D02*
X181889000Y-53837500D01*
%TO.C,R11*%
X180111000Y-42400000D02*
X180111000Y-43400000D01*
X181889000Y-42400000D02*
X181889000Y-43400000D01*
%TO.C,R9*%
X130611000Y-36562500D02*
X130611000Y-37562500D01*
X132389000Y-36562500D02*
X132389000Y-37562500D01*
%TO.C,R2*%
X177411000Y-54837500D02*
X177411000Y-53837500D01*
X179189000Y-54837500D02*
X179189000Y-53837500D01*
%TO.C,R4*%
X133500000Y-66111000D02*
X132500000Y-66111000D01*
X133500000Y-67889000D02*
X132500000Y-67889000D01*
%TO.C,C6*%
X144611000Y-47437500D02*
X144611000Y-48437500D01*
X146389000Y-47437500D02*
X146389000Y-48437500D01*
%TD*%
%LPC*%
D13*
%TO.C,U1*%
X160760000Y-63980000D03*
X160760000Y-61440000D03*
X160760000Y-58900000D03*
X160760000Y-56360000D03*
X160760000Y-53820000D03*
X160760000Y-51280000D03*
X160760000Y-48740000D03*
X160760000Y-46200000D03*
X160760000Y-43660000D03*
X160760000Y-41120000D03*
X160760000Y-38580000D03*
X160760000Y-36040000D03*
X160760000Y-33500000D03*
X163300000Y-63980000D03*
X163300000Y-61440000D03*
X163300000Y-58900000D03*
X163300000Y-56360000D03*
X163300000Y-53820000D03*
X163300000Y-51280000D03*
X163300000Y-48740000D03*
X163300000Y-46200000D03*
X163300000Y-43660000D03*
X163300000Y-41120000D03*
X163300000Y-38580000D03*
X163300000Y-36040000D03*
X163300000Y-33500000D03*
X165840000Y-63980000D03*
X165840000Y-61440000D03*
X165840000Y-58900000D03*
X165840000Y-56360000D03*
X165840000Y-53820000D03*
X165840000Y-51280000D03*
X165840000Y-48740000D03*
X165840000Y-46200000D03*
X165840000Y-43660000D03*
X165840000Y-41120000D03*
X165840000Y-38580000D03*
X165840000Y-36040000D03*
X165840000Y-33500000D03*
X168380000Y-63980000D03*
X168380000Y-61440000D03*
X168380000Y-58900000D03*
X168380000Y-56360000D03*
X168380000Y-53820000D03*
X168380000Y-41120000D03*
X168380000Y-38580000D03*
X168380000Y-36040000D03*
X168380000Y-33500000D03*
X170920000Y-63980000D03*
X170920000Y-61440000D03*
X170920000Y-58900000D03*
X170920000Y-38580000D03*
X170920000Y-36040000D03*
X170920000Y-33500000D03*
X173460000Y-63980000D03*
X173460000Y-61440000D03*
X173460000Y-58900000D03*
X173460000Y-56360000D03*
X173460000Y-41120000D03*
X173460000Y-38580000D03*
X173460000Y-36040000D03*
X173460000Y-33500000D03*
X176000000Y-63980000D03*
X176000000Y-61440000D03*
X176000000Y-58900000D03*
X176000000Y-38580000D03*
X176000000Y-36040000D03*
X176000000Y-33500000D03*
X178540000Y-63980000D03*
X178540000Y-61440000D03*
X178540000Y-58900000D03*
X178540000Y-38580000D03*
X178540000Y-36040000D03*
X178540000Y-33500000D03*
X181080000Y-63980000D03*
X181080000Y-61440000D03*
X181080000Y-58900000D03*
X181080000Y-38580000D03*
X181080000Y-36040000D03*
X181080000Y-33500000D03*
X183620000Y-63980000D03*
X183620000Y-61440000D03*
X183620000Y-58900000D03*
X183620000Y-56360000D03*
X183620000Y-53820000D03*
X183620000Y-41120000D03*
X183620000Y-38580000D03*
X183620000Y-36040000D03*
X183620000Y-33500000D03*
X186160000Y-63980000D03*
X186160000Y-61440000D03*
X186160000Y-58900000D03*
X186160000Y-56360000D03*
X186160000Y-53820000D03*
X186160000Y-51280000D03*
X186160000Y-48740000D03*
X186160000Y-46200000D03*
X186160000Y-43660000D03*
X186160000Y-41120000D03*
X186160000Y-38580000D03*
X186160000Y-36040000D03*
X186160000Y-33500000D03*
X188700000Y-63980000D03*
X188700000Y-61440000D03*
X188700000Y-58900000D03*
X188700000Y-56360000D03*
X188700000Y-53820000D03*
X188700000Y-51280000D03*
X188700000Y-48740000D03*
X188700000Y-46200000D03*
X188700000Y-43660000D03*
X188700000Y-41120000D03*
X188700000Y-38580000D03*
X188700000Y-36040000D03*
X188700000Y-33500000D03*
X191240000Y-63980000D03*
X191240000Y-61440000D03*
X191240000Y-58900000D03*
X191240000Y-56360000D03*
X191240000Y-53820000D03*
X191240000Y-51280000D03*
X191240000Y-48740000D03*
X191240000Y-46200000D03*
X191240000Y-43660000D03*
X191240000Y-41120000D03*
X191240000Y-38580000D03*
X191240000Y-36040000D03*
X191240000Y-33500000D03*
%TD*%
D14*
%TO.C,U7*%
X119960000Y-46500000D03*
D15*
X119960000Y-43960000D03*
X122500000Y-46500000D03*
X125040000Y-43960000D03*
X122500000Y-43960000D03*
X125040000Y-41420000D03*
X122500000Y-41420000D03*
X125040000Y-38880000D03*
X122500000Y-36340000D03*
X122500000Y-38880000D03*
X119960000Y-36340000D03*
X119960000Y-38880000D03*
X117420000Y-36340000D03*
X114880000Y-38880000D03*
X117420000Y-38880000D03*
X114880000Y-41420000D03*
X117420000Y-41420000D03*
X114880000Y-43960000D03*
X117420000Y-46500000D03*
X117420000Y-43960000D03*
%TD*%
D14*
%TO.C,U5*%
X166960000Y-81500000D03*
D15*
X166960000Y-84040000D03*
X164420000Y-81500000D03*
X161880000Y-84040000D03*
X164420000Y-84040000D03*
X161880000Y-86580000D03*
X164420000Y-86580000D03*
X161880000Y-89120000D03*
X164420000Y-91660000D03*
X164420000Y-89120000D03*
X166960000Y-91660000D03*
X166960000Y-89120000D03*
X169500000Y-91660000D03*
X172040000Y-89120000D03*
X169500000Y-89120000D03*
X172040000Y-86580000D03*
X169500000Y-86580000D03*
X172040000Y-84040000D03*
X169500000Y-81500000D03*
X169500000Y-84040000D03*
%TD*%
D14*
%TO.C,U4*%
X139540000Y-56000000D03*
D15*
X139540000Y-58540000D03*
X137000000Y-56000000D03*
X134460000Y-58540000D03*
X137000000Y-58540000D03*
X134460000Y-61080000D03*
X137000000Y-61080000D03*
X134460000Y-63620000D03*
X137000000Y-66160000D03*
X137000000Y-63620000D03*
X139540000Y-66160000D03*
X139540000Y-63620000D03*
X142080000Y-66160000D03*
X144620000Y-63620000D03*
X142080000Y-63620000D03*
X144620000Y-61080000D03*
X142080000Y-61080000D03*
X144620000Y-58540000D03*
X142080000Y-56000000D03*
X142080000Y-58540000D03*
%TD*%
D14*
%TO.C,U3*%
X144620000Y-41080000D03*
D15*
X142080000Y-41080000D03*
X144620000Y-38540000D03*
X142080000Y-36000000D03*
X142080000Y-38540000D03*
X139540000Y-36000000D03*
X139540000Y-38540000D03*
X137000000Y-36000000D03*
X134460000Y-38540000D03*
X137000000Y-38540000D03*
X134460000Y-41080000D03*
X137000000Y-41080000D03*
X134460000Y-43620000D03*
X137000000Y-46160000D03*
X137000000Y-43620000D03*
X139540000Y-46160000D03*
X139540000Y-43620000D03*
X142080000Y-46160000D03*
X144620000Y-43620000D03*
X142080000Y-43620000D03*
%TD*%
D14*
%TO.C,U6*%
X119920000Y-66080000D03*
D15*
X119920000Y-63540000D03*
X122460000Y-66080000D03*
X125000000Y-63540000D03*
X122460000Y-63540000D03*
X125000000Y-61000000D03*
X122460000Y-61000000D03*
X125000000Y-58460000D03*
X122460000Y-55920000D03*
X122460000Y-58460000D03*
X119920000Y-55920000D03*
X119920000Y-58460000D03*
X117380000Y-55920000D03*
X114840000Y-58460000D03*
X117380000Y-58460000D03*
X114840000Y-61000000D03*
X117380000Y-61000000D03*
X114840000Y-63540000D03*
X117380000Y-66080000D03*
X117380000Y-63540000D03*
%TD*%
D16*
%TO.C,IC1*%
X191740000Y-75000000D03*
D17*
X189200000Y-75000000D03*
X186660000Y-75000000D03*
X184120000Y-75000000D03*
X181580000Y-75000000D03*
X179040000Y-75000000D03*
X176500000Y-75000000D03*
X173960000Y-75000000D03*
X171420000Y-75000000D03*
X168880000Y-75000000D03*
X166340000Y-75000000D03*
X163800000Y-75000000D03*
X161260000Y-75000000D03*
X158720000Y-75000000D03*
X156180000Y-75000000D03*
X153640000Y-75000000D03*
X151100000Y-75000000D03*
X148560000Y-75000000D03*
X146020000Y-75000000D03*
X143480000Y-75000000D03*
X140940000Y-75000000D03*
X138400000Y-75000000D03*
X135860000Y-75000000D03*
X133320000Y-75000000D03*
X130780000Y-75000000D03*
X128240000Y-75000000D03*
X125700000Y-75000000D03*
X123160000Y-75000000D03*
X120620000Y-75000000D03*
X118080000Y-75000000D03*
X115540000Y-75000000D03*
X113000000Y-75000000D03*
X113000000Y-97860000D03*
X115540000Y-97860000D03*
X118080000Y-97860000D03*
X120620000Y-97860000D03*
X123160000Y-97860000D03*
X125700000Y-97860000D03*
X128240000Y-97860000D03*
X130780000Y-97860000D03*
X133320000Y-97860000D03*
X135860000Y-97860000D03*
X138400000Y-97860000D03*
X140940000Y-97860000D03*
X143480000Y-97860000D03*
X146020000Y-97860000D03*
X148560000Y-97860000D03*
X151100000Y-97860000D03*
X153640000Y-97860000D03*
X156180000Y-97860000D03*
X158720000Y-97860000D03*
X161260000Y-97860000D03*
X163800000Y-97860000D03*
X166340000Y-97860000D03*
X168880000Y-97860000D03*
X171420000Y-97860000D03*
X173960000Y-97860000D03*
X176500000Y-97860000D03*
X179040000Y-97860000D03*
X181580000Y-97860000D03*
X184120000Y-97860000D03*
X186660000Y-97860000D03*
X189200000Y-97860000D03*
X191740000Y-97860000D03*
%TD*%
D18*
%TO.C,R12*%
X167625000Y-30250000D03*
X170750000Y-30250000D03*
%TD*%
D19*
%TO.C,C1*%
X175612000Y-48250000D03*
X170250000Y-48250000D03*
%TD*%
D20*
%TO.C,C8*%
X176500000Y-80500000D03*
X176500000Y-83625000D03*
%TD*%
%TO.C,C4*%
X114000000Y-47500000D03*
X114000000Y-50625000D03*
%TD*%
%TO.C,R10*%
X125000000Y-56125000D03*
X125000000Y-53000000D03*
%TD*%
%TO.C,C7*%
X145500000Y-55625000D03*
X145500000Y-52500000D03*
%TD*%
%TO.C,R16*%
X131500000Y-43625000D03*
X131500000Y-40500000D03*
%TD*%
D18*
%TO.C,R3*%
X176875000Y-30250000D03*
X173750000Y-30250000D03*
%TD*%
D20*
%TO.C,C5*%
X114000000Y-67000000D03*
X114000000Y-70125000D03*
%TD*%
D19*
%TO.C,C3*%
X129638000Y-51000000D03*
X135000000Y-51000000D03*
%TD*%
D20*
%TO.C,R5*%
X181000000Y-55900000D03*
X181000000Y-52775000D03*
%TD*%
%TO.C,R11*%
X181000000Y-41337500D03*
X181000000Y-44462500D03*
%TD*%
%TO.C,R9*%
X131500000Y-35500000D03*
X131500000Y-38625000D03*
%TD*%
%TO.C,R2*%
X178300000Y-55900000D03*
X178300000Y-52775000D03*
%TD*%
D18*
%TO.C,R4*%
X134562500Y-67000000D03*
X131437500Y-67000000D03*
%TD*%
D20*
%TO.C,C6*%
X145500000Y-46375000D03*
X145500000Y-49500000D03*
%TD*%
%LPD*%
M02*
