M48
; DRILL file {KiCad 9.0.2+dfsg-1} date 2025-12-26T17:01:30-0500
; FORMAT={-:-/ absolute / metric / decimal}
; #@! TF.CreationDate,2025-12-26T17:01:30-05:00
; #@! TF.GenerationSoftware,Kicad,Pcbnew,9.0.2+dfsg-1
; #@! TF.FileFunction,Plated,1,4,PTH
FMAT,2
METRIC
; #@! TA.AperFunction,Plated,PTH,ViaDrill
T1C0.300
; #@! TA.AperFunction,Plated,PTH,ComponentDrill
T2C0.800
%
G90
G05
T1
X111.457Y-35.123
X112.645Y-37.292
X113.658Y-32.029
X113.865Y-73.0
X114.0Y-52.25
X114.0Y-65.5
X114.0Y-71.5
X114.5Y-46.0
X115.794Y-37.93
X116.3Y-35.14
X119.5Y-29.793
X124.662Y-45.46
X124.876Y-66.707
X127.114Y-54.0
X127.5Y-51.0
X127.972Y-70.816
X128.575Y-66.784
X129.901Y-71.349
X130.072Y-72.781
X131.0Y-68.5
X131.444Y-71.879
X131.449Y-49.904
X133.25Y-41.75
X134.147Y-35.084
X134.261Y-56.069
X135.754Y-67.634
X136.026Y-36.778
X136.25Y-52.675
X136.35Y-72.775
X137.0Y-51.0
X137.0Y-69.5
X137.745Y-35.0
X138.5Y-83.5
X139.5Y-53.533
X140.359Y-80.641
X141.176Y-67.419
X142.969Y-64.614
X144.0Y-46.0
X144.0Y-51.5
X144.0Y-57.0
X145.181Y-78.819
X145.382Y-71.894
X147.036Y-69.832
X147.603Y-66.674
X147.676Y-67.961
X148.014Y-49.018
X148.218Y-90.683
X148.476Y-68.927
X149.0Y-87.5
X149.294Y-35.709
X149.987Y-71.599
X150.891Y-95.546
X151.799Y-50.838
X153.691Y-70.736
X154.084Y-66.275
X155.48Y-70.736
X155.496Y-45.545
X157.979Y-63.5
X158.42Y-54.544
X158.5Y-92.5
X159.696Y-81.196
X162.135Y-61.84
X162.496Y-80.0
X162.56Y-70.008
X163.147Y-31.853
X163.599Y-72.697
X164.5Y-69.0
X165.979Y-72.193
X167.933Y-70.945
X168.851Y-67.809
X169.437Y-78.231
X169.55Y-69.8
X169.65Y-61.923
X170.419Y-51.394
X172.0Y-70.4
X172.25Y-30.5
X172.557Y-81.212
X175.474Y-50.794
X175.7Y-45.3
X176.5Y-79.0
X176.5Y-85.0
X177.882Y-50.932
X179.25Y-44.5
X180.943Y-86.661
X181.477Y-69.169
X184.109Y-83.672
X185.067Y-64.744
X187.102Y-60.352
X187.9Y-67.4
X187.9Y-70.525
X188.892Y-66.8
X191.345Y-50.01
X192.791Y-54.172
X195.305Y-70.5
X195.352Y-72.148
X196.38Y-56.512
T2
X113.0Y-75.0
X113.0Y-97.86
X114.84Y-58.46
X114.84Y-61.0
X114.84Y-63.54
X114.88Y-38.88
X114.88Y-41.42
X114.88Y-43.96
X115.54Y-75.0
X115.54Y-97.86
X117.38Y-55.92
X117.38Y-58.46
X117.38Y-61.0
X117.38Y-63.54
X117.38Y-66.08
X117.42Y-36.34
X117.42Y-38.88
X117.42Y-41.42
X117.42Y-43.96
X117.42Y-46.5
X118.08Y-75.0
X118.08Y-97.86
X119.92Y-55.92
X119.92Y-58.46
X119.92Y-63.54
X119.92Y-66.08
X119.96Y-36.34
X119.96Y-38.88
X119.96Y-43.96
X119.96Y-46.5
X120.62Y-75.0
X120.62Y-97.86
X122.46Y-55.92
X122.46Y-58.46
X122.46Y-61.0
X122.46Y-63.54
X122.46Y-66.08
X122.5Y-36.34
X122.5Y-38.88
X122.5Y-41.42
X122.5Y-43.96
X122.5Y-46.5
X123.16Y-75.0
X123.16Y-97.86
X125.0Y-58.46
X125.0Y-61.0
X125.0Y-63.54
X125.04Y-38.88
X125.04Y-41.42
X125.04Y-43.96
X125.7Y-75.0
X125.7Y-97.86
X128.24Y-75.0
X128.24Y-97.86
X130.78Y-75.0
X130.78Y-97.86
X133.32Y-75.0
X133.32Y-97.86
X134.46Y-38.54
X134.46Y-41.08
X134.46Y-43.62
X134.46Y-58.54
X134.46Y-61.08
X134.46Y-63.62
X135.86Y-75.0
X135.86Y-97.86
X137.0Y-36.0
X137.0Y-38.54
X137.0Y-41.08
X137.0Y-43.62
X137.0Y-46.16
X137.0Y-56.0
X137.0Y-58.54
X137.0Y-61.08
X137.0Y-63.62
X137.0Y-66.16
X138.4Y-75.0
X138.4Y-97.86
X139.54Y-36.0
X139.54Y-38.54
X139.54Y-43.62
X139.54Y-46.16
X139.54Y-56.0
X139.54Y-58.54
X139.54Y-63.62
X139.54Y-66.16
X140.94Y-75.0
X140.94Y-97.86
X142.08Y-36.0
X142.08Y-38.54
X142.08Y-41.08
X142.08Y-43.62
X142.08Y-46.16
X142.08Y-56.0
X142.08Y-58.54
X142.08Y-61.08
X142.08Y-63.62
X142.08Y-66.16
X143.48Y-75.0
X143.48Y-97.86
X144.62Y-38.54
X144.62Y-41.08
X144.62Y-43.62
X144.62Y-58.54
X144.62Y-61.08
X144.62Y-63.62
X146.02Y-75.0
X146.02Y-97.86
X148.56Y-75.0
X148.56Y-97.86
X151.1Y-75.0
X151.1Y-97.86
X153.64Y-75.0
X153.64Y-97.86
X156.18Y-75.0
X156.18Y-97.86
X158.72Y-75.0
X158.72Y-97.86
X160.76Y-33.5
X160.76Y-36.04
X160.76Y-38.58
X160.76Y-41.12
X160.76Y-43.66
X160.76Y-46.2
X160.76Y-48.74
X160.76Y-51.28
X160.76Y-53.82
X160.76Y-56.36
X160.76Y-58.9
X160.76Y-61.44
X160.76Y-63.98
X161.26Y-75.0
X161.26Y-97.86
X161.88Y-84.04
X161.88Y-86.58
X161.88Y-89.12
X163.3Y-33.5
X163.3Y-36.04
X163.3Y-38.58
X163.3Y-41.12
X163.3Y-43.66
X163.3Y-46.2
X163.3Y-48.74
X163.3Y-51.28
X163.3Y-53.82
X163.3Y-56.36
X163.3Y-58.9
X163.3Y-61.44
X163.3Y-63.98
X163.8Y-75.0
X163.8Y-97.86
X164.42Y-81.5
X164.42Y-84.04
X164.42Y-86.58
X164.42Y-89.12
X164.42Y-91.66
X165.84Y-33.5
X165.84Y-36.04
X165.84Y-38.58
X165.84Y-41.12
X165.84Y-43.66
X165.84Y-46.2
X165.84Y-48.74
X165.84Y-51.28
X165.84Y-53.82
X165.84Y-56.36
X165.84Y-58.9
X165.84Y-61.44
X165.84Y-63.98
X166.34Y-75.0
X166.34Y-97.86
X166.96Y-81.5
X166.96Y-84.04
X166.96Y-89.12
X166.96Y-91.66
X168.38Y-33.5
X168.38Y-36.04
X168.38Y-38.58
X168.38Y-41.12
X168.38Y-53.82
X168.38Y-56.36
X168.38Y-58.9
X168.38Y-61.44
X168.38Y-63.98
X168.88Y-75.0
X168.88Y-97.86
X169.5Y-81.5
X169.5Y-84.04
X169.5Y-86.58
X169.5Y-89.12
X169.5Y-91.66
X170.92Y-33.5
X170.92Y-36.04
X170.92Y-38.58
X170.92Y-58.9
X170.92Y-61.44
X170.92Y-63.98
X171.42Y-75.0
X171.42Y-97.86
X172.04Y-84.04
X172.04Y-86.58
X172.04Y-89.12
X173.46Y-33.5
X173.46Y-36.04
X173.46Y-38.58
X173.46Y-41.12
X173.46Y-56.36
X173.46Y-58.9
X173.46Y-61.44
X173.46Y-63.98
X173.96Y-75.0
X173.96Y-97.86
X176.0Y-33.5
X176.0Y-36.04
X176.0Y-38.58
X176.0Y-58.9
X176.0Y-61.44
X176.0Y-63.98
X176.5Y-75.0
X176.5Y-97.86
X178.54Y-33.5
X178.54Y-36.04
X178.54Y-38.58
X178.54Y-58.9
X178.54Y-61.44
X178.54Y-63.98
X179.04Y-75.0
X179.04Y-97.86
X181.08Y-33.5
X181.08Y-36.04
X181.08Y-38.58
X181.08Y-58.9
X181.08Y-61.44
X181.08Y-63.98
X181.58Y-75.0
X181.58Y-97.86
X183.62Y-33.5
X183.62Y-36.04
X183.62Y-38.58
X183.62Y-41.12
X183.62Y-53.82
X183.62Y-56.36
X183.62Y-58.9
X183.62Y-61.44
X183.62Y-63.98
X184.12Y-75.0
X184.12Y-97.86
X186.16Y-33.5
X186.16Y-36.04
X186.16Y-38.58
X186.16Y-41.12
X186.16Y-43.66
X186.16Y-46.2
X186.16Y-48.74
X186.16Y-51.28
X186.16Y-53.82
X186.16Y-56.36
X186.16Y-58.9
X186.16Y-61.44
X186.16Y-63.98
X186.66Y-75.0
X186.66Y-97.86
X188.7Y-33.5
X188.7Y-36.04
X188.7Y-38.58
X188.7Y-41.12
X188.7Y-43.66
X188.7Y-46.2
X188.7Y-48.74
X188.7Y-51.28
X188.7Y-53.82
X188.7Y-56.36
X188.7Y-58.9
X188.7Y-61.44
X188.7Y-63.98
X189.2Y-75.0
X189.2Y-97.86
X191.24Y-33.5
X191.24Y-36.04
X191.24Y-38.58
X191.24Y-41.12
X191.24Y-43.66
X191.24Y-46.2
X191.24Y-48.74
X191.24Y-51.28
X191.24Y-53.82
X191.24Y-56.36
X191.24Y-58.9
X191.24Y-61.44
X191.24Y-63.98
X191.74Y-75.0
X191.74Y-97.86
M30
