%TF.GenerationSoftware,KiCad,Pcbnew,9.0.2+dfsg-1*%
%TF.CreationDate,2025-12-26T17:01:31-05:00*%
%TF.ProjectId,polyphloisboisterous030,706f6c79-7068-46c6-9f69-73626f697374,rev?*%
%TF.SameCoordinates,Original*%
%TF.FileFunction,Copper,L4,Bot*%
%TF.FilePolarity,Positive*%
%FSLAX46Y46*%
G04 Gerber Fmt 4.6, Leading zero omitted, Abs format (unit mm)*
G04 Created by KiCad (PCBNEW 9.0.2+dfsg-1) date 2025-12-26 17:01:31*
%MOMM*%
%LPD*%
G01*
G04 APERTURE LIST*
%TA.AperFunction,ComponentPad*%
%ADD10C,1.300000*%
%TD*%
%TA.AperFunction,ComponentPad*%
%ADD11R,1.300000X1.300000*%
%TD*%
%TA.AperFunction,ComponentPad*%
%ADD12R,1.500000X2.400000*%
%TD*%
%TA.AperFunction,ComponentPad*%
%ADD13O,1.500000X2.400000*%
%TD*%
%TA.AperFunction,SMDPad,CuDef*%
%ADD14R,1.325000X1.800000*%
%TD*%
%TA.AperFunction,SMDPad,CuDef*%
%ADD15R,2.500000X2.350000*%
%TD*%
%TA.AperFunction,SMDPad,CuDef*%
%ADD16R,1.800000X1.325000*%
%TD*%
%TA.AperFunction,ViaPad*%
%ADD17C,0.600000*%
%TD*%
%TA.AperFunction,Conductor*%
%ADD18C,0.500000*%
%TD*%
%TA.AperFunction,Conductor*%
%ADD19C,1.300000*%
%TD*%
%TA.AperFunction,Conductor*%
%ADD20C,0.200000*%
%TD*%
%TA.AperFunction,Conductor*%
%ADD21C,1.000000*%
%TD*%
G04 APERTURE END LIST*
D10*
%TO.P,U1,A1,BR*%
%TO.N,/{slash}BR_30*%
X160760000Y-63980000D03*
%TO.P,U1,A2,A0*%
%TO.N,/A0*%
X160760000Y-61440000D03*
%TO.P,U1,A3,A30*%
%TO.N,unconnected-(U1A-A30-PadA3)*%
X160760000Y-58900000D03*
%TO.P,U1,A4,A28*%
%TO.N,unconnected-(U1A-A28-PadA4)*%
X160760000Y-56360000D03*
%TO.P,U1,A5,A26*%
%TO.N,unconnected-(U1A-A26-PadA5)*%
X160760000Y-53820000D03*
%TO.P,U1,A6,A24*%
%TO.N,unconnected-(U1A-A24-PadA6)*%
X160760000Y-51280000D03*
%TO.P,U1,A7,A23*%
%TO.N,/A23*%
X160760000Y-48740000D03*
%TO.P,U1,A8,A21*%
%TO.N,/A21*%
X160760000Y-46200000D03*
%TO.P,U1,A9,A19*%
%TO.N,/A19*%
X160760000Y-43660000D03*
%TO.P,U1,A10,A17*%
%TO.N,/A17*%
X160760000Y-41120000D03*
%TO.P,U1,A11,A15*%
%TO.N,/A15*%
X160760000Y-38580000D03*
%TO.P,U1,A12,A13*%
%TO.N,/A13*%
X160760000Y-36040000D03*
%TO.P,U1,A13,A10*%
%TO.N,/A10*%
X160760000Y-33500000D03*
%TO.P,U1,B1,RMC*%
%TO.N,unconnected-(U1A-RMC-PadB1)*%
X163300000Y-63980000D03*
%TO.P,U1,B2,BG*%
%TO.N,unconnected-(U1A-BG-PadB2)*%
X163300000Y-61440000D03*
%TO.P,U1,B3,A31*%
%TO.N,unconnected-(U1A-A31-PadB3)*%
X163300000Y-58900000D03*
%TO.P,U1,B4,A29*%
%TO.N,unconnected-(U1A-A29-PadB4)*%
X163300000Y-56360000D03*
%TO.P,U1,B5,A27*%
%TO.N,unconnected-(U1A-A27-PadB5)*%
X163300000Y-53820000D03*
%TO.P,U1,B6,A25*%
%TO.N,unconnected-(U1A-A25-PadB6)*%
X163300000Y-51280000D03*
%TO.P,U1,B7,A22*%
%TO.N,/A22*%
X163300000Y-48740000D03*
%TO.P,U1,B8,A20*%
%TO.N,/A20*%
X163300000Y-46200000D03*
%TO.P,U1,B9,A16*%
%TO.N,/A16*%
X163300000Y-43660000D03*
%TO.P,U1,B10,A14*%
%TO.N,/A14*%
X163300000Y-41120000D03*
%TO.P,U1,B11,A12*%
%TO.N,/A12*%
X163300000Y-38580000D03*
%TO.P,U1,B12,A8*%
%TO.N,/A8*%
X163300000Y-36040000D03*
%TO.P,U1,B13,A7*%
%TO.N,/A7*%
X163300000Y-33500000D03*
%TO.P,U1,C1,FC1*%
%TO.N,/FC1*%
X165840000Y-63980000D03*
%TO.P,U1,C2,CIOUT*%
%TO.N,unconnected-(U1A-CIOUT-PadC2)*%
X165840000Y-61440000D03*
%TO.P,U1,C3,BGACK*%
%TO.N,/{slash}BGACK_30*%
X165840000Y-58900000D03*
%TO.P,U1,C4,A1*%
%TO.N,/A1*%
X165840000Y-56360000D03*
%TO.P,U1,C5,GND@1*%
%TO.N,GND*%
X165840000Y-53820000D03*
%TO.P,U1,C6,VCC@1*%
%TO.N,VCC*%
X165840000Y-51280000D03*
%TO.P,U1,C7,GND@2*%
%TO.N,GND*%
X165840000Y-48740000D03*
%TO.P,U1,C8,A18*%
%TO.N,/A18*%
X165840000Y-46200000D03*
%TO.P,U1,C9,GND@3*%
%TO.N,GND*%
X165840000Y-43660000D03*
%TO.P,U1,C10,A11*%
%TO.N,/A11*%
X165840000Y-41120000D03*
%TO.P,U1,C11,A9*%
%TO.N,/A9*%
X165840000Y-38580000D03*
%TO.P,U1,C12,A5*%
%TO.N,/A5*%
X165840000Y-36040000D03*
%TO.P,U1,C13,A4*%
%TO.N,/A4*%
X165840000Y-33500000D03*
%TO.P,U1,D1,FC2*%
%TO.N,/FC2*%
X168380000Y-63980000D03*
%TO.P,U1,D2,FC0*%
%TO.N,/FC0*%
X168380000Y-61440000D03*
%TO.P,U1,D3,OCS*%
%TO.N,unconnected-(U1A-OCS-PadD3)*%
X168380000Y-58900000D03*
%TO.P,U1,D4,VCC@2*%
%TO.N,VCC*%
X168380000Y-56360000D03*
%TO.P,U1,D5,NC*%
%TO.N,unconnected-(U1A-NC-PadD5)*%
X168380000Y-53820000D03*
%TO.P,U1,D10,VCC@3*%
%TO.N,VCC*%
X168380000Y-41120000D03*
%TO.P,U1,D11,A6*%
%TO.N,/A6*%
X168380000Y-38580000D03*
%TO.P,U1,D12,A3*%
%TO.N,/A3*%
X168380000Y-36040000D03*
%TO.P,U1,D13,A2*%
%TO.N,/A2*%
X168380000Y-33500000D03*
%TO.P,U1,E1,CLK*%
%TO.N,/CLK_30*%
X170920000Y-63980000D03*
%TO.P,U1,E2,AVEC*%
%TO.N,/AVEC*%
X170920000Y-61440000D03*
%TO.P,U1,E3,GND@4*%
%TO.N,GND*%
X170920000Y-58900000D03*
%TO.P,U1,E11,GND@5*%
X170920000Y-38580000D03*
%TO.P,U1,E12,NC*%
%TO.N,unconnected-(U1A-NC-PadE12)*%
X170920000Y-36040000D03*
%TO.P,U1,E13,IPEND*%
%TO.N,unconnected-(U1A-IPEND-PadE13)*%
X170920000Y-33500000D03*
%TO.P,U1,F1,DSACK0*%
%TO.N,/{slash}DSACK0*%
X173460000Y-63980000D03*
%TO.P,U1,F2,VCC@4*%
%TO.N,VCC*%
X173460000Y-61440000D03*
%TO.P,U1,F3,GND@6*%
%TO.N,GND*%
X173460000Y-58900000D03*
%TO.P,U1,F4,NC*%
%TO.N,unconnected-(U1A-NC-PadF4)*%
X173460000Y-56360000D03*
%TO.P,U1,F10,NC*%
%TO.N,unconnected-(U1A-NC-PadF10)*%
X173460000Y-41120000D03*
%TO.P,U1,F11,VCC@5*%
%TO.N,VCC*%
X173460000Y-38580000D03*
%TO.P,U1,F12,RESET*%
%TO.N,/{slash}RESET_30*%
X173460000Y-36040000D03*
%TO.P,U1,F13,MMUDIS*%
%TO.N,/{slash}MMUDIS*%
X173460000Y-33500000D03*
%TO.P,U1,G1,STERM*%
%TO.N,/{slash}STERM*%
X176000000Y-63980000D03*
%TO.P,U1,G2,DSACK1*%
%TO.N,/{slash}DSACK1*%
X176000000Y-61440000D03*
%TO.P,U1,G3,GND@7*%
%TO.N,GND*%
X176000000Y-58900000D03*
%TO.P,U1,G11,GND@8*%
X176000000Y-38580000D03*
%TO.P,U1,G12,IPL2*%
%TO.N,/{slash}IPL2*%
X176000000Y-36040000D03*
%TO.P,U1,G13,IPL1*%
%TO.N,/{slash}IPL1*%
X176000000Y-33500000D03*
%TO.P,U1,H1,BERR*%
%TO.N,/{slash}BERR_30*%
X178540000Y-63980000D03*
%TO.P,U1,H2,HALT*%
%TO.N,/{slash}HALT_30*%
X178540000Y-61440000D03*
%TO.P,U1,H3,VCC@6*%
%TO.N,VCC*%
X178540000Y-58900000D03*
%TO.P,U1,H11,VCC@7*%
X178540000Y-38580000D03*
%TO.P,U1,H12,CDIS*%
%TO.N,/CDIS*%
X178540000Y-36040000D03*
%TO.P,U1,H13,IPL0*%
%TO.N,/{slash}IPL0*%
X178540000Y-33500000D03*
%TO.P,U1,J1,CBACK*%
%TO.N,/{slash}CBACK*%
X181080000Y-63980000D03*
%TO.P,U1,J2,AS*%
%TO.N,/{slash}AS_30*%
X181080000Y-61440000D03*
%TO.P,U1,J3,GND@9*%
%TO.N,GND*%
X181080000Y-58900000D03*
%TO.P,U1,J11,GND@10*%
X181080000Y-38580000D03*
%TO.P,U1,J12,STATUS*%
%TO.N,unconnected-(U1A-STATUS-PadJ12)*%
X181080000Y-36040000D03*
%TO.P,U1,J13,REFILL*%
%TO.N,unconnected-(U1A-REFILL-PadJ13)*%
X181080000Y-33500000D03*
%TO.P,U1,K1,CBREQ*%
%TO.N,unconnected-(U1A-CBREQ-PadK1)*%
X183620000Y-63980000D03*
%TO.P,U1,K2,DS*%
%TO.N,/{slash}DS_30*%
X183620000Y-61440000D03*
%TO.P,U1,K3,SIZ1*%
%TO.N,/SIZ1*%
X183620000Y-58900000D03*
%TO.P,U1,K4,VCC@8*%
%TO.N,VCC*%
X183620000Y-56360000D03*
%TO.P,U1,K5,NC*%
%TO.N,unconnected-(U1A-NC-PadK5)*%
X183620000Y-53820000D03*
%TO.P,U1,K10,VCC@9*%
%TO.N,VCC*%
X183620000Y-41120000D03*
%TO.P,U1,K11,D5*%
%TO.N,/D5*%
X183620000Y-38580000D03*
%TO.P,U1,K12,D1*%
%TO.N,/D1*%
X183620000Y-36040000D03*
%TO.P,U1,K13,D0*%
%TO.N,/D0*%
X183620000Y-33500000D03*
%TO.P,U1,L1,CIIN*%
%TO.N,/{slash}CIIN*%
X186160000Y-63980000D03*
%TO.P,U1,L2,SIZ0*%
%TO.N,/SIZ0*%
X186160000Y-61440000D03*
%TO.P,U1,L3,R/~{W}*%
%TO.N,/{slash}R{slash}W*%
X186160000Y-58900000D03*
%TO.P,U1,L4,D30*%
%TO.N,/D30*%
X186160000Y-56360000D03*
%TO.P,U1,L5,GND@11*%
%TO.N,GND*%
X186160000Y-53820000D03*
%TO.P,U1,L6,VCC@10*%
%TO.N,VCC*%
X186160000Y-51280000D03*
%TO.P,U1,L7,GND@12*%
%TO.N,GND*%
X186160000Y-48740000D03*
%TO.P,U1,L8,GND@13*%
X186160000Y-46200000D03*
%TO.P,U1,L9,GND@14*%
X186160000Y-43660000D03*
%TO.P,U1,L10,D10*%
%TO.N,/D10*%
X186160000Y-41120000D03*
%TO.P,U1,L11,D7*%
%TO.N,/D7*%
X186160000Y-38580000D03*
%TO.P,U1,L12,D4*%
%TO.N,/D4*%
X186160000Y-36040000D03*
%TO.P,U1,L13,D2*%
%TO.N,/D2*%
X186160000Y-33500000D03*
%TO.P,U1,M1,DBEN*%
%TO.N,unconnected-(U1A-DBEN-PadM1)*%
X188700000Y-63980000D03*
%TO.P,U1,M2,ECS*%
%TO.N,/ECS*%
X188700000Y-61440000D03*
%TO.P,U1,M3,D29*%
%TO.N,/D29*%
X188700000Y-58900000D03*
%TO.P,U1,M4,D27*%
%TO.N,/D27*%
X188700000Y-56360000D03*
%TO.P,U1,M5,D24*%
%TO.N,/D24*%
X188700000Y-53820000D03*
%TO.P,U1,M6,D22*%
%TO.N,/D22*%
X188700000Y-51280000D03*
%TO.P,U1,M7,D20*%
%TO.N,/D20*%
X188700000Y-48740000D03*
%TO.P,U1,M8,D17*%
%TO.N,/D17*%
X188700000Y-46200000D03*
%TO.P,U1,M9,D14*%
%TO.N,/D14*%
X188700000Y-43660000D03*
%TO.P,U1,M10,D12*%
%TO.N,/D12*%
X188700000Y-41120000D03*
%TO.P,U1,M11,D9*%
%TO.N,/D9*%
X188700000Y-38580000D03*
%TO.P,U1,M12,D6*%
%TO.N,/D6*%
X188700000Y-36040000D03*
%TO.P,U1,M13,D3*%
%TO.N,/D3*%
X188700000Y-33500000D03*
%TO.P,U1,N1,D31*%
%TO.N,/D31*%
X191240000Y-63980000D03*
%TO.P,U1,N2,D28*%
%TO.N,/D28*%
X191240000Y-61440000D03*
%TO.P,U1,N3,D26*%
%TO.N,/D26*%
X191240000Y-58900000D03*
%TO.P,U1,N4,D25*%
%TO.N,/D25*%
X191240000Y-56360000D03*
%TO.P,U1,N5,D23*%
%TO.N,/D23*%
X191240000Y-53820000D03*
%TO.P,U1,N6,D21*%
%TO.N,/D21*%
X191240000Y-51280000D03*
%TO.P,U1,N7,D19*%
%TO.N,/D19*%
X191240000Y-48740000D03*
%TO.P,U1,N8,D18*%
%TO.N,/D18*%
X191240000Y-46200000D03*
%TO.P,U1,N9,D16*%
%TO.N,/D16*%
X191240000Y-43660000D03*
%TO.P,U1,N10,D15*%
%TO.N,/D15*%
X191240000Y-41120000D03*
%TO.P,U1,N11,D13*%
%TO.N,/D13*%
X191240000Y-38580000D03*
%TO.P,U1,N12,D11*%
%TO.N,/D11*%
X191240000Y-36040000D03*
%TO.P,U1,N13,D8*%
%TO.N,/D8*%
X191240000Y-33500000D03*
%TD*%
D11*
%TO.P,U7,1,CLK*%
%TO.N,unconnected-(U7-CLK-Pad1)*%
X119960000Y-46500000D03*
D10*
%TO.P,U7,2,I1*%
%TO.N,unconnected-(U7-I1-Pad2)*%
X119960000Y-43960000D03*
%TO.P,U7,3,I2*%
%TO.N,/C8M.PDS*%
X122500000Y-46500000D03*
%TO.P,U7,4,I3*%
%TO.N,Net-(U7-I3)*%
X125040000Y-43960000D03*
%TO.P,U7,5,I4*%
%TO.N,Net-(U7-I4)*%
X122500000Y-43960000D03*
%TO.P,U7,6,I5*%
%TO.N,Net-(U7-I5)*%
X125040000Y-41420000D03*
%TO.P,U7,7,I6*%
%TO.N,unconnected-(U7-I6-Pad7)*%
X122500000Y-41420000D03*
%TO.P,U7,8,I7*%
%TO.N,unconnected-(U7-I7-Pad8)*%
X125040000Y-38880000D03*
%TO.P,U7,9,I8*%
%TO.N,unconnected-(U7-I8-Pad9)*%
X122500000Y-36340000D03*
%TO.P,U7,10,GND*%
%TO.N,GND*%
X122500000Y-38880000D03*
%TO.P,U7,11,OE*%
%TO.N,unconnected-(U7-OE-Pad11)*%
X119960000Y-36340000D03*
%TO.P,U7,12,O8*%
%TO.N,unconnected-(U7-O8-Pad12)*%
X119960000Y-38880000D03*
%TO.P,U7,13,O7*%
%TO.N,/C16M*%
X117420000Y-36340000D03*
%TO.P,U7,14,O6*%
%TO.N,Net-(U7-I5)*%
X114880000Y-38880000D03*
%TO.P,U7,15,O5*%
%TO.N,Net-(U7-I4)*%
X117420000Y-38880000D03*
%TO.P,U7,16,O4*%
%TO.N,Net-(U7-I3)*%
X114880000Y-41420000D03*
%TO.P,U7,17,O3*%
%TO.N,unconnected-(U7-O3-Pad17)*%
X117420000Y-41420000D03*
%TO.P,U7,18,O2*%
%TO.N,unconnected-(U7-O2-Pad18)*%
X114880000Y-43960000D03*
%TO.P,U7,19,O1*%
%TO.N,unconnected-(U7-O1-Pad19)*%
X117420000Y-46500000D03*
%TO.P,U7,20,VCC*%
%TO.N,VCC*%
X117420000Y-43960000D03*
%TD*%
D11*
%TO.P,U5,1,CLK*%
%TO.N,/C8M.PDS*%
X166960000Y-81500000D03*
D10*
%TO.P,U5,2,I1*%
%TO.N,/{slash}AS_00*%
X166960000Y-84040000D03*
%TO.P,U5,3,I2*%
%TO.N,/SIZ1*%
X164420000Y-81500000D03*
%TO.P,U5,4,I3*%
%TO.N,/SIZ0*%
X161880000Y-84040000D03*
%TO.P,U5,5,I4*%
%TO.N,/{slash}R{slash}W*%
X164420000Y-84040000D03*
%TO.P,U5,6,I5*%
%TO.N,/{slash}IPL2*%
X161880000Y-86580000D03*
%TO.P,U5,7,I6*%
%TO.N,/{slash}CIIN*%
X164420000Y-86580000D03*
%TO.P,U5,8,I7*%
%TO.N,/A22*%
X161880000Y-89120000D03*
%TO.P,U5,9,I8*%
%TO.N,/A0*%
X164420000Y-91660000D03*
%TO.P,U5,10,GND*%
%TO.N,GND*%
X164420000Y-89120000D03*
%TO.P,U5,11,OE*%
X166960000Y-91660000D03*
%TO.P,U5,12,O8*%
%TO.N,/{slash}RESET_00*%
X166960000Y-89120000D03*
%TO.P,U5,13,O7*%
%TO.N,/{slash}RESET_30*%
X169500000Y-91660000D03*
%TO.P,U5,14,O6*%
%TO.N,unconnected-(U5-O6-Pad14)*%
X172040000Y-89120000D03*
%TO.P,U5,15,O5*%
%TO.N,unconnected-(U5-O5-Pad15)*%
X169500000Y-89120000D03*
%TO.P,U5,16,O4*%
%TO.N,/{slash}BR_00*%
X172040000Y-86580000D03*
%TO.P,U5,17,O3*%
%TO.N,/N$7*%
X169500000Y-86580000D03*
%TO.P,U5,18,O2*%
%TO.N,/{slash}UDS*%
X172040000Y-84040000D03*
%TO.P,U5,19,O1*%
%TO.N,/{slash}LDS*%
X169500000Y-81500000D03*
%TO.P,U5,20,VCC*%
%TO.N,VCC*%
X169500000Y-84040000D03*
%TD*%
D11*
%TO.P,U4,1,CLK*%
%TO.N,/SM_CLK16*%
X139540000Y-56000000D03*
D10*
%TO.P,U4,2,I1*%
%TO.N,/NOFC*%
X139540000Y-58540000D03*
%TO.P,U4,3,I2*%
%TO.N,/C8M.PDS*%
X137000000Y-56000000D03*
%TO.P,U4,4,I3*%
%TO.N,/{slash}AS_30*%
X134460000Y-58540000D03*
%TO.P,U4,5,I4*%
%TO.N,/{slash}DTACK_SYS+EX*%
X137000000Y-58540000D03*
%TO.P,U4,6,I5*%
%TO.N,/{slash}VPA*%
X134460000Y-61080000D03*
%TO.P,U4,7,I6*%
%TO.N,/E*%
X137000000Y-61080000D03*
%TO.P,U4,8,I7*%
%TO.N,/{slash}R{slash}W*%
X134460000Y-63620000D03*
%TO.P,U4,9,I8*%
%TO.N,/{slash}RESET_30*%
X137000000Y-66160000D03*
%TO.P,U4,10,GND*%
%TO.N,GND*%
X137000000Y-63620000D03*
%TO.P,U4,11,OE*%
%TO.N,/N$7*%
X139540000Y-66160000D03*
%TO.P,U4,12,O8*%
%TO.N,/{slash}DSACK1*%
X139540000Y-63620000D03*
%TO.P,U4,13,O7*%
%TO.N,/P2.A17*%
X142080000Y-66160000D03*
%TO.P,U4,14,O6*%
%TO.N,unconnected-(U4-O6-Pad14)*%
X144620000Y-63620000D03*
%TO.P,U4,15,O5*%
%TO.N,unconnected-(U4-O5-Pad15)*%
X142080000Y-63620000D03*
%TO.P,U4,16,O4*%
%TO.N,/{slash}VMA*%
X144620000Y-61080000D03*
%TO.P,U4,17,O3*%
%TO.N,unconnected-(U4-O3-Pad17)*%
X142080000Y-61080000D03*
%TO.P,U4,18,O2*%
%TO.N,/{slash}AS_00*%
X144620000Y-58540000D03*
%TO.P,U4,19,O1*%
%TO.N,/N$1*%
X142080000Y-56000000D03*
%TO.P,U4,20,VCC*%
%TO.N,VCC*%
X142080000Y-58540000D03*
%TD*%
D11*
%TO.P,U3,1,CLK*%
%TO.N,/A23*%
X144620000Y-41080000D03*
D10*
%TO.P,U3,2,I1*%
%TO.N,/A22*%
X142080000Y-41080000D03*
%TO.P,U3,3,I2*%
%TO.N,/A21*%
X144620000Y-38540000D03*
%TO.P,U3,4,I3*%
%TO.N,/A20*%
X142080000Y-36000000D03*
%TO.P,U3,5,I4*%
%TO.N,/A19*%
X142080000Y-38540000D03*
%TO.P,U3,6,I5*%
%TO.N,/FC0*%
X139540000Y-36000000D03*
%TO.P,U3,7,I6*%
%TO.N,/FC1*%
X139540000Y-38540000D03*
%TO.P,U3,8,I7*%
%TO.N,/FC2*%
X137000000Y-36000000D03*
%TO.P,U3,9,I8*%
%TO.N,/{slash}DTACK*%
X134460000Y-38540000D03*
%TO.P,U3,10,GND*%
%TO.N,GND*%
X137000000Y-38540000D03*
%TO.P,U3,11,OE*%
%TO.N,/P3.B10*%
X134460000Y-41080000D03*
%TO.P,U3,12,O8*%
%TO.N,/{slash}SCC.RW.DEC*%
X137000000Y-41080000D03*
%TO.P,U3,13,O7*%
%TO.N,/{slash}EXT.DTK*%
X134460000Y-43620000D03*
%TO.P,U3,14,O6*%
%TO.N,unconnected-(U3-O6-Pad14)*%
X137000000Y-46160000D03*
%TO.P,U3,15,O5*%
%TO.N,/{slash}DTACK_SYS+EX*%
X137000000Y-43620000D03*
%TO.P,U3,16,O4*%
%TO.N,/{slash}CIIN*%
X139540000Y-46160000D03*
%TO.P,U3,17,O3*%
%TO.N,/AVEC*%
X139540000Y-43620000D03*
%TO.P,U3,18,O2*%
%TO.N,/{slash}FPUCS*%
X142080000Y-46160000D03*
%TO.P,U3,19,O1*%
%TO.N,/NOFC*%
X144620000Y-43620000D03*
%TO.P,U3,20,VCC*%
%TO.N,VCC*%
X142080000Y-43620000D03*
%TD*%
D11*
%TO.P,U6,1,CLK*%
%TO.N,/C8M.PDS*%
X119920000Y-66080000D03*
D10*
%TO.P,U6,2,I1*%
%TO.N,/C16M*%
X119920000Y-63540000D03*
%TO.P,U6,3,I2*%
%TO.N,/E*%
X122460000Y-66080000D03*
%TO.P,U6,4,I3*%
%TO.N,/{slash}AS_00*%
X125000000Y-63540000D03*
%TO.P,U6,5,I4*%
%TO.N,/{slash}AS_30*%
X122460000Y-63540000D03*
%TO.P,U6,6,I5*%
%TO.N,/{slash}FPUCS*%
X125000000Y-61000000D03*
%TO.P,U6,7,I6*%
%TO.N,/FPUSENSE*%
X122460000Y-61000000D03*
%TO.P,U6,8,I7*%
%TO.N,/{slash}RESET_30*%
X125000000Y-58460000D03*
%TO.P,U6,9,I8*%
%TO.N,/{slash}SCC.RW.DEC*%
X122460000Y-55920000D03*
%TO.P,U6,10,GND*%
%TO.N,GND*%
X122460000Y-58460000D03*
%TO.P,U6,11,OE*%
X119920000Y-55920000D03*
%TO.P,U6,12,O8*%
%TO.N,/N$1*%
X119920000Y-58460000D03*
%TO.P,U6,13,O7*%
%TO.N,/{slash}BERR_30*%
X117380000Y-55920000D03*
%TO.P,U6,14,O6*%
%TO.N,/CDIS*%
X114840000Y-58460000D03*
%TO.P,U6,15,O5*%
%TO.N,unconnected-(U6-O5-Pad15)*%
X117380000Y-58460000D03*
%TO.P,U6,16,O4*%
%TO.N,unconnected-(U6-O4-Pad16)*%
X114840000Y-61000000D03*
%TO.P,U6,17,O3*%
%TO.N,unconnected-(U6-O3-Pad17)*%
X117380000Y-61000000D03*
%TO.P,U6,18,O2*%
%TO.N,/SM_CLK16*%
X114840000Y-63540000D03*
%TO.P,U6,19,O1*%
%TO.N,/CLK_30*%
X117380000Y-66080000D03*
%TO.P,U6,20,VCC*%
%TO.N,VCC*%
X117380000Y-63540000D03*
%TD*%
D12*
%TO.P,IC1,1,D4*%
%TO.N,/D20*%
X191740000Y-75000000D03*
D13*
%TO.P,IC1,2,D3*%
%TO.N,/D19*%
X189200000Y-75000000D03*
%TO.P,IC1,3,D2*%
%TO.N,/D18*%
X186660000Y-75000000D03*
%TO.P,IC1,4,D1*%
%TO.N,/D17*%
X184120000Y-75000000D03*
%TO.P,IC1,5,D0*%
%TO.N,/D16*%
X181580000Y-75000000D03*
%TO.P,IC1,6,AS*%
%TO.N,/{slash}AS_00*%
X179040000Y-75000000D03*
%TO.P,IC1,7,UDS*%
%TO.N,/{slash}UDS*%
X176500000Y-75000000D03*
%TO.P,IC1,8,LDS*%
%TO.N,/{slash}LDS*%
X173960000Y-75000000D03*
%TO.P,IC1,9,R/W*%
%TO.N,/{slash}R{slash}W*%
X171420000Y-75000000D03*
%TO.P,IC1,10,DTACK*%
%TO.N,/{slash}DTACK*%
X168880000Y-75000000D03*
%TO.P,IC1,11,BG*%
%TO.N,unconnected-(IC1A-BG-Pad11)*%
X166340000Y-75000000D03*
%TO.P,IC1,12,BGACK*%
%TO.N,unconnected-(IC1A-BGACK-Pad12)*%
X163800000Y-75000000D03*
%TO.P,IC1,13,BR*%
%TO.N,/{slash}BR_00*%
X161260000Y-75000000D03*
%TO.P,IC1,14,VCC@1*%
%TO.N,VCC*%
X158720000Y-75000000D03*
%TO.P,IC1,15,CLK*%
%TO.N,/C8M.PDS*%
X156180000Y-75000000D03*
%TO.P,IC1,16,GND@1*%
%TO.N,GND*%
X153640000Y-75000000D03*
%TO.P,IC1,17,HALT*%
%TO.N,unconnected-(IC1A-HALT-Pad17)*%
X151100000Y-75000000D03*
%TO.P,IC1,18,RESET*%
%TO.N,/{slash}RESET_00*%
X148560000Y-75000000D03*
%TO.P,IC1,19,VMA*%
%TO.N,/{slash}VMA*%
X146020000Y-75000000D03*
%TO.P,IC1,20,E*%
%TO.N,/E*%
X143480000Y-75000000D03*
%TO.P,IC1,21,VPA*%
%TO.N,/{slash}VPA*%
X140940000Y-75000000D03*
%TO.P,IC1,22,BERR*%
%TO.N,unconnected-(IC1A-BERR-Pad22)*%
X138400000Y-75000000D03*
%TO.P,IC1,23,IPL2*%
%TO.N,/{slash}IPL2*%
X135860000Y-75000000D03*
%TO.P,IC1,24,IPL1*%
%TO.N,/{slash}IPL1*%
X133320000Y-75000000D03*
%TO.P,IC1,25,IPL0*%
%TO.N,/{slash}IPL0*%
X130780000Y-75000000D03*
%TO.P,IC1,26,FC2*%
%TO.N,/FC2*%
X128240000Y-75000000D03*
%TO.P,IC1,27,FC1*%
%TO.N,/FC1*%
X125700000Y-75000000D03*
%TO.P,IC1,28,FC0*%
%TO.N,/FC0*%
X123160000Y-75000000D03*
%TO.P,IC1,29,A1*%
%TO.N,/A1*%
X120620000Y-75000000D03*
%TO.P,IC1,30,A2*%
%TO.N,/A2*%
X118080000Y-75000000D03*
%TO.P,IC1,31,A3*%
%TO.N,/A3*%
X115540000Y-75000000D03*
%TO.P,IC1,32,A4*%
%TO.N,/A4*%
X113000000Y-75000000D03*
%TO.P,IC1,33,A5*%
%TO.N,/A5*%
X113000000Y-97860000D03*
%TO.P,IC1,34,A6*%
%TO.N,/A6*%
X115540000Y-97860000D03*
%TO.P,IC1,35,A7*%
%TO.N,/A7*%
X118080000Y-97860000D03*
%TO.P,IC1,36,A8*%
%TO.N,/A8*%
X120620000Y-97860000D03*
%TO.P,IC1,37,A9*%
%TO.N,/A9*%
X123160000Y-97860000D03*
%TO.P,IC1,38,A10*%
%TO.N,/A10*%
X125700000Y-97860000D03*
%TO.P,IC1,39,A11*%
%TO.N,/A11*%
X128240000Y-97860000D03*
%TO.P,IC1,40,A12*%
%TO.N,/A12*%
X130780000Y-97860000D03*
%TO.P,IC1,41,A13*%
%TO.N,/A13*%
X133320000Y-97860000D03*
%TO.P,IC1,42,A14*%
%TO.N,/A14*%
X135860000Y-97860000D03*
%TO.P,IC1,43,A15*%
%TO.N,/A15*%
X138400000Y-97860000D03*
%TO.P,IC1,44,A16*%
%TO.N,/A16*%
X140940000Y-97860000D03*
%TO.P,IC1,45,A17*%
%TO.N,/A17*%
X143480000Y-97860000D03*
%TO.P,IC1,46,A18*%
%TO.N,/A18*%
X146020000Y-97860000D03*
%TO.P,IC1,47,A19*%
%TO.N,/A19*%
X148560000Y-97860000D03*
%TO.P,IC1,48,A20*%
%TO.N,/A20*%
X151100000Y-97860000D03*
%TO.P,IC1,49,VCC@2*%
%TO.N,VCC*%
X153640000Y-97860000D03*
%TO.P,IC1,50,A21*%
%TO.N,/A21*%
X156180000Y-97860000D03*
%TO.P,IC1,51,A22*%
%TO.N,/A22*%
X158720000Y-97860000D03*
%TO.P,IC1,52,A23*%
%TO.N,/A23*%
X161260000Y-97860000D03*
%TO.P,IC1,53,GND@2*%
%TO.N,GND*%
X163800000Y-97860000D03*
%TO.P,IC1,54,D15*%
%TO.N,/D31*%
X166340000Y-97860000D03*
%TO.P,IC1,55,D14*%
%TO.N,/D30*%
X168880000Y-97860000D03*
%TO.P,IC1,56,D13*%
%TO.N,/D29*%
X171420000Y-97860000D03*
%TO.P,IC1,57,D12*%
%TO.N,/D28*%
X173960000Y-97860000D03*
%TO.P,IC1,58,D11*%
%TO.N,/D27*%
X176500000Y-97860000D03*
%TO.P,IC1,59,D10*%
%TO.N,/D26*%
X179040000Y-97860000D03*
%TO.P,IC1,60,D9*%
%TO.N,/D25*%
X181580000Y-97860000D03*
%TO.P,IC1,61,D8*%
%TO.N,/D24*%
X184120000Y-97860000D03*
%TO.P,IC1,62,D7*%
%TO.N,/D23*%
X186660000Y-97860000D03*
%TO.P,IC1,63,D6*%
%TO.N,/D22*%
X189200000Y-97860000D03*
%TO.P,IC1,64,D5*%
%TO.N,/D21*%
X191740000Y-97860000D03*
%TD*%
D14*
%TO.P,R12,1,1*%
%TO.N,/{slash}MMUDIS*%
X167625000Y-30250000D03*
%TO.P,R12,2,2*%
%TO.N,VCC*%
X170750000Y-30250000D03*
%TD*%
D15*
%TO.P,C1,+,+*%
%TO.N,VCC*%
X175612000Y-48250000D03*
%TO.P,C1,-,-*%
%TO.N,GND*%
X170250000Y-48250000D03*
%TD*%
D16*
%TO.P,C8,1,1*%
%TO.N,VCC*%
X176500000Y-80500000D03*
%TO.P,C8,2,2*%
%TO.N,GND*%
X176500000Y-83625000D03*
%TD*%
%TO.P,C4,1,1*%
%TO.N,VCC*%
X114000000Y-47500000D03*
%TO.P,C4,2,2*%
%TO.N,GND*%
X114000000Y-50625000D03*
%TD*%
%TO.P,R10,1,1*%
%TO.N,/FPUSENSE*%
X125000000Y-56125000D03*
%TO.P,R10,2,2*%
%TO.N,VCC*%
X125000000Y-53000000D03*
%TD*%
%TO.P,C7,1,1*%
%TO.N,VCC*%
X145500000Y-55625000D03*
%TO.P,C7,2,2*%
%TO.N,GND*%
X145500000Y-52500000D03*
%TD*%
%TO.P,R16,1,1*%
%TO.N,/{slash}EXT.DTK*%
X131500000Y-43625000D03*
%TO.P,R16,2,2*%
%TO.N,VCC*%
X131500000Y-40500000D03*
%TD*%
D14*
%TO.P,R3,1,1*%
%TO.N,/{slash}RESET_30*%
X176875000Y-30250000D03*
%TO.P,R3,2,2*%
%TO.N,VCC*%
X173750000Y-30250000D03*
%TD*%
D16*
%TO.P,C5,1,1*%
%TO.N,VCC*%
X114000000Y-67000000D03*
%TO.P,C5,2,2*%
%TO.N,GND*%
X114000000Y-70125000D03*
%TD*%
D15*
%TO.P,C3,+,+*%
%TO.N,VCC*%
X129638000Y-51000000D03*
%TO.P,C3,-,-*%
%TO.N,GND*%
X135000000Y-51000000D03*
%TD*%
D16*
%TO.P,R5,1,1*%
%TO.N,/{slash}AS_30*%
X181000000Y-55900000D03*
%TO.P,R5,2,2*%
%TO.N,VCC*%
X181000000Y-52775000D03*
%TD*%
%TO.P,R11,1,1*%
%TO.N,/CDIS*%
X181000000Y-41337500D03*
%TO.P,R11,2,2*%
%TO.N,VCC*%
X181000000Y-44462500D03*
%TD*%
%TO.P,R9,1,1*%
%TO.N,/P3.B10*%
X131500000Y-35500000D03*
%TO.P,R9,2,2*%
%TO.N,VCC*%
X131500000Y-38625000D03*
%TD*%
%TO.P,R2,1,1*%
%TO.N,/{slash}DSACK1*%
X178300000Y-55900000D03*
%TO.P,R2,2,2*%
%TO.N,VCC*%
X178300000Y-52775000D03*
%TD*%
D14*
%TO.P,R4,1,1*%
%TO.N,/P2.A17*%
X134562500Y-67000000D03*
%TO.P,R4,2,2*%
%TO.N,VCC*%
X131437500Y-67000000D03*
%TD*%
D16*
%TO.P,C6,1,1*%
%TO.N,VCC*%
X145500000Y-46375000D03*
%TO.P,C6,2,2*%
%TO.N,GND*%
X145500000Y-49500000D03*
%TD*%
D17*
%TO.N,GND*%
X170418702Y-51394200D03*
X114000000Y-52250000D03*
X144000000Y-51500000D03*
X137000000Y-51000000D03*
X176500000Y-85000000D03*
X187900000Y-67400000D03*
X114000000Y-71500000D03*
%TO.N,VCC*%
X164500000Y-69000000D03*
X114000000Y-65500000D03*
X131000000Y-68500000D03*
X114500000Y-46000000D03*
X176500000Y-79000000D03*
X144000000Y-46000000D03*
X172000000Y-70400000D03*
X127500000Y-51000000D03*
X172250000Y-30500000D03*
X187900000Y-70525000D03*
X144000000Y-57000000D03*
X179250000Y-44500000D03*
X133250000Y-41750000D03*
X175700000Y-45300000D03*
%TO.N,/{slash}AS_00*%
X142969300Y-64613700D03*
X145181500Y-78818500D03*
%TO.N,/A9*%
X147602900Y-66673900D03*
X149294200Y-35709200D03*
X128575400Y-66784300D03*
%TO.N,/A12*%
X141175600Y-67419400D03*
X154084200Y-66275200D03*
%TO.N,/A6*%
X115793700Y-37929900D03*
%TO.N,/A5*%
X163147465Y-31852535D03*
X113658400Y-32029500D03*
%TO.N,/D24*%
X196380500Y-56512200D03*
%TO.N,/A21*%
X150891400Y-95546500D03*
%TO.N,/{slash}R{slash}W*%
X136350000Y-72775000D03*
%TO.N,/A8*%
X137744900Y-34999900D03*
%TO.N,/A18*%
X159696400Y-81196400D03*
X158500000Y-92500000D03*
X162496000Y-80000000D03*
%TO.N,/{slash}DTACK*%
X175473500Y-50794200D03*
%TO.N,/D23*%
X192791000Y-54171700D03*
%TO.N,/A16*%
X155496100Y-45545500D03*
%TO.N,/C8M.PDS*%
X136250000Y-52675002D03*
%TO.N,/D22*%
X191344700Y-50010000D03*
%TO.N,/D16*%
X195304900Y-70500000D03*
%TO.N,/{slash}BR_00*%
X172557300Y-81212000D03*
%TO.N,/{slash}RESET_00*%
X149000000Y-87500000D03*
%TO.N,/D31*%
X169437200Y-78231000D03*
%TO.N,/FC0*%
X127114100Y-54000000D03*
X139500000Y-53532900D03*
%TO.N,/A7*%
X116300300Y-35139700D03*
%TO.N,/A11*%
X130071700Y-72780500D03*
X163598600Y-72697200D03*
%TO.N,/{slash}IPL1*%
X134146500Y-35083500D03*
%TO.N,/A19*%
X153691400Y-70736300D03*
X155480300Y-70736300D03*
%TO.N,/D29*%
X187102500Y-60352000D03*
%TO.N,/A3*%
X112645500Y-37291700D03*
X113864800Y-73000000D03*
%TO.N,/A13*%
X136025600Y-36778000D03*
%TO.N,/A10*%
X148218300Y-90683200D03*
%TO.N,/A14*%
X145382300Y-71894200D03*
X165979000Y-72193200D03*
%TO.N,/FC2*%
X129901000Y-71349200D03*
X167933400Y-70945000D03*
%TO.N,/FC1*%
X147036300Y-69832400D03*
X127972200Y-70816000D03*
X147676400Y-67961100D03*
%TO.N,/D28*%
X185066600Y-64743800D03*
%TO.N,/{slash}IPL0*%
X177882500Y-50931800D03*
X149986600Y-71598500D03*
X151798800Y-50837800D03*
X131443900Y-71879000D03*
%TO.N,/D18*%
X195352450Y-72147550D03*
%TO.N,/A1*%
X157978600Y-63500500D03*
X124876400Y-66706600D03*
X158419900Y-54543600D03*
%TO.N,/A4*%
X111456600Y-35123100D03*
%TO.N,/{slash}RESET_30*%
X138500000Y-83500000D03*
X169550100Y-69799900D03*
X134260600Y-56069100D03*
X137000000Y-69500000D03*
%TO.N,/P2.A17*%
X135754400Y-67634300D03*
%TO.N,/CDIS*%
X119500000Y-29792900D03*
%TO.N,/{slash}BGACK_30*%
X169650000Y-61922800D03*
X168851000Y-67809500D03*
%TO.N,/{slash}BERR_30*%
X162559600Y-70008200D03*
X162135300Y-61839900D03*
%TO.N,/{slash}CIIN*%
X180943300Y-86661000D03*
X181477200Y-69169300D03*
X148476400Y-68926700D03*
X148014200Y-49018400D03*
%TO.N,/SIZ0*%
X188892000Y-66800000D03*
X184109000Y-83672100D03*
%TO.N,/{slash}FPUCS*%
X131449000Y-49904400D03*
%TO.N,/{slash}SCC.RW.DEC*%
X124661900Y-45460400D03*
%TO.N,/N$7*%
X140358800Y-80641200D03*
%TD*%
D18*
%TO.N,GND*%
X144500000Y-51500000D02*
X144000000Y-51500000D01*
X114000000Y-70125000D02*
X114000000Y-71500000D01*
X176500000Y-83625000D02*
X176500000Y-85000000D01*
X114000000Y-52250000D02*
X114000000Y-50625000D01*
X145500000Y-52500000D02*
X144500000Y-51500000D01*
X170250000Y-51225498D02*
X170250000Y-48250000D01*
D19*
X145500000Y-49500000D02*
X145500000Y-52500000D01*
D20*
X135000000Y-51000000D02*
X137000000Y-51000000D01*
D18*
X170418702Y-51394200D02*
X170250000Y-51225498D01*
D20*
%TO.N,VCC*%
X133125000Y-41625000D02*
X132625000Y-41625000D01*
X132625000Y-41625000D02*
X131500000Y-40500000D01*
D18*
X127000000Y-51000000D02*
X127500000Y-51000000D01*
X172500000Y-30250000D02*
X172250000Y-30500000D01*
X176500000Y-80500000D02*
X176500000Y-79000000D01*
X175700000Y-48162000D02*
X175612000Y-48250000D01*
D20*
X179287500Y-44462500D02*
X179250000Y-44500000D01*
D18*
X181000000Y-53400000D02*
X181000000Y-52775000D01*
X173750000Y-30250000D02*
X172500000Y-30250000D01*
X114000000Y-47500000D02*
X114000000Y-46500000D01*
X131000000Y-68500000D02*
X131438000Y-68062000D01*
X125000000Y-53000000D02*
X127000000Y-51000000D01*
X131438000Y-68062000D02*
X131438000Y-67000000D01*
X183620000Y-56020000D02*
X181000000Y-53400000D01*
X129638000Y-51000000D02*
X127500000Y-51000000D01*
X114000000Y-46500000D02*
X114500000Y-46000000D01*
X145375000Y-55625000D02*
X144000000Y-57000000D01*
X183620000Y-56360000D02*
X183620000Y-56020000D01*
X175700000Y-45300000D02*
X175700000Y-48162000D01*
D19*
X131500000Y-40500000D02*
X131500000Y-38625000D01*
D18*
X181000000Y-44462500D02*
X179287500Y-44462500D01*
D19*
X178500000Y-52775000D02*
X181000000Y-52775000D01*
D18*
X114000000Y-67000000D02*
X114000000Y-65500000D01*
X145500000Y-46375000D02*
X144375000Y-46375000D01*
X144375000Y-46375000D02*
X144000000Y-46000000D01*
D21*
X170750000Y-30250000D02*
X173750000Y-30250000D01*
D20*
X133250000Y-41750000D02*
X133125000Y-41625000D01*
%TO.N,/{slash}AS_00*%
X144950000Y-78587000D02*
X144950000Y-73177800D01*
X144950000Y-73177800D02*
X145988800Y-72139000D01*
X142969100Y-64615500D02*
X142969300Y-64615300D01*
X145181500Y-78818500D02*
X144950000Y-78587000D01*
X145988800Y-67635200D02*
X142969100Y-64615500D01*
X142969300Y-64615300D02*
X142969300Y-64613700D01*
X145988800Y-72139000D02*
X145988800Y-67635200D01*
%TO.N,/A9*%
X147412500Y-66483500D02*
X147602900Y-66673900D01*
X126995000Y-72782800D02*
X128575400Y-71202400D01*
X126995000Y-92581300D02*
X126995000Y-72782800D01*
X123185000Y-97893000D02*
X123185000Y-96391300D01*
X149294200Y-35709200D02*
X147412500Y-37590900D01*
X123185000Y-96391300D02*
X126995000Y-92581300D01*
X128575400Y-71202400D02*
X128575400Y-66784300D01*
X147412500Y-37590900D02*
X147412500Y-66483500D01*
%TO.N,/A12*%
X162000000Y-39880000D02*
X163300000Y-38580000D01*
X162000000Y-44500000D02*
X162000000Y-39880000D01*
X142065300Y-88467800D02*
X134473500Y-96059600D01*
X154084200Y-66275200D02*
X154084200Y-51475300D01*
X134473500Y-98700838D02*
X133780338Y-99394000D01*
X142065300Y-68309100D02*
X142065300Y-88467800D01*
X134473500Y-96059600D02*
X134473500Y-98700838D01*
X160611000Y-44948500D02*
X161551500Y-44948500D01*
X161551500Y-44948500D02*
X162000000Y-44500000D01*
X154084200Y-51475300D02*
X160611000Y-44948500D01*
X133780338Y-99394000D02*
X132306000Y-99394000D01*
X132306000Y-99394000D02*
X130805000Y-97893000D01*
X141175600Y-67419400D02*
X142065300Y-68309100D01*
%TO.N,/D20*%
X190909000Y-55409000D02*
X191633918Y-55409000D01*
X191765000Y-73531300D02*
X191765000Y-75033000D01*
X190053400Y-54553400D02*
X190909000Y-55409000D01*
X188700000Y-48740000D02*
X190053400Y-50093400D01*
X193002800Y-56777882D02*
X193002800Y-64966900D01*
X190053400Y-50093400D02*
X190053400Y-54553400D01*
X193002800Y-64966900D02*
X192606500Y-65363200D01*
X191633918Y-55409000D02*
X193002800Y-56777882D01*
X192606500Y-72689800D02*
X191765000Y-73531300D01*
X192606500Y-65363200D02*
X192606500Y-72689800D01*
%TO.N,/A6*%
X115565000Y-97893000D02*
X115565000Y-96391300D01*
X115565000Y-96391300D02*
X116667900Y-95288400D01*
X116313100Y-40183600D02*
X115996100Y-39866600D01*
X115996100Y-38132300D02*
X115793700Y-37929900D01*
X116667900Y-95288400D02*
X116667900Y-67082900D01*
X116313100Y-66728100D02*
X116313100Y-40183600D01*
X115996100Y-39866600D02*
X115996100Y-38132300D01*
X116667900Y-67082900D02*
X116313100Y-66728100D01*
%TO.N,/A15*%
X148681300Y-50658700D02*
X160760000Y-38580000D01*
X147355200Y-80141300D02*
X147355200Y-70898800D01*
X149078100Y-69175900D02*
X149078100Y-65925900D01*
X138425000Y-97893000D02*
X138425000Y-96391300D01*
X147647900Y-87168400D02*
X147647900Y-80434000D01*
X148681300Y-65529100D02*
X149078100Y-65925900D01*
X147647900Y-80434000D02*
X147355200Y-80141300D01*
X148681300Y-65529100D02*
X148681300Y-50658700D01*
X147355200Y-70898800D02*
X149078100Y-69175900D01*
X138425000Y-96391300D02*
X147647900Y-87168400D01*
%TO.N,/A5*%
X163149735Y-31852535D02*
X164887100Y-33589900D01*
X113025000Y-97885000D02*
X110464100Y-95324100D01*
X110464100Y-35223800D02*
X113658400Y-32029500D01*
X163147465Y-31852535D02*
X163149735Y-31852535D01*
X113025000Y-97893000D02*
X113025000Y-97885000D01*
X110464100Y-95324100D02*
X110464100Y-35223800D01*
X164887100Y-33589900D02*
X164887100Y-35087100D01*
X164887100Y-35087100D02*
X165840000Y-36040000D01*
%TO.N,/D24*%
X196380500Y-96399400D02*
X196380500Y-56512200D01*
X192544200Y-100235700D02*
X196380500Y-96399400D01*
X184145000Y-97893000D02*
X184145000Y-99394700D01*
X184145000Y-99394700D02*
X184986000Y-100235700D01*
X184986000Y-100235700D02*
X192544200Y-100235700D01*
%TO.N,/A21*%
X154685900Y-66524400D02*
X154685900Y-52274100D01*
X154700000Y-71374800D02*
X154476900Y-71151700D01*
X154685900Y-52274100D02*
X160760000Y-46200000D01*
X154476900Y-66733400D02*
X154685900Y-66524400D01*
X154700000Y-91737900D02*
X154700000Y-71374800D01*
X150891400Y-95546500D02*
X154700000Y-91737900D01*
X154476900Y-71151700D02*
X154476900Y-66733400D01*
%TO.N,/{slash}R{slash}W*%
X133579200Y-68168500D02*
X133579200Y-65994100D01*
X165675000Y-80874600D02*
X171445000Y-75104600D01*
X135499100Y-70088400D02*
X133579200Y-68168500D01*
X165675000Y-82847500D02*
X165675000Y-80874600D01*
X133859900Y-65713500D02*
X133859900Y-64220100D01*
X186160000Y-58900000D02*
X184571000Y-60489000D01*
X136350000Y-72775000D02*
X135499100Y-71924100D01*
X133859800Y-65713500D02*
X133859900Y-65713500D01*
X133579200Y-65994100D02*
X133859800Y-65713500D01*
X184571000Y-60489000D02*
X184571000Y-61833918D01*
X183904918Y-62500000D02*
X183000000Y-62500000D01*
X182500000Y-63978000D02*
X171445000Y-75033000D01*
X133859900Y-64220100D02*
X134460000Y-63620000D01*
X183000000Y-62500000D02*
X182500000Y-63000000D01*
X184571000Y-61833918D02*
X183904918Y-62500000D01*
X182500000Y-63000000D02*
X182500000Y-63978000D01*
X135499100Y-71924100D02*
X135499100Y-70088400D01*
X164482500Y-84040000D02*
X165675000Y-82847500D01*
%TO.N,/{slash}VPA*%
X136714100Y-64688700D02*
X139453500Y-64688700D01*
X135965300Y-63939900D02*
X136714100Y-64688700D01*
X140572700Y-73139000D02*
X140965000Y-73531300D01*
X135965300Y-62585300D02*
X135965300Y-63939900D01*
X134460000Y-61080000D02*
X135965300Y-62585300D01*
X140572700Y-65807900D02*
X140572700Y-73139000D01*
X140965000Y-75033000D02*
X140965000Y-73531300D01*
X139453500Y-64688700D02*
X140572700Y-65807900D01*
%TO.N,/D30*%
X171044800Y-94251500D02*
X168905000Y-96391300D01*
X187300000Y-57500000D02*
X186160000Y-56360000D01*
X187303200Y-57500000D02*
X187300000Y-57500000D01*
X186404918Y-60000000D02*
X187303200Y-59101718D01*
X186000000Y-60000000D02*
X186404918Y-60000000D01*
X175396600Y-76231800D02*
X171044800Y-80583600D01*
X187303200Y-59101718D02*
X187303200Y-57500000D01*
X185186600Y-60813400D02*
X186000000Y-60000000D01*
X185186600Y-63771700D02*
X185186600Y-60813400D01*
X171044800Y-80583600D02*
X171044800Y-94251500D01*
X168905000Y-96391300D02*
X168905000Y-97893000D01*
X175396600Y-73561700D02*
X175396600Y-76231800D01*
X185186600Y-63771700D02*
X175396600Y-73561700D01*
%TO.N,/A22*%
X162349000Y-49691000D02*
X163300000Y-48740000D01*
X159100600Y-73231700D02*
X159100600Y-55280900D01*
X159801800Y-73932900D02*
X159100600Y-73231700D01*
X159801800Y-80345700D02*
X160354600Y-80898500D01*
X159100600Y-55280900D02*
X159809000Y-54572500D01*
X160809000Y-49691000D02*
X162349000Y-49691000D01*
X162360000Y-98811800D02*
X161751000Y-99420800D01*
X159809000Y-50691000D02*
X160809000Y-49691000D01*
X161942500Y-89120000D02*
X160354600Y-87532100D01*
X162360000Y-98811800D02*
X162360000Y-89537500D01*
X161751000Y-99420800D02*
X160272800Y-99420800D01*
X160354600Y-87532100D02*
X160354600Y-80898500D01*
X160272800Y-99420800D02*
X158745000Y-97893000D01*
X162360000Y-89537500D02*
X161942500Y-89120000D01*
X159809000Y-54572500D02*
X159809000Y-50691000D01*
X159801800Y-80345700D02*
X159801800Y-73932900D01*
%TO.N,/A8*%
X128883600Y-38921318D02*
X128883600Y-35519600D01*
X123859700Y-46984700D02*
X123859700Y-43140300D01*
X130365500Y-34037700D02*
X136782700Y-34037700D01*
X136782700Y-34037700D02*
X137744900Y-34999900D01*
X128883600Y-35519600D02*
X130365500Y-34037700D01*
X121331400Y-49513000D02*
X123859700Y-46984700D01*
X121331400Y-66395300D02*
X121331400Y-49513000D01*
X120645000Y-96391300D02*
X119250000Y-94996300D01*
X119250000Y-94996300D02*
X119250000Y-68476700D01*
X125304918Y-42500000D02*
X128883600Y-38921318D01*
X124500000Y-42500000D02*
X125304918Y-42500000D01*
X119250000Y-68476700D02*
X121331400Y-66395300D01*
X120645000Y-97893000D02*
X120645000Y-96391300D01*
X123859700Y-43140300D02*
X124500000Y-42500000D01*
%TO.N,/A18*%
X164882800Y-76533200D02*
X164882800Y-69746800D01*
X166840700Y-47200700D02*
X165840000Y-46200000D01*
X159696400Y-81196400D02*
X159346400Y-81546400D01*
X162496000Y-80000000D02*
X162496000Y-78920000D01*
X166840700Y-67788900D02*
X166840700Y-47200700D01*
X164882800Y-69746800D02*
X166840700Y-67788900D01*
X159346400Y-81546400D02*
X159346400Y-91653600D01*
X159346400Y-91653600D02*
X158500000Y-92500000D01*
X162496000Y-78920000D02*
X164882800Y-76533200D01*
%TO.N,/A17*%
X152838700Y-51552500D02*
X152399100Y-51992100D01*
X152399100Y-51992100D02*
X152399100Y-88998900D01*
X152838700Y-49053800D02*
X152838700Y-51552500D01*
X160760000Y-41132500D02*
X152838700Y-49053800D01*
X152399100Y-88998900D02*
X143505000Y-97893000D01*
%TO.N,/{slash}DTACK*%
X168905000Y-75033000D02*
X168905000Y-72492000D01*
X174998500Y-66398500D02*
X168905000Y-72492000D01*
X175473500Y-50794200D02*
X174998500Y-51269200D01*
X174998500Y-51269200D02*
X174998500Y-66398500D01*
%TO.N,/D27*%
X176525000Y-97893000D02*
X176525000Y-96391300D01*
X189653000Y-69894300D02*
X189653000Y-57313000D01*
X187737100Y-85179200D02*
X187737100Y-71810200D01*
X189653000Y-57313000D02*
X188700000Y-56360000D01*
X187737100Y-71810200D02*
X189653000Y-69894300D01*
X176525000Y-96391300D02*
X187737100Y-85179200D01*
%TO.N,/D23*%
X193339700Y-55978100D02*
X193827000Y-56465400D01*
X190495000Y-98601400D02*
X190495000Y-96995000D01*
X193339700Y-54720400D02*
X193339700Y-55978100D01*
X192241000Y-99394700D02*
X191288300Y-99394700D01*
X191288300Y-99394700D02*
X190495000Y-98601400D01*
X192791000Y-54171700D02*
X193339700Y-54720400D01*
X193827000Y-97808700D02*
X192241000Y-99394700D01*
X190495000Y-96995000D02*
X189750000Y-96250000D01*
X189750000Y-96250000D02*
X188270000Y-96250000D01*
X188270000Y-96250000D02*
X186660000Y-97860000D01*
X193827000Y-56465400D02*
X193827000Y-97808700D01*
%TO.N,/D21*%
X193426000Y-72081500D02*
X193007500Y-72500000D01*
X191240000Y-51280000D02*
X192191000Y-52231000D01*
X193007500Y-72500000D02*
X193007500Y-96650500D01*
X192191000Y-52231000D02*
X192191000Y-55396500D01*
X193426000Y-56631500D02*
X193426000Y-72081500D01*
X192191000Y-55396500D02*
X193426000Y-56631500D01*
X193007500Y-96650500D02*
X191765000Y-97893000D01*
%TO.N,/A16*%
X140965000Y-96391300D02*
X145318100Y-92038200D01*
X152400500Y-48641100D02*
X155496100Y-45545500D01*
X150050000Y-73958000D02*
X151284700Y-72723300D01*
X145318100Y-92038200D02*
X147728300Y-92038200D01*
X151284700Y-52456000D02*
X152400500Y-51340200D01*
X147728300Y-92038200D02*
X150050000Y-89716500D01*
X150050000Y-89716500D02*
X150050000Y-73958000D01*
X151284700Y-72723300D02*
X151284700Y-52456000D01*
X152400500Y-51340200D02*
X152400500Y-48641100D01*
X140965000Y-97893000D02*
X140965000Y-96391300D01*
%TO.N,/C8M.PDS*%
X136451800Y-55451800D02*
X137000000Y-56000000D01*
X120871700Y-64176600D02*
X119920000Y-65128300D01*
X120871700Y-60757500D02*
X120871700Y-64176600D01*
X120871600Y-60757500D02*
X120871700Y-60757500D01*
X136250000Y-52675002D02*
X136451800Y-52876802D01*
X118968300Y-58854200D02*
X120871600Y-60757500D01*
X119920000Y-66080000D02*
X119920000Y-65128300D01*
X118968300Y-50031700D02*
X118968300Y-58854200D01*
X122500000Y-46500000D02*
X118968300Y-50031700D01*
X136451800Y-52876802D02*
X136451800Y-55451800D01*
%TO.N,/D22*%
X194303900Y-97901900D02*
X192409400Y-99796400D01*
X189225000Y-99394700D02*
X189225000Y-97893000D01*
X194303900Y-52969200D02*
X194303900Y-97901900D01*
X192409400Y-99796400D02*
X189626700Y-99796400D01*
X191344700Y-50010000D02*
X194303900Y-52969200D01*
X189626700Y-99796400D02*
X189225000Y-99394700D01*
%TO.N,/A23*%
X159021600Y-54792800D02*
X159021600Y-50478400D01*
X157650000Y-64750100D02*
X158699600Y-63700500D01*
X161285000Y-96391300D02*
X161247600Y-96391300D01*
X158699600Y-55114800D02*
X159021600Y-54792800D01*
X161247600Y-96391300D02*
X157650000Y-92793700D01*
X157650000Y-92793700D02*
X157650000Y-64750100D01*
X158699600Y-63700500D02*
X158699600Y-55114800D01*
X159021600Y-50478400D02*
X160760000Y-48740000D01*
X161285000Y-97893000D02*
X161285000Y-96391300D01*
%TO.N,/{slash}VMA*%
X146396500Y-62856500D02*
X146396500Y-74681500D01*
X144620000Y-61080000D02*
X146396500Y-62856500D01*
X146396500Y-74681500D02*
X146045000Y-75033000D01*
%TO.N,/D26*%
X179065000Y-97893000D02*
X179065000Y-96391300D01*
X190057700Y-70062300D02*
X190057700Y-60082300D01*
X188138800Y-71981200D02*
X190057700Y-70062300D01*
X179065000Y-96391300D02*
X188138800Y-87317500D01*
X188138800Y-87317500D02*
X188138800Y-71981200D01*
X190057700Y-60082300D02*
X191240000Y-58900000D01*
%TO.N,/D16*%
X195670900Y-48090900D02*
X191240000Y-43660000D01*
X195670900Y-70134000D02*
X195670900Y-48090900D01*
X195304900Y-70500000D02*
X195670900Y-70134000D01*
%TO.N,/{slash}BR_00*%
X172102500Y-86580000D02*
X173054200Y-85628300D01*
X173054200Y-85628300D02*
X173054200Y-81708900D01*
X173054200Y-81708900D02*
X172557300Y-81212000D01*
%TO.N,/{slash}RESET_00*%
X148585000Y-75033000D02*
X148585000Y-87085000D01*
X148585000Y-87085000D02*
X149000000Y-87500000D01*
%TO.N,/D31*%
X168160600Y-79507600D02*
X168160600Y-94595700D01*
X168160600Y-94595700D02*
X166365000Y-96391300D01*
X166365000Y-96391300D02*
X166365000Y-97893000D01*
X169437200Y-78231000D02*
X168160600Y-79507600D01*
%TO.N,/{slash}UDS*%
X176525000Y-75033000D02*
X176525000Y-76534700D01*
X171955600Y-80962900D02*
X171955600Y-83893100D01*
X176383800Y-76534700D02*
X171955600Y-80962900D01*
X176525000Y-76534700D02*
X176383800Y-76534700D01*
%TO.N,/E*%
X143505000Y-66226800D02*
X143505000Y-75033000D01*
X141209000Y-65209000D02*
X142487200Y-65209000D01*
X142487200Y-65209000D02*
X143505000Y-66226800D01*
X137000000Y-61080000D02*
X138580000Y-61080000D01*
X140500000Y-63000000D02*
X140500000Y-64500000D01*
X138580000Y-61080000D02*
X140500000Y-63000000D01*
X140500000Y-64500000D02*
X141209000Y-65209000D01*
%TO.N,/FC0*%
X139500000Y-53532900D02*
X139500000Y-51710200D01*
X140730100Y-50480100D02*
X140730100Y-37270100D01*
X123620900Y-74597100D02*
X123185000Y-75033000D01*
X139500000Y-51710200D02*
X140730100Y-50480100D01*
X127114100Y-54000000D02*
X127114100Y-57690818D01*
X125074918Y-59730000D02*
X124770000Y-59730000D01*
X123620900Y-60879100D02*
X123620900Y-74597100D01*
X140730100Y-37270100D02*
X139460000Y-36000000D01*
X124770000Y-59730000D02*
X123620900Y-60879100D01*
X127114100Y-57690818D02*
X125074918Y-59730000D01*
%TO.N,/A7*%
X113902500Y-37537500D02*
X113902500Y-39402500D01*
X114464800Y-98729138D02*
X115129662Y-99394000D01*
X113902500Y-39402500D02*
X114500000Y-40000000D01*
X115861400Y-40861400D02*
X115861400Y-70875300D01*
X114464800Y-72271900D02*
X114464800Y-98729138D01*
X115129662Y-99394000D02*
X116604000Y-99394000D01*
X115861400Y-70875300D02*
X114464800Y-72271900D01*
X114500000Y-40000000D02*
X115000000Y-40000000D01*
X116604000Y-99394000D02*
X118105000Y-97893000D01*
X115000000Y-40000000D02*
X115861400Y-40861400D01*
X116300300Y-35139700D02*
X113902500Y-37537500D01*
%TO.N,/A11*%
X163598600Y-72697200D02*
X163598600Y-66251500D01*
X129548800Y-73303400D02*
X130071700Y-72780500D01*
X129548800Y-95107500D02*
X129548800Y-73303400D01*
X128265000Y-96391300D02*
X129548800Y-95107500D01*
X164570000Y-65280100D02*
X164570000Y-42390000D01*
X164570000Y-42390000D02*
X165840000Y-41120000D01*
X128265000Y-97893000D02*
X128265000Y-96391300D01*
X163598600Y-66251500D02*
X164570000Y-65280100D01*
%TO.N,/{slash}IPL1*%
X135425000Y-36362000D02*
X135425000Y-47141200D01*
X134146500Y-35083500D02*
X135425000Y-36362000D01*
X133345000Y-73531300D02*
X133345000Y-75033000D01*
X132607500Y-72793800D02*
X133345000Y-73531300D01*
X135425000Y-47141200D02*
X132607500Y-49958700D01*
X132607500Y-49958700D02*
X132607500Y-72793800D01*
%TO.N,/A19*%
X152176000Y-98778338D02*
X152176000Y-96411600D01*
X152176000Y-96411600D02*
X156650000Y-91937600D01*
X151560338Y-99394000D02*
X152176000Y-98778338D01*
X156650000Y-91937600D02*
X156650000Y-76466338D01*
X148585000Y-97893000D02*
X150086000Y-99394000D01*
X150086000Y-99394000D02*
X151560338Y-99394000D01*
X160760000Y-43660000D02*
X153482500Y-50937500D01*
X156650000Y-73533662D02*
X156650000Y-71906000D01*
X153482500Y-70527400D02*
X153691400Y-70736300D01*
X156650000Y-76466338D02*
X157231000Y-75885338D01*
X156650000Y-71906000D02*
X155480300Y-70736300D01*
X153482500Y-50937500D02*
X153482500Y-70527400D01*
X157231000Y-74114662D02*
X156650000Y-73533662D01*
X157231000Y-75885338D02*
X157231000Y-74114662D01*
%TO.N,/D29*%
X182843700Y-88098500D02*
X175431900Y-95510300D01*
X187195600Y-60445100D02*
X187195600Y-65583000D01*
X175431900Y-95510300D02*
X175431900Y-98382438D01*
X187102500Y-60352000D02*
X187195600Y-60445100D01*
X182843700Y-69934900D02*
X182843700Y-88098500D01*
X172946000Y-99394000D02*
X171445000Y-97893000D01*
X187195600Y-65583000D02*
X182843700Y-69934900D01*
X175431900Y-98382438D02*
X174420338Y-99394000D01*
X174420338Y-99394000D02*
X172946000Y-99394000D01*
%TO.N,/{slash}IPL2*%
X163250000Y-79253500D02*
X163250000Y-85272500D01*
X174442800Y-65758100D02*
X168527600Y-71673300D01*
X173500000Y-46750000D02*
X173500000Y-50250000D01*
X174442800Y-51192800D02*
X174442800Y-65758100D01*
X163250000Y-85272500D02*
X161942500Y-86580000D01*
X174500000Y-45750000D02*
X173500000Y-46750000D01*
X174500000Y-37540000D02*
X174500000Y-45750000D01*
X168527600Y-71673300D02*
X167526700Y-71673300D01*
X165284500Y-73915500D02*
X165284500Y-77219000D01*
X176000000Y-36040000D02*
X174500000Y-37540000D01*
X167526700Y-71673300D02*
X165284500Y-73915500D01*
X165284500Y-77219000D02*
X163250000Y-79253500D01*
X173500000Y-50250000D02*
X174442800Y-51192800D01*
%TO.N,/A3*%
X113853000Y-73000000D02*
X111269000Y-70416000D01*
X111269000Y-70416000D02*
X111269000Y-38668200D01*
X111269000Y-38668200D02*
X112645500Y-37291700D01*
X113864800Y-73000000D02*
X113853000Y-73000000D01*
%TO.N,/A13*%
X133345000Y-96391300D02*
X134439400Y-95296900D01*
X133009200Y-68366400D02*
X133009200Y-50139100D01*
X133009200Y-50139100D02*
X135933200Y-47215100D01*
X135933200Y-36870400D02*
X136025600Y-36778000D01*
X134439400Y-95296900D02*
X134439400Y-69796600D01*
X133345000Y-97893000D02*
X133345000Y-96391300D01*
X134439400Y-69796600D02*
X133009200Y-68366400D01*
X135933200Y-47215100D02*
X135933200Y-36870400D01*
%TO.N,/A10*%
X149350000Y-73853662D02*
X149611000Y-74114662D01*
X161741700Y-34481700D02*
X160760000Y-33500000D01*
X160199400Y-39991400D02*
X160709000Y-39991400D01*
X149350000Y-71385157D02*
X149350000Y-73853662D01*
X149483200Y-71251957D02*
X149350000Y-71385157D01*
X149611000Y-89290500D02*
X148218300Y-90683200D01*
X149483200Y-50707600D02*
X160199400Y-39991400D01*
X149483200Y-50707600D02*
X149483200Y-71251957D01*
X149611000Y-74114662D02*
X149611000Y-89290500D01*
X161741700Y-38958700D02*
X161741700Y-34481700D01*
X160709000Y-39991400D02*
X161741700Y-38958700D01*
%TO.N,/A14*%
X167289600Y-70882600D02*
X165979000Y-72193200D01*
X144531000Y-87745300D02*
X135885000Y-96391300D01*
X135885000Y-96391300D02*
X135885000Y-97893000D01*
X166221500Y-40120000D02*
X167289600Y-41188100D01*
X164300000Y-40120000D02*
X166221500Y-40120000D01*
X167289600Y-41188100D02*
X167289600Y-70882600D01*
X145382300Y-71894200D02*
X144531000Y-72745500D01*
X144531000Y-75885338D02*
X144531000Y-87745300D01*
X163300000Y-41120000D02*
X164300000Y-40120000D01*
X144531000Y-72745500D02*
X144531000Y-75885338D01*
%TO.N,/D17*%
X187335900Y-47564100D02*
X188700000Y-46200000D01*
X187704200Y-65642600D02*
X187704200Y-50486100D01*
X184145000Y-75033000D02*
X184145000Y-69201800D01*
X187335900Y-50117800D02*
X187335900Y-47564100D01*
X187704200Y-50486100D02*
X187335900Y-50117800D01*
X184145000Y-69201800D02*
X187704200Y-65642600D01*
%TO.N,/FC2*%
X128265000Y-72985200D02*
X129901000Y-71349200D01*
X167933400Y-64426600D02*
X167933400Y-70945000D01*
X130531800Y-34439400D02*
X130000000Y-34971200D01*
X129901000Y-56947700D02*
X129901000Y-71349200D01*
X128265000Y-75033000D02*
X128265000Y-72985200D01*
X130000000Y-34971200D02*
X130000000Y-37517900D01*
X168380000Y-63980000D02*
X167933400Y-64426600D01*
X132057500Y-54791200D02*
X129901000Y-56947700D01*
X129284600Y-38233300D02*
X129284600Y-46635800D01*
X135359400Y-34439400D02*
X130531800Y-34439400D01*
X136920000Y-36000000D02*
X135359400Y-34439400D01*
X129284600Y-46635800D02*
X132057500Y-49408700D01*
X132057500Y-49408700D02*
X132057500Y-54791200D01*
X130000000Y-37517900D02*
X129284600Y-38233300D01*
%TO.N,/FC1*%
X127972200Y-70816000D02*
X125725000Y-73063200D01*
X147676400Y-69192300D02*
X147676400Y-67961100D01*
X146899700Y-62004000D02*
X144936200Y-60040500D01*
X125725000Y-73063200D02*
X125725000Y-75033000D01*
X146899700Y-67184400D02*
X146899700Y-62004000D01*
X147036300Y-69832400D02*
X147676400Y-69192300D01*
X147676400Y-67961100D02*
X146899700Y-67184400D01*
X139629200Y-60040500D02*
X138451800Y-58863100D01*
X138451800Y-58863100D02*
X138451800Y-39548200D01*
X138451800Y-39548200D02*
X139460000Y-38540000D01*
X144936200Y-60040500D02*
X139629200Y-60040500D01*
%TO.N,/D28*%
X185051900Y-64743800D02*
X180123400Y-69672300D01*
X173985000Y-96389200D02*
X173985000Y-97893000D01*
X180123400Y-90250800D02*
X173985000Y-96389200D01*
X185066600Y-64743800D02*
X185051900Y-64743800D01*
X180123400Y-69672300D02*
X180123400Y-90250800D01*
%TO.N,/{slash}LDS*%
X173985000Y-76534700D02*
X169562500Y-80957200D01*
X173985000Y-75033000D02*
X173985000Y-76534700D01*
%TO.N,/D25*%
X181605000Y-97893000D02*
X181605000Y-96391300D01*
X192601100Y-64800600D02*
X192200900Y-65200800D01*
X192601100Y-58344200D02*
X192601100Y-64800600D01*
X190572800Y-87423500D02*
X181605000Y-96391300D01*
X192200900Y-65200800D02*
X192200900Y-69467600D01*
X192200900Y-69467600D02*
X190572800Y-71095700D01*
X191240000Y-56360000D02*
X191240000Y-56983100D01*
X191240000Y-56983100D02*
X192601100Y-58344200D01*
X190572800Y-71095700D02*
X190572800Y-87423500D01*
%TO.N,/{slash}IPL0*%
X130805000Y-72517900D02*
X131443900Y-71879000D01*
X177576300Y-50625600D02*
X177576300Y-34463700D01*
X149986600Y-52650000D02*
X149986600Y-71598500D01*
X151798800Y-50837800D02*
X149986600Y-52650000D01*
X177576300Y-34463700D02*
X178540000Y-33500000D01*
X177882500Y-50931800D02*
X177576300Y-50625600D01*
X130805000Y-75033000D02*
X130805000Y-72517900D01*
%TO.N,/D18*%
X195352450Y-72147550D02*
X194704900Y-71500000D01*
X194704900Y-71500000D02*
X194704900Y-49664900D01*
X194704900Y-49664900D02*
X191240000Y-46200000D01*
%TO.N,/D19*%
X189225000Y-75033000D02*
X189225000Y-71675300D01*
X192199400Y-64434200D02*
X192199400Y-58513400D01*
X189651700Y-56651700D02*
X190500000Y-57500000D01*
X189651700Y-50885700D02*
X188766000Y-50000000D01*
X187736900Y-49500000D02*
X187736900Y-48263100D01*
X191186000Y-57500000D02*
X192199400Y-58513400D01*
X187736900Y-48263100D02*
X188500000Y-47500000D01*
X188500000Y-47500000D02*
X190000000Y-47500000D01*
X190000000Y-47500000D02*
X191240000Y-48740000D01*
X189651700Y-50885700D02*
X189651700Y-56651700D01*
X188766000Y-50000000D02*
X188236900Y-50000000D01*
X190500000Y-57500000D02*
X191186000Y-57500000D01*
X191651500Y-69248800D02*
X191651500Y-64982100D01*
X189225000Y-71675300D02*
X191651500Y-69248800D01*
X188236900Y-50000000D02*
X187736900Y-49500000D01*
X191651500Y-64982100D02*
X192199400Y-64434200D01*
%TO.N,/A1*%
X123620338Y-76534000D02*
X122146000Y-76534000D01*
X122146000Y-76534000D02*
X120645000Y-75033000D01*
X124400000Y-75754338D02*
X123620338Y-76534000D01*
X124400000Y-67183000D02*
X124400000Y-75754338D01*
X157978600Y-54984900D02*
X158419900Y-54543600D01*
X124876400Y-66706600D02*
X124400000Y-67183000D01*
X157978600Y-63500500D02*
X157978600Y-54984900D01*
%TO.N,/A20*%
X155280300Y-66498000D02*
X155280300Y-52850300D01*
X155280300Y-52850300D02*
X160660600Y-47470000D01*
X155100000Y-92416300D02*
X155100000Y-71206800D01*
X162030000Y-47470000D02*
X163300000Y-46200000D01*
X160660600Y-47470000D02*
X162030000Y-47470000D01*
X151125000Y-96391300D02*
X155100000Y-92416300D01*
X155100000Y-71206800D02*
X154878600Y-70985400D01*
X151125000Y-97893000D02*
X151125000Y-96391300D01*
X154878600Y-70985400D02*
X154878600Y-66899700D01*
X154878600Y-66899700D02*
X155280300Y-66498000D01*
%TO.N,/A4*%
X113025000Y-75033000D02*
X113025000Y-73531300D01*
X110867300Y-35712400D02*
X111456600Y-35123100D01*
X113025000Y-73531300D02*
X110867300Y-71373600D01*
X110867300Y-71373600D02*
X110867300Y-35712400D01*
%TO.N,/{slash}DSACK1*%
X177300000Y-56900000D02*
X178300000Y-55900000D01*
X176000000Y-61440000D02*
X177300000Y-60140000D01*
X177300000Y-60140000D02*
X177300000Y-56900000D01*
%TO.N,/{slash}RESET_30*%
X133460900Y-56868800D02*
X133460900Y-61550000D01*
X134260600Y-56069100D02*
X133460900Y-56868800D01*
X134004450Y-62093550D02*
X134906450Y-62093550D01*
X137000000Y-82000000D02*
X138500000Y-83500000D01*
X176875000Y-30250000D02*
X174750000Y-32375000D01*
X137000000Y-69500000D02*
X137000000Y-82000000D01*
X169550100Y-69419900D02*
X169550100Y-69799900D01*
X137000000Y-66160000D02*
X135420000Y-64580000D01*
X174750000Y-32375000D02*
X174750000Y-34750000D01*
X174750000Y-34750000D02*
X173460000Y-36040000D01*
X172391700Y-66578300D02*
X169550100Y-69419900D01*
X134906450Y-62093550D02*
X135420000Y-62607100D01*
X172391700Y-37108300D02*
X172391700Y-66578300D01*
X137000000Y-69500000D02*
X137000000Y-66160000D01*
X173460000Y-36040000D02*
X172391700Y-37108300D01*
X135420000Y-62607100D02*
X135420000Y-64580000D01*
X133460900Y-61550000D02*
X134004450Y-62093550D01*
D18*
%TO.N,/P2.A17*%
X135754400Y-67634300D02*
X135196800Y-67634300D01*
X135196800Y-67634300D02*
X134562500Y-67000000D01*
D20*
%TO.N,/{slash}AS_30*%
X182100000Y-57000000D02*
X181000000Y-55900000D01*
X181080000Y-61440000D02*
X182100000Y-60420000D01*
X182100000Y-60420000D02*
X182100000Y-57000000D01*
%TO.N,/P3.B10*%
X131500000Y-35500000D02*
X133100000Y-37100000D01*
X133100000Y-39800000D02*
X134380000Y-41080000D01*
X133100000Y-37100000D02*
X133100000Y-39800000D01*
%TO.N,/FPUSENSE*%
X125000000Y-57089200D02*
X123634200Y-58455000D01*
X125000000Y-56125000D02*
X125000000Y-57089200D01*
X123634200Y-59825800D02*
X122460000Y-61000000D01*
X123634200Y-58455000D02*
X123634200Y-59825800D01*
%TO.N,/CDIS*%
X114840000Y-58460000D02*
X115243700Y-58056300D01*
X113490800Y-43957500D02*
X113490800Y-35802100D01*
X115301000Y-45668214D02*
X114831786Y-45199000D01*
X115243700Y-58056300D02*
X115243700Y-46389086D01*
X115243700Y-46389086D02*
X115301000Y-46331786D01*
X180000000Y-37500000D02*
X178540000Y-36040000D01*
X113490800Y-35802100D02*
X119500000Y-29792900D01*
X114831786Y-45199000D02*
X114732300Y-45199000D01*
X114732300Y-45199000D02*
X113490800Y-43957500D01*
X115301000Y-46331786D02*
X115301000Y-45668214D01*
X181000000Y-41337500D02*
X180000000Y-40337500D01*
X180000000Y-40337500D02*
X180000000Y-37500000D01*
%TO.N,/{slash}MMUDIS*%
X169375000Y-32000000D02*
X171960000Y-32000000D01*
X171960000Y-32000000D02*
X173460000Y-33500000D01*
X167625000Y-30250000D02*
X169375000Y-32000000D01*
%TO.N,/{slash}BGACK_30*%
X169650000Y-67010500D02*
X168851000Y-67809500D01*
X169650000Y-61922800D02*
X169650000Y-67010500D01*
%TO.N,/{slash}BERR_30*%
X162135300Y-61839900D02*
X162135300Y-69583900D01*
X162135300Y-69583900D02*
X162559600Y-70008200D01*
D21*
%TO.N,/{slash}EXT.DTK*%
X131500000Y-43625000D02*
X134375000Y-43625000D01*
D20*
%TO.N,/C16M*%
X116458000Y-39760400D02*
X116458000Y-37302000D01*
X117674100Y-40328100D02*
X117025600Y-40328100D01*
X116458000Y-37302000D02*
X117420000Y-36340000D01*
X116458000Y-39760400D02*
X117025600Y-40328000D01*
X118371700Y-41025700D02*
X117674100Y-40328100D01*
X119920000Y-63540000D02*
X118371700Y-61991700D01*
X117025600Y-40328100D02*
X117025600Y-40328000D01*
X118371700Y-61991700D02*
X118371700Y-41025700D01*
%TO.N,/SIZ1*%
X179491000Y-64009000D02*
X179491000Y-64829800D01*
X182669000Y-61831000D02*
X181471000Y-63029000D01*
X183620000Y-58900000D02*
X182669000Y-59851000D01*
X170051400Y-75931100D02*
X164482500Y-81500000D01*
X179491000Y-64829800D02*
X170051400Y-74269400D01*
X181471000Y-63029000D02*
X180471000Y-63029000D01*
X170051400Y-74269400D02*
X170051400Y-75931100D01*
X180471000Y-63029000D02*
X179491000Y-64009000D01*
X182669000Y-59851000D02*
X182669000Y-61831000D01*
%TO.N,/{slash}CIIN*%
X148279600Y-68729900D02*
X148279600Y-49283800D01*
X148476400Y-68926700D02*
X148279600Y-68729900D01*
X186160000Y-63980000D02*
X186160000Y-64622800D01*
X186160000Y-64622800D02*
X181613500Y-69169300D01*
X148279600Y-49283800D02*
X148014200Y-49018400D01*
X180943300Y-86661000D02*
X181000000Y-86604300D01*
X180529000Y-70117500D02*
X180529000Y-86246700D01*
X181613500Y-69169300D02*
X181477200Y-69169300D01*
X181477200Y-69169300D02*
X180529000Y-70117500D01*
X180529000Y-86246700D02*
X180943300Y-86661000D01*
%TO.N,/SIZ0*%
X188892000Y-66800000D02*
X188892000Y-67801700D01*
X185400000Y-82381100D02*
X184109000Y-83672100D01*
X188892000Y-67801700D02*
X185400000Y-71293700D01*
X185400000Y-71293700D02*
X185400000Y-82381100D01*
%TO.N,/A0*%
X161694000Y-88169000D02*
X164876418Y-88169000D01*
X160203600Y-73566500D02*
X160203600Y-80179500D01*
X160756300Y-87231300D02*
X161694000Y-88169000D01*
X165500000Y-88792582D02*
X165500000Y-90642500D01*
X160760000Y-61440000D02*
X159803400Y-62396600D01*
X160203600Y-80179500D02*
X160756300Y-80732200D01*
X159803400Y-62396600D02*
X159803400Y-73166300D01*
X159803400Y-73166300D02*
X160203600Y-73566500D01*
X160756300Y-80732200D02*
X160756300Y-87231300D01*
X164876418Y-88169000D02*
X165500000Y-88792582D01*
X165500000Y-90642500D02*
X164482500Y-91660000D01*
%TO.N,/{slash}FPUCS*%
X125000000Y-61000000D02*
X131449000Y-54551000D01*
X131449000Y-54551000D02*
X131449000Y-49904400D01*
%TO.N,/NOFC*%
X143283500Y-44876500D02*
X143283500Y-53317100D01*
X144540000Y-43620000D02*
X143283500Y-44876500D01*
X140668500Y-57411500D02*
X139540000Y-58540000D01*
X143283500Y-53317100D02*
X140668500Y-55932100D01*
X140668500Y-55932100D02*
X140668500Y-57411500D01*
%TO.N,/{slash}SCC.RW.DEC*%
X122460000Y-49011700D02*
X122460000Y-55920000D01*
X124661900Y-46809800D02*
X122460000Y-49011700D01*
X124661900Y-45460400D02*
X124661900Y-46809800D01*
%TO.N,/{slash}DTACK_SYS+EX*%
X137993300Y-57546700D02*
X137000000Y-58540000D01*
X136920000Y-43620000D02*
X137993300Y-44693300D01*
X137993300Y-44693300D02*
X137993300Y-57546700D01*
%TO.N,/N$7*%
X139540000Y-79822400D02*
X139540000Y-66160000D01*
X140358800Y-80641200D02*
X139540000Y-79822400D01*
%TO.N,Net-(U7-I4)*%
X117420000Y-38880000D02*
X122500000Y-43960000D01*
%TD*%
%TA.AperFunction,Conductor*%
%TO.N,GND*%
G36*
X144070564Y-51208999D02*
G01*
X144723858Y-51384603D01*
X144730958Y-51390060D01*
X144732120Y-51398939D01*
X144729094Y-51404175D01*
X144392569Y-51740700D01*
X144386070Y-51743992D01*
X144069571Y-51792541D01*
X144060874Y-51790408D01*
X144056326Y-51783281D01*
X143999756Y-51501598D01*
X143999757Y-51496988D01*
X144056061Y-51217983D01*
X144061056Y-51210553D01*
X144069843Y-51208830D01*
X144070564Y-51208999D01*
G37*
%TD.AperFunction*%
%TD*%
%TA.AperFunction,Conductor*%
%TO.N,GND*%
G36*
X114008267Y-70132279D02*
G01*
X114008279Y-70132291D01*
X114655939Y-70780930D01*
X114659360Y-70789206D01*
X114657592Y-70795381D01*
X114253434Y-71444484D01*
X114246152Y-71449696D01*
X114243502Y-71450000D01*
X113756498Y-71450000D01*
X113748225Y-71446573D01*
X113746566Y-71444484D01*
X113342407Y-70795381D01*
X113340943Y-70786547D01*
X113344060Y-70780930D01*
X113991721Y-70132291D01*
X113999991Y-70128858D01*
X114008267Y-70132279D01*
G37*
%TD.AperFunction*%
%TD*%
%TA.AperFunction,Conductor*%
%TO.N,GND*%
G36*
X114247500Y-70909191D02*
G01*
X114250887Y-70916501D01*
X114293379Y-71431104D01*
X114290645Y-71439631D01*
X114284039Y-71443535D01*
X114002320Y-71500530D01*
X113997680Y-71500530D01*
X113715960Y-71443535D01*
X113708531Y-71438535D01*
X113706620Y-71431104D01*
X113749113Y-70916501D01*
X113753209Y-70908538D01*
X113760773Y-70905764D01*
X114239227Y-70905764D01*
X114247500Y-70909191D01*
G37*
%TD.AperFunction*%
%TD*%
%TA.AperFunction,Conductor*%
%TO.N,GND*%
G36*
X176508267Y-83632279D02*
G01*
X176508279Y-83632291D01*
X177155939Y-84280930D01*
X177159360Y-84289206D01*
X177157592Y-84295381D01*
X176753434Y-84944484D01*
X176746152Y-84949696D01*
X176743502Y-84950000D01*
X176256498Y-84950000D01*
X176248225Y-84946573D01*
X176246566Y-84944484D01*
X175842407Y-84295381D01*
X175840943Y-84286547D01*
X175844060Y-84280930D01*
X176491721Y-83632291D01*
X176499991Y-83628858D01*
X176508267Y-83632279D01*
G37*
%TD.AperFunction*%
%TD*%
%TA.AperFunction,Conductor*%
%TO.N,GND*%
G36*
X176747500Y-84409191D02*
G01*
X176750887Y-84416501D01*
X176793379Y-84931104D01*
X176790645Y-84939631D01*
X176784039Y-84943535D01*
X176502320Y-85000530D01*
X176497680Y-85000530D01*
X176215960Y-84943535D01*
X176208531Y-84938535D01*
X176206620Y-84931104D01*
X176249113Y-84416501D01*
X176253209Y-84408538D01*
X176260773Y-84405764D01*
X176739227Y-84405764D01*
X176747500Y-84409191D01*
G37*
%TD.AperFunction*%
%TD*%
%TA.AperFunction,Conductor*%
%TO.N,GND*%
G36*
X114008267Y-50632279D02*
G01*
X114008279Y-50632291D01*
X114655939Y-51280930D01*
X114659360Y-51289206D01*
X114657592Y-51295381D01*
X114253434Y-51944484D01*
X114246152Y-51949696D01*
X114243502Y-51950000D01*
X113756498Y-51950000D01*
X113748225Y-51946573D01*
X113746566Y-51944484D01*
X113342407Y-51295381D01*
X113340943Y-51286547D01*
X113344060Y-51280930D01*
X113991721Y-50632291D01*
X113999991Y-50628858D01*
X114008267Y-50632279D01*
G37*
%TD.AperFunction*%
%TD*%
%TA.AperFunction,Conductor*%
%TO.N,GND*%
G36*
X114247500Y-51659191D02*
G01*
X114250887Y-51666501D01*
X114293379Y-52181104D01*
X114290645Y-52189631D01*
X114284039Y-52193535D01*
X114002320Y-52250530D01*
X113997680Y-52250530D01*
X113715960Y-52193535D01*
X113708531Y-52188535D01*
X113706620Y-52181104D01*
X113749113Y-51666501D01*
X113753209Y-51658538D01*
X113760773Y-51655764D01*
X114239227Y-51655764D01*
X114247500Y-51659191D01*
G37*
%TD.AperFunction*%
%TD*%
%TA.AperFunction,Conductor*%
%TO.N,GND*%
G36*
X144330944Y-51256642D02*
G01*
X145732598Y-51833223D01*
X145738945Y-51839539D01*
X145739137Y-51848057D01*
X145503467Y-52493243D01*
X145497409Y-52499838D01*
X145493856Y-52500847D01*
X144609469Y-52605816D01*
X144600850Y-52603389D01*
X144596989Y-52597893D01*
X144315396Y-51751799D01*
X144314797Y-51748104D01*
X144314797Y-51267463D01*
X144318224Y-51259190D01*
X144326497Y-51255763D01*
X144330944Y-51256642D01*
G37*
%TD.AperFunction*%
%TD*%
%TA.AperFunction,Conductor*%
%TO.N,GND*%
G36*
X170257579Y-48258147D02*
G01*
X170258909Y-48259477D01*
X171243944Y-49417878D01*
X171246693Y-49426400D01*
X171244391Y-49432477D01*
X170503510Y-50420320D01*
X170495805Y-50424882D01*
X170494150Y-50425000D01*
X170005850Y-50425000D01*
X169997577Y-50421573D01*
X169996490Y-50420320D01*
X169255608Y-49432477D01*
X169253386Y-49423802D01*
X169256053Y-49417880D01*
X170241088Y-48259480D01*
X170249057Y-48255398D01*
X170257579Y-48258147D01*
G37*
%TD.AperFunction*%
%TD*%
%TA.AperFunction,Conductor*%
%TO.N,GND*%
G36*
X170500649Y-50850217D02*
G01*
X170503079Y-50853763D01*
X170664182Y-51218561D01*
X170664389Y-51227514D01*
X170660006Y-51232998D01*
X170420665Y-51393880D01*
X170416383Y-51395653D01*
X170135840Y-51450503D01*
X170127063Y-51448727D01*
X170122134Y-51441374D01*
X170002887Y-50860844D01*
X170004579Y-50852051D01*
X170011994Y-50847029D01*
X170014348Y-50846790D01*
X170492376Y-50846790D01*
X170500649Y-50850217D01*
G37*
%TD.AperFunction*%
%TD*%
%TA.AperFunction,Conductor*%
%TO.N,GND*%
G36*
X136257338Y-50008806D02*
G01*
X136997288Y-50896745D01*
X137000000Y-50904235D01*
X137000000Y-51095764D01*
X136997288Y-51103254D01*
X136257338Y-51991193D01*
X136249409Y-51995355D01*
X136241045Y-51992842D01*
X136238982Y-51991193D01*
X135010431Y-51009137D01*
X135006109Y-51001297D01*
X135008598Y-50992695D01*
X135010428Y-50990864D01*
X136241047Y-50007156D01*
X136249647Y-50004668D01*
X136257338Y-50008806D01*
G37*
%TD.AperFunction*%
%TD*%
%TA.AperFunction,Conductor*%
%TO.N,GND*%
G36*
X136937655Y-50710792D02*
G01*
X136943696Y-50717402D01*
X136944165Y-50719070D01*
X137000530Y-50997680D01*
X137000530Y-51002320D01*
X136944165Y-51280929D01*
X136939165Y-51288358D01*
X136930377Y-51290077D01*
X136928709Y-51289608D01*
X136413476Y-51102796D01*
X136406866Y-51096755D01*
X136405764Y-51091797D01*
X136405764Y-50908202D01*
X136409191Y-50899929D01*
X136413473Y-50897204D01*
X136928711Y-50710391D01*
X136937655Y-50710792D01*
G37*
%TD.AperFunction*%
%TD*%
%TA.AperFunction,Conductor*%
%TO.N,VCC*%
G36*
X133189261Y-41459524D02*
G01*
X133193648Y-41466518D01*
X133250030Y-41745210D01*
X133248311Y-41753998D01*
X133248272Y-41754057D01*
X133089918Y-41989638D01*
X133082459Y-41994592D01*
X133073681Y-41992821D01*
X133073589Y-41992759D01*
X132688379Y-41728485D01*
X132683496Y-41720979D01*
X132683298Y-41718837D01*
X132683298Y-41535214D01*
X132686725Y-41526941D01*
X132693418Y-41523621D01*
X133180601Y-41457245D01*
X133189261Y-41459524D01*
G37*
%TD.AperFunction*%
%TD*%
%TA.AperFunction,Conductor*%
%TO.N,VCC*%
G36*
X132398583Y-40463973D02*
G01*
X132402108Y-40470095D01*
X132633154Y-41523759D01*
X132633426Y-41526265D01*
X132633426Y-41707723D01*
X132629999Y-41715996D01*
X132621726Y-41719423D01*
X132617383Y-41718587D01*
X131237178Y-41166887D01*
X131230768Y-41160634D01*
X131230657Y-41151680D01*
X131230702Y-41151568D01*
X131496156Y-40506906D01*
X131502475Y-40500561D01*
X131506458Y-40499672D01*
X132390167Y-40460912D01*
X132398583Y-40463973D01*
G37*
%TD.AperFunction*%
%TD*%
%TA.AperFunction,Conductor*%
%TO.N,VCC*%
G36*
X127438312Y-50710162D02*
G01*
X127443769Y-50717262D01*
X127443939Y-50717985D01*
X127500241Y-50996984D01*
X127500243Y-51001602D01*
X127443673Y-51283280D01*
X127438684Y-51290716D01*
X127430428Y-51292541D01*
X127113929Y-51243992D01*
X127107430Y-51240700D01*
X126770905Y-50904175D01*
X126767478Y-50895902D01*
X126770905Y-50887629D01*
X126776139Y-50884603D01*
X127429433Y-50709000D01*
X127438312Y-50710162D01*
G37*
%TD.AperFunction*%
%TD*%
%TA.AperFunction,Conductor*%
%TO.N,VCC*%
G36*
X176751775Y-79178427D02*
G01*
X176753434Y-79180516D01*
X177157592Y-79829618D01*
X177159056Y-79838452D01*
X177155939Y-79844069D01*
X176508279Y-80492708D01*
X176500009Y-80496141D01*
X176491733Y-80492720D01*
X176491721Y-80492708D01*
X175844060Y-79844069D01*
X175840639Y-79835793D01*
X175842406Y-79829619D01*
X176246566Y-79180516D01*
X176253848Y-79175304D01*
X176256498Y-79175000D01*
X176743502Y-79175000D01*
X176751775Y-79178427D01*
G37*
%TD.AperFunction*%
%TD*%
%TA.AperFunction,Conductor*%
%TO.N,VCC*%
G36*
X176784039Y-79056464D02*
G01*
X176791468Y-79061464D01*
X176793379Y-79068895D01*
X176750887Y-79583499D01*
X176746791Y-79591462D01*
X176739227Y-79594236D01*
X176260773Y-79594236D01*
X176252500Y-79590809D01*
X176249113Y-79583499D01*
X176206620Y-79068895D01*
X176209354Y-79060368D01*
X176215959Y-79056464D01*
X176497682Y-78999469D01*
X176502318Y-78999469D01*
X176784039Y-79056464D01*
G37*
%TD.AperFunction*%
%TD*%
%TA.AperFunction,Conductor*%
%TO.N,VCC*%
G36*
X173094085Y-29619879D02*
G01*
X173742251Y-30241188D01*
X173745852Y-30249387D01*
X173742601Y-30257730D01*
X173742593Y-30257739D01*
X173095735Y-30931118D01*
X173087532Y-30934711D01*
X173079192Y-30931451D01*
X173079059Y-30931321D01*
X172623743Y-30479809D01*
X172280572Y-30136638D01*
X172277145Y-30128365D01*
X172280572Y-30120092D01*
X172282619Y-30118460D01*
X173079773Y-29618413D01*
X173088601Y-29616920D01*
X173094085Y-29619879D01*
G37*
%TD.AperFunction*%
%TD*%
%TA.AperFunction,Conductor*%
%TO.N,VCC*%
G36*
X114061310Y-46101780D02*
G01*
X114062213Y-46102594D01*
X114406586Y-46446967D01*
X114788475Y-46828427D01*
X114791906Y-46836698D01*
X114788484Y-46844974D01*
X114787683Y-46845704D01*
X114008302Y-47493222D01*
X113999748Y-47495873D01*
X113991826Y-47491700D01*
X113991818Y-47491690D01*
X113455632Y-46844886D01*
X113452990Y-46836330D01*
X113455552Y-46830049D01*
X113456868Y-46828427D01*
X114044856Y-46103495D01*
X114052726Y-46099230D01*
X114061310Y-46101780D01*
G37*
%TD.AperFunction*%
%TD*%
%TA.AperFunction,Conductor*%
%TO.N,VCC*%
G36*
X131251029Y-67910654D02*
G01*
X131589345Y-68248970D01*
X131592772Y-68257243D01*
X131589998Y-68264807D01*
X131256166Y-68658734D01*
X131248203Y-68662830D01*
X131240772Y-68660919D01*
X131001265Y-68502015D01*
X130997984Y-68498734D01*
X130839080Y-68259227D01*
X130837361Y-68250439D01*
X130841264Y-68243834D01*
X131235192Y-67910000D01*
X131243719Y-67907267D01*
X131251029Y-67910654D01*
G37*
%TD.AperFunction*%
%TD*%
%TA.AperFunction,Conductor*%
%TO.N,VCC*%
G36*
X125960269Y-51698354D02*
G01*
X126302220Y-52040305D01*
X126305647Y-52048578D01*
X126304767Y-52053029D01*
X125903113Y-53029347D01*
X125896796Y-53035695D01*
X125891823Y-53036587D01*
X125006779Y-53001007D01*
X124998650Y-52997250D01*
X124996434Y-52993779D01*
X124729652Y-52347360D01*
X124729663Y-52338406D01*
X124735024Y-52332541D01*
X125946559Y-51696268D01*
X125955474Y-51695456D01*
X125960269Y-51698354D01*
G37*
%TD.AperFunction*%
%TD*%
%TA.AperFunction,Conductor*%
%TO.N,VCC*%
G36*
X131443312Y-67012091D02*
G01*
X131446805Y-67016212D01*
X131892266Y-67892769D01*
X131892960Y-67901697D01*
X131890460Y-67905977D01*
X131269126Y-68583676D01*
X131261009Y-68587458D01*
X131252595Y-68584393D01*
X131252229Y-68584042D01*
X130909052Y-68240865D01*
X130906425Y-68236845D01*
X130777341Y-67906000D01*
X130777527Y-67897049D01*
X130778815Y-67894818D01*
X131426954Y-67014575D01*
X131434618Y-67009946D01*
X131443312Y-67012091D01*
G37*
%TD.AperFunction*%
%TD*%
%TA.AperFunction,Conductor*%
%TO.N,VCC*%
G36*
X183097784Y-55142331D02*
G01*
X183972434Y-55812885D01*
X183976914Y-55820638D01*
X183975053Y-55828655D01*
X183623404Y-56356657D01*
X183615966Y-56361643D01*
X183615941Y-56361648D01*
X183615934Y-56361650D01*
X182993438Y-56484645D01*
X182984657Y-56482887D01*
X182979813Y-56475975D01*
X182737675Y-55496055D01*
X182739017Y-55487201D01*
X182740756Y-55484979D01*
X183082393Y-55143342D01*
X183090665Y-55139916D01*
X183097784Y-55142331D01*
G37*
%TD.AperFunction*%
%TD*%
%TA.AperFunction,Conductor*%
%TO.N,VCC*%
G36*
X181008719Y-52781261D02*
G01*
X181009302Y-52781663D01*
X181888294Y-53428881D01*
X181890526Y-53430524D01*
X181895156Y-53438189D01*
X181893011Y-53446883D01*
X181892972Y-53446935D01*
X181683242Y-53728498D01*
X181682132Y-53729782D01*
X181336811Y-54075103D01*
X181328538Y-54078530D01*
X181320959Y-54075743D01*
X181320206Y-54075103D01*
X181119512Y-53904451D01*
X180578172Y-53444148D01*
X180574089Y-53436178D01*
X180575927Y-53428881D01*
X180992542Y-52784729D01*
X180999911Y-52779645D01*
X181008719Y-52781261D01*
G37*
%TD.AperFunction*%
%TD*%
%TA.AperFunction,Conductor*%
%TO.N,VCC*%
G36*
X128395076Y-50005657D02*
G01*
X129627567Y-50990861D01*
X129631890Y-50998703D01*
X129629401Y-51007305D01*
X129627567Y-51009139D01*
X128395076Y-51994342D01*
X128386474Y-51996831D01*
X128380751Y-51994563D01*
X127392680Y-51253510D01*
X127388118Y-51245805D01*
X127388000Y-51244150D01*
X127388000Y-50755850D01*
X127391427Y-50747577D01*
X127392680Y-50746490D01*
X128380752Y-50005435D01*
X128389426Y-50003214D01*
X128395076Y-50005657D01*
G37*
%TD.AperFunction*%
%TD*%
%TA.AperFunction,Conductor*%
%TO.N,VCC*%
G36*
X128083499Y-50749113D02*
G01*
X128091462Y-50753209D01*
X128094236Y-50760773D01*
X128094236Y-51239226D01*
X128090809Y-51247499D01*
X128083499Y-51250886D01*
X127568895Y-51293379D01*
X127560368Y-51290645D01*
X127556464Y-51284039D01*
X127499469Y-51002320D01*
X127499469Y-50997680D01*
X127549578Y-50750000D01*
X127556464Y-50715959D01*
X127561464Y-50708531D01*
X127568894Y-50706620D01*
X128083499Y-50749113D01*
G37*
%TD.AperFunction*%
%TD*%
%TA.AperFunction,Conductor*%
%TO.N,VCC*%
G36*
X114259227Y-45839080D02*
G01*
X114498734Y-45997984D01*
X114502015Y-46001265D01*
X114660919Y-46240772D01*
X114662638Y-46249560D01*
X114658734Y-46256166D01*
X114264807Y-46589998D01*
X114256280Y-46592732D01*
X114248970Y-46589345D01*
X113910654Y-46251029D01*
X113907227Y-46242756D01*
X113910001Y-46235192D01*
X114109913Y-45999293D01*
X114243834Y-45841264D01*
X114251796Y-45837169D01*
X114259227Y-45839080D01*
G37*
%TD.AperFunction*%
%TD*%
%TA.AperFunction,Conductor*%
%TO.N,VCC*%
G36*
X145493428Y-55623643D02*
G01*
X145501363Y-55627792D01*
X145503316Y-55631119D01*
X145750423Y-56277468D01*
X145750176Y-56286419D01*
X145744590Y-56292178D01*
X144428306Y-56929111D01*
X144419366Y-56929630D01*
X144414937Y-56926852D01*
X144073301Y-56585216D01*
X144069874Y-56576943D01*
X144071170Y-56571593D01*
X144596397Y-55550869D01*
X144603229Y-55545081D01*
X144607840Y-55544569D01*
X145493428Y-55623643D01*
G37*
%TD.AperFunction*%
%TD*%
%TA.AperFunction,Conductor*%
%TO.N,VCC*%
G36*
X144251029Y-56410654D02*
G01*
X144589345Y-56748970D01*
X144592772Y-56757243D01*
X144589998Y-56764807D01*
X144256166Y-57158734D01*
X144248203Y-57162830D01*
X144240772Y-57160919D01*
X144001265Y-57002015D01*
X143997984Y-56998734D01*
X143839080Y-56759227D01*
X143837361Y-56750439D01*
X143841264Y-56743834D01*
X144235192Y-56410000D01*
X144243719Y-56407267D01*
X144251029Y-56410654D01*
G37*
%TD.AperFunction*%
%TD*%
%TA.AperFunction,Conductor*%
%TO.N,VCC*%
G36*
X175952233Y-46078427D02*
G01*
X175953498Y-46079924D01*
X176654975Y-47067398D01*
X176656973Y-47076127D01*
X176654170Y-47081960D01*
X175621156Y-48240728D01*
X175613093Y-48244623D01*
X175604637Y-48241675D01*
X175603334Y-48240309D01*
X174664642Y-47082278D01*
X174662094Y-47073694D01*
X174664554Y-47067653D01*
X175446487Y-46079440D01*
X175454308Y-46075079D01*
X175455662Y-46075000D01*
X175943960Y-46075000D01*
X175952233Y-46078427D01*
G37*
%TD.AperFunction*%
%TD*%
%TA.AperFunction,Conductor*%
%TO.N,VCC*%
G36*
X175984039Y-45356464D02*
G01*
X175991468Y-45361464D01*
X175993379Y-45368895D01*
X175950887Y-45883499D01*
X175946791Y-45891462D01*
X175939227Y-45894236D01*
X175460773Y-45894236D01*
X175452500Y-45890809D01*
X175449113Y-45883499D01*
X175406620Y-45368895D01*
X175409354Y-45360368D01*
X175415959Y-45356464D01*
X175697682Y-45299469D01*
X175702318Y-45299469D01*
X175984039Y-45356464D01*
G37*
%TD.AperFunction*%
%TD*%
%TA.AperFunction,Conductor*%
%TO.N,VCC*%
G36*
X180106383Y-43804694D02*
G01*
X180596271Y-44164905D01*
X180988180Y-44453074D01*
X180992815Y-44460736D01*
X180990675Y-44469431D01*
X180988180Y-44471926D01*
X180106386Y-45120304D01*
X180097691Y-45122444D01*
X180093271Y-45120810D01*
X179443016Y-44715934D01*
X179437804Y-44708652D01*
X179437500Y-44706002D01*
X179437500Y-44218997D01*
X179440927Y-44210724D01*
X179443013Y-44209067D01*
X180093272Y-43804188D01*
X180102105Y-43802725D01*
X180106383Y-43804694D01*
G37*
%TD.AperFunction*%
%TD*%
%TA.AperFunction,Conductor*%
%TO.N,VCC*%
G36*
X179832684Y-44212354D02*
G01*
X179840913Y-44215885D01*
X179844236Y-44224053D01*
X179844236Y-44702449D01*
X179840809Y-44710722D01*
X179834301Y-44714015D01*
X179319549Y-44792554D01*
X179310853Y-44790414D01*
X179306316Y-44783308D01*
X179291631Y-44710722D01*
X179249469Y-44502318D01*
X179249469Y-44497680D01*
X179306605Y-44215261D01*
X179311604Y-44207835D01*
X179318216Y-44205885D01*
X179832684Y-44212354D01*
G37*
%TD.AperFunction*%
%TD*%
%TA.AperFunction,Conductor*%
%TO.N,VCC*%
G36*
X114251775Y-65678427D02*
G01*
X114253434Y-65680516D01*
X114657592Y-66329618D01*
X114659056Y-66338452D01*
X114655939Y-66344069D01*
X114008279Y-66992708D01*
X114000009Y-66996141D01*
X113991733Y-66992720D01*
X113991721Y-66992708D01*
X113344060Y-66344069D01*
X113340639Y-66335793D01*
X113342406Y-66329619D01*
X113746566Y-65680516D01*
X113753848Y-65675304D01*
X113756498Y-65675000D01*
X114243502Y-65675000D01*
X114251775Y-65678427D01*
G37*
%TD.AperFunction*%
%TD*%
%TA.AperFunction,Conductor*%
%TO.N,VCC*%
G36*
X114284039Y-65556464D02*
G01*
X114291468Y-65561464D01*
X114293379Y-65568895D01*
X114250887Y-66083499D01*
X114246791Y-66091462D01*
X114239227Y-66094236D01*
X113760773Y-66094236D01*
X113752500Y-66090809D01*
X113749113Y-66083499D01*
X113706620Y-65568895D01*
X113709354Y-65560368D01*
X113715959Y-65556464D01*
X113997682Y-65499469D01*
X114002318Y-65499469D01*
X114284039Y-65556464D01*
G37*
%TD.AperFunction*%
%TD*%
%TA.AperFunction,Conductor*%
%TO.N,VCC*%
G36*
X144605727Y-45716717D02*
G01*
X145485796Y-46364728D01*
X145490426Y-46372392D01*
X145488281Y-46381086D01*
X145484390Y-46384459D01*
X144607104Y-46855073D01*
X144598193Y-46855964D01*
X144593909Y-46853604D01*
X143898358Y-46250647D01*
X143894352Y-46242638D01*
X143897181Y-46234142D01*
X143897735Y-46233547D01*
X144241055Y-45890227D01*
X144244146Y-45888012D01*
X144593619Y-45715646D01*
X144602552Y-45715061D01*
X144605727Y-45716717D01*
G37*
%TD.AperFunction*%
%TD*%
%TA.AperFunction,Conductor*%
%TO.N,VCC*%
G36*
X144255813Y-45843141D02*
G01*
X144255880Y-45843241D01*
X144437018Y-46122094D01*
X144438906Y-46128466D01*
X144438906Y-46603977D01*
X144435479Y-46612250D01*
X144427206Y-46615677D01*
X144421040Y-46613920D01*
X143843586Y-46255802D01*
X143838361Y-46248530D01*
X143839809Y-46239693D01*
X143839971Y-46239440D01*
X143997698Y-46001959D01*
X144000958Y-45998696D01*
X144239593Y-45839882D01*
X144248377Y-45838152D01*
X144255813Y-45843141D01*
G37*
%TD.AperFunction*%
%TD*%
%TA.AperFunction,Conductor*%
%TO.N,VCC*%
G36*
X171418891Y-29589067D02*
G01*
X172066088Y-29747814D01*
X172073306Y-29753112D01*
X172075000Y-29759176D01*
X172075000Y-30740823D01*
X172071573Y-30749096D01*
X172066087Y-30752186D01*
X171418894Y-30910931D01*
X171410043Y-30909574D01*
X171407840Y-30907847D01*
X170757291Y-30258279D01*
X170753858Y-30250009D01*
X170757279Y-30241733D01*
X170757291Y-30241721D01*
X171407841Y-29592151D01*
X171416116Y-29588731D01*
X171418891Y-29589067D01*
G37*
%TD.AperFunction*%
%TD*%
%TA.AperFunction,Conductor*%
%TO.N,VCC*%
G36*
X173089956Y-29590425D02*
G01*
X173092159Y-29592152D01*
X173742708Y-30241721D01*
X173746141Y-30249991D01*
X173742720Y-30258267D01*
X173742708Y-30258279D01*
X173092159Y-30907847D01*
X173083883Y-30911268D01*
X173081105Y-30910931D01*
X172433913Y-30752186D01*
X172426694Y-30746887D01*
X172425000Y-30740823D01*
X172425000Y-29759176D01*
X172428427Y-29750903D01*
X172433910Y-29747814D01*
X173081106Y-29589068D01*
X173089956Y-29590425D01*
G37*
%TD.AperFunction*%
%TD*%
%TA.AperFunction,Conductor*%
%TO.N,/{slash}AS_00*%
G36*
X145053256Y-78322873D02*
G01*
X145340113Y-78562333D01*
X145344268Y-78570266D01*
X145342355Y-78577797D01*
X145184204Y-78815435D01*
X145176768Y-78820424D01*
X145176709Y-78820436D01*
X144900296Y-78874479D01*
X144891519Y-78872703D01*
X144886568Y-78865241D01*
X144886377Y-78863777D01*
X144867240Y-78577797D01*
X144850835Y-78332635D01*
X144853702Y-78324153D01*
X144861728Y-78320181D01*
X144862509Y-78320155D01*
X145045758Y-78320155D01*
X145053256Y-78322873D01*
G37*
%TD.AperFunction*%
%TD*%
%TA.AperFunction,Conductor*%
%TO.N,/{slash}AS_00*%
G36*
X143223618Y-64457833D02*
G01*
X143224478Y-64459368D01*
X143455747Y-64956757D01*
X143456128Y-64965704D01*
X143453411Y-64969963D01*
X143323591Y-65099783D01*
X143315318Y-65103210D01*
X143310336Y-65102096D01*
X142814883Y-64868908D01*
X142808856Y-64862284D01*
X142809279Y-64853340D01*
X142810107Y-64851869D01*
X142967285Y-64614963D01*
X142970563Y-64611685D01*
X143207402Y-64454551D01*
X143216189Y-64452833D01*
X143223618Y-64457833D01*
G37*
%TD.AperFunction*%
%TD*%
%TA.AperFunction,Conductor*%
%TO.N,/A9*%
G36*
X123452702Y-95998744D02*
G01*
X123453140Y-95999160D01*
X123583657Y-96129677D01*
X123586669Y-96134862D01*
X123893573Y-97256315D01*
X123892452Y-97265199D01*
X123889657Y-97268491D01*
X123169407Y-97852505D01*
X123160822Y-97855054D01*
X123152950Y-97850786D01*
X123152216Y-97849775D01*
X122578532Y-96963592D01*
X122576913Y-96954785D01*
X122579664Y-96949400D01*
X123436179Y-95999597D01*
X123444264Y-95995749D01*
X123452702Y-95998744D01*
G37*
%TD.AperFunction*%
%TD*%
%TA.AperFunction,Conductor*%
%TO.N,/A9*%
G36*
X149054562Y-35549186D02*
G01*
X149056072Y-35550035D01*
X149292934Y-35707184D01*
X149296215Y-35710465D01*
X149453364Y-35947327D01*
X149455083Y-35956115D01*
X149450083Y-35963544D01*
X149448573Y-35964393D01*
X148952153Y-36196622D01*
X148943207Y-36197023D01*
X148938922Y-36194297D01*
X148809102Y-36064477D01*
X148805675Y-36056204D01*
X148806775Y-36051251D01*
X149039006Y-35554825D01*
X149045616Y-35548785D01*
X149054562Y-35549186D01*
G37*
%TD.AperFunction*%
%TD*%
%TA.AperFunction,Conductor*%
%TO.N,/A9*%
G36*
X128856330Y-66840135D02*
G01*
X128863758Y-66845134D01*
X128865477Y-66853922D01*
X128865008Y-66855590D01*
X128678196Y-67370824D01*
X128672155Y-67377434D01*
X128667197Y-67378536D01*
X128483603Y-67378536D01*
X128475330Y-67375109D01*
X128472604Y-67370824D01*
X128424944Y-67239378D01*
X128285791Y-66855588D01*
X128286192Y-66846644D01*
X128292802Y-66840603D01*
X128294456Y-66840137D01*
X128573082Y-66783769D01*
X128577718Y-66783769D01*
X128856330Y-66840135D01*
G37*
%TD.AperFunction*%
%TD*%
%TA.AperFunction,Conductor*%
%TO.N,/A9*%
G36*
X147515737Y-66151615D02*
G01*
X147515961Y-66151845D01*
X147842837Y-66497188D01*
X147846036Y-66505552D01*
X147842383Y-66513728D01*
X147840867Y-66514941D01*
X147606957Y-66672172D01*
X147598179Y-66673943D01*
X147598110Y-66673930D01*
X147318123Y-66617286D01*
X147310694Y-66612286D01*
X147308743Y-66605722D01*
X147309489Y-66514941D01*
X147312405Y-66159792D01*
X147315900Y-66151547D01*
X147324105Y-66148188D01*
X147507464Y-66148188D01*
X147515737Y-66151615D01*
G37*
%TD.AperFunction*%
%TD*%
%TA.AperFunction,Conductor*%
%TO.N,/A12*%
G36*
X163293016Y-38577773D02*
G01*
X163300468Y-38582738D01*
X163302226Y-38586983D01*
X163424851Y-39207601D01*
X163423093Y-39216382D01*
X163417292Y-39220893D01*
X162467268Y-39558641D01*
X162458325Y-39558183D01*
X162455076Y-39555890D01*
X162324109Y-39424923D01*
X162320682Y-39416650D01*
X162321358Y-39412731D01*
X162659107Y-38462705D01*
X162665106Y-38456060D01*
X162672395Y-38455148D01*
X163293016Y-38577773D01*
G37*
%TD.AperFunction*%
%TD*%
%TA.AperFunction,Conductor*%
%TO.N,/A12*%
G36*
X154184270Y-65684391D02*
G01*
X154186996Y-65688676D01*
X154373808Y-66203909D01*
X154373407Y-66212855D01*
X154366797Y-66218896D01*
X154365129Y-66219365D01*
X154086520Y-66275730D01*
X154081880Y-66275730D01*
X153803270Y-66219365D01*
X153795841Y-66214365D01*
X153794122Y-66205577D01*
X153794587Y-66203920D01*
X153981404Y-65688676D01*
X153987445Y-65682066D01*
X153992403Y-65680964D01*
X154175997Y-65680964D01*
X154184270Y-65684391D01*
G37*
%TD.AperFunction*%
%TD*%
%TA.AperFunction,Conductor*%
%TO.N,/A12*%
G36*
X131527740Y-97555408D02*
G01*
X131534055Y-97561758D01*
X131534206Y-97562146D01*
X132070893Y-99013041D01*
X132070550Y-99021989D01*
X132068193Y-99025373D01*
X131936055Y-99157511D01*
X131927782Y-99160938D01*
X131926476Y-99160865D01*
X131624206Y-99126897D01*
X130910034Y-99046642D01*
X130902196Y-99042313D01*
X130899702Y-99036206D01*
X130898594Y-99025373D01*
X130780182Y-97867983D01*
X130782749Y-97859405D01*
X130787371Y-97855973D01*
X131518787Y-97555383D01*
X131527740Y-97555408D01*
G37*
%TD.AperFunction*%
%TD*%
%TA.AperFunction,Conductor*%
%TO.N,/A12*%
G36*
X141429944Y-67263516D02*
G01*
X141430793Y-67265026D01*
X141502680Y-67418693D01*
X141622391Y-67674593D01*
X141663022Y-67761446D01*
X141663423Y-67770392D01*
X141660697Y-67774677D01*
X141530877Y-67904497D01*
X141522604Y-67907924D01*
X141517647Y-67906822D01*
X141367028Y-67836361D01*
X141021226Y-67674593D01*
X141015185Y-67667983D01*
X141015586Y-67659037D01*
X141016435Y-67657527D01*
X141173585Y-67420663D01*
X141176863Y-67417385D01*
X141413727Y-67260234D01*
X141422515Y-67258516D01*
X141429944Y-67263516D01*
G37*
%TD.AperFunction*%
%TD*%
%TA.AperFunction,Conductor*%
%TO.N,/D20*%
G36*
X192042164Y-73127804D02*
G01*
X192174969Y-73260609D01*
X192176803Y-73262988D01*
X192486439Y-73793895D01*
X192487647Y-73802768D01*
X192486253Y-73805992D01*
X191751076Y-74981860D01*
X191743784Y-74987058D01*
X191734952Y-74985578D01*
X191730426Y-74980324D01*
X191220463Y-73808050D01*
X191220305Y-73799097D01*
X191223708Y-73794390D01*
X192026415Y-73127078D01*
X192034964Y-73124426D01*
X192042164Y-73127804D01*
G37*
%TD.AperFunction*%
%TD*%
%TA.AperFunction,Conductor*%
%TO.N,/D20*%
G36*
X189336382Y-48616906D02*
G01*
X189340893Y-48622707D01*
X189678641Y-49572731D01*
X189678183Y-49581674D01*
X189675890Y-49584923D01*
X189544923Y-49715890D01*
X189536650Y-49719317D01*
X189532731Y-49718641D01*
X188582707Y-49380893D01*
X188576060Y-49374893D01*
X188575148Y-49367603D01*
X188697773Y-48746981D01*
X188702738Y-48739531D01*
X188706980Y-48737774D01*
X189327603Y-48615148D01*
X189336382Y-48616906D01*
G37*
%TD.AperFunction*%
%TD*%
%TA.AperFunction,Conductor*%
%TO.N,/A6*%
G36*
X115832702Y-95998744D02*
G01*
X115833140Y-95999160D01*
X115963657Y-96129677D01*
X115966669Y-96134862D01*
X116273573Y-97256315D01*
X116272452Y-97265199D01*
X116269657Y-97268491D01*
X115549407Y-97852505D01*
X115540822Y-97855054D01*
X115532950Y-97850786D01*
X115532216Y-97849775D01*
X114958532Y-96963592D01*
X114956913Y-96954785D01*
X114959664Y-96949400D01*
X115816179Y-95999597D01*
X115824264Y-95995749D01*
X115832702Y-95998744D01*
G37*
%TD.AperFunction*%
%TD*%
%TA.AperFunction,Conductor*%
%TO.N,/A6*%
G36*
X116082968Y-37875836D02*
G01*
X116087919Y-37883298D01*
X116088135Y-37885376D01*
X116095931Y-38431745D01*
X116092622Y-38440066D01*
X116084399Y-38443611D01*
X116084232Y-38443612D01*
X115900884Y-38443612D01*
X115892686Y-38440259D01*
X115892489Y-38440066D01*
X115633928Y-38186117D01*
X115630427Y-38177876D01*
X115632386Y-38171290D01*
X115790995Y-37932963D01*
X115798431Y-37927975D01*
X115798427Y-37927975D01*
X116074191Y-37874060D01*
X116082968Y-37875836D01*
G37*
%TD.AperFunction*%
%TD*%
%TA.AperFunction,Conductor*%
%TO.N,/A15*%
G36*
X160753016Y-38577773D02*
G01*
X160760468Y-38582738D01*
X160762226Y-38586983D01*
X160884851Y-39207601D01*
X160883093Y-39216382D01*
X160877292Y-39220893D01*
X159927268Y-39558641D01*
X159918325Y-39558183D01*
X159915076Y-39555890D01*
X159784109Y-39424923D01*
X159780682Y-39416650D01*
X159781358Y-39412731D01*
X160119107Y-38462705D01*
X160125106Y-38456060D01*
X160132395Y-38455148D01*
X160753016Y-38577773D01*
G37*
%TD.AperFunction*%
%TD*%
%TA.AperFunction,Conductor*%
%TO.N,/A15*%
G36*
X138692702Y-95998744D02*
G01*
X138693140Y-95999160D01*
X138823657Y-96129677D01*
X138826669Y-96134862D01*
X139133573Y-97256315D01*
X139132452Y-97265199D01*
X139129657Y-97268491D01*
X138409407Y-97852505D01*
X138400822Y-97855054D01*
X138392950Y-97850786D01*
X138392216Y-97849775D01*
X137818532Y-96963592D01*
X137816913Y-96954785D01*
X137819664Y-96949400D01*
X138676179Y-95999597D01*
X138684264Y-95995749D01*
X138692702Y-95998744D01*
G37*
%TD.AperFunction*%
%TD*%
%TA.AperFunction,Conductor*%
%TO.N,/A5*%
G36*
X163401839Y-31696631D02*
G01*
X163402675Y-31698113D01*
X163635992Y-32193435D01*
X163636417Y-32202380D01*
X163633680Y-32206694D01*
X163503861Y-32336513D01*
X163495588Y-32339940D01*
X163490658Y-32338851D01*
X162993139Y-32107711D01*
X162987080Y-32101117D01*
X162987458Y-32092170D01*
X162988320Y-32090632D01*
X163145450Y-31853798D01*
X163148728Y-31850520D01*
X163385623Y-31693349D01*
X163394410Y-31691631D01*
X163401839Y-31696631D01*
G37*
%TD.AperFunction*%
%TD*%
%TA.AperFunction,Conductor*%
%TO.N,/A5*%
G36*
X111851133Y-96564757D02*
G01*
X112865678Y-96673405D01*
X112873537Y-96677692D01*
X112876065Y-96683805D01*
X112999785Y-97852002D01*
X112997248Y-97860590D01*
X112992615Y-97864048D01*
X112261199Y-98166036D01*
X112252244Y-98166026D01*
X112245920Y-98159687D01*
X112245770Y-98159307D01*
X111706786Y-96712624D01*
X111707109Y-96703678D01*
X111709474Y-96700272D01*
X111841629Y-96568117D01*
X111849901Y-96564691D01*
X111851133Y-96564757D01*
G37*
%TD.AperFunction*%
%TD*%
%TA.AperFunction,Conductor*%
%TO.N,/A5*%
G36*
X113418762Y-31869486D02*
G01*
X113420272Y-31870335D01*
X113657134Y-32027484D01*
X113660415Y-32030765D01*
X113817564Y-32267627D01*
X113819283Y-32276415D01*
X113814283Y-32283844D01*
X113812773Y-32284693D01*
X113316353Y-32516922D01*
X113307407Y-32517323D01*
X113303122Y-32514597D01*
X113173302Y-32384777D01*
X113169875Y-32376504D01*
X113170975Y-32371551D01*
X113403206Y-31875125D01*
X113409816Y-31869085D01*
X113418762Y-31869486D01*
G37*
%TD.AperFunction*%
%TD*%
%TA.AperFunction,Conductor*%
%TO.N,/A5*%
G36*
X165007268Y-35061358D02*
G01*
X165246505Y-35146410D01*
X165957293Y-35399106D01*
X165963939Y-35405106D01*
X165964851Y-35412398D01*
X165842226Y-36033016D01*
X165837261Y-36040468D01*
X165833016Y-36042226D01*
X165212398Y-36164851D01*
X165203617Y-36163093D01*
X165199107Y-36157293D01*
X164861358Y-35207268D01*
X164861816Y-35198325D01*
X164864106Y-35195079D01*
X164995077Y-35064108D01*
X165003349Y-35060682D01*
X165007268Y-35061358D01*
G37*
%TD.AperFunction*%
%TD*%
%TA.AperFunction,Conductor*%
%TO.N,/D24*%
G36*
X196661430Y-56568035D02*
G01*
X196668858Y-56573034D01*
X196670577Y-56581822D01*
X196670108Y-56583490D01*
X196483296Y-57098724D01*
X196477255Y-57105334D01*
X196472297Y-57106436D01*
X196288703Y-57106436D01*
X196280430Y-57103009D01*
X196277704Y-57098724D01*
X196230044Y-56967278D01*
X196090891Y-56583488D01*
X196091292Y-56574544D01*
X196097902Y-56568503D01*
X196099556Y-56568037D01*
X196378182Y-56511669D01*
X196382818Y-56511669D01*
X196661430Y-56568035D01*
G37*
%TD.AperFunction*%
%TD*%
%TA.AperFunction,Conductor*%
%TO.N,/D24*%
G36*
X184128387Y-97866708D02*
G01*
X184129075Y-97867225D01*
X184849439Y-98451331D01*
X184853707Y-98459203D01*
X184853247Y-98463879D01*
X184500038Y-99604694D01*
X184497134Y-99609507D01*
X184366779Y-99739862D01*
X184358506Y-99743289D01*
X184350233Y-99739862D01*
X184349551Y-99739119D01*
X183513701Y-98745072D01*
X183510999Y-98736534D01*
X183513049Y-98730863D01*
X184112101Y-97869631D01*
X184119638Y-97864797D01*
X184128387Y-97866708D01*
G37*
%TD.AperFunction*%
%TD*%
%TA.AperFunction,Conductor*%
%TO.N,/A21*%
G36*
X160753016Y-46197773D02*
G01*
X160760468Y-46202738D01*
X160762226Y-46206983D01*
X160884851Y-46827601D01*
X160883093Y-46836382D01*
X160877292Y-46840893D01*
X159927268Y-47178641D01*
X159918325Y-47178183D01*
X159915076Y-47175890D01*
X159784109Y-47044923D01*
X159780682Y-47036650D01*
X159781358Y-47032731D01*
X160119107Y-46082705D01*
X160125106Y-46076060D01*
X160132395Y-46075148D01*
X160753016Y-46197773D01*
G37*
%TD.AperFunction*%
%TD*%
%TA.AperFunction,Conductor*%
%TO.N,/A21*%
G36*
X151246677Y-95061402D02*
G01*
X151376497Y-95191222D01*
X151379924Y-95199495D01*
X151378822Y-95204453D01*
X151146593Y-95700873D01*
X151139983Y-95706914D01*
X151131037Y-95706513D01*
X151129527Y-95705664D01*
X150892665Y-95548515D01*
X150889384Y-95545234D01*
X150732235Y-95308372D01*
X150730516Y-95299584D01*
X150735516Y-95292155D01*
X150737021Y-95291308D01*
X151233448Y-95059076D01*
X151242392Y-95058676D01*
X151246677Y-95061402D01*
G37*
%TD.AperFunction*%
%TD*%
%TA.AperFunction,Conductor*%
%TO.N,/{slash}R{slash}W*%
G36*
X170681412Y-74716257D02*
G01*
X171412777Y-74996257D01*
X171419278Y-75002416D01*
X171420279Y-75007773D01*
X171361410Y-76176409D01*
X171357571Y-76184499D01*
X171351919Y-76187312D01*
X170309629Y-76386316D01*
X170300860Y-76384502D01*
X170299162Y-76383097D01*
X170170040Y-76253975D01*
X170166613Y-76245702D01*
X170170038Y-76237432D01*
X170291860Y-76115611D01*
X170331421Y-76047089D01*
X170351899Y-75970664D01*
X170351900Y-75970664D01*
X170351900Y-75674671D01*
X170352493Y-75670994D01*
X170666150Y-74723517D01*
X170672003Y-74716740D01*
X170680934Y-74716087D01*
X170681412Y-74716257D01*
G37*
%TD.AperFunction*%
%TD*%
%TA.AperFunction,Conductor*%
%TO.N,/{slash}R{slash}W*%
G36*
X186153016Y-58897773D02*
G01*
X186160468Y-58902738D01*
X186162226Y-58906983D01*
X186284851Y-59527601D01*
X186283093Y-59536382D01*
X186277292Y-59540893D01*
X185327268Y-59878641D01*
X185318325Y-59878183D01*
X185315076Y-59875890D01*
X185184109Y-59744923D01*
X185180682Y-59736650D01*
X185181358Y-59732731D01*
X185519107Y-58782705D01*
X185525106Y-58776060D01*
X185532395Y-58775148D01*
X186153016Y-58897773D01*
G37*
%TD.AperFunction*%
%TD*%
%TA.AperFunction,Conductor*%
%TO.N,/{slash}R{slash}W*%
G36*
X136007949Y-72287576D02*
G01*
X136318713Y-72432953D01*
X136504373Y-72519806D01*
X136510414Y-72526416D01*
X136510013Y-72535362D01*
X136509164Y-72536872D01*
X136352015Y-72773734D01*
X136348734Y-72777015D01*
X136111872Y-72934164D01*
X136103084Y-72935883D01*
X136095655Y-72930883D01*
X136094806Y-72929373D01*
X136021997Y-72773734D01*
X135862576Y-72432951D01*
X135862176Y-72424007D01*
X135864900Y-72419724D01*
X135994723Y-72289901D01*
X136002995Y-72286475D01*
X136007949Y-72287576D01*
G37*
%TD.AperFunction*%
%TD*%
%TA.AperFunction,Conductor*%
%TO.N,/{slash}R{slash}W*%
G36*
X172594573Y-73748385D02*
G01*
X172595179Y-73748950D01*
X172727408Y-73881179D01*
X172730835Y-73889452D01*
X172730027Y-73893725D01*
X172174401Y-75310020D01*
X172168189Y-75316470D01*
X172159236Y-75316639D01*
X172158915Y-75316507D01*
X171427447Y-75004188D01*
X171421184Y-74997788D01*
X171420439Y-74991915D01*
X171572340Y-73826896D01*
X171576807Y-73819138D01*
X171583112Y-73816740D01*
X172586080Y-73745552D01*
X172594573Y-73748385D01*
G37*
%TD.AperFunction*%
%TD*%
%TA.AperFunction,Conductor*%
%TO.N,/{slash}R{slash}W*%
G36*
X133835702Y-63495798D02*
G01*
X134455230Y-63618058D01*
X134462682Y-63623022D01*
X134462698Y-63623045D01*
X134814203Y-64150082D01*
X134815942Y-64158866D01*
X134810961Y-64166308D01*
X134810330Y-64166700D01*
X133962619Y-64657367D01*
X133956758Y-64658941D01*
X133772245Y-64658941D01*
X133763972Y-64655514D01*
X133760545Y-64647241D01*
X133760562Y-64646614D01*
X133821767Y-63506652D01*
X133825632Y-63498574D01*
X133834077Y-63495596D01*
X133835702Y-63495798D01*
G37*
%TD.AperFunction*%
%TD*%
%TA.AperFunction,Conductor*%
%TO.N,/{slash}R{slash}W*%
G36*
X165293106Y-83093047D02*
G01*
X165295955Y-83095141D01*
X165426908Y-83226094D01*
X165430335Y-83234367D01*
X165429495Y-83238720D01*
X165061119Y-84157803D01*
X165054860Y-84164207D01*
X165047991Y-84164928D01*
X164426983Y-84042226D01*
X164419531Y-84037261D01*
X164417773Y-84033016D01*
X164295225Y-83412786D01*
X164296983Y-83404007D01*
X164303206Y-83399354D01*
X165284186Y-83092248D01*
X165293106Y-83093047D01*
G37*
%TD.AperFunction*%
%TD*%
%TA.AperFunction,Conductor*%
%TO.N,/{slash}VPA*%
G36*
X135096382Y-60956906D02*
G01*
X135100893Y-60962707D01*
X135438641Y-61912731D01*
X135438183Y-61921674D01*
X135435890Y-61924923D01*
X135307615Y-62053198D01*
X135299342Y-62056625D01*
X135291069Y-62053198D01*
X135090962Y-61853091D01*
X135090957Y-61853087D01*
X135022441Y-61813529D01*
X135022437Y-61813527D01*
X134946015Y-61793050D01*
X134946012Y-61793050D01*
X134547689Y-61793050D01*
X134543770Y-61792374D01*
X134342707Y-61720893D01*
X134336060Y-61714893D01*
X134335148Y-61707603D01*
X134457773Y-61086981D01*
X134462738Y-61079531D01*
X134466980Y-61077774D01*
X135087603Y-60955148D01*
X135096382Y-60956906D01*
G37*
%TD.AperFunction*%
%TD*%
%TA.AperFunction,Conductor*%
%TO.N,/{slash}VPA*%
G36*
X140713165Y-73139400D02*
G01*
X140713790Y-73140075D01*
X141546221Y-74114938D01*
X141548987Y-74123455D01*
X141546928Y-74129217D01*
X140947898Y-74990368D01*
X140940360Y-74995203D01*
X140931612Y-74993292D01*
X140930933Y-74992781D01*
X140210608Y-74408707D01*
X140206341Y-74400835D01*
X140206827Y-74396078D01*
X140563286Y-73274583D01*
X140566161Y-73269858D01*
X140696620Y-73139399D01*
X140704892Y-73135973D01*
X140713165Y-73139400D01*
G37*
%TD.AperFunction*%
%TD*%
%TA.AperFunction,Conductor*%
%TO.N,/D30*%
G36*
X186796382Y-56236906D02*
G01*
X186800893Y-56242707D01*
X187138641Y-57192731D01*
X187138183Y-57201674D01*
X187135890Y-57204923D01*
X187004923Y-57335890D01*
X186996650Y-57339317D01*
X186992731Y-57338641D01*
X186042707Y-57000893D01*
X186036060Y-56994893D01*
X186035148Y-56987603D01*
X186157773Y-56366981D01*
X186162738Y-56359531D01*
X186166980Y-56357774D01*
X186787603Y-56235148D01*
X186796382Y-56236906D01*
G37*
%TD.AperFunction*%
%TD*%
%TA.AperFunction,Conductor*%
%TO.N,/D30*%
G36*
X169172702Y-95998744D02*
G01*
X169173140Y-95999160D01*
X169303657Y-96129677D01*
X169306669Y-96134862D01*
X169613573Y-97256315D01*
X169612452Y-97265199D01*
X169609657Y-97268491D01*
X168889407Y-97852505D01*
X168880822Y-97855054D01*
X168872950Y-97850786D01*
X168872216Y-97849775D01*
X168298532Y-96963592D01*
X168296913Y-96954785D01*
X168299664Y-96949400D01*
X169156179Y-95999597D01*
X169164264Y-95995749D01*
X169172702Y-95998744D01*
G37*
%TD.AperFunction*%
%TD*%
%TA.AperFunction,Conductor*%
%TO.N,/A22*%
G36*
X163293016Y-48737773D02*
G01*
X163300468Y-48742738D01*
X163302226Y-48746983D01*
X163424851Y-49367601D01*
X163423093Y-49376382D01*
X163417292Y-49380893D01*
X162467268Y-49718641D01*
X162458325Y-49718183D01*
X162455076Y-49715890D01*
X162324109Y-49584923D01*
X162320682Y-49576650D01*
X162321358Y-49572731D01*
X162659107Y-48622705D01*
X162665106Y-48616060D01*
X162672395Y-48615148D01*
X163293016Y-48737773D01*
G37*
%TD.AperFunction*%
%TD*%
%TA.AperFunction,Conductor*%
%TO.N,/A22*%
G36*
X161078719Y-88110503D02*
G01*
X161296480Y-88197784D01*
X161300400Y-88200371D01*
X161453540Y-88353511D01*
X161509489Y-88409460D01*
X161509490Y-88409461D01*
X161509492Y-88409462D01*
X161578008Y-88449020D01*
X161578012Y-88449022D01*
X161638285Y-88465171D01*
X161654435Y-88469499D01*
X161654436Y-88469500D01*
X161972142Y-88469500D01*
X161976495Y-88470340D01*
X161997803Y-88478880D01*
X162004207Y-88485138D01*
X162004928Y-88492008D01*
X161882226Y-89113016D01*
X161877261Y-89120468D01*
X161873016Y-89122226D01*
X161252788Y-89244774D01*
X161244007Y-89243016D01*
X161239354Y-89236792D01*
X160932248Y-88255813D01*
X160933047Y-88246893D01*
X160935138Y-88244047D01*
X161066095Y-88113090D01*
X161074367Y-88109664D01*
X161078719Y-88110503D01*
G37*
%TD.AperFunction*%
%TD*%
%TA.AperFunction,Conductor*%
%TO.N,/A22*%
G36*
X162507513Y-89244804D02*
G01*
X162514950Y-89249791D01*
X162516890Y-89256987D01*
X162460669Y-90180587D01*
X162456746Y-90188637D01*
X162448991Y-90191576D01*
X162263759Y-90191576D01*
X162256944Y-90189386D01*
X161528075Y-89667045D01*
X161523346Y-89659440D01*
X161525156Y-89651043D01*
X161787970Y-89256987D01*
X161875651Y-89125519D01*
X161883093Y-89120539D01*
X161887681Y-89120539D01*
X162507513Y-89244804D01*
G37*
%TD.AperFunction*%
%TD*%
%TA.AperFunction,Conductor*%
%TO.N,/A22*%
G36*
X159467740Y-97555408D02*
G01*
X159474055Y-97561758D01*
X159474206Y-97562146D01*
X160010893Y-99013041D01*
X160010550Y-99021989D01*
X160008193Y-99025373D01*
X159876055Y-99157511D01*
X159867782Y-99160938D01*
X159866476Y-99160865D01*
X159564206Y-99126897D01*
X158850034Y-99046642D01*
X158842196Y-99042313D01*
X158839702Y-99036206D01*
X158838594Y-99025373D01*
X158720182Y-97867983D01*
X158722749Y-97859405D01*
X158727371Y-97855973D01*
X159458787Y-97555383D01*
X159467740Y-97555408D01*
G37*
%TD.AperFunction*%
%TD*%
%TA.AperFunction,Conductor*%
%TO.N,/A8*%
G36*
X137402849Y-34512476D02*
G01*
X137713613Y-34657853D01*
X137899273Y-34744706D01*
X137905314Y-34751316D01*
X137904913Y-34760262D01*
X137904064Y-34761772D01*
X137746915Y-34998634D01*
X137743634Y-35001915D01*
X137506772Y-35159064D01*
X137497984Y-35160783D01*
X137490555Y-35155783D01*
X137489706Y-35154273D01*
X137416897Y-34998634D01*
X137257476Y-34657851D01*
X137257076Y-34648907D01*
X137259800Y-34644624D01*
X137389623Y-34514801D01*
X137397895Y-34511375D01*
X137402849Y-34512476D01*
G37*
%TD.AperFunction*%
%TD*%
%TA.AperFunction,Conductor*%
%TO.N,/A8*%
G36*
X120393165Y-95999400D02*
G01*
X120393790Y-96000075D01*
X121226221Y-96974938D01*
X121228987Y-96983455D01*
X121226928Y-96989217D01*
X120627898Y-97850368D01*
X120620360Y-97855203D01*
X120611612Y-97853292D01*
X120610933Y-97852781D01*
X119890608Y-97268707D01*
X119886341Y-97260835D01*
X119886827Y-97256078D01*
X120243286Y-96134583D01*
X120246161Y-96129858D01*
X120376620Y-95999399D01*
X120384892Y-95995973D01*
X120393165Y-95999400D01*
G37*
%TD.AperFunction*%
%TD*%
%TA.AperFunction,Conductor*%
%TO.N,/A18*%
G36*
X166476382Y-46076906D02*
G01*
X166480893Y-46082707D01*
X166818641Y-47032731D01*
X166818183Y-47041674D01*
X166815890Y-47044923D01*
X166684923Y-47175890D01*
X166676650Y-47179317D01*
X166672731Y-47178641D01*
X165722707Y-46840893D01*
X165716060Y-46834893D01*
X165715148Y-46827603D01*
X165837773Y-46206981D01*
X165842738Y-46199531D01*
X165846980Y-46197774D01*
X166467603Y-46075148D01*
X166476382Y-46076906D01*
G37*
%TD.AperFunction*%
%TD*%
%TA.AperFunction,Conductor*%
%TO.N,/A18*%
G36*
X159691609Y-81194463D02*
G01*
X159699071Y-81199414D01*
X159699104Y-81199464D01*
X159855610Y-81434631D01*
X159857341Y-81443417D01*
X159852352Y-81450853D01*
X159850929Y-81451663D01*
X159448798Y-81644511D01*
X159443739Y-81645661D01*
X159262227Y-81645661D01*
X159253954Y-81642234D01*
X159250527Y-81633961D01*
X159251041Y-81630530D01*
X159399074Y-81147943D01*
X159404776Y-81141041D01*
X159412502Y-81139894D01*
X159691609Y-81194463D01*
G37*
%TD.AperFunction*%
%TD*%
%TA.AperFunction,Conductor*%
%TO.N,/A18*%
G36*
X162596070Y-79409191D02*
G01*
X162598796Y-79413476D01*
X162785608Y-79928709D01*
X162785207Y-79937655D01*
X162778597Y-79943696D01*
X162776929Y-79944165D01*
X162498320Y-80000530D01*
X162493680Y-80000530D01*
X162215070Y-79944165D01*
X162207641Y-79939165D01*
X162205922Y-79930377D01*
X162206387Y-79928720D01*
X162393204Y-79413476D01*
X162399245Y-79406866D01*
X162404203Y-79405764D01*
X162587797Y-79405764D01*
X162596070Y-79409191D01*
G37*
%TD.AperFunction*%
%TD*%
%TA.AperFunction,Conductor*%
%TO.N,/A18*%
G36*
X158855277Y-92014902D02*
G01*
X158985097Y-92144722D01*
X158988524Y-92152995D01*
X158987422Y-92157953D01*
X158755193Y-92654373D01*
X158748583Y-92660414D01*
X158739637Y-92660013D01*
X158738127Y-92659164D01*
X158501265Y-92502015D01*
X158497984Y-92498734D01*
X158340835Y-92261872D01*
X158339116Y-92253084D01*
X158344116Y-92245655D01*
X158345621Y-92244808D01*
X158842048Y-92012576D01*
X158850992Y-92012176D01*
X158855277Y-92014902D01*
G37*
%TD.AperFunction*%
%TD*%
%TA.AperFunction,Conductor*%
%TO.N,/A17*%
G36*
X160753016Y-41117773D02*
G01*
X160760468Y-41122738D01*
X160762226Y-41126983D01*
X160884866Y-41747679D01*
X160883108Y-41756460D01*
X160877393Y-41760940D01*
X159933559Y-42104815D01*
X159924613Y-42104427D01*
X159921281Y-42102095D01*
X159790314Y-41971128D01*
X159786887Y-41962855D01*
X159787532Y-41959024D01*
X160119155Y-41002806D01*
X160125102Y-40996115D01*
X160132476Y-40995164D01*
X160753016Y-41117773D01*
G37*
%TD.AperFunction*%
%TD*%
%TA.AperFunction,Conductor*%
%TO.N,/A17*%
G36*
X144654573Y-96608385D02*
G01*
X144655179Y-96608950D01*
X144787408Y-96741179D01*
X144790835Y-96749452D01*
X144790027Y-96753725D01*
X144234401Y-98170020D01*
X144228189Y-98176470D01*
X144219236Y-98176639D01*
X144218915Y-98176507D01*
X143487447Y-97864188D01*
X143481184Y-97857788D01*
X143480439Y-97851915D01*
X143632340Y-96686896D01*
X143636807Y-96679138D01*
X143643112Y-96676740D01*
X144646080Y-96605552D01*
X144654573Y-96608385D01*
G37*
%TD.AperFunction*%
%TD*%
%TA.AperFunction,Conductor*%
%TO.N,/{slash}DTACK*%
G36*
X169005820Y-73067838D02*
G01*
X169008150Y-73071165D01*
X169500705Y-74127111D01*
X169501097Y-74136057D01*
X169499603Y-74138885D01*
X168889501Y-74987780D01*
X168881890Y-74992498D01*
X168873172Y-74990453D01*
X168870499Y-74987780D01*
X168672536Y-74712335D01*
X168260570Y-74139127D01*
X168258526Y-74130411D01*
X168259661Y-74126962D01*
X168801737Y-73070769D01*
X168808563Y-73064973D01*
X168812146Y-73064411D01*
X168997547Y-73064411D01*
X169005820Y-73067838D01*
G37*
%TD.AperFunction*%
%TD*%
%TA.AperFunction,Conductor*%
%TO.N,/{slash}DTACK*%
G36*
X175233862Y-50634186D02*
G01*
X175235372Y-50635035D01*
X175472234Y-50792184D01*
X175475515Y-50795465D01*
X175632664Y-51032327D01*
X175634383Y-51041115D01*
X175629383Y-51048544D01*
X175627873Y-51049393D01*
X175131453Y-51281622D01*
X175122507Y-51282023D01*
X175118222Y-51279297D01*
X174988402Y-51149477D01*
X174984975Y-51141204D01*
X174986075Y-51136251D01*
X175218306Y-50639825D01*
X175224916Y-50633785D01*
X175233862Y-50634186D01*
G37*
%TD.AperFunction*%
%TD*%
%TA.AperFunction,Conductor*%
%TO.N,/D27*%
G36*
X176792702Y-95998744D02*
G01*
X176793140Y-95999160D01*
X176923657Y-96129677D01*
X176926669Y-96134862D01*
X177233573Y-97256315D01*
X177232452Y-97265199D01*
X177229657Y-97268491D01*
X176509407Y-97852505D01*
X176500822Y-97855054D01*
X176492950Y-97850786D01*
X176492216Y-97849775D01*
X175918532Y-96963592D01*
X175916913Y-96954785D01*
X175919664Y-96949400D01*
X176776179Y-95999597D01*
X176784264Y-95995749D01*
X176792702Y-95998744D01*
G37*
%TD.AperFunction*%
%TD*%
%TA.AperFunction,Conductor*%
%TO.N,/D27*%
G36*
X189336382Y-56236906D02*
G01*
X189340893Y-56242707D01*
X189350524Y-56269796D01*
X189351200Y-56273715D01*
X189351200Y-56691264D01*
X189371677Y-56767687D01*
X189371679Y-56767691D01*
X189411237Y-56836207D01*
X189411241Y-56836212D01*
X189627614Y-57052585D01*
X189630365Y-57056939D01*
X189678641Y-57192731D01*
X189678183Y-57201674D01*
X189675890Y-57204923D01*
X189544923Y-57335890D01*
X189536650Y-57339317D01*
X189532731Y-57338641D01*
X188582707Y-57000893D01*
X188576060Y-56994893D01*
X188575148Y-56987603D01*
X188697773Y-56366981D01*
X188702738Y-56359531D01*
X188706980Y-56357774D01*
X189327603Y-56235148D01*
X189336382Y-56236906D01*
G37*
%TD.AperFunction*%
%TD*%
%TA.AperFunction,Conductor*%
%TO.N,/D23*%
G36*
X193045344Y-54015816D02*
G01*
X193046193Y-54017326D01*
X193118080Y-54170993D01*
X193237791Y-54426893D01*
X193278422Y-54513746D01*
X193278823Y-54522692D01*
X193276097Y-54526977D01*
X193146277Y-54656797D01*
X193138004Y-54660224D01*
X193133047Y-54659122D01*
X192982428Y-54588661D01*
X192636626Y-54426893D01*
X192630585Y-54420283D01*
X192630986Y-54411337D01*
X192631835Y-54409827D01*
X192788985Y-54172963D01*
X192792263Y-54169685D01*
X193029127Y-54012534D01*
X193037915Y-54010816D01*
X193045344Y-54015816D01*
G37*
%TD.AperFunction*%
%TD*%
%TA.AperFunction,Conductor*%
%TO.N,/D23*%
G36*
X187817443Y-96567284D02*
G01*
X187818371Y-96568118D01*
X187950522Y-96700269D01*
X187953949Y-96708542D01*
X187953213Y-96712627D01*
X187414229Y-98159307D01*
X187408129Y-98165863D01*
X187399180Y-98166186D01*
X187398815Y-98166041D01*
X186667383Y-97864047D01*
X186661045Y-97857724D01*
X186660214Y-97852005D01*
X186783934Y-96683804D01*
X186788213Y-96675939D01*
X186794319Y-96673405D01*
X187808854Y-96564758D01*
X187817443Y-96567284D01*
G37*
%TD.AperFunction*%
%TD*%
%TA.AperFunction,Conductor*%
%TO.N,/D21*%
G36*
X191876382Y-51156906D02*
G01*
X191880893Y-51162707D01*
X192218641Y-52112731D01*
X192218183Y-52121674D01*
X192215890Y-52124923D01*
X192084923Y-52255890D01*
X192076650Y-52259317D01*
X192072731Y-52258641D01*
X191122707Y-51920893D01*
X191116060Y-51914893D01*
X191115148Y-51907603D01*
X191237773Y-51286981D01*
X191242738Y-51279531D01*
X191246980Y-51277774D01*
X191867603Y-51155148D01*
X191876382Y-51156906D01*
G37*
%TD.AperFunction*%
%TD*%
%TA.AperFunction,Conductor*%
%TO.N,/D21*%
G36*
X192914573Y-96608385D02*
G01*
X192915179Y-96608950D01*
X193047408Y-96741179D01*
X193050835Y-96749452D01*
X193050027Y-96753725D01*
X192494401Y-98170020D01*
X192488189Y-98176470D01*
X192479236Y-98176639D01*
X192478915Y-98176507D01*
X191747447Y-97864188D01*
X191741184Y-97857788D01*
X191740439Y-97851915D01*
X191892340Y-96686896D01*
X191896807Y-96679138D01*
X191903112Y-96676740D01*
X192906080Y-96605552D01*
X192914573Y-96608385D01*
G37*
%TD.AperFunction*%
%TD*%
%TA.AperFunction,Conductor*%
%TO.N,/A16*%
G36*
X155256462Y-45385486D02*
G01*
X155257972Y-45386335D01*
X155494834Y-45543484D01*
X155498115Y-45546765D01*
X155655264Y-45783627D01*
X155656983Y-45792415D01*
X155651983Y-45799844D01*
X155650473Y-45800693D01*
X155154053Y-46032922D01*
X155145107Y-46033323D01*
X155140822Y-46030597D01*
X155011002Y-45900777D01*
X155007575Y-45892504D01*
X155008675Y-45887551D01*
X155240906Y-45391125D01*
X155247516Y-45385085D01*
X155256462Y-45385486D01*
G37*
%TD.AperFunction*%
%TD*%
%TA.AperFunction,Conductor*%
%TO.N,/A16*%
G36*
X141232702Y-95998744D02*
G01*
X141233140Y-95999160D01*
X141363657Y-96129677D01*
X141366669Y-96134862D01*
X141673573Y-97256315D01*
X141672452Y-97265199D01*
X141669657Y-97268491D01*
X140949407Y-97852505D01*
X140940822Y-97855054D01*
X140932950Y-97850786D01*
X140932216Y-97849775D01*
X140358532Y-96963592D01*
X140356913Y-96954785D01*
X140359664Y-96949400D01*
X141216179Y-95999597D01*
X141224264Y-95995749D01*
X141232702Y-95998744D01*
G37*
%TD.AperFunction*%
%TD*%
%TA.AperFunction,Conductor*%
%TO.N,/C8M.PDS*%
G36*
X136554690Y-54941418D02*
G01*
X137351107Y-55453111D01*
X137356215Y-55460466D01*
X137354626Y-55469278D01*
X137354517Y-55469446D01*
X137002698Y-55996954D01*
X136995256Y-56001935D01*
X136995229Y-56001941D01*
X136376327Y-56124078D01*
X136367547Y-56122317D01*
X136362583Y-56114864D01*
X136362363Y-56112714D01*
X136351906Y-54951365D01*
X136355259Y-54943063D01*
X136363501Y-54939561D01*
X136548366Y-54939561D01*
X136554690Y-54941418D01*
G37*
%TD.AperFunction*%
%TD*%
%TA.AperFunction,Conductor*%
%TO.N,/C8M.PDS*%
G36*
X120103320Y-64819051D02*
G01*
X120236263Y-64951994D01*
X120237585Y-64953572D01*
X120564391Y-65421962D01*
X120566315Y-65430708D01*
X120563069Y-65436930D01*
X119928458Y-66071541D01*
X119920185Y-66074968D01*
X119911912Y-66071541D01*
X119911115Y-66070659D01*
X119396835Y-65438746D01*
X119394272Y-65430169D01*
X119398197Y-65422566D01*
X120087338Y-64818523D01*
X120095815Y-64815649D01*
X120103320Y-64819051D01*
G37*
%TD.AperFunction*%
%TD*%
%TA.AperFunction,Conductor*%
%TO.N,/C8M.PDS*%
G36*
X122493016Y-46497773D02*
G01*
X122500468Y-46502738D01*
X122502226Y-46506983D01*
X122624851Y-47127601D01*
X122623093Y-47136382D01*
X122617292Y-47140893D01*
X121667268Y-47478641D01*
X121658325Y-47478183D01*
X121655076Y-47475890D01*
X121524109Y-47344923D01*
X121520682Y-47336650D01*
X121521358Y-47332731D01*
X121859107Y-46382705D01*
X121865106Y-46376060D01*
X121872395Y-46375148D01*
X122493016Y-46497773D01*
G37*
%TD.AperFunction*%
%TD*%
%TA.AperFunction,Conductor*%
%TO.N,/C8M.PDS*%
G36*
X136539254Y-52620941D02*
G01*
X136544205Y-52628403D01*
X136544421Y-52630494D01*
X136551643Y-53177460D01*
X136548326Y-53185777D01*
X136540098Y-53189313D01*
X136539944Y-53189314D01*
X136356600Y-53189314D01*
X136348383Y-53185943D01*
X136090198Y-52931220D01*
X136086715Y-52922970D01*
X136088674Y-52916410D01*
X136247295Y-52678065D01*
X136254731Y-52673077D01*
X136254727Y-52673077D01*
X136530477Y-52619165D01*
X136539254Y-52620941D01*
G37*
%TD.AperFunction*%
%TD*%
%TA.AperFunction,Conductor*%
%TO.N,/D22*%
G36*
X189208387Y-97866708D02*
G01*
X189209075Y-97867225D01*
X189929439Y-98451331D01*
X189933707Y-98459203D01*
X189933247Y-98463879D01*
X189580038Y-99604694D01*
X189577134Y-99609507D01*
X189446779Y-99739862D01*
X189438506Y-99743289D01*
X189430233Y-99739862D01*
X189429551Y-99739119D01*
X188593701Y-98745072D01*
X188590999Y-98736534D01*
X188593049Y-98730863D01*
X189192101Y-97869631D01*
X189199638Y-97864797D01*
X189208387Y-97866708D01*
G37*
%TD.AperFunction*%
%TD*%
%TA.AperFunction,Conductor*%
%TO.N,/D22*%
G36*
X191599044Y-49854116D02*
G01*
X191599893Y-49855626D01*
X191671780Y-50009293D01*
X191791491Y-50265193D01*
X191832122Y-50352046D01*
X191832523Y-50360992D01*
X191829797Y-50365277D01*
X191699977Y-50495097D01*
X191691704Y-50498524D01*
X191686747Y-50497422D01*
X191536128Y-50426961D01*
X191190326Y-50265193D01*
X191184285Y-50258583D01*
X191184686Y-50249637D01*
X191185535Y-50248127D01*
X191342685Y-50011263D01*
X191345963Y-50007985D01*
X191582827Y-49850834D01*
X191591615Y-49849116D01*
X191599044Y-49854116D01*
G37*
%TD.AperFunction*%
%TD*%
%TA.AperFunction,Conductor*%
%TO.N,/A23*%
G36*
X160753016Y-48737773D02*
G01*
X160760468Y-48742738D01*
X160762226Y-48746983D01*
X160884851Y-49367601D01*
X160883093Y-49376382D01*
X160877292Y-49380893D01*
X160852172Y-49389824D01*
X160848253Y-49390500D01*
X160769435Y-49390500D01*
X160693013Y-49410976D01*
X160693009Y-49410978D01*
X160624492Y-49450537D01*
X160624487Y-49450541D01*
X160594967Y-49480060D01*
X160590613Y-49482811D01*
X159927268Y-49718641D01*
X159918325Y-49718183D01*
X159915076Y-49715890D01*
X159784109Y-49584923D01*
X159780682Y-49576650D01*
X159781358Y-49572731D01*
X159814304Y-49480060D01*
X160119107Y-48622705D01*
X160125106Y-48616060D01*
X160132395Y-48615148D01*
X160753016Y-48737773D01*
G37*
%TD.AperFunction*%
%TD*%
%TA.AperFunction,Conductor*%
%TO.N,/A23*%
G36*
X161267573Y-96313367D02*
G01*
X161267959Y-96313773D01*
X161877256Y-96986317D01*
X161880271Y-96994749D01*
X161878087Y-97000998D01*
X161270487Y-97846793D01*
X161262877Y-97851513D01*
X161254159Y-97849469D01*
X161251493Y-97846808D01*
X160642819Y-97002232D01*
X160640762Y-96993516D01*
X160644883Y-96986351D01*
X161247600Y-96491300D01*
X161247600Y-96321640D01*
X161251027Y-96313367D01*
X161259300Y-96309940D01*
X161267573Y-96313367D01*
G37*
%TD.AperFunction*%
%TD*%
%TA.AperFunction,Conductor*%
%TO.N,/{slash}VMA*%
G36*
X146495259Y-73163183D02*
G01*
X146498440Y-73169070D01*
X146754135Y-74396705D01*
X146752467Y-74405503D01*
X146750056Y-74408174D01*
X146030207Y-74992710D01*
X146021625Y-74995265D01*
X146013749Y-74991002D01*
X146012953Y-74989896D01*
X145642088Y-74405503D01*
X145445844Y-74096270D01*
X145444306Y-74087451D01*
X145447116Y-74082080D01*
X146293024Y-73163529D01*
X146301149Y-73159766D01*
X146301630Y-73159756D01*
X146486986Y-73159756D01*
X146495259Y-73163183D01*
G37*
%TD.AperFunction*%
%TD*%
%TA.AperFunction,Conductor*%
%TO.N,/{slash}VMA*%
G36*
X145256382Y-60956906D02*
G01*
X145260893Y-60962707D01*
X145598641Y-61912731D01*
X145598183Y-61921674D01*
X145595890Y-61924923D01*
X145464923Y-62055890D01*
X145456650Y-62059317D01*
X145452731Y-62058641D01*
X144502707Y-61720893D01*
X144496060Y-61714893D01*
X144495148Y-61707603D01*
X144617773Y-61086981D01*
X144622738Y-61079531D01*
X144626980Y-61077774D01*
X145247603Y-60955148D01*
X145256382Y-60956906D01*
G37*
%TD.AperFunction*%
%TD*%
%TA.AperFunction,Conductor*%
%TO.N,/D26*%
G36*
X179332702Y-95998744D02*
G01*
X179333140Y-95999160D01*
X179463657Y-96129677D01*
X179466669Y-96134862D01*
X179773573Y-97256315D01*
X179772452Y-97265199D01*
X179769657Y-97268491D01*
X179049407Y-97852505D01*
X179040822Y-97855054D01*
X179032950Y-97850786D01*
X179032216Y-97849775D01*
X178458532Y-96963592D01*
X178456913Y-96954785D01*
X178459664Y-96949400D01*
X179316179Y-95999597D01*
X179324264Y-95995749D01*
X179332702Y-95998744D01*
G37*
%TD.AperFunction*%
%TD*%
%TA.AperFunction,Conductor*%
%TO.N,/D26*%
G36*
X191233016Y-58897773D02*
G01*
X191240468Y-58902738D01*
X191242226Y-58906983D01*
X191364851Y-59527601D01*
X191363093Y-59536382D01*
X191357292Y-59540893D01*
X190407268Y-59878641D01*
X190398325Y-59878183D01*
X190395076Y-59875890D01*
X190264109Y-59744923D01*
X190260682Y-59736650D01*
X190261358Y-59732731D01*
X190599107Y-58782705D01*
X190605106Y-58776060D01*
X190612395Y-58775148D01*
X191233016Y-58897773D01*
G37*
%TD.AperFunction*%
%TD*%
%TA.AperFunction,Conductor*%
%TO.N,/D16*%
G36*
X191876382Y-43536906D02*
G01*
X191880893Y-43542707D01*
X192218641Y-44492731D01*
X192218183Y-44501674D01*
X192215890Y-44504923D01*
X192084923Y-44635890D01*
X192076650Y-44639317D01*
X192072731Y-44638641D01*
X191122707Y-44300893D01*
X191116060Y-44294893D01*
X191115148Y-44287603D01*
X191237773Y-43666981D01*
X191242738Y-43659531D01*
X191246980Y-43657774D01*
X191867603Y-43535148D01*
X191876382Y-43536906D01*
G37*
%TD.AperFunction*%
%TD*%
%TA.AperFunction,Conductor*%
%TO.N,/D16*%
G36*
X195762795Y-70060794D02*
G01*
X195766222Y-70069067D01*
X195765590Y-70072860D01*
X195602442Y-70548880D01*
X195596518Y-70555596D01*
X195589129Y-70556570D01*
X195309690Y-70501936D01*
X195302228Y-70496985D01*
X195302195Y-70496935D01*
X195145897Y-70262081D01*
X195144166Y-70253295D01*
X195149155Y-70245859D01*
X195150867Y-70244916D01*
X195536202Y-70072860D01*
X195568622Y-70058383D01*
X195573392Y-70057367D01*
X195754522Y-70057367D01*
X195762795Y-70060794D01*
G37*
%TD.AperFunction*%
%TD*%
%TA.AperFunction,Conductor*%
%TO.N,/{slash}BR_00*%
G36*
X172913106Y-85633047D02*
G01*
X172915955Y-85635141D01*
X173046908Y-85766094D01*
X173050335Y-85774367D01*
X173049495Y-85778720D01*
X172681119Y-86697803D01*
X172674860Y-86704207D01*
X172667991Y-86704928D01*
X172046983Y-86582226D01*
X172039531Y-86577261D01*
X172037773Y-86573016D01*
X171915225Y-85952786D01*
X171916983Y-85944007D01*
X171923206Y-85939354D01*
X172904186Y-85632248D01*
X172913106Y-85633047D01*
G37*
%TD.AperFunction*%
%TD*%
%TA.AperFunction,Conductor*%
%TO.N,/{slash}BR_00*%
G36*
X172811644Y-81056116D02*
G01*
X172812493Y-81057626D01*
X172884380Y-81211293D01*
X173004091Y-81467193D01*
X173044722Y-81554046D01*
X173045123Y-81562992D01*
X173042397Y-81567277D01*
X172912577Y-81697097D01*
X172904304Y-81700524D01*
X172899347Y-81699422D01*
X172748728Y-81628961D01*
X172402926Y-81467193D01*
X172396885Y-81460583D01*
X172397286Y-81451637D01*
X172398135Y-81450127D01*
X172555285Y-81213263D01*
X172558563Y-81209985D01*
X172795427Y-81052834D01*
X172804215Y-81051116D01*
X172811644Y-81056116D01*
G37*
%TD.AperFunction*%
%TD*%
%TA.AperFunction,Conductor*%
%TO.N,/{slash}RESET_00*%
G36*
X148566828Y-75009546D02*
G01*
X148569501Y-75012219D01*
X149179603Y-75861114D01*
X149181648Y-75869832D01*
X149180705Y-75872888D01*
X148688150Y-76928835D01*
X148681547Y-76934884D01*
X148677547Y-76935589D01*
X148492146Y-76935589D01*
X148483873Y-76932162D01*
X148481737Y-76929231D01*
X147939663Y-75873040D01*
X147938934Y-75864115D01*
X147940568Y-75860875D01*
X148550499Y-75012218D01*
X148558110Y-75007501D01*
X148566828Y-75009546D01*
G37*
%TD.AperFunction*%
%TD*%
%TA.AperFunction,Conductor*%
%TO.N,/{slash}RESET_00*%
G36*
X148686846Y-87078296D02*
G01*
X149048858Y-87202448D01*
X149055572Y-87208373D01*
X149056539Y-87215790D01*
X149000946Y-87496223D01*
X148995975Y-87503672D01*
X148995942Y-87503694D01*
X148762035Y-87659048D01*
X148753248Y-87660771D01*
X148745816Y-87655775D01*
X148744896Y-87654111D01*
X148677079Y-87503694D01*
X148492442Y-87094171D01*
X148492167Y-87085221D01*
X148498300Y-87078697D01*
X148503109Y-87077663D01*
X148683050Y-87077663D01*
X148686846Y-87078296D01*
G37*
%TD.AperFunction*%
%TD*%
%TA.AperFunction,Conductor*%
%TO.N,/D31*%
G36*
X166632702Y-95998744D02*
G01*
X166633140Y-95999160D01*
X166763657Y-96129677D01*
X166766669Y-96134862D01*
X167073573Y-97256315D01*
X167072452Y-97265199D01*
X167069657Y-97268491D01*
X166349407Y-97852505D01*
X166340822Y-97855054D01*
X166332950Y-97850786D01*
X166332216Y-97849775D01*
X165758532Y-96963592D01*
X165756913Y-96954785D01*
X165759664Y-96949400D01*
X166616179Y-95999597D01*
X166624264Y-95995749D01*
X166632702Y-95998744D01*
G37*
%TD.AperFunction*%
%TD*%
%TA.AperFunction,Conductor*%
%TO.N,/D31*%
G36*
X169197562Y-78070986D02*
G01*
X169199072Y-78071835D01*
X169435934Y-78228984D01*
X169439215Y-78232265D01*
X169596364Y-78469127D01*
X169598083Y-78477915D01*
X169593083Y-78485344D01*
X169591573Y-78486193D01*
X169095153Y-78718422D01*
X169086207Y-78718823D01*
X169081922Y-78716097D01*
X168952102Y-78586277D01*
X168948675Y-78578004D01*
X168949775Y-78573051D01*
X169182006Y-78076625D01*
X169188616Y-78070585D01*
X169197562Y-78070986D01*
G37*
%TD.AperFunction*%
%TD*%
%TA.AperFunction,Conductor*%
%TO.N,/{slash}UDS*%
G36*
X176507826Y-75010540D02*
G01*
X176510487Y-75013206D01*
X177117912Y-75858757D01*
X177119956Y-75867475D01*
X177116837Y-75873700D01*
X176403927Y-76613805D01*
X176395719Y-76617386D01*
X176387383Y-76614115D01*
X176383802Y-76605907D01*
X176383800Y-76605688D01*
X176383800Y-76434701D01*
X176383799Y-76434699D01*
X175882659Y-75873687D01*
X175879704Y-75865235D01*
X175881892Y-75859054D01*
X176491493Y-75013190D01*
X176499110Y-75008483D01*
X176507826Y-75010540D01*
G37*
%TD.AperFunction*%
%TD*%
%TA.AperFunction,Conductor*%
%TO.N,/{slash}UDS*%
G36*
X172057054Y-82755917D02*
G01*
X172058961Y-82758423D01*
X172575104Y-83669434D01*
X172576200Y-83678321D01*
X172571437Y-83684921D01*
X172044042Y-84038291D01*
X172035261Y-84040049D01*
X172035229Y-84040043D01*
X171416158Y-83915931D01*
X171408720Y-83910944D01*
X171406986Y-83902159D01*
X171407556Y-83900212D01*
X171852694Y-82759935D01*
X171858895Y-82753475D01*
X171863593Y-82752490D01*
X172048781Y-82752490D01*
X172057054Y-82755917D01*
G37*
%TD.AperFunction*%
%TD*%
%TA.AperFunction,Conductor*%
%TO.N,/E*%
G36*
X143605820Y-73067838D02*
G01*
X143608150Y-73071165D01*
X144100705Y-74127111D01*
X144101097Y-74136057D01*
X144099603Y-74138885D01*
X143489501Y-74987780D01*
X143481890Y-74992498D01*
X143473172Y-74990453D01*
X143470499Y-74987780D01*
X143272536Y-74712335D01*
X142860570Y-74139127D01*
X142858526Y-74130411D01*
X142859661Y-74126962D01*
X143401737Y-73070769D01*
X143408563Y-73064973D01*
X143412146Y-73064411D01*
X143597547Y-73064411D01*
X143605820Y-73067838D01*
G37*
%TD.AperFunction*%
%TD*%
%TA.AperFunction,Conductor*%
%TO.N,/E*%
G36*
X137370242Y-60543881D02*
G01*
X138280835Y-60976826D01*
X138286834Y-60983472D01*
X138287510Y-60987391D01*
X138287510Y-61172608D01*
X138284083Y-61180881D01*
X138280834Y-61183174D01*
X137370243Y-61616117D01*
X137361300Y-61616575D01*
X137355499Y-61612064D01*
X137286427Y-61508976D01*
X137003362Y-61086511D01*
X137001605Y-61077732D01*
X137003361Y-61073490D01*
X137355499Y-60547934D01*
X137362951Y-60542970D01*
X137370242Y-60543881D01*
G37*
%TD.AperFunction*%
%TD*%
%TA.AperFunction,Conductor*%
%TO.N,/FC0*%
G36*
X139600070Y-52942091D02*
G01*
X139602796Y-52946376D01*
X139789608Y-53461609D01*
X139789207Y-53470555D01*
X139782597Y-53476596D01*
X139780929Y-53477065D01*
X139502320Y-53533430D01*
X139497680Y-53533430D01*
X139219070Y-53477065D01*
X139211641Y-53472065D01*
X139209922Y-53463277D01*
X139210387Y-53461620D01*
X139397204Y-52946376D01*
X139403245Y-52939766D01*
X139408203Y-52938664D01*
X139591797Y-52938664D01*
X139600070Y-52942091D01*
G37*
%TD.AperFunction*%
%TD*%
%TA.AperFunction,Conductor*%
%TO.N,/FC0*%
G36*
X127395030Y-54055835D02*
G01*
X127402458Y-54060834D01*
X127404177Y-54069622D01*
X127403708Y-54071290D01*
X127216896Y-54586524D01*
X127210855Y-54593134D01*
X127205897Y-54594236D01*
X127022303Y-54594236D01*
X127014030Y-54590809D01*
X127011304Y-54586524D01*
X126963644Y-54455078D01*
X126824491Y-54071288D01*
X126824892Y-54062344D01*
X126831502Y-54056303D01*
X126833156Y-54055837D01*
X127111782Y-53999469D01*
X127116418Y-53999469D01*
X127395030Y-54055835D01*
G37*
%TD.AperFunction*%
%TD*%
%TA.AperFunction,Conductor*%
%TO.N,/FC0*%
G36*
X123719073Y-73224047D02*
G01*
X123722375Y-73230611D01*
X123894615Y-74397090D01*
X123892433Y-74405775D01*
X123890415Y-74407882D01*
X123172474Y-74990870D01*
X123163892Y-74993425D01*
X123156016Y-74989162D01*
X123154190Y-74986017D01*
X122746226Y-73933887D01*
X122746430Y-73924936D01*
X122749269Y-73921000D01*
X123517554Y-73223656D01*
X123525417Y-73220620D01*
X123710800Y-73220620D01*
X123719073Y-73224047D01*
G37*
%TD.AperFunction*%
%TD*%
%TA.AperFunction,Conductor*%
%TO.N,/FC0*%
G36*
X140175885Y-35877005D02*
G01*
X140180573Y-35883346D01*
X140479096Y-36872993D01*
X140478205Y-36881903D01*
X140476168Y-36884645D01*
X140345223Y-37015590D01*
X140336950Y-37019017D01*
X140332474Y-37018127D01*
X139422052Y-36641178D01*
X139415719Y-36634847D01*
X139415050Y-36628100D01*
X139537773Y-36006981D01*
X139542738Y-35999531D01*
X139546980Y-35997774D01*
X140167104Y-35875247D01*
X140175885Y-35877005D01*
G37*
%TD.AperFunction*%
%TD*%
%TA.AperFunction,Conductor*%
%TO.N,/A7*%
G36*
X117341286Y-97564119D02*
G01*
X118072691Y-97856093D01*
X118079104Y-97862343D01*
X118080015Y-97867896D01*
X117986135Y-99036286D01*
X117982057Y-99044258D01*
X117976153Y-99046928D01*
X116948375Y-99196007D01*
X116939695Y-99193803D01*
X116938422Y-99192701D01*
X116806367Y-99060646D01*
X116802940Y-99052373D01*
X116803609Y-99048473D01*
X117325941Y-97571091D01*
X117331929Y-97564436D01*
X117340871Y-97563963D01*
X117341286Y-97564119D01*
G37*
%TD.AperFunction*%
%TD*%
%TA.AperFunction,Conductor*%
%TO.N,/A7*%
G36*
X116060662Y-34979686D02*
G01*
X116062172Y-34980535D01*
X116299034Y-35137684D01*
X116302315Y-35140965D01*
X116459464Y-35377827D01*
X116461183Y-35386615D01*
X116456183Y-35394044D01*
X116454673Y-35394893D01*
X115958253Y-35627122D01*
X115949307Y-35627523D01*
X115945022Y-35624797D01*
X115815202Y-35494977D01*
X115811775Y-35486704D01*
X115812875Y-35481751D01*
X116045106Y-34985325D01*
X116051716Y-34979285D01*
X116060662Y-34979686D01*
G37*
%TD.AperFunction*%
%TD*%
%TA.AperFunction,Conductor*%
%TO.N,/A11*%
G36*
X163698670Y-72106391D02*
G01*
X163701396Y-72110676D01*
X163888208Y-72625909D01*
X163887807Y-72634855D01*
X163881197Y-72640896D01*
X163879529Y-72641365D01*
X163600920Y-72697730D01*
X163596280Y-72697730D01*
X163317670Y-72641365D01*
X163310241Y-72636365D01*
X163308522Y-72627577D01*
X163308987Y-72625920D01*
X163495804Y-72110676D01*
X163501845Y-72104066D01*
X163506803Y-72102964D01*
X163690397Y-72102964D01*
X163698670Y-72106391D01*
G37*
%TD.AperFunction*%
%TD*%
%TA.AperFunction,Conductor*%
%TO.N,/A11*%
G36*
X129832062Y-72620486D02*
G01*
X129833572Y-72621335D01*
X130070434Y-72778484D01*
X130073715Y-72781765D01*
X130230864Y-73018627D01*
X130232583Y-73027415D01*
X130227583Y-73034844D01*
X130226073Y-73035693D01*
X129729653Y-73267922D01*
X129720707Y-73268323D01*
X129716422Y-73265597D01*
X129586602Y-73135777D01*
X129583175Y-73127504D01*
X129584275Y-73122551D01*
X129816506Y-72626125D01*
X129823116Y-72620085D01*
X129832062Y-72620486D01*
G37*
%TD.AperFunction*%
%TD*%
%TA.AperFunction,Conductor*%
%TO.N,/A11*%
G36*
X165833016Y-41117773D02*
G01*
X165840468Y-41122738D01*
X165842226Y-41126983D01*
X165964851Y-41747601D01*
X165963093Y-41756382D01*
X165957292Y-41760893D01*
X165007268Y-42098641D01*
X164998325Y-42098183D01*
X164995076Y-42095890D01*
X164864109Y-41964923D01*
X164860682Y-41956650D01*
X164861358Y-41952731D01*
X165199107Y-41002705D01*
X165205106Y-40996060D01*
X165212395Y-40995148D01*
X165833016Y-41117773D01*
G37*
%TD.AperFunction*%
%TD*%
%TA.AperFunction,Conductor*%
%TO.N,/A11*%
G36*
X128532702Y-95998744D02*
G01*
X128533140Y-95999160D01*
X128663657Y-96129677D01*
X128666669Y-96134862D01*
X128973573Y-97256315D01*
X128972452Y-97265199D01*
X128969657Y-97268491D01*
X128249407Y-97852505D01*
X128240822Y-97855054D01*
X128232950Y-97850786D01*
X128232216Y-97849775D01*
X127658532Y-96963592D01*
X127656913Y-96954785D01*
X127659664Y-96949400D01*
X128516179Y-95999597D01*
X128524264Y-95995749D01*
X128532702Y-95998744D01*
G37*
%TD.AperFunction*%
%TD*%
%TA.AperFunction,Conductor*%
%TO.N,/{slash}IPL1*%
G36*
X134400844Y-34927616D02*
G01*
X134401693Y-34929126D01*
X134473580Y-35082793D01*
X134593291Y-35338693D01*
X134633922Y-35425546D01*
X134634323Y-35434492D01*
X134631597Y-35438777D01*
X134501777Y-35568597D01*
X134493504Y-35572024D01*
X134488547Y-35570922D01*
X134337928Y-35500461D01*
X133992126Y-35338693D01*
X133986085Y-35332083D01*
X133986486Y-35323137D01*
X133987335Y-35321627D01*
X134144485Y-35084763D01*
X134147763Y-35081485D01*
X134384627Y-34924334D01*
X134393415Y-34922616D01*
X134400844Y-34927616D01*
G37*
%TD.AperFunction*%
%TD*%
%TA.AperFunction,Conductor*%
%TO.N,/{slash}IPL1*%
G36*
X133093165Y-73139400D02*
G01*
X133093790Y-73140075D01*
X133926221Y-74114938D01*
X133928987Y-74123455D01*
X133926928Y-74129217D01*
X133327898Y-74990368D01*
X133320360Y-74995203D01*
X133311612Y-74993292D01*
X133310933Y-74992781D01*
X132590608Y-74408707D01*
X132586341Y-74400835D01*
X132586827Y-74396078D01*
X132943286Y-73274583D01*
X132946161Y-73269858D01*
X133076620Y-73139399D01*
X133084892Y-73135973D01*
X133093165Y-73139400D01*
G37*
%TD.AperFunction*%
%TD*%
%TA.AperFunction,Conductor*%
%TO.N,/A19*%
G36*
X149307740Y-97555408D02*
G01*
X149314055Y-97561758D01*
X149314206Y-97562146D01*
X149850893Y-99013041D01*
X149850550Y-99021989D01*
X149848193Y-99025373D01*
X149716055Y-99157511D01*
X149707782Y-99160938D01*
X149706476Y-99160865D01*
X149404206Y-99126897D01*
X148690034Y-99046642D01*
X148682196Y-99042313D01*
X148679702Y-99036206D01*
X148678594Y-99025373D01*
X148560182Y-97867983D01*
X148562749Y-97859405D01*
X148567371Y-97855973D01*
X149298787Y-97555383D01*
X149307740Y-97555408D01*
G37*
%TD.AperFunction*%
%TD*%
%TA.AperFunction,Conductor*%
%TO.N,/A19*%
G36*
X160753016Y-43657773D02*
G01*
X160760468Y-43662738D01*
X160762226Y-43666983D01*
X160884851Y-44287601D01*
X160883093Y-44296382D01*
X160877292Y-44300893D01*
X159927268Y-44638641D01*
X159918325Y-44638183D01*
X159915076Y-44635890D01*
X159784109Y-44504923D01*
X159780682Y-44496650D01*
X159781358Y-44492731D01*
X160119107Y-43542705D01*
X160125106Y-43536060D01*
X160132395Y-43535148D01*
X160753016Y-43657773D01*
G37*
%TD.AperFunction*%
%TD*%
%TA.AperFunction,Conductor*%
%TO.N,/A19*%
G36*
X155734644Y-70580416D02*
G01*
X155735493Y-70581926D01*
X155807380Y-70735593D01*
X155927091Y-70991493D01*
X155967722Y-71078346D01*
X155968123Y-71087292D01*
X155965397Y-71091577D01*
X155835577Y-71221397D01*
X155827304Y-71224824D01*
X155822347Y-71223722D01*
X155671728Y-71153261D01*
X155325926Y-70991493D01*
X155319885Y-70984883D01*
X155320286Y-70975937D01*
X155321135Y-70974427D01*
X155478285Y-70737563D01*
X155481563Y-70734285D01*
X155718427Y-70577134D01*
X155727215Y-70575416D01*
X155734644Y-70580416D01*
G37*
%TD.AperFunction*%
%TD*%
%TA.AperFunction,Conductor*%
%TO.N,/D29*%
G36*
X187107289Y-60351969D02*
G01*
X187115979Y-60353727D01*
X187385359Y-60408225D01*
X187392788Y-60413225D01*
X187394525Y-60421921D01*
X187297437Y-60922443D01*
X187292497Y-60929912D01*
X187285951Y-60931915D01*
X187102299Y-60931915D01*
X187094026Y-60928488D01*
X187092209Y-60926137D01*
X186858630Y-60528163D01*
X186857397Y-60519294D01*
X186862193Y-60512531D01*
X187098443Y-60353726D01*
X187107220Y-60351956D01*
X187107289Y-60351969D01*
G37*
%TD.AperFunction*%
%TD*%
%TA.AperFunction,Conductor*%
%TO.N,/D29*%
G36*
X172167740Y-97555408D02*
G01*
X172174055Y-97561758D01*
X172174206Y-97562146D01*
X172710893Y-99013041D01*
X172710550Y-99021989D01*
X172708193Y-99025373D01*
X172576055Y-99157511D01*
X172567782Y-99160938D01*
X172566476Y-99160865D01*
X172264206Y-99126897D01*
X171550034Y-99046642D01*
X171542196Y-99042313D01*
X171539702Y-99036206D01*
X171538594Y-99025373D01*
X171420182Y-97867983D01*
X171422749Y-97859405D01*
X171427371Y-97855973D01*
X172158787Y-97555383D01*
X172167740Y-97555408D01*
G37*
%TD.AperFunction*%
%TD*%
%TA.AperFunction,Conductor*%
%TO.N,/{slash}IPL2*%
G36*
X162753106Y-85633047D02*
G01*
X162755955Y-85635141D01*
X162886908Y-85766094D01*
X162890335Y-85774367D01*
X162889495Y-85778720D01*
X162521119Y-86697803D01*
X162514860Y-86704207D01*
X162507991Y-86704928D01*
X161886983Y-86582226D01*
X161879531Y-86577261D01*
X161877773Y-86573016D01*
X161755225Y-85952786D01*
X161756983Y-85944007D01*
X161763206Y-85939354D01*
X162744186Y-85632248D01*
X162753106Y-85633047D01*
G37*
%TD.AperFunction*%
%TD*%
%TA.AperFunction,Conductor*%
%TO.N,/{slash}IPL2*%
G36*
X175993016Y-36037773D02*
G01*
X176000468Y-36042738D01*
X176002226Y-36046983D01*
X176124851Y-36667601D01*
X176123093Y-36676382D01*
X176117292Y-36680893D01*
X175167268Y-37018641D01*
X175158325Y-37018183D01*
X175155076Y-37015890D01*
X175024109Y-36884923D01*
X175020682Y-36876650D01*
X175021358Y-36872731D01*
X175359107Y-35922705D01*
X175365106Y-35916060D01*
X175372395Y-35915148D01*
X175993016Y-36037773D01*
G37*
%TD.AperFunction*%
%TD*%
%TA.AperFunction,Conductor*%
%TO.N,/A3*%
G36*
X113516788Y-72518325D02*
G01*
X113839444Y-72663913D01*
X114018923Y-72744897D01*
X114025055Y-72751424D01*
X114024776Y-72760374D01*
X114023860Y-72762030D01*
X113866815Y-72998734D01*
X113863534Y-73002015D01*
X113626515Y-73159269D01*
X113617727Y-73160988D01*
X113610298Y-73155988D01*
X113609519Y-73154624D01*
X113371633Y-72663913D01*
X113371108Y-72654973D01*
X113373886Y-72650538D01*
X113503707Y-72520717D01*
X113511979Y-72517291D01*
X113516788Y-72518325D01*
G37*
%TD.AperFunction*%
%TD*%
%TA.AperFunction,Conductor*%
%TO.N,/A3*%
G36*
X112405862Y-37131686D02*
G01*
X112407372Y-37132535D01*
X112644234Y-37289684D01*
X112647515Y-37292965D01*
X112804664Y-37529827D01*
X112806383Y-37538615D01*
X112801383Y-37546044D01*
X112799873Y-37546893D01*
X112303453Y-37779122D01*
X112294507Y-37779523D01*
X112290222Y-37776797D01*
X112160402Y-37646977D01*
X112156975Y-37638704D01*
X112158075Y-37633751D01*
X112390306Y-37137325D01*
X112396916Y-37131285D01*
X112405862Y-37131686D01*
G37*
%TD.AperFunction*%
%TD*%
%TA.AperFunction,Conductor*%
%TO.N,/A13*%
G36*
X133612702Y-95998744D02*
G01*
X133613140Y-95999160D01*
X133743657Y-96129677D01*
X133746669Y-96134862D01*
X134053573Y-97256315D01*
X134052452Y-97265199D01*
X134049657Y-97268491D01*
X133329407Y-97852505D01*
X133320822Y-97855054D01*
X133312950Y-97850786D01*
X133312216Y-97849775D01*
X132738532Y-96963592D01*
X132736913Y-96954785D01*
X132739664Y-96949400D01*
X133596179Y-95999597D01*
X133604264Y-95995749D01*
X133612702Y-95998744D01*
G37*
%TD.AperFunction*%
%TD*%
%TA.AperFunction,Conductor*%
%TO.N,/A13*%
G36*
X136029598Y-36779688D02*
G01*
X136029657Y-36779727D01*
X136265920Y-36938540D01*
X136270874Y-36945999D01*
X136269493Y-36954156D01*
X136036588Y-37352411D01*
X136029453Y-37357823D01*
X136026488Y-37358205D01*
X135842837Y-37358205D01*
X135834564Y-37354778D01*
X135831354Y-37348747D01*
X135752734Y-36945999D01*
X135733590Y-36847931D01*
X135735368Y-36839155D01*
X135742751Y-36834223D01*
X136020810Y-36777969D01*
X136029598Y-36779688D01*
G37*
%TD.AperFunction*%
%TD*%
%TA.AperFunction,Conductor*%
%TO.N,/A10*%
G36*
X161396382Y-33376906D02*
G01*
X161400893Y-33382707D01*
X161738641Y-34332731D01*
X161738183Y-34341674D01*
X161735890Y-34344923D01*
X161604923Y-34475890D01*
X161596650Y-34479317D01*
X161592731Y-34478641D01*
X160642707Y-34140893D01*
X160636060Y-34134893D01*
X160635148Y-34127603D01*
X160757773Y-33506981D01*
X160762738Y-33499531D01*
X160766980Y-33497774D01*
X161387603Y-33375148D01*
X161396382Y-33376906D01*
G37*
%TD.AperFunction*%
%TD*%
%TA.AperFunction,Conductor*%
%TO.N,/A10*%
G36*
X148573577Y-90198102D02*
G01*
X148703397Y-90327922D01*
X148706824Y-90336195D01*
X148705722Y-90341153D01*
X148473493Y-90837573D01*
X148466883Y-90843614D01*
X148457937Y-90843213D01*
X148456427Y-90842364D01*
X148219565Y-90685215D01*
X148216284Y-90681934D01*
X148059135Y-90445072D01*
X148057416Y-90436284D01*
X148062416Y-90428855D01*
X148063921Y-90428008D01*
X148560348Y-90195776D01*
X148569292Y-90195376D01*
X148573577Y-90198102D01*
G37*
%TD.AperFunction*%
%TD*%
%TA.AperFunction,Conductor*%
%TO.N,/A14*%
G36*
X166334277Y-71708102D02*
G01*
X166464097Y-71837922D01*
X166467524Y-71846195D01*
X166466422Y-71851153D01*
X166234193Y-72347573D01*
X166227583Y-72353614D01*
X166218637Y-72353213D01*
X166217127Y-72352364D01*
X165980265Y-72195215D01*
X165976984Y-72191934D01*
X165819835Y-71955072D01*
X165818116Y-71946284D01*
X165823116Y-71938855D01*
X165824621Y-71938008D01*
X166321048Y-71705776D01*
X166329992Y-71705376D01*
X166334277Y-71708102D01*
G37*
%TD.AperFunction*%
%TD*%
%TA.AperFunction,Conductor*%
%TO.N,/A14*%
G36*
X136152702Y-95998744D02*
G01*
X136153140Y-95999160D01*
X136283657Y-96129677D01*
X136286669Y-96134862D01*
X136593573Y-97256315D01*
X136592452Y-97265199D01*
X136589657Y-97268491D01*
X135869407Y-97852505D01*
X135860822Y-97855054D01*
X135852950Y-97850786D01*
X135852216Y-97849775D01*
X135278532Y-96963592D01*
X135276913Y-96954785D01*
X135279664Y-96949400D01*
X136136179Y-95999597D01*
X136144264Y-95995749D01*
X136152702Y-95998744D01*
G37*
%TD.AperFunction*%
%TD*%
%TA.AperFunction,Conductor*%
%TO.N,/A14*%
G36*
X145142662Y-71734186D02*
G01*
X145144172Y-71735035D01*
X145381034Y-71892184D01*
X145384315Y-71895465D01*
X145541464Y-72132327D01*
X145543183Y-72141115D01*
X145538183Y-72148544D01*
X145536673Y-72149393D01*
X145040253Y-72381622D01*
X145031307Y-72382023D01*
X145027022Y-72379297D01*
X144897202Y-72249477D01*
X144893775Y-72241204D01*
X144894875Y-72236251D01*
X145127106Y-71739825D01*
X145133716Y-71733785D01*
X145142662Y-71734186D01*
G37*
%TD.AperFunction*%
%TD*%
%TA.AperFunction,Conductor*%
%TO.N,/A14*%
G36*
X164141674Y-40141816D02*
G01*
X164144923Y-40144109D01*
X164275890Y-40275076D01*
X164279317Y-40283349D01*
X164278641Y-40287268D01*
X163940893Y-41237292D01*
X163934893Y-41243939D01*
X163927601Y-41244851D01*
X163306983Y-41122226D01*
X163299531Y-41117261D01*
X163297773Y-41113016D01*
X163175148Y-40492396D01*
X163176906Y-40483617D01*
X163182704Y-40479107D01*
X164132731Y-40141358D01*
X164141674Y-40141816D01*
G37*
%TD.AperFunction*%
%TD*%
%TA.AperFunction,Conductor*%
%TO.N,/D17*%
G36*
X188693016Y-46197773D02*
G01*
X188700468Y-46202738D01*
X188702226Y-46206983D01*
X188824851Y-46827601D01*
X188823093Y-46836382D01*
X188817292Y-46840893D01*
X187867268Y-47178641D01*
X187858325Y-47178183D01*
X187855076Y-47175890D01*
X187724109Y-47044923D01*
X187720682Y-47036650D01*
X187721358Y-47032731D01*
X188059107Y-46082705D01*
X188065106Y-46076060D01*
X188072395Y-46075148D01*
X188693016Y-46197773D01*
G37*
%TD.AperFunction*%
%TD*%
%TA.AperFunction,Conductor*%
%TO.N,/D17*%
G36*
X184245820Y-73067838D02*
G01*
X184248150Y-73071165D01*
X184740705Y-74127111D01*
X184741097Y-74136057D01*
X184739603Y-74138885D01*
X184129501Y-74987780D01*
X184121890Y-74992498D01*
X184113172Y-74990453D01*
X184110499Y-74987780D01*
X183912536Y-74712335D01*
X183500570Y-74139127D01*
X183498526Y-74130411D01*
X183499661Y-74126962D01*
X184041737Y-73070769D01*
X184048563Y-73064973D01*
X184052146Y-73064411D01*
X184237547Y-73064411D01*
X184245820Y-73067838D01*
G37*
%TD.AperFunction*%
%TD*%
%TA.AperFunction,Conductor*%
%TO.N,/FC2*%
G36*
X129661362Y-71189186D02*
G01*
X129662872Y-71190035D01*
X129899734Y-71347184D01*
X129903015Y-71350465D01*
X130060164Y-71587327D01*
X130061883Y-71596115D01*
X130056883Y-71603544D01*
X130055373Y-71604393D01*
X129558953Y-71836622D01*
X129550007Y-71837023D01*
X129545722Y-71834297D01*
X129415902Y-71704477D01*
X129412475Y-71696204D01*
X129413575Y-71691251D01*
X129645806Y-71194825D01*
X129652416Y-71188785D01*
X129661362Y-71189186D01*
G37*
%TD.AperFunction*%
%TD*%
%TA.AperFunction,Conductor*%
%TO.N,/FC2*%
G36*
X168381099Y-63982274D02*
G01*
X168384348Y-63985520D01*
X168735159Y-64511516D01*
X168736898Y-64520300D01*
X168732720Y-64527155D01*
X168037697Y-65081549D01*
X168036601Y-65082423D01*
X168029305Y-65084976D01*
X167844063Y-65084976D01*
X167835790Y-65081549D01*
X167832413Y-65074359D01*
X167743464Y-64117292D01*
X167746111Y-64108739D01*
X167752813Y-64104739D01*
X168372316Y-63980540D01*
X168381099Y-63982274D01*
G37*
%TD.AperFunction*%
%TD*%
%TA.AperFunction,Conductor*%
%TO.N,/FC2*%
G36*
X168033470Y-70354191D02*
G01*
X168036196Y-70358476D01*
X168223008Y-70873709D01*
X168222607Y-70882655D01*
X168215997Y-70888696D01*
X168214329Y-70889165D01*
X167935720Y-70945530D01*
X167931080Y-70945530D01*
X167652470Y-70889165D01*
X167645041Y-70884165D01*
X167643322Y-70875377D01*
X167643787Y-70873720D01*
X167830604Y-70358476D01*
X167836645Y-70351866D01*
X167841603Y-70350764D01*
X168025197Y-70350764D01*
X168033470Y-70354191D01*
G37*
%TD.AperFunction*%
%TD*%
%TA.AperFunction,Conductor*%
%TO.N,/FC2*%
G36*
X130001070Y-70758391D02*
G01*
X130003796Y-70762676D01*
X130190608Y-71277909D01*
X130190207Y-71286855D01*
X130183597Y-71292896D01*
X130181929Y-71293365D01*
X129903320Y-71349730D01*
X129898680Y-71349730D01*
X129620070Y-71293365D01*
X129612641Y-71288365D01*
X129610922Y-71279577D01*
X129611387Y-71277920D01*
X129798204Y-70762676D01*
X129804245Y-70756066D01*
X129809203Y-70754964D01*
X129992797Y-70754964D01*
X130001070Y-70758391D01*
G37*
%TD.AperFunction*%
%TD*%
%TA.AperFunction,Conductor*%
%TO.N,/FC2*%
G36*
X128365820Y-73067838D02*
G01*
X128368150Y-73071165D01*
X128860705Y-74127111D01*
X128861097Y-74136057D01*
X128859603Y-74138885D01*
X128249501Y-74987780D01*
X128241890Y-74992498D01*
X128233172Y-74990453D01*
X128230499Y-74987780D01*
X128032536Y-74712335D01*
X127620570Y-74139127D01*
X127618526Y-74130411D01*
X127619661Y-74126962D01*
X128161737Y-73070769D01*
X128168563Y-73064973D01*
X128172146Y-73064411D01*
X128357547Y-73064411D01*
X128365820Y-73067838D01*
G37*
%TD.AperFunction*%
%TD*%
%TA.AperFunction,Conductor*%
%TO.N,/FC2*%
G36*
X136127001Y-35060902D02*
G01*
X137116653Y-35359426D01*
X137123584Y-35365096D01*
X137124752Y-35372895D01*
X137002226Y-35993016D01*
X136997261Y-36000468D01*
X136993016Y-36002226D01*
X136371899Y-36124949D01*
X136363118Y-36123191D01*
X136358821Y-36117947D01*
X135981872Y-35207525D01*
X135981873Y-35198570D01*
X135984406Y-35194779D01*
X136115355Y-35063830D01*
X136123627Y-35060404D01*
X136127001Y-35060902D01*
G37*
%TD.AperFunction*%
%TD*%
%TA.AperFunction,Conductor*%
%TO.N,/FC1*%
G36*
X127732562Y-70655986D02*
G01*
X127734072Y-70656835D01*
X127970934Y-70813984D01*
X127974215Y-70817265D01*
X128131364Y-71054127D01*
X128133083Y-71062915D01*
X128128083Y-71070344D01*
X128126573Y-71071193D01*
X127630153Y-71303422D01*
X127621207Y-71303823D01*
X127616922Y-71301097D01*
X127487102Y-71171277D01*
X127483675Y-71163004D01*
X127484775Y-71158051D01*
X127717006Y-70661625D01*
X127723616Y-70655585D01*
X127732562Y-70655986D01*
G37*
%TD.AperFunction*%
%TD*%
%TA.AperFunction,Conductor*%
%TO.N,/FC1*%
G36*
X147957330Y-68016935D02*
G01*
X147964758Y-68021934D01*
X147966477Y-68030722D01*
X147966008Y-68032390D01*
X147779196Y-68547624D01*
X147773155Y-68554234D01*
X147768197Y-68555336D01*
X147584603Y-68555336D01*
X147576330Y-68551909D01*
X147573604Y-68547624D01*
X147525944Y-68416178D01*
X147386791Y-68032388D01*
X147387192Y-68023444D01*
X147393802Y-68017403D01*
X147395456Y-68016937D01*
X147674082Y-67960569D01*
X147678718Y-67960569D01*
X147957330Y-68016935D01*
G37*
%TD.AperFunction*%
%TD*%
%TA.AperFunction,Conductor*%
%TO.N,/FC1*%
G36*
X125825820Y-73067838D02*
G01*
X125828150Y-73071165D01*
X126320705Y-74127111D01*
X126321097Y-74136057D01*
X126319603Y-74138885D01*
X125709501Y-74987780D01*
X125701890Y-74992498D01*
X125693172Y-74990453D01*
X125690499Y-74987780D01*
X125492536Y-74712335D01*
X125080570Y-74139127D01*
X125078526Y-74130411D01*
X125079661Y-74126962D01*
X125621737Y-73070769D01*
X125628563Y-73064973D01*
X125632146Y-73064411D01*
X125817547Y-73064411D01*
X125825820Y-73067838D01*
G37*
%TD.AperFunction*%
%TD*%
%TA.AperFunction,Conductor*%
%TO.N,/FC1*%
G36*
X147391577Y-69347302D02*
G01*
X147521397Y-69477122D01*
X147524824Y-69485395D01*
X147523722Y-69490353D01*
X147291493Y-69986773D01*
X147284883Y-69992814D01*
X147275937Y-69992413D01*
X147274427Y-69991564D01*
X147037565Y-69834415D01*
X147034284Y-69831134D01*
X146877135Y-69594272D01*
X146875416Y-69585484D01*
X146880416Y-69578055D01*
X146881921Y-69577208D01*
X147378348Y-69344976D01*
X147387292Y-69344576D01*
X147391577Y-69347302D01*
G37*
%TD.AperFunction*%
%TD*%
%TA.AperFunction,Conductor*%
%TO.N,/FC1*%
G36*
X147334349Y-67473676D02*
G01*
X147645113Y-67619053D01*
X147830773Y-67705906D01*
X147836814Y-67712516D01*
X147836413Y-67721462D01*
X147835564Y-67722972D01*
X147678415Y-67959834D01*
X147675134Y-67963115D01*
X147438272Y-68120264D01*
X147429484Y-68121983D01*
X147422055Y-68116983D01*
X147421206Y-68115473D01*
X147348397Y-67959834D01*
X147188976Y-67619051D01*
X147188576Y-67610107D01*
X147191300Y-67605824D01*
X147321123Y-67476001D01*
X147329395Y-67472575D01*
X147334349Y-67473676D01*
G37*
%TD.AperFunction*%
%TD*%
%TA.AperFunction,Conductor*%
%TO.N,/FC1*%
G36*
X139533016Y-38537773D02*
G01*
X139540468Y-38542738D01*
X139542226Y-38546983D01*
X139664752Y-39167104D01*
X139662994Y-39175885D01*
X139656653Y-39180573D01*
X138667006Y-39479096D01*
X138658096Y-39478205D01*
X138655354Y-39476168D01*
X138524409Y-39345223D01*
X138520982Y-39336950D01*
X138521872Y-39332474D01*
X138586706Y-39175885D01*
X138898821Y-38422051D01*
X138905152Y-38415719D01*
X138911899Y-38415050D01*
X139533016Y-38537773D01*
G37*
%TD.AperFunction*%
%TD*%
%TA.AperFunction,Conductor*%
%TO.N,/D28*%
G36*
X184826949Y-64583743D02*
G01*
X184828272Y-64584502D01*
X185057602Y-64736654D01*
X185065334Y-64741784D01*
X185068615Y-64745065D01*
X185225634Y-64981730D01*
X185227353Y-64990518D01*
X185222353Y-64997947D01*
X185220661Y-64998879D01*
X184717125Y-65224059D01*
X184708174Y-65224308D01*
X184704076Y-65221651D01*
X184574260Y-65091835D01*
X184570833Y-65083562D01*
X184572022Y-65078422D01*
X184811298Y-64589114D01*
X184818011Y-64583188D01*
X184826949Y-64583743D01*
G37*
%TD.AperFunction*%
%TD*%
%TA.AperFunction,Conductor*%
%TO.N,/D28*%
G36*
X174251218Y-95998130D02*
G01*
X174251665Y-95998555D01*
X174382176Y-96129066D01*
X174385185Y-96134238D01*
X174693562Y-97256308D01*
X174692450Y-97265194D01*
X174689649Y-97268497D01*
X173969396Y-97852514D01*
X173960812Y-97855063D01*
X173952939Y-97850795D01*
X173952212Y-97849795D01*
X173575004Y-97268497D01*
X173377694Y-96964431D01*
X173376067Y-96955626D01*
X173378810Y-96950240D01*
X174234695Y-95999001D01*
X174242776Y-95995144D01*
X174251218Y-95998130D01*
G37*
%TD.AperFunction*%
%TD*%
%TA.AperFunction,Conductor*%
%TO.N,/{slash}LDS*%
G36*
X170044100Y-80347950D02*
G01*
X170175034Y-80478884D01*
X170178461Y-80487157D01*
X170178453Y-80487577D01*
X170138003Y-81613090D01*
X170134282Y-81621235D01*
X170125891Y-81624362D01*
X170124043Y-81624148D01*
X169814217Y-81562931D01*
X169504064Y-81501649D01*
X169496615Y-81496686D01*
X169145265Y-80969133D01*
X169143531Y-80960348D01*
X169148366Y-80953012D01*
X170029193Y-80346585D01*
X170037950Y-80344717D01*
X170044100Y-80347950D01*
G37*
%TD.AperFunction*%
%TD*%
%TA.AperFunction,Conductor*%
%TO.N,/{slash}LDS*%
G36*
X173967528Y-75008825D02*
G01*
X173967943Y-75009369D01*
X174578447Y-75859500D01*
X174580490Y-75868219D01*
X174578108Y-75873599D01*
X173780398Y-76878604D01*
X173772571Y-76882953D01*
X173763960Y-76880494D01*
X173762961Y-76879603D01*
X173632695Y-76749337D01*
X173629935Y-76744959D01*
X173227159Y-75604101D01*
X173227637Y-75595159D01*
X173230821Y-75591120D01*
X173951071Y-75007105D01*
X173959656Y-75004557D01*
X173967528Y-75008825D01*
G37*
%TD.AperFunction*%
%TD*%
%TA.AperFunction,Conductor*%
%TO.N,/D25*%
G36*
X181872702Y-95998744D02*
G01*
X181873140Y-95999160D01*
X182003657Y-96129677D01*
X182006669Y-96134862D01*
X182313573Y-97256315D01*
X182312452Y-97265199D01*
X182309657Y-97268491D01*
X181589407Y-97852505D01*
X181580822Y-97855054D01*
X181572950Y-97850786D01*
X181572216Y-97849775D01*
X180998532Y-96963592D01*
X180996913Y-96954785D01*
X180999664Y-96949400D01*
X181856179Y-95999597D01*
X181864264Y-95995749D01*
X181872702Y-95998744D01*
G37*
%TD.AperFunction*%
%TD*%
%TA.AperFunction,Conductor*%
%TO.N,/D25*%
G36*
X191867073Y-56484723D02*
G01*
X191874514Y-56489704D01*
X191876418Y-56497396D01*
X191785166Y-57382283D01*
X191781801Y-57389356D01*
X191650816Y-57520341D01*
X191647172Y-57521850D01*
X191643689Y-57523712D01*
X191643105Y-57523534D01*
X191642543Y-57523768D01*
X191635120Y-57521112D01*
X191618619Y-57507569D01*
X191617769Y-57506798D01*
X191370512Y-57259541D01*
X191370507Y-57259537D01*
X191301991Y-57219979D01*
X191301987Y-57219977D01*
X191254268Y-57207191D01*
X191249873Y-57204934D01*
X190887062Y-56907171D01*
X190882841Y-56899274D01*
X190884745Y-56891646D01*
X191234950Y-56365813D01*
X191242386Y-56360829D01*
X191246975Y-56360828D01*
X191867073Y-56484723D01*
G37*
%TD.AperFunction*%
%TD*%
%TA.AperFunction,Conductor*%
%TO.N,/{slash}IPL0*%
G36*
X131204262Y-71718986D02*
G01*
X131205772Y-71719835D01*
X131442634Y-71876984D01*
X131445915Y-71880265D01*
X131603064Y-72117127D01*
X131604783Y-72125915D01*
X131599783Y-72133344D01*
X131598273Y-72134193D01*
X131101853Y-72366422D01*
X131092907Y-72366823D01*
X131088622Y-72364097D01*
X130958802Y-72234277D01*
X130955375Y-72226004D01*
X130956475Y-72221051D01*
X131188706Y-71724625D01*
X131195316Y-71718585D01*
X131204262Y-71718986D01*
G37*
%TD.AperFunction*%
%TD*%
%TA.AperFunction,Conductor*%
%TO.N,/{slash}IPL0*%
G36*
X150086670Y-71007691D02*
G01*
X150089396Y-71011976D01*
X150276208Y-71527209D01*
X150275807Y-71536155D01*
X150269197Y-71542196D01*
X150267529Y-71542665D01*
X149988920Y-71599030D01*
X149984280Y-71599030D01*
X149705670Y-71542665D01*
X149698241Y-71537665D01*
X149696522Y-71528877D01*
X149696987Y-71527220D01*
X149740070Y-71408395D01*
X149740917Y-71406576D01*
X149763221Y-71367946D01*
X149783699Y-71291521D01*
X149783700Y-71291521D01*
X149783700Y-71290119D01*
X149784401Y-71286131D01*
X149883804Y-71011976D01*
X149889845Y-71005366D01*
X149894803Y-71004264D01*
X150078397Y-71004264D01*
X150086670Y-71007691D01*
G37*
%TD.AperFunction*%
%TD*%
%TA.AperFunction,Conductor*%
%TO.N,/{slash}IPL0*%
G36*
X151559162Y-50677786D02*
G01*
X151560672Y-50678635D01*
X151797534Y-50835784D01*
X151800815Y-50839065D01*
X151957964Y-51075927D01*
X151959683Y-51084715D01*
X151954683Y-51092144D01*
X151953173Y-51092993D01*
X151456753Y-51325222D01*
X151447807Y-51325623D01*
X151443522Y-51322897D01*
X151313702Y-51193077D01*
X151310275Y-51184804D01*
X151311375Y-51179851D01*
X151543606Y-50683425D01*
X151550216Y-50677385D01*
X151559162Y-50677786D01*
G37*
%TD.AperFunction*%
%TD*%
%TA.AperFunction,Conductor*%
%TO.N,/{slash}IPL0*%
G36*
X178533016Y-33497773D02*
G01*
X178540468Y-33502738D01*
X178542226Y-33506983D01*
X178664851Y-34127601D01*
X178663093Y-34136382D01*
X178657292Y-34140893D01*
X177707268Y-34478641D01*
X177698325Y-34478183D01*
X177695076Y-34475890D01*
X177564109Y-34344923D01*
X177560682Y-34336650D01*
X177561358Y-34332731D01*
X177899107Y-33382705D01*
X177905106Y-33376060D01*
X177912395Y-33375148D01*
X178533016Y-33497773D01*
G37*
%TD.AperFunction*%
%TD*%
%TA.AperFunction,Conductor*%
%TO.N,/{slash}IPL0*%
G36*
X177679035Y-50465996D02*
G01*
X178038464Y-50676100D01*
X178043877Y-50683234D01*
X178042661Y-50692105D01*
X178042300Y-50692683D01*
X177885204Y-50928735D01*
X177877768Y-50933724D01*
X177877709Y-50933736D01*
X177599556Y-50988119D01*
X177590779Y-50986343D01*
X177585868Y-50979074D01*
X177479309Y-50478532D01*
X177480939Y-50469728D01*
X177488317Y-50464653D01*
X177490753Y-50464397D01*
X177673131Y-50464397D01*
X177679035Y-50465996D01*
G37*
%TD.AperFunction*%
%TD*%
%TA.AperFunction,Conductor*%
%TO.N,/{slash}IPL0*%
G36*
X130905820Y-73067838D02*
G01*
X130908150Y-73071165D01*
X131400705Y-74127111D01*
X131401097Y-74136057D01*
X131399603Y-74138885D01*
X130789501Y-74987780D01*
X130781890Y-74992498D01*
X130773172Y-74990453D01*
X130770499Y-74987780D01*
X130572536Y-74712335D01*
X130160570Y-74139127D01*
X130158526Y-74130411D01*
X130159661Y-74126962D01*
X130701737Y-73070769D01*
X130708563Y-73064973D01*
X130712146Y-73064411D01*
X130897547Y-73064411D01*
X130905820Y-73067838D01*
G37*
%TD.AperFunction*%
%TD*%
%TA.AperFunction,Conductor*%
%TO.N,/D18*%
G36*
X195010399Y-71660126D02*
G01*
X195321163Y-71805503D01*
X195506823Y-71892356D01*
X195512864Y-71898966D01*
X195512463Y-71907912D01*
X195511614Y-71909422D01*
X195354465Y-72146284D01*
X195351184Y-72149565D01*
X195114322Y-72306714D01*
X195105534Y-72308433D01*
X195098105Y-72303433D01*
X195097256Y-72301923D01*
X195024447Y-72146284D01*
X194865026Y-71805501D01*
X194864626Y-71796557D01*
X194867350Y-71792274D01*
X194997173Y-71662451D01*
X195005445Y-71659025D01*
X195010399Y-71660126D01*
G37*
%TD.AperFunction*%
%TD*%
%TA.AperFunction,Conductor*%
%TO.N,/D18*%
G36*
X191876382Y-46076906D02*
G01*
X191880893Y-46082707D01*
X192218641Y-47032731D01*
X192218183Y-47041674D01*
X192215890Y-47044923D01*
X192084923Y-47175890D01*
X192076650Y-47179317D01*
X192072731Y-47178641D01*
X191122707Y-46840893D01*
X191116060Y-46834893D01*
X191115148Y-46827603D01*
X191237773Y-46206981D01*
X191242738Y-46199531D01*
X191246980Y-46197774D01*
X191867603Y-46075148D01*
X191876382Y-46076906D01*
G37*
%TD.AperFunction*%
%TD*%
%TA.AperFunction,Conductor*%
%TO.N,/D19*%
G36*
X189325820Y-73067838D02*
G01*
X189328150Y-73071165D01*
X189820705Y-74127111D01*
X189821097Y-74136057D01*
X189819603Y-74138885D01*
X189209501Y-74987780D01*
X189201890Y-74992498D01*
X189193172Y-74990453D01*
X189190499Y-74987780D01*
X188992536Y-74712335D01*
X188580570Y-74139127D01*
X188578526Y-74130411D01*
X188579661Y-74126962D01*
X189121737Y-73070769D01*
X189128563Y-73064973D01*
X189132146Y-73064411D01*
X189317547Y-73064411D01*
X189325820Y-73067838D01*
G37*
%TD.AperFunction*%
%TD*%
%TA.AperFunction,Conductor*%
%TO.N,/D19*%
G36*
X190407268Y-47761358D02*
G01*
X190646505Y-47846410D01*
X191357293Y-48099106D01*
X191363939Y-48105106D01*
X191364851Y-48112398D01*
X191242226Y-48733016D01*
X191237261Y-48740468D01*
X191233016Y-48742226D01*
X190612398Y-48864851D01*
X190603617Y-48863093D01*
X190599107Y-48857293D01*
X190261358Y-47907268D01*
X190261816Y-47898325D01*
X190264106Y-47895079D01*
X190395077Y-47764108D01*
X190403349Y-47760682D01*
X190407268Y-47761358D01*
G37*
%TD.AperFunction*%
%TD*%
%TA.AperFunction,Conductor*%
%TO.N,/A1*%
G36*
X121367740Y-74695408D02*
G01*
X121374055Y-74701758D01*
X121374206Y-74702146D01*
X121910893Y-76153041D01*
X121910550Y-76161989D01*
X121908193Y-76165373D01*
X121776055Y-76297511D01*
X121767782Y-76300938D01*
X121766476Y-76300865D01*
X121464206Y-76266897D01*
X120750034Y-76186642D01*
X120742196Y-76182313D01*
X120739702Y-76176206D01*
X120738594Y-76165373D01*
X120620182Y-75007983D01*
X120622749Y-74999405D01*
X120627371Y-74995973D01*
X121358787Y-74695383D01*
X121367740Y-74695408D01*
G37*
%TD.AperFunction*%
%TD*%
%TA.AperFunction,Conductor*%
%TO.N,/A1*%
G36*
X158180262Y-54383586D02*
G01*
X158181772Y-54384435D01*
X158418634Y-54541584D01*
X158421915Y-54544865D01*
X158579064Y-54781727D01*
X158580783Y-54790515D01*
X158575783Y-54797944D01*
X158574273Y-54798793D01*
X158077853Y-55031022D01*
X158068907Y-55031423D01*
X158064622Y-55028697D01*
X157934802Y-54898877D01*
X157931375Y-54890604D01*
X157932475Y-54885651D01*
X158164706Y-54389225D01*
X158171316Y-54383185D01*
X158180262Y-54383586D01*
G37*
%TD.AperFunction*%
%TD*%
%TA.AperFunction,Conductor*%
%TO.N,/A1*%
G36*
X124636762Y-66546586D02*
G01*
X124638272Y-66547435D01*
X124875134Y-66704584D01*
X124878415Y-66707865D01*
X125035564Y-66944727D01*
X125037283Y-66953515D01*
X125032283Y-66960944D01*
X125030773Y-66961793D01*
X124534353Y-67194022D01*
X124525407Y-67194423D01*
X124521122Y-67191697D01*
X124391302Y-67061877D01*
X124387875Y-67053604D01*
X124388975Y-67048651D01*
X124621206Y-66552225D01*
X124627816Y-66546185D01*
X124636762Y-66546586D01*
G37*
%TD.AperFunction*%
%TD*%
%TA.AperFunction,Conductor*%
%TO.N,/A1*%
G36*
X158078670Y-62909691D02*
G01*
X158081396Y-62913976D01*
X158268208Y-63429209D01*
X158267807Y-63438155D01*
X158261197Y-63444196D01*
X158259529Y-63444665D01*
X157980920Y-63501030D01*
X157976280Y-63501030D01*
X157697670Y-63444665D01*
X157690241Y-63439665D01*
X157688522Y-63430877D01*
X157688987Y-63429220D01*
X157875804Y-62913976D01*
X157881845Y-62907366D01*
X157886803Y-62906264D01*
X158070397Y-62906264D01*
X158078670Y-62909691D01*
G37*
%TD.AperFunction*%
%TD*%
%TA.AperFunction,Conductor*%
%TO.N,/A20*%
G36*
X163293016Y-46197773D02*
G01*
X163300468Y-46202738D01*
X163302226Y-46206983D01*
X163424851Y-46827601D01*
X163423093Y-46836382D01*
X163417292Y-46840893D01*
X162467268Y-47178641D01*
X162458325Y-47178183D01*
X162455076Y-47175890D01*
X162324109Y-47044923D01*
X162320682Y-47036650D01*
X162321358Y-47032731D01*
X162659107Y-46082705D01*
X162665106Y-46076060D01*
X162672395Y-46075148D01*
X163293016Y-46197773D01*
G37*
%TD.AperFunction*%
%TD*%
%TA.AperFunction,Conductor*%
%TO.N,/A20*%
G36*
X151392702Y-95998744D02*
G01*
X151393140Y-95999160D01*
X151523657Y-96129677D01*
X151526669Y-96134862D01*
X151833573Y-97256315D01*
X151832452Y-97265199D01*
X151829657Y-97268491D01*
X151109407Y-97852505D01*
X151100822Y-97855054D01*
X151092950Y-97850786D01*
X151092216Y-97849775D01*
X150518532Y-96963592D01*
X150516913Y-96954785D01*
X150519664Y-96949400D01*
X151376179Y-95999597D01*
X151384264Y-95995749D01*
X151392702Y-95998744D01*
G37*
%TD.AperFunction*%
%TD*%
%TA.AperFunction,Conductor*%
%TO.N,/A4*%
G36*
X112773165Y-73139400D02*
G01*
X112773790Y-73140075D01*
X113606221Y-74114938D01*
X113608987Y-74123455D01*
X113606928Y-74129217D01*
X113007898Y-74990368D01*
X113000360Y-74995203D01*
X112991612Y-74993292D01*
X112990933Y-74992781D01*
X112270608Y-74408707D01*
X112266341Y-74400835D01*
X112266827Y-74396078D01*
X112623286Y-73274583D01*
X112626161Y-73269858D01*
X112756620Y-73139399D01*
X112764892Y-73135973D01*
X112773165Y-73139400D01*
G37*
%TD.AperFunction*%
%TD*%
%TA.AperFunction,Conductor*%
%TO.N,/A4*%
G36*
X111216962Y-34963086D02*
G01*
X111218472Y-34963935D01*
X111455334Y-35121084D01*
X111458615Y-35124365D01*
X111615764Y-35361227D01*
X111617483Y-35370015D01*
X111612483Y-35377444D01*
X111610973Y-35378293D01*
X111114553Y-35610522D01*
X111105607Y-35610923D01*
X111101322Y-35608197D01*
X110971502Y-35478377D01*
X110968075Y-35470104D01*
X110969175Y-35465151D01*
X111201406Y-34968725D01*
X111208016Y-34962685D01*
X111216962Y-34963086D01*
G37*
%TD.AperFunction*%
%TD*%
%TA.AperFunction,Conductor*%
%TO.N,/{slash}DSACK1*%
G36*
X178300579Y-55902404D02*
G01*
X178303295Y-55906117D01*
X178431596Y-56183263D01*
X178602119Y-56551614D01*
X178602485Y-56560561D01*
X178596417Y-56567146D01*
X178596151Y-56567266D01*
X177402224Y-57084240D01*
X177397575Y-57085203D01*
X177213918Y-57085203D01*
X177205645Y-57081776D01*
X177202218Y-57073503D01*
X177202392Y-57071492D01*
X177398384Y-55947992D01*
X177403182Y-55940431D01*
X177409392Y-55938314D01*
X178292165Y-55899345D01*
X178300579Y-55902404D01*
G37*
%TD.AperFunction*%
%TD*%
%TA.AperFunction,Conductor*%
%TO.N,/{slash}DSACK1*%
G36*
X176841674Y-60461816D02*
G01*
X176844923Y-60464109D01*
X176975890Y-60595076D01*
X176979317Y-60603349D01*
X176978641Y-60607268D01*
X176640893Y-61557292D01*
X176634893Y-61563939D01*
X176627601Y-61564851D01*
X176006983Y-61442226D01*
X175999531Y-61437261D01*
X175997773Y-61433016D01*
X175875148Y-60812396D01*
X175876906Y-60803617D01*
X175882704Y-60799107D01*
X176832731Y-60461358D01*
X176841674Y-60461816D01*
G37*
%TD.AperFunction*%
%TD*%
%TA.AperFunction,Conductor*%
%TO.N,/{slash}RESET_30*%
G36*
X134020962Y-55909086D02*
G01*
X134022472Y-55909935D01*
X134259334Y-56067084D01*
X134262615Y-56070365D01*
X134419764Y-56307227D01*
X134421483Y-56316015D01*
X134416483Y-56323444D01*
X134414973Y-56324293D01*
X133918553Y-56556522D01*
X133909607Y-56556923D01*
X133905322Y-56554197D01*
X133775502Y-56424377D01*
X133772075Y-56416104D01*
X133773175Y-56411151D01*
X134005406Y-55914725D01*
X134012016Y-55908685D01*
X134020962Y-55909086D01*
G37*
%TD.AperFunction*%
%TD*%
%TA.AperFunction,Conductor*%
%TO.N,/{slash}RESET_30*%
G36*
X138157949Y-83012576D02*
G01*
X138468713Y-83157953D01*
X138654373Y-83244806D01*
X138660414Y-83251416D01*
X138660013Y-83260362D01*
X138659164Y-83261872D01*
X138502015Y-83498734D01*
X138498734Y-83502015D01*
X138261872Y-83659164D01*
X138253084Y-83660883D01*
X138245655Y-83655883D01*
X138244806Y-83654373D01*
X138171997Y-83498734D01*
X138012576Y-83157951D01*
X138012176Y-83149007D01*
X138014900Y-83144724D01*
X138144723Y-83014901D01*
X138152995Y-83011475D01*
X138157949Y-83012576D01*
G37*
%TD.AperFunction*%
%TD*%
%TA.AperFunction,Conductor*%
%TO.N,/{slash}RESET_30*%
G36*
X176645758Y-30154391D02*
G01*
X176868779Y-30246434D01*
X176875120Y-30252758D01*
X176876007Y-30256779D01*
X176911542Y-31140713D01*
X176908450Y-31149117D01*
X176902953Y-31152464D01*
X175821315Y-31449863D01*
X175812429Y-31448752D01*
X175809940Y-31446855D01*
X175678807Y-31315722D01*
X175675380Y-31307449D01*
X175676231Y-31303069D01*
X176208085Y-29986510D01*
X176214360Y-29980124D01*
X176223314Y-29980046D01*
X176645758Y-30154391D01*
G37*
%TD.AperFunction*%
%TD*%
%TA.AperFunction,Conductor*%
%TO.N,/{slash}RESET_30*%
G36*
X137280930Y-69555835D02*
G01*
X137288358Y-69560834D01*
X137290077Y-69569622D01*
X137289608Y-69571290D01*
X137102796Y-70086524D01*
X137096755Y-70093134D01*
X137091797Y-70094236D01*
X136908203Y-70094236D01*
X136899930Y-70090809D01*
X136897204Y-70086524D01*
X136849544Y-69955078D01*
X136710391Y-69571288D01*
X136710792Y-69562344D01*
X136717402Y-69556303D01*
X136719056Y-69555837D01*
X136997682Y-69499469D01*
X137002318Y-69499469D01*
X137280930Y-69555835D01*
G37*
%TD.AperFunction*%
%TD*%
%TA.AperFunction,Conductor*%
%TO.N,/{slash}RESET_30*%
G36*
X169639161Y-69206140D02*
G01*
X169640365Y-69207190D01*
X169769701Y-69336526D01*
X169772945Y-69342736D01*
X169842316Y-69730094D01*
X169840401Y-69738842D01*
X169833103Y-69743628D01*
X169554179Y-69799645D01*
X169545393Y-69797914D01*
X169545343Y-69797881D01*
X169310929Y-69640140D01*
X169305978Y-69632678D01*
X169307754Y-69623901D01*
X169308126Y-69623379D01*
X169622771Y-69208392D01*
X169630498Y-69203872D01*
X169639161Y-69206140D01*
G37*
%TD.AperFunction*%
%TD*%
%TA.AperFunction,Conductor*%
%TO.N,/{slash}RESET_30*%
G36*
X136167268Y-65181358D02*
G01*
X136406505Y-65266410D01*
X137117293Y-65519106D01*
X137123939Y-65525106D01*
X137124851Y-65532398D01*
X137002226Y-66153016D01*
X136997261Y-66160468D01*
X136993016Y-66162226D01*
X136372398Y-66284851D01*
X136363617Y-66283093D01*
X136359107Y-66277293D01*
X136021358Y-65327268D01*
X136021816Y-65318325D01*
X136024106Y-65315079D01*
X136155077Y-65184108D01*
X136163349Y-65180682D01*
X136167268Y-65181358D01*
G37*
%TD.AperFunction*%
%TD*%
%TA.AperFunction,Conductor*%
%TO.N,/{slash}RESET_30*%
G36*
X174301674Y-35061816D02*
G01*
X174304923Y-35064109D01*
X174435890Y-35195076D01*
X174439317Y-35203349D01*
X174438641Y-35207268D01*
X174100893Y-36157292D01*
X174094893Y-36163939D01*
X174087601Y-36164851D01*
X173466983Y-36042226D01*
X173459531Y-36037261D01*
X173457773Y-36033016D01*
X173335148Y-35412396D01*
X173336906Y-35403617D01*
X173342704Y-35399107D01*
X174292731Y-35061358D01*
X174301674Y-35061816D01*
G37*
%TD.AperFunction*%
%TD*%
%TA.AperFunction,Conductor*%
%TO.N,/{slash}RESET_30*%
G36*
X137006509Y-66163361D02*
G01*
X137428976Y-66446427D01*
X137532064Y-66515499D01*
X137537029Y-66522951D01*
X137536117Y-66530243D01*
X137103174Y-67440834D01*
X137096527Y-67446834D01*
X137092608Y-67447510D01*
X136907392Y-67447510D01*
X136899119Y-67444083D01*
X136896826Y-67440834D01*
X136463882Y-66530243D01*
X136463424Y-66521300D01*
X136467934Y-66515499D01*
X136993488Y-66163362D01*
X137002268Y-66161605D01*
X137006509Y-66163361D01*
G37*
%TD.AperFunction*%
%TD*%
%TA.AperFunction,Conductor*%
%TO.N,/{slash}RESET_30*%
G36*
X137100070Y-68909191D02*
G01*
X137102796Y-68913476D01*
X137289608Y-69428709D01*
X137289207Y-69437655D01*
X137282597Y-69443696D01*
X137280929Y-69444165D01*
X137002320Y-69500530D01*
X136997680Y-69500530D01*
X136719070Y-69444165D01*
X136711641Y-69439165D01*
X136709922Y-69430377D01*
X136710387Y-69428720D01*
X136897204Y-68913476D01*
X136903245Y-68906866D01*
X136908203Y-68905764D01*
X137091797Y-68905764D01*
X137100070Y-68909191D01*
G37*
%TD.AperFunction*%
%TD*%
%TA.AperFunction,Conductor*%
%TO.N,/{slash}RESET_30*%
G36*
X173453016Y-36037773D02*
G01*
X173460468Y-36042738D01*
X173462226Y-36046983D01*
X173584851Y-36667601D01*
X173583093Y-36676382D01*
X173577292Y-36680893D01*
X172627268Y-37018641D01*
X172618325Y-37018183D01*
X172615076Y-37015890D01*
X172484109Y-36884923D01*
X172480682Y-36876650D01*
X172481358Y-36872731D01*
X172819107Y-35922705D01*
X172825106Y-35916060D01*
X172832395Y-35915148D01*
X173453016Y-36037773D01*
G37*
%TD.AperFunction*%
%TD*%
%TA.AperFunction,Conductor*%
%TO.N,/P2.A17*%
G36*
X135231205Y-66611632D02*
G01*
X135490118Y-66994002D01*
X135752388Y-67381328D01*
X135754400Y-67387888D01*
X135754400Y-67872941D01*
X135750973Y-67881214D01*
X135743047Y-67884636D01*
X135231126Y-67899818D01*
X135222755Y-67896638D01*
X135221365Y-67895069D01*
X134569138Y-67010361D01*
X134566988Y-67001669D01*
X134571613Y-66994002D01*
X134572533Y-66993389D01*
X135215507Y-66608155D01*
X135224362Y-66606843D01*
X135231205Y-66611632D01*
G37*
%TD.AperFunction*%
%TD*%
%TA.AperFunction,Conductor*%
%TO.N,/P2.A17*%
G36*
X135692742Y-67344429D02*
G01*
X135698160Y-67351559D01*
X135698316Y-67352230D01*
X135754643Y-67632697D01*
X135754641Y-67637315D01*
X135698192Y-67917039D01*
X135693196Y-67924471D01*
X135684409Y-67926194D01*
X135684381Y-67926188D01*
X135015430Y-67789525D01*
X135008010Y-67784512D01*
X135006309Y-67775720D01*
X135009497Y-67769791D01*
X135345435Y-67433853D01*
X135350729Y-67430813D01*
X135683872Y-67343219D01*
X135692742Y-67344429D01*
G37*
%TD.AperFunction*%
%TD*%
%TA.AperFunction,Conductor*%
%TO.N,/{slash}AS_30*%
G36*
X181899075Y-55882908D02*
G01*
X181902313Y-55888440D01*
X182196233Y-57029163D01*
X182194979Y-57038029D01*
X182187822Y-57043412D01*
X182184903Y-57043782D01*
X182002125Y-57043782D01*
X181998011Y-57043035D01*
X180730187Y-56566788D01*
X180723648Y-56560672D01*
X180723349Y-56551722D01*
X180723514Y-56551308D01*
X180997047Y-55905965D01*
X181003430Y-55899686D01*
X181007560Y-55898835D01*
X181890729Y-55879662D01*
X181899075Y-55882908D01*
G37*
%TD.AperFunction*%
%TD*%
%TA.AperFunction,Conductor*%
%TO.N,/{slash}AS_30*%
G36*
X181921674Y-60461816D02*
G01*
X181924923Y-60464109D01*
X182055890Y-60595076D01*
X182059317Y-60603349D01*
X182058641Y-60607268D01*
X181720893Y-61557292D01*
X181714893Y-61563939D01*
X181707601Y-61564851D01*
X181086983Y-61442226D01*
X181079531Y-61437261D01*
X181077773Y-61433016D01*
X180955148Y-60812396D01*
X180956906Y-60803617D01*
X180962704Y-60799107D01*
X181912731Y-60461358D01*
X181921674Y-60461816D01*
G37*
%TD.AperFunction*%
%TD*%
%TA.AperFunction,Conductor*%
%TO.N,/P3.B10*%
G36*
X132399117Y-35466549D02*
G01*
X132402464Y-35472046D01*
X132699863Y-36553684D01*
X132698752Y-36562570D01*
X132696855Y-36565059D01*
X132565722Y-36696192D01*
X132557449Y-36699619D01*
X132553067Y-36698767D01*
X131236513Y-36166915D01*
X131230125Y-36160639D01*
X131230047Y-36151685D01*
X131496434Y-35506219D01*
X131502758Y-35499879D01*
X131506778Y-35498992D01*
X132390713Y-35463457D01*
X132399117Y-35466549D01*
G37*
%TD.AperFunction*%
%TD*%
%TA.AperFunction,Conductor*%
%TO.N,/P3.B10*%
G36*
X133587001Y-40140902D02*
G01*
X134576653Y-40439426D01*
X134583584Y-40445096D01*
X134584752Y-40452895D01*
X134462226Y-41073016D01*
X134457261Y-41080468D01*
X134453016Y-41082226D01*
X133831899Y-41204949D01*
X133823118Y-41203191D01*
X133818821Y-41197947D01*
X133441872Y-40287525D01*
X133441873Y-40278570D01*
X133444406Y-40274779D01*
X133575355Y-40143830D01*
X133583627Y-40140404D01*
X133587001Y-40140902D01*
G37*
%TD.AperFunction*%
%TD*%
%TA.AperFunction,Conductor*%
%TO.N,/FPUSENSE*%
G36*
X125008075Y-56133380D02*
G01*
X125008083Y-56133389D01*
X125531419Y-56778711D01*
X125533969Y-56787296D01*
X125530001Y-56794917D01*
X124823819Y-57407887D01*
X124815325Y-57410722D01*
X124807877Y-57407324D01*
X124674180Y-57273627D01*
X124674166Y-57273613D01*
X124193962Y-56796669D01*
X124190508Y-56788410D01*
X124193907Y-56780125D01*
X124194820Y-56779298D01*
X124991619Y-56131679D01*
X125000198Y-56129121D01*
X125008075Y-56133380D01*
G37*
%TD.AperFunction*%
%TD*%
%TA.AperFunction,Conductor*%
%TO.N,/FPUSENSE*%
G36*
X123301674Y-60021816D02*
G01*
X123304923Y-60024109D01*
X123435890Y-60155076D01*
X123439317Y-60163349D01*
X123438641Y-60167268D01*
X123100893Y-61117292D01*
X123094893Y-61123939D01*
X123087601Y-61124851D01*
X122466983Y-61002226D01*
X122459531Y-60997261D01*
X122457773Y-60993016D01*
X122335148Y-60372396D01*
X122336906Y-60363617D01*
X122342704Y-60359107D01*
X123292731Y-60021358D01*
X123301674Y-60021816D01*
G37*
%TD.AperFunction*%
%TD*%
%TA.AperFunction,Conductor*%
%TO.N,/CDIS*%
G36*
X115341706Y-57315551D02*
G01*
X115345034Y-57322304D01*
X115476089Y-58322348D01*
X115473766Y-58330996D01*
X115466788Y-58335340D01*
X114847685Y-58459459D01*
X114838900Y-58457725D01*
X114835651Y-58454479D01*
X114484451Y-57927900D01*
X114482712Y-57919116D01*
X114486291Y-57912772D01*
X115132558Y-57322304D01*
X115140349Y-57315186D01*
X115148241Y-57312124D01*
X115333433Y-57312124D01*
X115341706Y-57315551D01*
G37*
%TD.AperFunction*%
%TD*%
%TA.AperFunction,Conductor*%
%TO.N,/CDIS*%
G36*
X179176382Y-35916906D02*
G01*
X179180893Y-35922707D01*
X179518641Y-36872731D01*
X179518183Y-36881674D01*
X179515890Y-36884923D01*
X179384923Y-37015890D01*
X179376650Y-37019317D01*
X179372731Y-37018641D01*
X178422707Y-36680893D01*
X178416060Y-36674893D01*
X178415148Y-36667603D01*
X178537773Y-36046981D01*
X178542738Y-36039531D01*
X178546980Y-36037774D01*
X179167603Y-35915148D01*
X179176382Y-35916906D01*
G37*
%TD.AperFunction*%
%TD*%
%TA.AperFunction,Conductor*%
%TO.N,/CDIS*%
G36*
X119260362Y-29632886D02*
G01*
X119261872Y-29633735D01*
X119498734Y-29790884D01*
X119502015Y-29794165D01*
X119659164Y-30031027D01*
X119660883Y-30039815D01*
X119655883Y-30047244D01*
X119654373Y-30048093D01*
X119157953Y-30280322D01*
X119149007Y-30280723D01*
X119144722Y-30277997D01*
X119014902Y-30148177D01*
X119011475Y-30139904D01*
X119012575Y-30134951D01*
X119244806Y-29638525D01*
X119251416Y-29632485D01*
X119260362Y-29632886D01*
G37*
%TD.AperFunction*%
%TD*%
%TA.AperFunction,Conductor*%
%TO.N,/CDIS*%
G36*
X180102224Y-40153260D02*
G01*
X181296151Y-40670233D01*
X181302381Y-40676665D01*
X181302239Y-40685619D01*
X181302119Y-40685885D01*
X181003296Y-41331380D01*
X180996711Y-41337448D01*
X180992163Y-41338154D01*
X180109394Y-41299184D01*
X180101280Y-41295395D01*
X180098384Y-41289506D01*
X179902392Y-40166008D01*
X179904346Y-40157269D01*
X179911907Y-40152471D01*
X179913918Y-40152297D01*
X180097575Y-40152297D01*
X180102224Y-40153260D01*
G37*
%TD.AperFunction*%
%TD*%
%TA.AperFunction,Conductor*%
%TO.N,/{slash}MMUDIS*%
G36*
X172627268Y-32521358D02*
G01*
X172866505Y-32606410D01*
X173577293Y-32859106D01*
X173583939Y-32865106D01*
X173584851Y-32872398D01*
X173462226Y-33493016D01*
X173457261Y-33500468D01*
X173453016Y-33502226D01*
X172832398Y-33624851D01*
X172823617Y-33623093D01*
X172819107Y-33617293D01*
X172481358Y-32667268D01*
X172481816Y-32658325D01*
X172484106Y-32655079D01*
X172615077Y-32524108D01*
X172623349Y-32520682D01*
X172627268Y-32521358D01*
G37*
%TD.AperFunction*%
%TD*%
%TA.AperFunction,Conductor*%
%TO.N,/{slash}MMUDIS*%
G36*
X168285558Y-29980091D02*
G01*
X168291882Y-29986432D01*
X168291915Y-29986513D01*
X168823767Y-31303067D01*
X168823689Y-31312021D01*
X168821192Y-31315722D01*
X168690059Y-31446855D01*
X168681786Y-31450282D01*
X168678684Y-31449863D01*
X167597046Y-31152464D01*
X167589978Y-31146967D01*
X167588457Y-31140713D01*
X167623992Y-30256779D01*
X167627749Y-30248650D01*
X167631220Y-30246434D01*
X168276606Y-29980080D01*
X168285558Y-29980091D01*
G37*
%TD.AperFunction*%
%TD*%
%TA.AperFunction,Conductor*%
%TO.N,/{slash}BGACK_30*%
G36*
X169206277Y-67324402D02*
G01*
X169336097Y-67454222D01*
X169339524Y-67462495D01*
X169338422Y-67467453D01*
X169106193Y-67963873D01*
X169099583Y-67969914D01*
X169090637Y-67969513D01*
X169089127Y-67968664D01*
X168852265Y-67811515D01*
X168848984Y-67808234D01*
X168691835Y-67571372D01*
X168690116Y-67562584D01*
X168695116Y-67555155D01*
X168696621Y-67554308D01*
X169193048Y-67322076D01*
X169201992Y-67321676D01*
X169206277Y-67324402D01*
G37*
%TD.AperFunction*%
%TD*%
%TA.AperFunction,Conductor*%
%TO.N,/{slash}BGACK_30*%
G36*
X169930930Y-61978635D02*
G01*
X169938358Y-61983634D01*
X169940077Y-61992422D01*
X169939608Y-61994090D01*
X169752796Y-62509324D01*
X169746755Y-62515934D01*
X169741797Y-62517036D01*
X169558203Y-62517036D01*
X169549930Y-62513609D01*
X169547204Y-62509324D01*
X169499544Y-62377878D01*
X169360391Y-61994088D01*
X169360792Y-61985144D01*
X169367402Y-61979103D01*
X169369056Y-61978637D01*
X169647682Y-61922269D01*
X169652318Y-61922269D01*
X169930930Y-61978635D01*
G37*
%TD.AperFunction*%
%TD*%
%TA.AperFunction,Conductor*%
%TO.N,/{slash}BERR_30*%
G36*
X162416230Y-61895735D02*
G01*
X162423658Y-61900734D01*
X162425377Y-61909522D01*
X162424908Y-61911190D01*
X162238096Y-62426424D01*
X162232055Y-62433034D01*
X162227097Y-62434136D01*
X162043503Y-62434136D01*
X162035230Y-62430709D01*
X162032504Y-62426424D01*
X161984844Y-62294978D01*
X161845691Y-61911188D01*
X161846092Y-61902244D01*
X161852702Y-61896203D01*
X161854356Y-61895737D01*
X162132982Y-61839369D01*
X162137618Y-61839369D01*
X162416230Y-61895735D01*
G37*
%TD.AperFunction*%
%TD*%
%TA.AperFunction,Conductor*%
%TO.N,/{slash}BERR_30*%
G36*
X162217549Y-69520776D02*
G01*
X162528313Y-69666153D01*
X162713973Y-69753006D01*
X162720014Y-69759616D01*
X162719613Y-69768562D01*
X162718764Y-69770072D01*
X162561615Y-70006934D01*
X162558334Y-70010215D01*
X162321472Y-70167364D01*
X162312684Y-70169083D01*
X162305255Y-70164083D01*
X162304406Y-70162573D01*
X162231597Y-70006934D01*
X162072176Y-69666151D01*
X162071776Y-69657207D01*
X162074500Y-69652924D01*
X162204323Y-69523101D01*
X162212595Y-69519675D01*
X162217549Y-69520776D01*
G37*
%TD.AperFunction*%
%TD*%
%TA.AperFunction,Conductor*%
%TO.N,/{slash}EXT.DTK*%
G36*
X132405296Y-42963799D02*
G01*
X133053588Y-43122814D01*
X133060806Y-43128112D01*
X133062500Y-43134176D01*
X133062500Y-44115823D01*
X133059073Y-44124096D01*
X133053587Y-44127186D01*
X132405311Y-44286197D01*
X132396460Y-44284840D01*
X132395599Y-44284264D01*
X131511818Y-43634425D01*
X131507184Y-43626764D01*
X131509324Y-43618069D01*
X131511819Y-43615574D01*
X132395595Y-42965738D01*
X132404288Y-42963599D01*
X132405296Y-42963799D01*
G37*
%TD.AperFunction*%
%TD*%
%TA.AperFunction,Conductor*%
%TO.N,/{slash}EXT.DTK*%
G36*
X134331054Y-42986204D02*
G01*
X134335323Y-42993124D01*
X134460538Y-43617700D01*
X134460538Y-43622300D01*
X134335304Y-44246966D01*
X134330317Y-44254404D01*
X134322505Y-44256290D01*
X133182863Y-44126184D01*
X133175032Y-44121841D01*
X133172490Y-44114560D01*
X133172490Y-43135351D01*
X133175917Y-43127078D01*
X133182762Y-43123738D01*
X134322427Y-42983811D01*
X134331054Y-42986204D01*
G37*
%TD.AperFunction*%
%TD*%
%TA.AperFunction,Conductor*%
%TO.N,/C16M*%
G36*
X117413016Y-36337773D02*
G01*
X117420468Y-36342738D01*
X117422226Y-36346983D01*
X117544851Y-36967601D01*
X117543093Y-36976382D01*
X117537292Y-36980893D01*
X116587268Y-37318641D01*
X116578325Y-37318183D01*
X116575076Y-37315890D01*
X116444109Y-37184923D01*
X116440682Y-37176650D01*
X116441358Y-37172731D01*
X116779107Y-36222705D01*
X116785106Y-36216060D01*
X116792395Y-36215148D01*
X117413016Y-36337773D01*
G37*
%TD.AperFunction*%
%TD*%
%TA.AperFunction,Conductor*%
%TO.N,/C16M*%
G36*
X119087268Y-62561358D02*
G01*
X119326505Y-62646410D01*
X120037293Y-62899106D01*
X120043939Y-62905106D01*
X120044851Y-62912398D01*
X119922226Y-63533016D01*
X119917261Y-63540468D01*
X119913016Y-63542226D01*
X119292398Y-63664851D01*
X119283617Y-63663093D01*
X119279107Y-63657293D01*
X118941358Y-62707268D01*
X118941816Y-62698325D01*
X118944106Y-62695079D01*
X119075077Y-62564108D01*
X119083349Y-62560682D01*
X119087268Y-62561358D01*
G37*
%TD.AperFunction*%
%TD*%
%TA.AperFunction,Conductor*%
%TO.N,/SIZ1*%
G36*
X183613016Y-58897773D02*
G01*
X183620468Y-58902738D01*
X183622226Y-58906983D01*
X183744851Y-59527601D01*
X183743093Y-59536382D01*
X183737292Y-59540893D01*
X182787268Y-59878641D01*
X182778325Y-59878183D01*
X182775076Y-59875890D01*
X182644109Y-59744923D01*
X182640682Y-59736650D01*
X182641358Y-59732731D01*
X182979107Y-58782705D01*
X182985106Y-58776060D01*
X182992395Y-58775148D01*
X183613016Y-58897773D01*
G37*
%TD.AperFunction*%
%TD*%
%TA.AperFunction,Conductor*%
%TO.N,/SIZ1*%
G36*
X165293106Y-80553047D02*
G01*
X165295955Y-80555141D01*
X165426860Y-80686046D01*
X165430287Y-80694319D01*
X165428720Y-80700169D01*
X165394977Y-80758613D01*
X165374301Y-80835778D01*
X165374290Y-80835775D01*
X165373776Y-80837736D01*
X165061119Y-81617803D01*
X165054860Y-81624207D01*
X165047991Y-81624928D01*
X164426983Y-81502226D01*
X164419531Y-81497261D01*
X164417773Y-81493016D01*
X164295225Y-80872786D01*
X164296983Y-80864007D01*
X164303206Y-80859354D01*
X165284186Y-80552248D01*
X165293106Y-80553047D01*
G37*
%TD.AperFunction*%
%TD*%
%TA.AperFunction,Conductor*%
%TO.N,/{slash}CIIN*%
G36*
X148382963Y-68410815D02*
G01*
X148383039Y-68410891D01*
X148715973Y-68749979D01*
X148719324Y-68758283D01*
X148715821Y-68766525D01*
X148714151Y-68767886D01*
X148478363Y-68926380D01*
X148474081Y-68928153D01*
X148196046Y-68982512D01*
X148187269Y-68980736D01*
X148182318Y-68973274D01*
X148182101Y-68971081D01*
X148181199Y-68767886D01*
X148179652Y-68419139D01*
X148183042Y-68410852D01*
X148191300Y-68407388D01*
X148374690Y-68407388D01*
X148382963Y-68410815D01*
G37*
%TD.AperFunction*%
%TD*%
%TA.AperFunction,Conductor*%
%TO.N,/{slash}CIIN*%
G36*
X181886161Y-68760561D02*
G01*
X181888438Y-68762335D01*
X182018300Y-68892197D01*
X182021727Y-68900470D01*
X182019687Y-68907070D01*
X181733152Y-69326441D01*
X181725656Y-69331339D01*
X181717024Y-69329590D01*
X181585416Y-69242273D01*
X181480564Y-69172708D01*
X181475566Y-69165282D01*
X181420806Y-68885944D01*
X181422577Y-68877166D01*
X181429421Y-68872350D01*
X181877301Y-68759264D01*
X181886161Y-68760561D01*
G37*
%TD.AperFunction*%
%TD*%
%TA.AperFunction,Conductor*%
%TO.N,/{slash}CIIN*%
G36*
X148304986Y-48964039D02*
G01*
X148309937Y-48971501D01*
X148310055Y-48972225D01*
X148377867Y-49489482D01*
X148375544Y-49498131D01*
X148367787Y-49502604D01*
X148366266Y-49502703D01*
X148183319Y-49502703D01*
X148176563Y-49500555D01*
X147856813Y-49274407D01*
X147852037Y-49266832D01*
X147853828Y-49258375D01*
X148011495Y-49021463D01*
X148018931Y-49016475D01*
X148018927Y-49016475D01*
X148296210Y-48962263D01*
X148304986Y-48964039D01*
G37*
%TD.AperFunction*%
%TD*%
%TA.AperFunction,Conductor*%
%TO.N,/{slash}CIIN*%
G36*
X181237562Y-69009286D02*
G01*
X181239072Y-69010135D01*
X181475934Y-69167284D01*
X181479215Y-69170565D01*
X181636364Y-69407427D01*
X181638083Y-69416215D01*
X181633083Y-69423644D01*
X181631573Y-69424493D01*
X181135153Y-69656722D01*
X181126207Y-69657123D01*
X181121922Y-69654397D01*
X180992102Y-69524577D01*
X180988675Y-69516304D01*
X180989775Y-69511351D01*
X181222006Y-69014925D01*
X181228616Y-69008885D01*
X181237562Y-69009286D01*
G37*
%TD.AperFunction*%
%TD*%
%TA.AperFunction,Conductor*%
%TO.N,/{slash}CIIN*%
G36*
X180630852Y-86239010D02*
G01*
X180650912Y-86245919D01*
X180992175Y-86363440D01*
X180998881Y-86369373D01*
X180999842Y-86376777D01*
X180944246Y-86657223D01*
X180939275Y-86664672D01*
X180939242Y-86664694D01*
X180705349Y-86820039D01*
X180696562Y-86821762D01*
X180689130Y-86816766D01*
X180688204Y-86815089D01*
X180436414Y-86254869D01*
X180436148Y-86245919D01*
X180442290Y-86239401D01*
X180447086Y-86238373D01*
X180627043Y-86238373D01*
X180630852Y-86239010D01*
G37*
%TD.AperFunction*%
%TD*%
%TA.AperFunction,Conductor*%
%TO.N,/SIZ0*%
G36*
X189172930Y-66855835D02*
G01*
X189180358Y-66860834D01*
X189182077Y-66869622D01*
X189181608Y-66871290D01*
X188994796Y-67386524D01*
X188988755Y-67393134D01*
X188983797Y-67394236D01*
X188800203Y-67394236D01*
X188791930Y-67390809D01*
X188789204Y-67386524D01*
X188741544Y-67255078D01*
X188602391Y-66871288D01*
X188602792Y-66862344D01*
X188609402Y-66856303D01*
X188611056Y-66855837D01*
X188889682Y-66799469D01*
X188894318Y-66799469D01*
X189172930Y-66855835D01*
G37*
%TD.AperFunction*%
%TD*%
%TA.AperFunction,Conductor*%
%TO.N,/SIZ0*%
G36*
X184464277Y-83187002D02*
G01*
X184594097Y-83316822D01*
X184597524Y-83325095D01*
X184596422Y-83330053D01*
X184364193Y-83826473D01*
X184357583Y-83832514D01*
X184348637Y-83832113D01*
X184347127Y-83831264D01*
X184110265Y-83674115D01*
X184106984Y-83670834D01*
X183949835Y-83433972D01*
X183948116Y-83425184D01*
X183953116Y-83417755D01*
X183954621Y-83416908D01*
X184451048Y-83184676D01*
X184459992Y-83184276D01*
X184464277Y-83187002D01*
G37*
%TD.AperFunction*%
%TD*%
%TA.AperFunction,Conductor*%
%TO.N,/A0*%
G36*
X160753016Y-61437773D02*
G01*
X160760468Y-61442738D01*
X160762226Y-61446983D01*
X160884851Y-62067601D01*
X160883093Y-62076382D01*
X160877292Y-62080893D01*
X159927268Y-62418641D01*
X159918325Y-62418183D01*
X159915076Y-62415890D01*
X159784109Y-62284923D01*
X159780682Y-62276650D01*
X159781358Y-62272731D01*
X160119107Y-61322705D01*
X160125106Y-61316060D01*
X160132395Y-61315148D01*
X160753016Y-61437773D01*
G37*
%TD.AperFunction*%
%TD*%
%TA.AperFunction,Conductor*%
%TO.N,/A0*%
G36*
X165293106Y-90713047D02*
G01*
X165295955Y-90715141D01*
X165426908Y-90846094D01*
X165430335Y-90854367D01*
X165429495Y-90858720D01*
X165061119Y-91777803D01*
X165054860Y-91784207D01*
X165047991Y-91784928D01*
X164426983Y-91662226D01*
X164419531Y-91657261D01*
X164417773Y-91653016D01*
X164295225Y-91032786D01*
X164296983Y-91024007D01*
X164303206Y-91019354D01*
X165284186Y-90712248D01*
X165293106Y-90713047D01*
G37*
%TD.AperFunction*%
%TD*%
%TA.AperFunction,Conductor*%
%TO.N,/{slash}FPUCS*%
G36*
X125841674Y-60021816D02*
G01*
X125844923Y-60024109D01*
X125975890Y-60155076D01*
X125979317Y-60163349D01*
X125978641Y-60167268D01*
X125640893Y-61117292D01*
X125634893Y-61123939D01*
X125627601Y-61124851D01*
X125006983Y-61002226D01*
X124999531Y-60997261D01*
X124997773Y-60993016D01*
X124875148Y-60372396D01*
X124876906Y-60363617D01*
X124882704Y-60359107D01*
X125832731Y-60021358D01*
X125841674Y-60021816D01*
G37*
%TD.AperFunction*%
%TD*%
%TA.AperFunction,Conductor*%
%TO.N,/{slash}FPUCS*%
G36*
X131729930Y-49960235D02*
G01*
X131737358Y-49965234D01*
X131739077Y-49974022D01*
X131738608Y-49975690D01*
X131551796Y-50490924D01*
X131545755Y-50497534D01*
X131540797Y-50498636D01*
X131357203Y-50498636D01*
X131348930Y-50495209D01*
X131346204Y-50490924D01*
X131298544Y-50359478D01*
X131159391Y-49975688D01*
X131159792Y-49966744D01*
X131166402Y-49960703D01*
X131168056Y-49960237D01*
X131446682Y-49903869D01*
X131451318Y-49903869D01*
X131729930Y-49960235D01*
G37*
%TD.AperFunction*%
%TD*%
%TA.AperFunction,Conductor*%
%TO.N,/NOFC*%
G36*
X144613016Y-43617773D02*
G01*
X144620468Y-43622738D01*
X144622226Y-43626983D01*
X144744752Y-44247104D01*
X144742994Y-44255885D01*
X144736653Y-44260573D01*
X143747006Y-44559096D01*
X143738096Y-44558205D01*
X143735354Y-44556168D01*
X143604409Y-44425223D01*
X143600982Y-44416950D01*
X143601872Y-44412474D01*
X143666706Y-44255885D01*
X143978821Y-43502051D01*
X143985152Y-43495719D01*
X143991899Y-43495050D01*
X144613016Y-43617773D01*
G37*
%TD.AperFunction*%
%TD*%
%TA.AperFunction,Conductor*%
%TO.N,/NOFC*%
G36*
X140381674Y-57561816D02*
G01*
X140384923Y-57564109D01*
X140515890Y-57695076D01*
X140519317Y-57703349D01*
X140518641Y-57707268D01*
X140180893Y-58657292D01*
X140174893Y-58663939D01*
X140167601Y-58664851D01*
X139546983Y-58542226D01*
X139539531Y-58537261D01*
X139537773Y-58533016D01*
X139415148Y-57912396D01*
X139416906Y-57903617D01*
X139422704Y-57899107D01*
X140372731Y-57561358D01*
X140381674Y-57561816D01*
G37*
%TD.AperFunction*%
%TD*%
%TA.AperFunction,Conductor*%
%TO.N,/{slash}SCC.RW.DEC*%
G36*
X122560881Y-54635917D02*
G01*
X122563174Y-54639166D01*
X122996117Y-55549756D01*
X122996575Y-55558699D01*
X122992064Y-55564500D01*
X122466513Y-55916636D01*
X122457732Y-55918394D01*
X122453487Y-55916636D01*
X121927935Y-55564500D01*
X121922970Y-55557048D01*
X121923881Y-55549757D01*
X122356826Y-54639166D01*
X122363473Y-54633166D01*
X122367392Y-54632490D01*
X122552608Y-54632490D01*
X122560881Y-54635917D01*
G37*
%TD.AperFunction*%
%TD*%
%TA.AperFunction,Conductor*%
%TO.N,/{slash}SCC.RW.DEC*%
G36*
X124942830Y-45516235D02*
G01*
X124950258Y-45521234D01*
X124951977Y-45530022D01*
X124951508Y-45531690D01*
X124764696Y-46046924D01*
X124758655Y-46053534D01*
X124753697Y-46054636D01*
X124570103Y-46054636D01*
X124561830Y-46051209D01*
X124559104Y-46046924D01*
X124511444Y-45915478D01*
X124372291Y-45531688D01*
X124372692Y-45522744D01*
X124379302Y-45516703D01*
X124380956Y-45516237D01*
X124659582Y-45459869D01*
X124664218Y-45459869D01*
X124942830Y-45516235D01*
G37*
%TD.AperFunction*%
%TD*%
%TA.AperFunction,Conductor*%
%TO.N,/{slash}DTACK_SYS+EX*%
G36*
X137841674Y-57561816D02*
G01*
X137844923Y-57564109D01*
X137975890Y-57695076D01*
X137979317Y-57703349D01*
X137978641Y-57707268D01*
X137640893Y-58657292D01*
X137634893Y-58663939D01*
X137627601Y-58664851D01*
X137006983Y-58542226D01*
X136999531Y-58537261D01*
X136997773Y-58533016D01*
X136875148Y-57912396D01*
X136876906Y-57903617D01*
X136882704Y-57899107D01*
X137832731Y-57561358D01*
X137841674Y-57561816D01*
G37*
%TD.AperFunction*%
%TD*%
%TA.AperFunction,Conductor*%
%TO.N,/{slash}DTACK_SYS+EX*%
G36*
X137635885Y-43497005D02*
G01*
X137640573Y-43503346D01*
X137939096Y-44492993D01*
X137938205Y-44501903D01*
X137936168Y-44504645D01*
X137805223Y-44635590D01*
X137796950Y-44639017D01*
X137792474Y-44638127D01*
X136882052Y-44261178D01*
X136875719Y-44254847D01*
X136875050Y-44248100D01*
X136997773Y-43626981D01*
X137002738Y-43619531D01*
X137006980Y-43617774D01*
X137627104Y-43495247D01*
X137635885Y-43497005D01*
G37*
%TD.AperFunction*%
%TD*%
%TA.AperFunction,Conductor*%
%TO.N,/N$7*%
G36*
X139546509Y-66163361D02*
G01*
X139968976Y-66446427D01*
X140072064Y-66515499D01*
X140077029Y-66522951D01*
X140076117Y-66530243D01*
X139643174Y-67440834D01*
X139636527Y-67446834D01*
X139632608Y-67447510D01*
X139447392Y-67447510D01*
X139439119Y-67444083D01*
X139436826Y-67440834D01*
X139003882Y-66530243D01*
X139003424Y-66521300D01*
X139007934Y-66515499D01*
X139533488Y-66163362D01*
X139542268Y-66161605D01*
X139546509Y-66163361D01*
G37*
%TD.AperFunction*%
%TD*%
%TA.AperFunction,Conductor*%
%TO.N,/N$7*%
G36*
X140016749Y-80153776D02*
G01*
X140327513Y-80299153D01*
X140513173Y-80386006D01*
X140519214Y-80392616D01*
X140518813Y-80401562D01*
X140517964Y-80403072D01*
X140360815Y-80639934D01*
X140357534Y-80643215D01*
X140120672Y-80800364D01*
X140111884Y-80802083D01*
X140104455Y-80797083D01*
X140103606Y-80795573D01*
X140030797Y-80639934D01*
X139871376Y-80299151D01*
X139870976Y-80290207D01*
X139873700Y-80285924D01*
X140003523Y-80156101D01*
X140011795Y-80152675D01*
X140016749Y-80153776D01*
G37*
%TD.AperFunction*%
%TD*%
%TA.AperFunction,Conductor*%
%TO.N,Net-(U7-I4)*%
G36*
X121667268Y-42981358D02*
G01*
X121906505Y-43066410D01*
X122617293Y-43319106D01*
X122623939Y-43325106D01*
X122624851Y-43332398D01*
X122502226Y-43953016D01*
X122497261Y-43960468D01*
X122493016Y-43962226D01*
X121872398Y-44084851D01*
X121863617Y-44083093D01*
X121859107Y-44077293D01*
X121521358Y-43127268D01*
X121521816Y-43118325D01*
X121524106Y-43115079D01*
X121655077Y-42984108D01*
X121663349Y-42980682D01*
X121667268Y-42981358D01*
G37*
%TD.AperFunction*%
%TD*%
%TA.AperFunction,Conductor*%
%TO.N,Net-(U7-I4)*%
G36*
X118056382Y-38756906D02*
G01*
X118060893Y-38762707D01*
X118398641Y-39712731D01*
X118398183Y-39721674D01*
X118395890Y-39724923D01*
X118264923Y-39855890D01*
X118256650Y-39859317D01*
X118252731Y-39858641D01*
X117302707Y-39520893D01*
X117296060Y-39514893D01*
X117295148Y-39507603D01*
X117417773Y-38886981D01*
X117422738Y-38879531D01*
X117426980Y-38877774D01*
X118047603Y-38755148D01*
X118056382Y-38756906D01*
G37*
%TD.AperFunction*%
%TD*%
M02*
