<?xml version="1.0" encoding="UTF-8" standalone="no"?>
<!-- Created with Inkscape (http://www.inkscape.org/) -->

<svg
   version="1.1"
   id="svg1"
   width="216.92825"
   height="293.85684"
   viewBox="0 0 216.92825 293.85685"
   xml:space="preserve"
   xmlns="http://www.w3.org/2000/svg"
   xmlns:svg="http://www.w3.org/2000/svg"><defs
     id="defs1" /><path
     id="path7-3"
     clip-path="none"
     style="display:inline;opacity:1;fill-opacity:1;stroke:none;stroke-width:0.341186"
     d="m 138.82632,137.07128 c -0.89318,-0.0505 -3.63894,1.14325 -7.01562,2.76563 l 8.82031,29.26953 0.0703,0.0527 0.0644,-0.0527 8.40625,-27.90234 c -6.18394,4.22096 -8.6619,-3.14862 -10.11523,-4.07227 -0.0547,-0.0347 -0.13228,-0.055 -0.23047,-0.0606 z m 21.73633,0.26172 c -2.50533,2.3661 -5.42293,4.09285 -9.53516,4.40235 -0.065,-0.30315 -0.28056,-1.5391 -0.31836,-1.75196 -0.2275,0.20683 -0.45112,0.39794 -0.66992,0.57617 l 11.24219,36.85938 h -2.17578 c 0,0 -1.45849,-6.60567 -3.83399,-10.54492 -1.28655,-2.14662 -3.28158,-3.89795 -5.9414,-3.84961 -1.88077,0.037 -3.50636,1.06287 -5.5293,3.90039 -1.224,1.7045 -3.10352,6.03125 -3.10352,6.03125 0,0 -1.87791,-4.33244 -3.09765,-6.03125 -2.02862,-2.83752 -3.6542,-3.86343 -5.5293,-3.90039 -2.66266,-0.0484 -4.65307,1.70334 -5.94531,3.8457 -2.37407,3.94494 -3.83398,10.54883 -3.83398,10.54883 h -2.17188 l 11.41602,-37.44922 c -6.55714,3.16576 -15.61445,8.03302 -20.28711,10.03516 -1.60644,3.81286 -2.4961,8.00225 -2.4961,12.40039 0,17.6492 14.30429,31.95649 31.94922,31.95508 17.64779,0 31.95899,-14.30447 31.95899,-31.95508 0,-10.12759 -4.69386,-19.20314 -12.09766,-25.07227 z" /><g
     id="layer3"
     style="stroke-width:1.1;stroke-dasharray:none"
     transform="translate(-40.505707,-26.493171)"><path
       style="opacity:1;fill:none;stroke:#000000;stroke-width:1.1;stroke-dasharray:none;paint-order:markers stroke fill"
       d="m 172.50889,37.568602 c -4.69894,1.566312 -9.68018,2.966657 -14.34767,4.212561 -3.80212,0.887746 -13.44295,4.193123 -19.80629,2.602287 -8.20443,-2.051105 -24.66851,-13.95869 -31.66116,-3.469716 -3.21216,4.818238 -2.14079,9.33593 -0.43372,14.45715 3.31468,9.944038 25.33754,29.125655 2.60229,58.334596 3.74712,-0.41024 7.79535,-2.5663 11.52958,-3.68657"
       id="path3" /><path
       style="opacity:1;fill:none;stroke:#000000;stroke-width:1.1;stroke-dasharray:none;paint-order:markers stroke fill"
       d="m 125.05435,103.65777 c -6.0542,6.39172 -4.8702,21.06415 0.57828,29.78172"
       id="path4" /><path
       style="opacity:1;fill:none;stroke:#000000;stroke-width:1.1;stroke-dasharray:none;paint-order:markers stroke fill"
       d="m 129.53606,117.24749 c 1.1814,10.49789 11.9274,17.78312 14.7463,27.17944 19.48844,-12.6382 7.90677,-38.50962 -2.89143,-51.467456"
       id="path5" /><path
       style="opacity:1;fill:none;stroke:#000000;stroke-width:1.1;stroke-dasharray:none;paint-order:markers stroke fill"
       d="m 125.56228,133.09563 c 0.89111,-4.79405 3.5989,-7.81402 5.06,-11.7103"
       id="path6" /><path
       style="opacity:1;fill:none;stroke:#000000;stroke-width:1.1;stroke-dasharray:none;paint-order:markers stroke fill"
       d="m 168.62424,40.737654 c 5.16649,-0.834644 11.03446,-3.862515 14.92521,-7.10481 0.53367,3.919614 -1.96439,8.148142 -5.31582,9.404928"
       id="path7" /><path
       style="opacity:1;fill:none;stroke:#000000;stroke-width:1.1;stroke-dasharray:none;paint-order:markers stroke fill"
       d="m 171.02659,43.906706 c 5.03791,-0.70185 9.32663,1.168821 13.85182,2.300119 4.51054,1.127635 9.19418,1.861413 13.69849,2.862369"
       id="path8" /><path
       style="opacity:1;fill:none;stroke:#000000;stroke-width:1.1;stroke-dasharray:none;paint-order:markers stroke fill"
       d="m 194.73781,50.094025 c 6.0414,2.895912 10.14555,8.21069 8.38515,15.252293"
       id="path9" /><path
       style="opacity:1;fill:none;stroke:#000000;stroke-width:1.1;stroke-dasharray:none;paint-order:markers stroke fill"
       d="m 195.24381,58.262315 c 6.04974,4.345329 6.9682,18.317305 0.72286,22.480868 -3.46138,2.307585 -7.19297,4.143079 -10.98744,5.566003 0.31782,-3.018218 0.67403,-6.354237 0.28915,-9.433291 -2.74948,4.347587 -4.61569,9.875104 -9.36101,12.722292 -1.7125,1.027501 -3.63187,1.59732 -5.42143,2.313144 -2.22604,-4.508082 -4.31915,-9.487738 -5.89129,-14.20415"
       id="path10" /><path
       style="opacity:1;fill:none;stroke:#000000;stroke-width:1.1;stroke-dasharray:none;paint-order:markers stroke fill"
       d="m 147.20993,101.12776 c 7.38369,-5.00501 16.41078,7.0821 9.93929,13.55358"
       id="path11" /><path
       style="opacity:1;fill:none;stroke:#000000;stroke-width:1.1;stroke-dasharray:none;paint-order:markers stroke fill"
       d="m 152.19765,67.081176 c -11.21667,1.441486 -3.20319,31.058038 6.36114,26.27587 7.69286,-3.846426 2.55303,-25.751507 -6.36114,-26.27587 z"
       id="path12" /><path
       style="opacity:1;fill:none;stroke:#000000;stroke-width:1.1;stroke-dasharray:none;paint-order:markers stroke fill"
       d="m 110.40569,45.286777 c -0.10514,3.279821 2.54423,8.501574 6.74701,8.996019 -1.1921,2.699782 -1.30276,7.362429 -0.40891,10.222749 1.03477,-3.107749 3.86513,-5.79653 6.84924,-6.542559"
       id="path15" /><path
       style="opacity:1;fill:none;stroke:#000000;stroke-width:1.1;stroke-dasharray:none;paint-order:markers stroke fill"
       d="m 184.92953,37.057464 c 3.20066,-1.49288 14.65061,-11.458993 17.94092,-9.813838 8.78391,4.391953 5.46127,23.644756 1.58453,30.105995"
       id="path16" /><path
       style="opacity:1;fill:none;stroke:#000000;stroke-width:1.1;stroke-dasharray:none;paint-order:markers stroke fill"
       d="m 199.50867,79.658897 c 0.24315,4.413842 4.1975,30.861083 1.08429,33.974303 -8.24379,8.24379 -26.82466,1.5895 -36.64888,0.43371"
       id="path18" /><path
       style="opacity:1;fill:#000000;fill-opacity:1;stroke:#000000;stroke-width:1.1;stroke-dasharray:none;paint-order:markers stroke fill"
       d="m 197.78977,113.02927 c -1.17375,0.23937 -11.54334,-0.97952 -8.84268,-3.68019 1.43448,-1.43447 4.57531,-1.50809 6.41478,-2.19789 1.10322,-0.41371 3.86232,-1.83049 4.83025,-1.50785 3.41658,1.13886 0.30267,6.54062 -2.40235,7.38593 z"
       id="path19" /><path
       style="opacity:1;fill:none;stroke:#000000;stroke-width:1.1;stroke-dasharray:none;paint-order:markers stroke fill"
       d="m 134.32692,131.97569 c -6.09454,11.37601 -23.14022,32.81092 -12.57398,48.66028 1.83412,2.75118 6.97854,3.43816 9.71161,4.80469 13.77775,-4.94159 34.1761,-17.26273 48.50695,-21.67223"
       id="path20" /><path
       style="opacity:1;fill:none;stroke:#000000;stroke-width:1.1;stroke-dasharray:none;paint-order:markers stroke fill"
       d="m 139.43921,158.88408 c 18.12559,-6.64683 53.1875,-26.20447 64.33432,1.66257 -0.79628,1.96306 -3.06022,3.40233 -4.32756,4.24723"
       id="path23" /><path
       style="opacity:1;fill:none;stroke:#000000;stroke-width:1.1;stroke-dasharray:none;paint-order:markers stroke fill"
       d="m 195.35224,159.82379 c 1.36445,0.86134 2.94343,3.86022 4.01186,5.81901 -2.32213,2.10791 -4.76834,2.61024 -7.77072,3.07214"
       id="path24" /><path
       style="opacity:1;fill:none;stroke:#000000;stroke-width:1.1;stroke-dasharray:none;paint-order:markers stroke fill"
       d="m 188.62966,161.12494 c 0.6709,1.07857 1.47388,3.56718 1.98561,5.27295 -0.99217,1.47027 -5.38151,3.1855 -6.95525,2.13634 -1.15551,-0.77035 -3.38481,-3.9489 -4.22555,-4.90974"
       id="path25" /><path
       style="opacity:1;fill:none;stroke:#000000;stroke-width:1.1;stroke-dasharray:none;paint-order:markers stroke fill"
       d="m 155.15577,138.44158 c -0.39769,4.00431 -2.06473,9.07948 -2.40235,13.46847"
       id="path26" /><path
       style="opacity:1;fill:none;stroke:#000000;stroke-width:1.1;stroke-dasharray:none;paint-order:markers stroke fill"
       d="m 172.9798,122.34363 c 0.35138,0.91657 0.66692,1.84958 0.90357,2.63843 4.0202,1.59771 8.68766,3.54036 12.03558,6.14429 -4.71069,1.78721 -6.14294,4.32973 -6.86715,5.49372"
       id="path27" /><path
       style="opacity:1;fill:none;stroke:#000000;stroke-width:1.1;stroke-dasharray:none;paint-order:markers stroke fill"
       d="m 174.28094,134.7045 c 2.37552,1.42283 5.69486,5.64614 6.72258,9.07186"
       id="path28" /><path
       style="opacity:1;fill:none;stroke:#000000;stroke-width:1.1;stroke-dasharray:none;paint-order:markers stroke fill"
       d="m 201.24353,117.28363 c -0.049,4.67206 0.54503,12.76422 -3.39743,15.83058"
       id="path29" /><path
       style="opacity:1;fill:none;stroke:#000000;stroke-width:1.1;stroke-dasharray:none;paint-order:markers stroke fill"
       d="m 175.47366,118.65706 c 0.35687,1.41281 0.8013,2.83968 1.22886,4.26486 13.92784,4.0534 21.92108,17.13137 30.66594,28.37476"
       id="path30" /><path
       style="display:inline;opacity:1;fill:none;stroke:#000000;stroke-width:1.1;stroke-dasharray:none;paint-order:markers stroke fill"
       d="m 206.09062,157.27699 c 2.01225,-2.59477 14.37998,-17.95799 13.28957,-20.13881 -1.44661,-2.89323 -4.71521,-5.80521 -6.59367,-7.87152 -1.34488,-2.0328 -0.7514,-5.12414 0.0589,-7.39288 2.30351,0.11474 4.58239,0.23156 6.61412,1.48185"
       id="path2" /><path
       style="display:inline;opacity:1;fill:#000000;fill-opacity:1;stroke:#000000;stroke-width:1.1;stroke-dasharray:none;paint-order:markers stroke fill"
       d="m 236.96331,105.2432 c 3.87764,2.761 9.09993,-5.03042 12.84922,-2.32492 9.46646,6.83099 5.77521,24.38178 -2.63099,29.23192 -2.97153,1.71449 -6.70028,-2.66479 -9.24707,-1.2479 -21.3548,11.88066 -23.69213,-41.837113 -0.97116,-25.6591 z"
       id="path13" /><path
       style="opacity:1;fill:none;stroke:#000000;stroke-width:1.1;stroke-dasharray:none;paint-order:markers stroke fill"
       d="m 240.13326,102.35662 c 3.7823,-7.317548 10.24373,-9.176435 16.69801,-5.204571 -0.4342,2.636873 -1.94146,3.896591 -3.68657,5.060001"
       id="path22" /><path
       style="opacity:1;fill:none;stroke:#000000;stroke-width:1.1;stroke-dasharray:none;paint-order:markers stroke fill"
       d="m 238.10926,102.93491 c 0.20108,-5.467638 -1.02164,-11.433678 -2.74686,-16.264295 1.38481,-0.299618 2.54525,-1.010387 3.68658,-1.662573 0.41876,4.081444 0.91547,8.214208 1.15657,12.071721"
       id="path31" /><path
       style="opacity:1;fill:none;stroke:#000000;stroke-width:1.1;stroke-dasharray:none;paint-order:markers stroke fill"
       d="m 251.27517,132.3846 c -11.1945,7.87467 -17.31657,27.20157 -25.55688,39.56204 -2.84363,4.27167 -6.49814,8.99793 -11.14279,10.32497"
       id="path32" /><path
       style="opacity:1;fill:none;stroke:#000000;stroke-width:1.1;stroke-dasharray:none;paint-order:markers stroke fill"
       d="m 136.76464,187.22009 c 3.92702,10.93682 -29.36583,49.22827 -48.286882,31.08288 -23.191282,-22.24057 14.030572,-57.25032 -23.420583,-57.25032 -47.326105,0 -20.742195,115.25772 45.540025,82.11661 9.27777,-4.63888 18.83777,-12.06464 24.28801,-20.24001"
       id="path33" /><path
       style="opacity:1;fill:none;stroke:#000000;stroke-width:1.1;stroke-dasharray:none;paint-order:markers stroke fill"
       d="m 133.40687,214.67773 c 6.13534,6.52957 19.03083,11.29355 29.23706,14.20962"
       id="path34" /><path
       style="opacity:1;fill:none;stroke:#000000;stroke-width:1.1;stroke-dasharray:none;paint-order:markers stroke fill"
       d="m 153.54569,228.27398 c -6.37935,9.37291 -16.8677,22.35892 -23.10341,33.93953 -3.63701,15.66313 -10.19271,31.02313 -14.61854,46.51351 0.49321,4.27645 3.98396,5.55803 6.95147,7.15592"
       id="path35" /><path
       style="opacity:1;fill:none;stroke:#000000;stroke-width:1.1;stroke-dasharray:none;paint-order:markers stroke fill"
       d="m 135.31892,305.84101 c -0.43757,10.63353 -2.6057,18.00322 -11.15468,11.53365 -0.11024,-3.03266 0.55151,-6.39661 1.32382,-9.29279"
       id="path36" /><path
       style="display:inline;opacity:1;fill:none;stroke:#000000;stroke-width:1.1;stroke-dasharray:none;paint-order:markers stroke fill"
       d="m 134.83806,317.41635 c 1.68528,0.80062 4.11853,-0.75361 5.5714,-1.94232 3.30159,-11.81584 4.35548,-26.11789 6.85801,-37.79635 23.14596,-15.00526 43.93275,-32.52716 57.15663,-58.07357 -0.41663,-1.69473 -1.54595,-3.49064 -2.31314,-4.91543"
       id="path38" /><path
       style="opacity:1;fill:none;stroke:#000000;stroke-width:1.1;stroke-dasharray:none;paint-order:markers stroke fill"
       d="m 171.9678,261.52984 c 2.17525,2.93659 4.16997,10.11319 5.49372,14.7463 7.16282,7.80171 18.53266,11.59323 26.09515,19.15572 2.22562,2.22562 7.00044,8.3332 9.75858,9.25258 2.39455,0.79818 6.51968,-0.35709 8.38515,-1.15657 0.86373,-4.71656 0.67971,-8.58359 -4.62629,-11.05972"
       id="path39" /><path
       style="opacity:1;fill:none;stroke:#000000;stroke-width:1.1;stroke-dasharray:none;paint-order:markers stroke fill"
       d="m 224.66411,291.88986 c 4.47029,1.19208 5.7065,7.2012 3.68658,11.52958 -1.20807,0.46084 -2.65149,0.76884 -4.04801,1.04814"
       id="path40" /><path
       style="display:inline;opacity:1;fill:none;stroke:#000000;stroke-width:1.1;stroke-dasharray:none;paint-order:markers stroke fill"
       d="m 231.04793,301.01327 c 1.1557,0.10721 3.15236,-1.27546 4.35469,-2.80567 1.86836,-7.25286 -25.6579,-25.27087 -32.71338,-28.79861 -2.18175,-1.09088 -4.09035,-4.87529 -4.26485,-6.79486 7.0885,-14.25731 15.39353,-22.22346 22.39212,-45.31569 -1.88946,-5.53137 -4.36294,-10.21928 -8.04341,-14.71763"
       id="path41" /><path
       style="opacity:1;fill:none;stroke:#000000;stroke-width:1.1;stroke-dasharray:none;paint-order:markers stroke fill"
       d="m 203.84581,76.912039 c 0.10294,2.370484 3.02133,8.440501 4.62629,11.421148 -2.96503,0.137697 -3.68047,0.749846 -4.91543,2.602287"
       id="path42" /><path
       style="opacity:1;fill:#000000;fill-opacity:1;stroke:none;stroke-width:1.1;stroke-dasharray:none;paint-order:markers stroke fill"
       d="m 161.5625,78.90625 c -0.1825,-1.128063 -0.0477,-3.204941 -1.02367,-4.428347 -7.20204,-9.027659 -10.97413,3.370247 -7.60133,10.115847 4.84996,9.699929 10.95698,2.474438 8.625,-5.6875 z"
       id="path46" /></g></svg>
